<?xml version="1.0" encoding="UTF-8"?>
<!--
Copyright (C) 2018 by eHealth Africa : http://www.eHealthAfrica.org

See the NOTICE file distributed with this work for additional information
regarding copyright ownership.

Licensed under the Apache License, Version 2.0 (the "License");
you may not use this file except in compliance with
the License.  You may obtain a copy of the License at

  http://www.apache.org/licenses/LICENSE-2.0

Unless required by applicable law or agreed to in writing,
software distributed under the License is distributed on an
"AS IS" BASIS, WITHOUT WARRANTIES OR CONDITIONS OF ANY
KIND, either express or implied.  See the License for the
specific language governing permissions and limitations
under the License.
-->

<svg width="49px" height="50px" viewBox="0 0 49 50" version="1.1" xmlns="http://www.w3.org/2000/svg" xmlns:xlink="http://www.w3.org/1999/xlink">
  <g stroke="none" stroke-width="1" fill="none" fill-rule="evenodd">
    <g transform="translate(-1604.000000, -16.000000)" fill-rule="nonzero" fill="#FFFFFF">
      <g transform="translate(1604.000000, 16.000000)">
        <g>
          <path d="M18.8551948,24.9435921 L18.8626926,24.861619 L18.9316725,24.8555243 L18.9718608,24.7308887 L19.0849278,24.614176 L19.1215171,24.6510487 L19.1332137,24.8049387 L19.0561362,25.0152043 L18.9547658,24.9999677 L18.8551948,24.9435921 Z M17.9686537,26.6644178 L17.909271,26.7034236 L17.8672833,26.6955005 L17.8516878,26.5958529 L17.9131699,26.5278975 L18.0067426,26.5864062 L17.9686537,26.6644178 Z M7.95307793,22.7287947 L7.88139886,22.68278 L7.8679028,22.6352417 L7.89009632,22.5941028 L7.94647986,22.6075111 L7.98966725,22.6584014 L7.9980648,22.7324515 L7.95307793,22.7287947 Z M19.9210836,7.81456588 L19.8368082,7.74965781 L19.8527036,7.70882363 L19.9489755,7.70882363 L19.9891637,7.75758086 L19.9210836,7.81456588 Z M48.8023511,27.7565798 L36.4675525,27.7565798 L36.4432596,27.7651124 L36.3808778,27.8342867 L36.4129685,27.8867007 L36.2309216,27.9519135 L36.1349496,28.088129 L35.9786953,28.088129 L35.9127145,28.1103745 L35.9028174,28.1490756 L35.8269396,28.238667 L35.8227408,28.3035751 L35.8566309,28.3300868 L35.7687566,28.4684355 L35.6826817,28.5760061 L35.6826817,28.6982039 L35.6044046,28.8688543 L35.4127605,29.1534746 L35.3005933,29.2000987 L35.2541068,29.1988798 L35.2346125,29.1982703 L35.260405,29.2287436 L35.2703021,29.3119356 L35.2346125,29.3649591 L35.1206458,29.7227154 L35.0324715,29.9485223 L35.0384698,30.0722438 L35.1887259,30.2041931 L35.3005933,30.3324855 L35.3704729,30.3224293 L35.4406524,30.5217245 L35.4106611,30.5844995 L35.366574,30.5701771 L35.3023927,30.6131444 L35.2703021,30.7432652 L35.2801992,30.9425604 L35.3605757,31.0214862 L35.3467798,31.1476456 L35.2745009,31.2085921 L35.2924956,31.3283521 L35.3506786,31.470967 L35.3206874,31.4791948 L35.352778,31.5441028 L35.3746716,31.6498451 L35.4364536,31.704697 L35.3845687,31.7918505 L35.434954,31.8531018 L35.4886384,32.0136959 L35.4703437,32.0950596 L35.6586887,32.2800323 L35.7966484,32.3004494 L35.911215,32.3985734 L35.911215,32.4515969 L35.9250109,32.4604341 L35.9630998,32.4842033 L35.9430057,32.6106673 L35.9151138,32.6761849 L35.9430057,32.7005635 L35.8350372,32.8593292 L35.8227408,32.916619 L35.8428349,32.9574532 L35.8506327,32.9900596 L35.8107443,33.030589 L35.8350372,33.2222659 L35.8950197,33.336236 L35.8629291,33.3691471 L35.8629291,33.5078005 L35.8929203,33.5404069 L35.8965193,33.6744893 L35.8407356,33.7314743 L35.8605298,33.8737845 L35.8227408,34.1404256 L35.8008472,34.1419493 L35.8305385,34.1870497 L35.8329378,34.4287028 L35.7525613,34.4411968 L35.7486624,34.4716701 L35.7768542,34.5100664 L35.8827233,34.5143327 L35.9109151,34.5365781 L35.9349081,34.7459295 L35.8806239,34.82516 L35.8245403,34.8535002 L35.8590302,34.9019527 L35.8428349,34.9549762 L35.7744549,34.9549762 L35.6982771,35.032683 L35.7183713,35.0613279 L35.7423643,35.0406061 L35.8107443,35.0488338 L35.7624584,35.1183129 L35.7507618,35.2283214 L35.6823818,35.240206 L35.5657158,35.3913534 L35.5657158,35.4565662 L35.4616462,35.6034474 L35.373472,35.6156367 L35.3812697,35.7177222 L35.0282728,35.9130558 L34.976088,35.9173221 L34.9478962,35.9947242 L34.6101948,36.1769544 L34.4803327,36.1611083 L34.4743345,36.1891437 L34.3201795,36.2625843 L34.1063419,36.4048945 L34.0541572,36.3701549 L34.0520578,36.4371961 L33.9221957,36.598095 L33.8580144,36.6264351 L33.8199256,36.5408052 L33.798032,36.681287 L33.7359501,36.6974379 L33.715856,36.7788015 L33.5020184,36.9067892 L33.4978196,36.9619459 L33.441736,37.0103984 L33.3919505,37.0268539 L33.3979488,37.1021229 L33.273785,37.1060844 L32.989768,37.2995897 L33.0056633,37.4217875 L32.9135902,37.4909619 L32.7849278,37.4909619 L32.7330429,37.5604409 L32.6325722,37.4952281 L32.5764886,37.5031512 L32.5764886,37.5479469 L32.6283735,37.6095029 L32.6244746,37.6951328 L32.5845863,37.7478515 L32.6004816,37.8295199 L32.544398,37.9148451 L32.6967535,38.1229775 L32.7006524,38.1964181 L32.6325722,38.2534031 L32.6850569,38.2777818 L32.7411405,38.3719442 L32.7450394,38.4981035 L32.8077211,38.6166445 L32.7816287,38.9539837 L32.81162,39.0719152 L32.8497088,39.0661253 L32.8497088,38.9725724 L32.9096913,38.8421467 L32.917789,38.9561168 L32.9435814,38.9518505 L32.9375832,39.098427 L32.8934961,39.1544978 L32.8853984,39.301379 L32.9093914,39.3217961 L32.8455101,39.4930558 L32.8455101,39.5826473 L32.7972242,39.6438985 L32.7894264,39.753907 L32.7609348,39.753907 L32.7810289,39.8477647 L32.8617053,39.7987028 L32.8797001,39.8608682 L32.8137194,39.9623442 L32.7816287,40.1006929 L32.5875854,40.3100443 L32.2432859,40.4685053 L31.777222,40.5620582 L31.599074,40.7348417 L31.4629137,40.7692765 L31.4230254,40.8344893 L31.3552452,40.8893412 L31.3171563,41.0215952 L31.2628722,41.019462 L31.2130867,41.0542016 L31.2349803,41.0825417 L31.2871651,41.1818846 L31.2811668,41.2775707 L31.3291528,41.2147957 L31.4053306,41.2388696 L31.4290236,41.1477545 L31.4629137,41.1413551 L31.4671125,41.1922455 L31.444919,41.3440024 L31.3927342,41.4338985 L31.3897351,41.5170906 L31.3888354,41.543907 L31.3243542,41.6292322 L31.3567447,41.6417263 L31.2922636,41.8373647 L31.2763682,42.0046629 L31.1968914,42.1658665 L31.1453065,42.3733895 L31.0688288,42.4666377 L31.0451357,42.5623238 L30.8987785,42.7375451 L30.8528919,42.7375451 L30.8208012,42.7841692 L30.7128327,42.8350596 L30.6630473,42.8978345 L30.5349847,42.9813313 L30.4699037,43.109319 L30.3655342,43.2318216 L30.3655342,43.2848451 L30.3052518,43.3988151 L30.205081,43.4030814 L30.1247045,43.5621519 L29.9039689,43.9369731 L29.7345184,44.101224 L29.7063266,44.2514573 L29.6082553,44.2944246 L29.5143827,44.4083946 L29.4603984,44.410223 L29.4364054,44.4528856 L28.8821673,45.0078039 L28.8140871,45.0199932 L28.8161865,45.0489428 L28.7259129,45.1504188 L28.3621191,45.388415 L28.2841419,45.4755686 L28.1560792,45.5142697 L28.1560792,45.5490092 L27.9527386,45.6032516 L27.8363726,45.6760827 L27.7170074,45.6870531 L27.6591243,45.6425621 L27.4971716,45.6489615 L27.3628109,45.6901004 L27.3061274,45.7894433 L27.3859041,45.8567892 L27.3790061,45.8851294 L27.1939602,45.8893956 L27.0850919,45.8327154 L26.9987172,45.8235734 L26.924039,45.900366 L26.9561296,45.9680167 L26.9222395,46.0012326 L26.6676138,45.9460759 L26.5953349,45.8903098 L26.3512062,45.8272302 L26.191053,45.8598366 L26.1892535,45.8982329 L26.105278,45.9287062 L25.9811143,45.861665 L25.6970972,45.8598366 L25.6128218,45.8982329 L25.5870293,45.9878243 L25.5309457,45.9613126 L25.464965,45.9799013 L25.406782,46.0283538 L25.3746913,46.0713211 L25.2487281,46.0795489 L25.166852,46.1161168 L25.0105976,46.0591318 L24.8786362,46.0670548 L24.8525438,46.1060606 L24.7244812,46.0774157 L24.6108144,46.2096697 L24.5145425,46.227649 L24.4806524,46.3047463 L24.4245687,46.284634 L24.3744834,46.3093173 L24.1102605,46.183158 L24.0565762,46.2157644 L24.050278,46.0856435 L23.9501073,46.03262 L23.8742294,46.0713211 L23.824144,46.0487709 L23.8682312,46.0125077 L23.8403393,45.900366 L23.7161756,45.8781205 L23.6280013,45.957351 L23.6342995,46.0569986 L23.5662194,46.0061083 L23.5602211,45.8964045 L23.59831,45.8046799 L23.574317,45.6687692 L23.646296,45.5490092 L23.5521235,45.375921 L23.4582509,45.2905958 L23.3781743,45.1504188 L23.3781743,45.0120701 L23.433958,44.9593514 L23.4861427,45.0138985 L23.5338288,45.0138985 L23.5959107,44.9447242 L23.6280013,44.7783401 L23.5704181,44.5973289 L23.5803152,44.5159653 L23.4276598,44.2590756 L23.423461,44.1408393 L23.2747045,43.9452009 L23.2069243,43.6313262 L23.094757,43.3336023 L23.0986559,43.1827596 L22.9861887,42.8524293 L22.8137391,42.72627 L22.7855473,42.5510487 L22.7816484,42.5483061 L22.6008012,42.4163568 L22.5729094,42.3429162 L22.4445468,42.2124906 L22.3158844,41.955601 L22.2196125,41.8212138 L22.2097154,41.6127766 L22.12544,41.5195284 L22.12544,41.4098247 L22.1815236,41.3650289 L22.1338376,41.2693429 L22.0615587,41.2309465 L22.0231699,40.9484593 L21.9589886,40.8670957 L22.0351664,40.8180337 L21.9868805,40.6629248 L22.0030757,40.4346799 L21.8465215,40.0107967 L21.8303262,39.5948366 L21.7541484,39.3175298 L21.8225285,39.2891896 L21.8225285,39.0649064 L21.5418104,38.6532125 L21.5418104,38.502065 L21.2766878,38.119016 L21.2364996,37.8782772 L20.9740762,37.2794774 L20.8052255,36.985715 L20.491817,36.6590415 L20.4630254,36.1991999 L20.4597264,36.1446527 L20.4837194,35.9727835 L20.4756217,35.7116275 L20.4999146,35.540063 L20.4999146,35.3444246 L20.6444724,35.1646323 L20.676563,34.9604614 L20.8052255,34.7888968 L20.8052255,34.3558716 L20.8535114,34.3153422 L20.8613091,34.1355499 L21.1507246,33.8743939 L21.1588222,33.7436636 L21.3918542,33.5638713 L21.4560355,33.5638713 L21.6650744,33.164062 L21.6650744,32.6902026 L21.6005933,32.6085342 L21.6089908,32.5186381 L21.4080495,32.1840415 L21.4080495,32.0450834 L21.327373,31.9143531 L21.327373,31.7184099 L21.2311011,31.6696527 L21.3999518,31.4493309 L21.4236449,31.2369322 L21.2634917,31.008078 L21.2529947,30.5881563 L20.9596804,30.2541692 L20.9596804,30.1767671 L20.9035968,30.107288 L21.0562522,30.0219629 L20.991771,29.9729009 L20.8391156,29.9689394 L20.8115236,29.9058597 L20.783032,29.8424753 L20.8436143,29.7282005 L20.8073249,29.5733963 L20.7431436,29.5020889 L20.6828612,29.4344382 L20.6867601,29.3286959 L20.6024847,29.2348383 L20.5985858,29.1370191 L20.4381327,29.0352383 L20.4018433,28.9657593 L20.2968739,28.8621502 L20.2734807,28.8392952 L20.1814076,28.8027273 L20.1652123,28.7128311 L19.9726686,28.6192782 L19.9246826,28.5007371 L19.683553,28.3054035 L19.5392951,28.1502945 L19.5794834,28.1219544 L19.4430232,28.0073749 L19.3866397,27.8812155 L19.306863,27.7995472 L19.306863,27.6365152 L19.2102912,27.5100511 L19.2102912,27.4247259 L19.1500088,27.3756639 L19.0378415,27.1391914 L19.0456392,27.0822063 L19.1740018,27.127002 L19.2744724,27.0413721 L19.2984654,26.743953 L19.3146607,26.5928056 L19.3746432,26.6540569 L19.6073752,26.5970718 L19.4430232,26.5562377 L19.3383538,26.3849779 L19.4508209,26.3685223 L19.4577189,26.2408393 L19.4589186,26.2094518 L19.3266572,26.1402775 L19.4589186,25.8836925 L19.6274694,25.6917109 L19.5872811,25.5978533 L19.608275,25.5768267 L19.6919505,25.4918063 L19.6154729,25.4104426 L19.6877518,25.223032 L19.6676576,25.0148996 L19.5713857,24.8765509 L19.5713857,24.7254035 L19.6073752,24.6562291 L19.5272986,24.5258035 L19.3707443,24.5949779 L19.3224584,24.5379928 L19.2300854,24.5258035 L19.166204,24.1954733 L19.0819286,24.240269 L19.0099496,24.2055295 L19.0057509,24.2037011 L18.9655626,24.2280797 L18.8692907,24.1262989 L18.816806,24.2771416 L18.6806458,24.3054818 L18.6002693,24.2686091 L18.3555407,24.3585053 L18.279063,24.3262036 L18.1749934,24.3911117 L17.6612434,24.4197566 L17.4686996,24.3667331 L17.3322395,24.240269 L17.2719571,24.0528584 L17.1999781,24.0162904 L17.203877,23.8447259 L17.0713157,23.5838747 L16.8547789,23.3678192 L16.4657925,23.1599915 L16.2972417,23.2291658 L16.0900022,23.1846748 L16.0684085,23.1801038 L15.7031151,23.3065679 L15.5132706,23.2812751 L15.4583866,23.2739615 L15.1734698,23.4534491 L15.1287828,23.4595438 L14.840567,23.4985495 L14.5877408,23.6207474 L14.3106217,23.8569152 L13.9897154,23.8858648 L13.5323489,24.1098434 L13.3236099,24.0162904 L13.0386931,23.9751515 L13.0114011,23.9251753 L12.9343236,23.7837794 L12.8341528,23.808158 L12.8101598,23.9428498 L12.5654313,23.8243088 L12.3003087,23.9102434 L11.5982137,23.914205 L11.3975722,23.9428498 L11.3936734,23.9958733 L11.02838,24.134222 L10.9881918,24.1872455 L10.8721257,24.1872455 L10.6873796,24.3502775 L10.6369943,24.3316888 L10.1133472,24.1381835 L9.70846541,23.8325366 L9.59599825,23.8203473 L9.26699431,23.4860555 L9.24420096,23.4705141 L9.24390105,23.4705141 L9.04595884,23.3349081 L8.96588222,23.3309465 L8.82942207,23.1356129 L8.74124781,23.094474 L8.78143608,23.0170718 L8.76494089,23.0079299 L8.70105954,22.9722761 L8.50041813,22.9722761 L8.21640105,22.8229571 L8.09643608,22.7924838 L8.12642732,22.727271 L8.05024956,22.6401175 L7.98426883,22.5752094 L8.02835595,22.4813517 L8.02445709,22.4569731 L7.91828809,22.4975026 L7.8004225,22.3673817 L7.8004225,22.2457933 L7.74613835,22.0754477 L7.64566769,22.0589922 L7.60547942,21.9733623 L7.67775832,21.8350136 L7.60158056,21.7938747 L7.60937828,21.7125111 L7.66576182,21.6104256 L7.65886384,21.6049404 L7.58148643,21.5409465 L7.43692863,21.4635444 L7.39704028,21.3005124 L7.28457312,21.2965509 L7.23628722,21.2477937 L7.24048599,21.1621638 L7.28067426,21.1213296 L7.19220009,21.0804954 L7.1442141,21.1496697 L7.06383757,21.1170633 L6.94327277,21.1091403 L6.82300788,20.941842 L6.87129378,20.7422421 L6.78701839,20.6483844 L6.77712128,20.6514317 L6.65055823,20.6889139 L6.62656524,20.6563075 L6.63436296,20.566716 L6.40972855,20.5913994 L6.53419221,20.452746 L6.47390981,20.4484797 L6.50600044,20.3994178 L6.45801445,20.346699 L6.36954028,20.3345097 L6.33744965,20.2894093 L6.60257224,20.2854477 L6.64635946,20.2528413 L6.50210158,20.1714777 L6.37373905,20.1998178 L6.2372789,20.2488798 L6.1769965,20.2363858 L6.14910464,20.1794007 L6.04053634,20.1714777 L5.94426445,20.0733538 L6.04053634,19.9999132 L5.96855736,19.9919901 L5.79190893,19.9834576 L5.7478218,19.902094 L5.7478218,19.8996561 L5.75172067,19.796047 L5.7115324,19.7594791 L5.80000657,19.7841624 L5.85609019,19.8045795 L5.97245622,19.7311389 L5.79190893,19.6656214 L5.67164405,19.7311389 L5.64345228,19.69 L5.69563704,19.633015 L5.69563704,19.4702877 L5.63535464,19.3925809 L5.72772767,19.2987232 L5.83599606,19.4373766 L5.98055385,19.4331103 L6.06063047,19.3557082 L5.94036559,19.3883146 L5.80390543,19.3191403 L5.77811296,19.2380814 L5.76371716,19.1926762 L5.83599606,19.1399574 L5.70343476,19.0543275 L5.7478218,19.045795 L5.7478218,18.9357865 L5.64735114,18.9193309 L5.53098511,18.711808 L5.35043783,18.5649268 L5.68364054,18.2550136 L5.8201007,18.0020855 L5.87228546,17.6068471 L5.95626095,17.2725553 L6.08462347,17.0891062 L6.12091287,16.7014862 L6.01654335,16.1432159 L5.86418783,15.9064385 L5.92447023,15.8616428 L5.99674912,15.8616428 L6.03273862,15.6784985 L5.99255035,15.5642237 L6.06063047,15.4950494 L5.90827496,15.2625383 L5.8440937,15.3152571 L5.80000657,15.2908784 L5.75591944,15.1604528 L5.6392535,15.29484 L5.63145578,15.0870123 L5.68364054,14.9690807 L5.67164405,14.769176 L5.72772767,14.6545965 L5.71963004,14.5202094 L5.79580779,14.4388458 L5.85998905,14.4223902 L6.02853984,14.1085155 L6.12091287,14.0719476 L6.05673161,14.0228856 L6.06482925,13.9698621 L6.27746716,13.6846323 L6.26547067,13.6029639 L6.39773205,13.3095063 L6.47390981,13.2686721 L6.72283713,13.0321995 L6.74293126,12.8770906 L7.06803634,12.3962223 L7.0236493,12.2575689 L7.16820709,12.1719391 L7.2044965,12.0658921 L7.5736887,11.8702537 L7.66966068,11.8659874 L7.66966068,11.6541982 L7.87540061,11.3625689 L8.0028634,11.181253 L8.52051226,11.083129 L8.88970447,10.7448757 L9.05825525,10.7287249 L9.21061077,10.5614266 L9.24660026,10.4105839 L9.57980298,10.0272302 L9.61579247,9.87242594 L9.55580998,9.79502383 L9.51172285,9.74992339 L9.57980298,9.55032346 L9.49162872,9.37083589 L9.49942644,9.25259959 L9.63618651,8.96706503 L9.84882443,8.77142663 L9.86322023,8.64130575 L9.77924475,8.45419986 L10.0209742,8.27745489 L10.0950525,8.16165645 L10.2252145,8.11899387 L10.4354532,7.97668369 L10.4912369,7.97455056 L10.6372942,7.81608955 L10.833437,7.74904835 L10.9495031,7.66555158 L11.0055867,7.66128533 L11.2473161,7.43395472 L11.3174956,7.29377766 L11.3417885,7.07193224 L11.4554553,6.91956588 L11.4779488,6.62702247 L11.5781195,6.5127477 L11.6623949,6.52097549 L11.7070819,6.47983657 L11.8090521,6.44326864 L11.8411427,6.48379809 L11.8210486,6.5145761 L11.8210486,6.57521791 L11.8453415,6.66054307 L11.9032246,6.70533878 L12.049282,6.8637998 L12.1653481,6.88848315 L12.3252014,6.8637998 L12.4373687,6.80498638 L12.5255429,6.81108104 L12.6955933,6.85800987 L12.8656436,6.82327034 L12.9598161,6.71966122 L12.9628152,6.71844229 L13.0003043,6.73093633 L13.0293958,6.83332652 L13.0956764,6.90250085 L13.3958888,6.92687947 L13.4714667,6.92352741 L13.6139251,6.91682329 L13.7758778,6.8637998 L13.8778481,6.75226762 L13.8961427,6.68705482 L13.9621235,6.62610827 L14.0877868,6.5612002 L14.2380429,6.55083929 L14.2680342,6.50817671 L14.3241178,6.46734253 L14.3999956,6.46551413 L14.4338857,6.49812053 L14.4920687,6.49812053 L14.5583494,6.41066224 L14.5643476,6.32716547 L14.6903109,6.24793497 L14.7643892,6.24610657 L14.9131458,6.22477528 L15.1698708,6.02487062 L15.2862369,6.04102145 L15.4910771,6.0330984 L15.6032443,5.99226422 L15.727708,6.06143854 L15.8080845,6.0657048 L15.9445447,5.93101294 L16.0447154,5.97184712 L16.1571826,5.97184712 L16.2093673,5.86183861 L16.2777474,5.84538304 L16.3737194,5.87829418 L16.4259041,5.86580014 L16.5383713,5.8822557 L16.6787303,5.85787709 L16.7429116,5.87829418 L16.8871694,5.88621723 L16.9555495,5.99653047 L17.0761143,5.99653047 L17.1843827,5.91059585 L17.2683581,5.91059585 L17.3367382,5.93924072 L17.3850241,5.85787709 L17.4932925,5.83715526 L17.5013901,5.76401941 L17.6255539,5.73537453 L17.7020315,5.79235955 L17.714028,5.87829418 L17.8945753,5.89840654 L17.9866484,5.80881512 L17.9911471,5.7518301 L18.135405,5.80485359 L18.251771,5.90663432 L18.4767053,5.84142152 L18.556782,5.85787709 L18.7052386,5.82923221 L18.7331305,5.86153388 L18.7334304,5.86183861 L18.8695906,5.73964079 L19.0621344,5.64151685 L19.2027933,5.61317671 L19.258877,5.69057882 L19.2630757,5.62140449 L19.3794418,5.59672114 L19.4475219,5.65797242 L19.4355254,5.7518301 L19.4877102,5.77194246 L19.5677868,5.95539156 L19.6199715,5.98830269 L19.6844527,5.91882363 L19.8727977,5.74360232 L19.9210836,5.78017024 L19.9210836,5.88621723 L19.8167141,6.04528771 L19.8086165,6.14310691 L19.6802539,6.23300306 L19.6562609,6.37561798 L19.7846235,6.55083929 L19.9411778,6.61209057 L19.9372789,6.78731188 L19.9771673,6.81595676 L19.9972614,6.89335887 L19.9411778,6.95461015 L19.9852649,7.01555669 L19.9450766,7.06461866 L19.7924212,7.21942288 L19.5278984,7.40713824 L19.4757137,7.56620872 L19.5599891,7.72101294 L19.7285398,7.83924923 L19.8047176,7.8230984 L19.8290105,7.90446204 L19.9009895,7.93706844 L19.9411778,7.90446204 L19.9330801,7.86362785 L19.9651708,7.83924923 L20.0455473,7.88404494 L20.0494461,7.96144705 L20.0656414,8.01873681 L20.2218958,8.11625128 L20.2845775,8.12905005 L20.4066419,8.15312394 L20.5068126,8.25094314 L20.7677364,8.30792816 L21.1408275,8.23875383 L21.3054794,8.30427137 L21.5984939,8.31219442 L21.7790412,8.43043071 L22.1200416,8.47949268 L22.252303,8.65867552 L22.2484041,8.82566905 L22.413056,9.14807627 L22.5897045,9.23766769 L22.7942447,9.23766769 L22.8503284,9.20506129 L23.022778,9.22547838 L23.4162631,9.39277664 L23.6615915,9.52106912 L23.8214448,9.65301839 L24.0256852,9.82366871 L24.2578174,9.91722165 L24.3678853,9.87455907 L24.5478327,9.72005958 L24.5661274,9.66916922 L24.7040871,9.52716377 L24.7484742,9.40496595 L24.683993,9.18860572 L24.588021,9.03806776 L24.6036165,8.76076098 L24.6719965,8.70773749 L24.7040871,8.56085632 L24.8324496,8.43439224 L25.057384,8.32438372 L25.3180079,8.30000511 L25.4826598,8.21437521 L25.5228481,8.21437521 L25.6353152,8.27136023 L25.6913989,8.222603 L25.7351861,8.24698161 L25.9199321,8.29573885 L26.0362982,8.29573885 L26.2609326,8.42220293 L26.2651313,8.48741573 L26.225243,8.50356656 L26.2651313,8.56512257 L26.4537763,8.61784133 L26.5941353,8.63003064 L26.6664142,8.69524345 L27.0236099,8.74034389 L27.1198818,8.72388832 L27.2158538,8.74034389 L27.2923314,8.82566905 L27.3403174,8.97620701 L27.3403174,8.97681648 L27.3925022,8.96036091 L27.6576248,8.9481716 L27.8621651,9.01734593 L28.2754444,9.05025707 L28.447894,9.08712972 L28.5966506,9.19287198 L28.6608319,9.15203779 L28.7208144,9.15203779 L28.8731699,9.249857 L29.0537172,9.23766769 L29.1781808,9.249857 L29.3707246,9.37205482 L29.5476729,9.37205482 L29.5674672,9.32329758 L29.6799343,9.21328907 L29.8163945,9.16849336 L29.8847745,9.1316207 L30.0257334,9.05330439 L30.0899146,9.00668029 L30.2401708,9.00271876 L30.3460398,8.98839632 L30.2623643,9.02496425 L30.1597942,9.03715356 L30.1573949,9.06214164 L30.1936843,9.0990143 L30.3097504,9.05025707 L30.4102211,9.06214164 L30.5103919,9.05025707 L30.4941966,9.01338441 L30.4180188,8.99692884 L30.4465105,8.96462717 L30.6270578,9.01338441 L30.7353262,9.05025707 L30.8232005,9.03806776 L30.8675876,9.08286347 L30.8154028,9.10724208 L30.8393958,9.20109976 L30.9476642,9.26204631 L31.0199431,9.37205482 L31.0241419,9.30288049 L30.951863,9.19287198 L30.975856,9.10053796 L31.1689996,9.23949608 L31.4341222,9.1660555 L31.7715236,9.22304052 L31.9160814,9.1660555 L31.9847614,9.07189309 L32.0435442,9.0990143 L32.1476138,9.25503745 L32.2027977,9.45463739 L32.3527539,9.68532005 L32.4694199,9.96567416 L32.4232334,10.097014 L32.4925131,10.2798536 L32.4721191,10.3127647 L32.3917426,10.6104886 L32.380046,10.7244586 L32.3155648,10.8874906 L32.3638507,10.9365526 L32.3236624,11.1279248 L32.2516835,11.1974038 L32.2312894,11.2626166 L32.215394,11.2303149 L32.075035,11.1526081 L31.8222088,10.8792629 L31.7898183,10.7774821 L31.6494593,10.7122693 L31.5972745,10.6062223 L31.5972745,10.5001753 L31.3927342,10.324954 L31.3807377,10.255475 L31.3327518,10.19849 L31.2964623,10.0598366 L31.2442776,10.0598366 L31.2241835,10.0272302 L31.2001905,10.0637981 L31.2082881,10.1372387 L31.1959917,10.2106793 L31.3084588,10.3575604 L31.3084588,10.480063 L31.5049015,10.7165356 L31.5291944,10.8021655 L31.8381042,11.0669782 L31.8821913,11.1526081 L31.8620972,11.238238 L31.8704947,11.3156401 L32.0507421,11.5155448 L32.0507421,11.5767961 L32.1071257,11.6459704 L32.1272198,11.8537981 L32.1833034,11.9436942 L32.1794046,12.0576643 L32.5123074,12.5549881 L32.5363004,12.7061355 L32.6244746,12.7631205 L32.835613,13.0769952 L32.8817995,13.2214385 L32.941782,13.2948791 L32.9477802,13.2580065 L32.9822701,13.2848229 L33.0692447,13.4213432 L33.11963,13.4304852 L33.1805123,13.4960027 L33.0242579,13.4859465 L32.9846694,13.4515117 L32.9732728,13.4999642 L33.0074628,13.5718812 L33.0143608,13.7053541 L32.9954663,13.7806231 L33.0776423,14.0612819 L33.2416944,14.1688526 L33.3418651,14.1728141 L33.4057465,14.1423408 L33.4738266,14.2849557 L33.5841944,14.3172574 L33.6156852,14.3842986 L33.7398489,14.5122863 L33.8319221,14.549159 L33.8304225,14.5601294 L33.8241243,14.6058393 L33.8121278,14.6545965 L33.8403196,14.6954307 L33.8259238,14.7237709 L33.846018,14.7484542 L33.8439186,14.7706997 L33.8661121,14.8008682 L33.9015018,14.950492 L34.0028722,15.0745182 L34.0019724,15.1263228 L33.9761799,15.127237 L33.962384,15.091888 L33.9203962,15.0403882 L33.9027014,15.0574532 L33.9167973,15.1564913 L34.0448599,15.5438066 L34.0733516,15.7559006 L34.0418608,15.9558052 L34.1141397,16.1874021 L34.2095118,16.3714607 L34.297986,16.391573 L34.530718,16.5506435 L34.530718,16.652729 L34.6389864,16.6569952 L34.7550525,16.7179418 L34.7550525,16.7913824 L34.7955407,16.7913824 L34.9200044,16.9260742 L35.14044,17.5172557 L35.2127189,17.904571 L35.2529072,17.9167603 L35.2810989,18.0590705 L35.2810989,18.1081324 L35.3533778,18.1325111 L35.397465,18.2470906 L35.4256567,18.4140841 L35.5177299,18.4384627 L35.5096322,18.28762 L35.4856392,18.2915815 L35.493437,18.181573 L35.5339251,18.1654222 L35.630197,18.3040756 L35.5939076,18.3449098 L35.6826817,18.4808206 L35.7447636,18.5439002 L35.7966484,18.5073323 L35.8746257,18.4969714 L35.9088157,18.5173885 L35.9768958,18.4930099 L36.0749672,18.604542 L36.1250525,18.6676217 L36.2729094,18.7023613 L36.305,18.7590415 L36.4849475,18.9622983 L36.5611252,19.0985138 L36.6708932,19.1454426 L36.7470709,19.2411287 L36.7911581,19.2411287 L36.7950569,19.2085223 L36.8310464,19.2591079 L36.9192207,19.4827818 L36.9852014,19.5013704 L37.0610792,19.6007133 L37.041285,19.633015 L37.089271,19.739062 L37.1453546,19.739062 L37.2032377,19.7695352 L37.2452255,19.7311389 L37.2635201,19.7616122 L37.2911121,19.7747157 L37.2935114,19.7756299 L37.2911121,19.8161593 L37.4131764,19.9383572 L37.4473665,19.9383572 L37.4314711,19.9889428 L37.4494658,20.1556316 L37.3954816,20.1781818 L37.2974102,20.2900187 L37.2236318,20.2918471 L37.1693476,20.3732108 L37.055081,20.3732108 L37.113264,20.4463466 L37.1492535,20.4545744 L37.2314295,20.4198349 L37.3693892,20.4180065 L37.3870841,20.4560981 L37.4191747,20.5240535 L37.4530648,20.5298434 L37.7754707,20.8897327 L37.8132596,20.9710964 L37.8654444,20.9851141 L37.9974059,21.1070072 L38.1275679,21.1396136 L38.2817229,21.1191965 L38.3297088,21.060383 L38.4676686,20.9750579 L38.5540433,20.9729248 L38.7318914,20.8287862 L38.7837763,20.826653 L38.8158669,20.8571263 L38.9601248,20.8510317 L39.0099102,20.8327477 L39.1157793,20.8833333 L39.2699343,20.8653541 L39.5920403,20.6620974 L39.6961099,20.6416803 L39.8004794,20.6883044 L39.8802561,20.6620974 L40.0236143,20.6684968 L40.171771,20.5935325 L40.3391222,20.5816479 L40.3895074,20.6118165 L40.4443914,20.611207 L40.7023161,20.5624498 L40.8003875,20.4829145 L40.9566419,20.4609738 L41.000729,20.5015032 L41.0166243,20.4567075 L41.1794768,20.4372046 L41.2739492,20.3418233 L41.291944,20.3561457 L41.3324321,20.2781342 L41.3198358,20.2650306 L41.384317,20.2004273 L41.4293039,20.206522 L41.4230057,20.1821433 L41.4865871,20.2278533 L41.6230473,20.2753916 L41.6836296,20.2702111 L41.7079225,20.2854477 L41.6530385,20.368335 L41.6191484,20.4542697 L41.6131502,20.5411185 L41.5825591,20.5947514 L41.6080517,20.6422898 L41.6767316,20.6444229 L41.6818301,20.6764198 L41.6260464,20.7239581 L41.5783603,20.8360998 L41.6260464,20.901922 L41.6431414,20.9930371 L41.6041528,21.0774481 L41.6758319,21.0676966 L41.6668345,21.0414896 L41.7010245,21.0509363 L41.7316156,21.1152349 L41.6977255,21.1332142 L41.6866287,21.1121876 L41.6191484,21.1131018 L41.5729619,21.1255958 L41.4949847,21.2596782 L41.5369724,21.330681 L41.5168783,21.4589734 L41.4826883,21.5156537 L41.4910858,21.6561355 L41.3078393,21.9163773 L41.1827758,22.1848468 L41.106898,22.2802281 L41.0646103,22.2720003 L41.0526138,22.2851038 L48.8020512,22.2851038 C48.8887259,22.2851038 48.9544067,22.2086159 48.9496081,22.1217671 C48.9418104,22.0538117 48.9313135,21.9870752 48.9229159,21.9191199 C48.8710311,21.4946272 48.8083494,21.074096 48.7357706,20.6563075 C48.7135771,20.5277102 48.6913835,20.399113 48.6670906,20.2711253 C48.5744177,19.7829435 48.4721475,19.2981137 48.3518827,18.8202928 C48.3425854,18.7840296 48.3314886,18.7486806 48.3221913,18.7124174 C48.2079247,18.2665935 48.0792623,17.8271689 47.9416025,17.3914011 C47.9023139,17.2661559 47.8615258,17.141825 47.8204378,17.017494 C47.6785792,16.5917824 47.5280232,16.1700323 47.364271,15.7546816 C47.3483757,15.7138475 47.3342798,15.6720991 47.3180845,15.6312649 C47.1378371,15.1808699 46.9419943,14.7393122 46.7371541,14.3026302 C46.6837697,14.1883555 46.627986,14.0749949 46.5728021,13.9616343 C46.394954,13.5968693 46.2093082,13.2369799 46.0146651,12.8825758 C45.9720775,12.8051736 45.9321891,12.7262479 45.8887018,12.6491505 C45.6550701,12.2341045 45.4088419,11.8272863 45.1527167,11.427477 C45.090035,11.3296578 45.024954,11.2339717 44.9610727,11.1370667 C44.7457356,10.8116122 44.5235004,10.4913381 44.2940674,10.1765492 C44.2289864,10.0872625 44.165405,9.99675689 44.0991243,9.90838441 C43.8154072,9.52990637 43.5217929,9.15965611 43.2176817,8.79885257 C43.1558997,8.72541199 43.0911187,8.65440926 43.0287369,8.58188287 C42.7708122,8.28294007 42.5059895,7.9907014 42.2345687,7.70455737 C42.1502933,7.61588015 42.0669177,7.5268982 41.9814426,7.4394399 C41.6509391,7.10118658 41.3129378,6.77024685 40.9638398,6.45149642 C40.9200525,6.41127171 40.873866,6.37348485 40.829479,6.33356486 C40.5163704,6.0516871 40.1951642,5.77895131 39.8679597,5.51352911 C39.7689886,5.43338441 39.6700175,5.35384917 39.5698468,5.27492339 C39.2048533,4.98786517 38.8338616,4.70751107 38.4526729,4.44117467 C38.4427758,4.43447055 38.4334785,4.42685223 38.4235814,4.42014811 C38.0327955,4.14802179 37.6315127,3.89143684 37.2251313,3.64216547 C37.1174628,3.57603847 37.0088945,3.51173987 36.9003262,3.44744127 C36.5452299,3.23717569 36.1853349,3.0351379 35.8194418,2.84285155 C35.7549606,2.80902622 35.6922789,2.77276302 35.6274978,2.73954716 C35.205521,2.52257746 34.7754466,2.3199302 34.3399737,2.12764385 C34.229306,2.07888662 34.1174387,2.03287198 34.0061712,1.98563841 C33.6429772,1.83144365 33.2752846,1.68608614 32.9033932,1.54956588 C32.8062215,1.51360742 32.7099496,1.47551583 32.6121782,1.44108104 C32.1614098,1.28231529 31.7046432,1.13634831 31.2421782,1.00378958 C31.1387084,0.974230507 31.034039,0.948328226 30.9302693,0.920292816 C30.5463813,0.815769493 30.1582947,0.720388151 29.7672088,0.634453524 C29.6481436,0.608551243 29.5296782,0.580820565 29.4100131,0.556441948 C28.9328525,0.459536942 28.451493,0.374211781 27.9644352,0.305342186 C27.8846585,0.294067075 27.8033822,0.287058223 27.7230057,0.276392577 C27.3025285,0.221540688 26.8781524,0.178268641 26.451377,0.145052775 C26.3194155,0.134996595 26.187454,0.124635683 26.0551926,0.116712632 C25.5537391,0.0859346272 25.0492863,0.0658222676 24.540035,0.0661270003 C24.509144,0.0661270003 24.4788529,0.0682601294 24.447662,0.0685648621 C23.968102,0.0706979911 23.4846432,0.090505618 22.9990849,0.12097889 C22.8326335,0.131644535 22.6673818,0.145357508 22.5018301,0.159375213 C22.1617294,0.187715356 21.8198292,0.226111679 21.4773292,0.268164794 C21.2595928,0.295895472 21.0403568,0.319055158 20.8244199,0.352575758 C20.8076248,0.355013619 20.7905298,0.358975145 20.7737347,0.361413006 C9.83472855,2.08162921 1.28122592,11.1352383 0.132261384,22.4231478 C0.127162872,22.4728192 0.123264011,22.5224906 0.118765324,22.5721621 C0.0872745184,22.8997497 0.0635814361,23.23008 0.0446869527,23.5613245 C0.0392885289,23.6591437 0.0329903678,23.7569629 0.0287915937,23.8544774 C0.0113966725,24.2360027 0.000299912434,24.6190518 0,25.0048434 C0,25.0359261 0.00149956217,25.0667041 0.00149956217,25.0980916 C0.00269921191,25.4528005 0.0122964098,25.8053762 0.0278918564,26.1564283 C0.0326904553,26.263999 0.0383887916,26.3709602 0.0443870403,26.4782261 C0.0620818739,26.7899677 0.0851751313,27.1004903 0.114266637,27.4094893 C0.120864711,27.4817109 0.125963222,27.5548468 0.133161121,27.6267637 C0.170950088,27.9979282 0.217736427,28.3666547 0.271420753,28.7326387 C0.284916813,28.8234491 0.300212347,28.9133453 0.314608144,29.0035461 C0.360494746,29.2939564 0.411179947,29.582843 0.46696366,29.8699013 C0.485858144,29.9677205 0.504152802,30.0655397 0.523947023,30.1627494 C0.598325306,30.522334 0.678102014,30.8797855 0.767475919,31.2335802 C0.777972855,31.2753286 0.789969352,31.3161628 0.8007662,31.3576064 C0.882342382,31.673919 0.970516637,31.9874889 1.0637894,32.2989258 C1.09348074,32.3979639 1.1240718,32.497002 1.15496278,32.5957354 C1.24643608,32.8873647 1.34270797,33.1768607 1.44407837,33.4636142 C1.46507224,33.5230371 1.48426664,33.5833742 1.50586033,33.6424923 C1.62852452,33.9810504 1.75928634,34.3153422 1.8957465,34.6468914 C1.93053634,34.7316071 1.96712566,34.8151038 2.00281524,34.8992101 C2.11378284,35.160366 2.22894921,35.4193888 2.34861427,35.6759738 C2.38850263,35.7619084 2.42779116,35.8484525 2.46887916,35.9340824 C2.62303415,36.2555754 2.78228765,36.5740211 2.94933888,36.8875911 C2.97363179,36.9326915 2.99942426,36.9768778 3.02371716,37.0219782 C3.17127408,37.294714 3.32392951,37.563793 3.48108363,37.8301294 C3.53236865,37.9172829 3.5842535,38.003827 3.63643827,38.0900664 C3.79539186,38.3521365 3.95884413,38.6114641 4.1267951,38.8671348 C4.15618651,38.9119305 4.18437828,38.9576404 4.21406961,39.0021314 C4.41021235,39.2961985 4.61355298,39.5850851 4.82169221,39.8703149 C4.87597636,39.9446697 4.93176007,40.0178056 4.98694396,40.0915509 C5.1542951,40.3158342 5.32524518,40.5367654 5.49979422,40.754954 C5.55647767,40.825652 5.6125613,40.8972642 5.67014448,40.9676575 C5.89267951,41.2397838 6.12031305,41.5079486 6.35424475,41.7700187 C6.39323336,41.8139002 6.43372154,41.8562581 6.47330998,41.8995301 C6.6739514,42.1216803 6.87879159,42.3395642 7.08723074,42.554096 C7.15711033,42.6260129 7.22728984,42.6973204 7.29776926,42.7683231 C7.51850482,42.9901685 7.74313923,43.2083572 7.97197242,43.4213653 C8.00346322,43.4506197 8.03375438,43.481093 8.06524518,43.5100426 C8.3237697,43.7483435 8.58859238,43.9799404 8.85701401,44.2069663 C8.92869308,44.2676081 9.0015718,44.327031 9.0738507,44.3867586 C9.28918783,44.5647225 9.50752408,44.7387249 9.72855954,44.9093752 C9.7975394,44.9627034 9.86591944,45.0166411 9.93519921,45.0690552 C10.2156173,45.2805397 10.4999343,45.4868437 10.7893498,45.6861389 C10.8430342,45.7233163 10.898518,45.7586653 10.9525022,45.7952332 C11.1954313,45.9597889 11.4413595,46.1197736 11.6902868,46.2757967 C11.775162,46.329125 11.8600372,46.3818437 11.9455123,46.433953 C12.2217316,46.6021655 12.5003503,46.7661117 12.7831677,46.9236585 C12.8119593,46.9395046 12.8401511,46.9565696 12.8686427,46.9724157 C13.1781524,47.1430661 13.4927605,47.3051839 13.8100679,47.4624259 C13.8961427,47.5050885 13.9831173,47.5462274 14.069792,47.5876711 C14.3241178,47.7101736 14.5811427,47.8281052 14.8402671,47.9417705 C14.9185442,47.9759006 14.9962215,48.0115543 15.0747986,48.0450749 C15.4005035,48.1837283 15.7295074,48.3159823 16.0624102,48.440618 C16.1301905,48.4662155 16.1991703,48.4893752 16.2672504,48.5140586 C16.5419702,48.6143156 16.8187894,48.7093922 17.097708,48.7995931 C17.1942798,48.8309806 17.2908516,48.8620633 17.3880232,48.8922319 C17.7149278,48.9937079 18.0442316,49.0900034 18.3768345,49.1774617 C18.3951292,49.1823374 18.412824,49.1878226 18.4308187,49.1926983 C18.7799168,49.2838134 19.1329137,49.3648723 19.4880101,49.440446 C19.5863813,49.4614726 19.6853525,49.4809755 19.7843236,49.5007831 C20.0695403,49.5580729 20.3565565,49.6101822 20.6450722,49.657111 C20.728148,49.6705192 20.8106239,49.6854511 20.8936996,49.6982499 C21.2538945,49.7531018 21.6161887,49.8000306 21.9811821,49.8387317 C22.0615587,49.8472642 22.142535,49.8530541 22.2229116,49.8609772 C22.5204247,49.8893173 22.8194374,49.912477 23.1199496,49.9301515 C23.2234194,49.9362462 23.3265893,49.9423408 23.430359,49.9472165 C23.8049496,49.9645863 24.1810398,49.9761662 24.5601292,49.9761662 C24.954514,49.9761662 25.3464996,49.9667194 25.7363857,49.9481307 C25.8842426,49.9411219 26.0297001,49.92619 26.1769571,49.9164385 C26.4180867,49.9005924 26.660116,49.8871842 26.8994461,49.8643292 C27.0548008,49.8493973 27.2077561,49.8268471 27.3619111,49.8088679 C27.5904444,49.7823561 27.8198774,49.7591965 28.0466112,49.7265901 C28.2133625,49.7025162 28.3774146,49.6705192 28.5429663,49.6427886 C28.7544046,49.6077443 28.9670425,49.5763568 29.1763813,49.5358274 C29.348831,49.5026115 29.5182815,49.4611679 29.6892316,49.4242952 C29.8892732,49.3810232 30.0905144,49.3414079 30.2887566,49.2932601 C30.4624059,49.251207 30.633056,49.2012308 30.8052058,49.1552162 C30.9974496,49.1040211 31.1911931,49.0564828 31.3813376,49.000412 C31.5525876,48.9504358 31.7208384,48.8925366 31.8905889,48.8385989 C32.078634,48.7788713 32.2681786,48.7228005 32.4541243,48.6585019 C32.6208757,48.6009074 32.7843279,48.5363041 32.9492798,48.4753575 C33.1349256,48.4067926 33.321771,48.3415798 33.5050175,48.2687487 C33.6708691,48.2026217 33.8334216,48.1294859 33.9977736,48.0600068 C34.1759216,47.9844331 34.3558691,47.9122114 34.5322176,47.8323715 C34.69537,47.7586261 34.8546235,47.677872 35.0159764,47.6007746 C35.1893257,47.5175826 35.3647745,47.4374379 35.5360245,47.350589 C35.6943783,47.2698349 35.8488332,47.1826813 36.0053875,47.0985751 C36.1751379,47.0077647 36.3463879,46.919697 36.5137391,46.8246204 C36.6669943,46.7377715 36.8160508,46.6445233 36.9672067,46.5543224 C37.1336581,46.4549796 37.301609,46.358684 37.4656611,46.2556844 C37.6141178,46.1621314 37.7583757,46.0627886 37.9047329,45.9661883 C38.0660858,45.8598366 38.2295381,45.7559227 38.3881918,45.6456095 C38.5333494,45.5450477 38.6740083,45.4386959 38.8167666,45.3347821 C38.9724212,45.222031 39.1298752,45.111413 39.2825306,44.9950051 C39.4234895,44.8874345 39.5602496,44.7743786 39.6988091,44.6637606 C39.8478656,44.5449149 39.9990215,44.4282022 40.1453787,44.3060044 C40.2827386,44.1914249 40.415,44.0713602 40.5496607,43.9537334 C40.6927189,43.828793 40.8375766,43.7065952 40.9776357,43.5783027 C41.1080976,43.4594569 41.233461,43.335126 41.3612237,43.2129282 C41.5000832,43.0806742 41.641042,42.9499438 41.7769024,42.8143378 C41.9019658,42.6893973 42.0219308,42.5592765 42.1442951,42.4315935 C42.2768564,42.2935495 42.4115171,42.157334 42.5410792,42.015938 C42.6610442,41.884903 42.7759107,41.7489922 42.8931764,41.6152145 C43.0194396,41.4713807 43.1478021,41.3293752 43.2707662,41.182494 C43.3847329,41.0462785 43.4936011,40.905492 43.6045687,40.7665339 C43.7245337,40.6172148 43.8462982,40.4697242 43.9626642,40.3173578 C44.0718323,40.1747429 44.175602,40.0278618 44.2814711,39.8825043 C44.3939383,39.728919 44.5085048,39.5768573 44.617373,39.4202247 C44.7199431,39.2730388 44.8171147,39.1215867 44.9163857,38.9719629 C45.0222548,38.8128924 45.1305232,38.6550409 45.2327933,38.4929231 C45.3293651,38.3405567 45.4202386,38.1839241 45.5135114,38.0291199 C45.6121826,37.8654784 45.7126532,37.7033606 45.8077255,37.537586 C45.898299,37.3785155 45.9834742,37.216093 46.0707487,37.0551941 C46.1613222,36.8885053 46.2539952,36.7233401 46.3406699,36.5542135 C46.4249453,36.3902673 46.5032224,36.222969 46.5838989,36.0568897 C46.6669746,35.8862394 46.7521497,35.7171127 46.8313266,35.5443292 C46.9084041,35.3764215 46.9791835,35.2051617 47.0523621,35.0351209 C47.1282399,34.8602043 47.2062172,34.6862019 47.2778962,34.5088475 C47.3468761,34.3381971 47.4098577,34.1644995 47.4752386,33.991716 C47.5439186,33.8113143 47.6146979,33.6318267 47.6791791,33.4492918 C47.7403612,33.2762036 47.7952452,33.0997634 47.8525285,32.9248468 C47.9134107,32.7395693 47.9766922,32.5549013 48.0333757,32.3674906 C48.08706,32.1901362 48.1344461,32.0100392 48.1842316,31.831161 C48.2367163,31.6428362 48.2916003,31.4554256 48.3398862,31.2652724 C48.3860727,31.0830422 48.4256611,30.8983742 48.4679488,30.7143156 C48.511736,30.5241624 48.5576226,30.3349234 48.597211,30.1429418 C48.6352999,29.9567501 48.6667907,29.7684253 48.7009807,29.5810146 C48.7360705,29.3881188 48.7735595,29.1961372 48.8041506,29.001413 C48.8341419,28.812174 48.8572351,28.6204971 48.8827277,28.4297344 C48.905521,28.2599983 48.9301138,28.0905669 48.9496081,27.9196118 C48.9544067,27.8330678 48.8887259,27.7565798 48.8023511,27.7565798 L48.8023511,27.7565798 Z"></path>
        </g>
      </g>
    </g>
  </g>
</svg>
