<?xml version="1.0" encoding="UTF-8"?>
<svg width="198px" height="198px" viewBox="0 0 198 198" version="1.1" xmlns="http://www.w3.org/2000/svg" xmlns:xlink="http://www.w3.org/1999/xlink">
    <!-- Generator: Sketch 43.1 (39012) - http://www.bohemiancoding.com/sketch -->
    <title>rf-icon</title>
    <desc>Created with Sketch.</desc>
    <defs>
        <path d="M7.89093552,137.796707 L79.5004136,96.4529559 L105.823967,126.046687 L194.965584,74.5807506 C196.947067,82.3916532 198,90.5728638 198,99 C198,153.67619 153.67619,198 99,198 C58.0935044,198 22.9816732,173.190093 7.89093552,137.796707 Z M2.2856983,120.248283 C0.788782112,113.403517 0,106.293874 0,99 C0,44.3238098 44.3238098,0 99,0 C138.793075,0 173.102639,23.4777024 188.832604,57.337019 L109.525598,103.12494 L83.2020444,73.5312087 L2.2856983,120.248283 Z" id="path-1"></path>
    </defs>
    <g id="ICON" stroke="none" stroke-width="1" fill="none" fill-rule="evenodd">
        <g id="rf-icon">
            <mask id="mask-2" fill="white">
                <use xlink:href="#path-1"></use>
            </mask>
            <use id="Mask" fill="#0090FC" xlink:href="#path-1"></use>
            <polygon id="Path-3" fill="#5BC0DE" mask="url(#mask-2)" points="-94 169.675781 77.2723576 81.9882812 105.615789 113.980469 213.751953 52.4296875 147.384965 -10.4160156 28.9330251 -5.70507812 -75.59375 23.6210938"></polygon>
        </g>
    </g>
</svg>