<?xml version="1.0" encoding="UTF-8"?>
<svg width="16px" height="17px" viewBox="0 0 16 17" version="1.1" xmlns="http://www.w3.org/2000/svg" xmlns:xlink="http://www.w3.org/1999/xlink">
    <!-- Generator: Sketch 49.2 (51160) - http://www.bohemiancoding.com/sketch -->
    <title></title>
    <desc>Created with Sketch.</desc>
    <defs>
        <path d="M7.48325893,9.94754464 C7.55022355,10.0145093 7.58370536,10.0915174 7.58370536,10.1785714 C7.58370536,10.2656254 7.55022355,10.3426336 7.48325893,10.4095982 L4.1484375,13.7444196 L5.59486607,15.1908482 C5.72209885,15.318081 5.78571429,15.4687491 5.78571429,15.6428571 C5.78571429,15.8169652 5.72209885,15.9676333 5.59486607,16.0948661 C5.46763329,16.2220989 5.31696516,16.2857143 5.14285714,16.2857143 L0.642857143,16.2857143 C0.468749129,16.2857143 0.318080993,16.2220989 0.190848214,16.0948661 C0.0636154353,15.9676333 0,15.8169652 0,15.6428571 L0,11.1428571 C0,10.9687491 0.0636154353,10.818081 0.190848214,10.6908482 C0.318080993,10.5636154 0.468749129,10.5 0.642857143,10.5 C0.816965156,10.5 0.967633292,10.5636154 1.09486607,10.6908482 L2.54129464,12.1372768 L5.87611607,8.80245536 C5.94308069,8.73549074 6.02008885,8.70200893 6.10714286,8.70200893 C6.19419686,8.70200893 6.27120502,8.73549074 6.33816964,8.80245536 L7.48325893,9.94754464 Z M15.4285714,1.5 L15.4285714,6 C15.4285714,6.17410801 15.364956,6.32477615 15.2377232,6.45200893 C15.1104904,6.57924171 14.9598223,6.64285714 14.7857143,6.64285714 C14.6116063,6.64285714 14.4609381,6.57924171 14.3337054,6.45200893 L12.8872768,5.00558036 L9.55245536,8.34040179 C9.48549074,8.40736641 9.40848258,8.44084821 9.32142857,8.44084821 C9.23437456,8.44084821 9.15736641,8.40736641 9.09040179,8.34040179 L7.9453125,7.1953125 C7.87834788,7.12834788 7.84486607,7.05133972 7.84486607,6.96428571 C7.84486607,6.87723171 7.87834788,6.80022355 7.9453125,6.73325893 L11.2801339,3.3984375 L9.83370536,1.95200893 C9.70647258,1.82477615 9.64285714,1.67410801 9.64285714,1.5 C9.64285714,1.32589199 9.70647258,1.17522385 9.83370536,1.04799107 C9.96093814,0.920758292 10.1116063,0.857142857 10.2857143,0.857142857 L14.7857143,0.857142857 C14.9598223,0.857142857 15.1104904,0.920758292 15.2377232,1.04799107 C15.364956,1.17522385 15.4285714,1.32589199 15.4285714,1.5 Z" id="path-1"></path>
    </defs>
    <g id="Symbols" stroke="none" stroke-width="1" fill="none" fill-rule="evenodd">
        <g id="TopNav-Entities" transform="translate(-492.000000, -26.000000)">
            <g id="Group" transform="translate(486.000000, 21.000000)">
                <g id="Oval-4" transform="translate(6.000000, 5.000000)">
                    <mask id="mask-2" fill="white">
                        <use xlink:href="#path-1"></use>
                    </mask>
                    <use id="" fill="#50AEF3" xlink:href="#path-1"></use>
                </g>
            </g>
        </g>
    </g>
</svg>