<?xml version="1.0" encoding="UTF-8"?>
<svg width="16px" height="16px" viewBox="0 0 16 16" version="1.1" xmlns="http://www.w3.org/2000/svg" xmlns:xlink="http://www.w3.org/1999/xlink">
    <!-- Generator: Sketch 49.2 (51160) - http://www.bohemiancoding.com/sketch -->
    <title></title>
    <desc>Created with Sketch.</desc>
    <defs>
        <path d="M7.71428571,9.21428571 L7.71428571,13.7142857 C7.71428571,13.8883937 7.65067028,14.0390619 7.5234375,14.1662946 C7.39620472,14.2935274 7.24553658,14.3571429 7.07142857,14.3571429 C6.89732056,14.3571429 6.74665242,14.2935274 6.61941964,14.1662946 L5.17299107,12.7198661 L1.83816964,16.0546875 C1.77120502,16.1216521 1.69419686,16.1551339 1.60714286,16.1551339 C1.52008885,16.1551339 1.44308069,16.1216521 1.37611607,16.0546875 L0.231026786,14.9095982 C0.164062165,14.8426336 0.130580357,14.7656254 0.130580357,14.6785714 C0.130580357,14.5915174 0.164062165,14.5145093 0.231026786,14.4475446 L3.56584821,11.1127232 L2.11941964,9.66629464 C1.99218686,9.53906186 1.92857143,9.38839373 1.92857143,9.21428571 C1.92857143,9.0401777 1.99218686,8.88950956 2.11941964,8.76227679 C2.24665242,8.63504401 2.39732056,8.57142857 2.57142857,8.57142857 L7.07142857,8.57142857 C7.24553658,8.57142857 7.39620472,8.63504401 7.5234375,8.76227679 C7.65067028,8.88950956 7.71428571,9.0401777 7.71428571,9.21428571 Z M15.1975446,2.23325893 C15.2645093,2.30022355 15.2979911,2.37723171 15.2979911,2.46428571 C15.2979911,2.55133972 15.2645093,2.62834788 15.1975446,2.6953125 L11.8627232,6.03013393 L13.3091518,7.4765625 C13.4363846,7.60379528 13.5,7.75446342 13.5,7.92857143 C13.5,8.10267944 13.4363846,8.25334758 13.3091518,8.38058036 C13.181919,8.50781314 13.0312509,8.57142857 12.8571429,8.57142857 L8.35714286,8.57142857 C8.18303484,8.57142857 8.03236671,8.50781314 7.90513393,8.38058036 C7.77790115,8.25334758 7.71428571,8.10267944 7.71428571,7.92857143 L7.71428571,3.42857143 C7.71428571,3.25446342 7.77790115,3.10379528 7.90513393,2.9765625 C8.03236671,2.84932972 8.18303484,2.78571429 8.35714286,2.78571429 C8.53125087,2.78571429 8.68191901,2.84932972 8.80915179,2.9765625 L10.2555804,4.42299107 L13.5904018,1.08816964 C13.6573664,1.02120502 13.7343746,0.987723214 13.8214286,0.987723214 C13.9084826,0.987723214 13.9854907,1.02120502 14.0524554,1.08816964 L15.1975446,2.23325893 Z" id="path-1"></path>
    </defs>
    <g id="entity-types" stroke="none" stroke-width="1" fill="none" fill-rule="evenodd">
        <g id="Entity-Types-MVP-fullscreen" transform="translate(-1333.000000, -27.000000)">
            <g id="Group" transform="translate(1327.000000, 21.000000)">
                <g id="Oval-4" transform="translate(6.000000, 5.000000)">
                    <mask id="mask-2" fill="white">
                        <use xlink:href="#path-1"></use>
                    </mask>
                    <use id="" fill="#50AEF3" xlink:href="#path-1"></use>
                </g>
            </g>
        </g>
    </g>
</svg>