<?xml version="1.0" encoding="UTF-8"?>
<svg width="26px" height="26px" viewBox="0 0 26 26" version="1.1" xmlns="http://www.w3.org/2000/svg" xmlns:xlink="http://www.w3.org/1999/xlink">
    <!-- Generator: Sketch 43.2 (39069) - http://www.bohemiancoding.com/sketch -->
    <title>Group</title>
    <desc>Created with Sketch.</desc>
    <defs></defs>
    <g id="final" stroke="none" stroke-width="1" fill="none" fill-rule="evenodd">
        <g id="SURVEY-DETAIL-ADMIN" transform="translate(-25.000000, -10.000000)">
            <g id="Group" transform="translate(38.000000, 23.000000) rotate(90.000000) translate(-38.000000, -23.000000) translate(25.000000, 10.000000)">
                <circle id="Oval-2" fill="#9FD0F8" cx="13" cy="13" r="3.9"></circle>
                <path d="M19.3057886,14.3 L25.8716244,14.3 C25.2193826,20.8693195 19.6767647,26 12.9358122,26 C6.19485965,26 0.652241759,20.8693195 3.01460246e-13,14.3 L6.56583573,14.3 C7.16808717,17.2669124 9.7911669,19.5 12.9358122,19.5 C16.0804575,19.5 18.7035372,17.2669124 19.3057886,14.3 Z M19.3057886,11.7 L25.8716244,11.7 C25.2193826,5.1306805 19.6767647,0 12.9358122,0 C6.19485965,0 0.652241759,5.1306805 2.91384972e-13,11.7 L6.56583573,11.7 C7.16808717,8.73308758 9.7911669,6.5 12.9358122,6.5 C16.0804575,6.5 18.7035372,8.73308758 19.3057886,11.7 Z" id="Oval-3" fill="#5EB1F2" fill-rule="nonzero"></path>
            </g>
        </g>
    </g>
</svg>