<?xml version="1.0" encoding="UTF-8"?>
<svg width="52px" height="52px" viewBox="0 0 52 52" version="1.1" xmlns="http://www.w3.org/2000/svg" xmlns:xlink="http://www.w3.org/1999/xlink">
    <!-- Generator: Sketch 50.2 (55047) - http://www.bohemiancoding.com/sketch -->
    <title>Group</title>
    <desc>Created with Sketch.</desc>
    <defs>
        <path d="M7.5,7.10114578 C9.04297646,7.10114578 10.4850193,6.96370077 11.8261719,6.68880663 C13.1673244,6.41391249 14.2252565,6.00797025 15,5.47096774 L15,13.5451437 C15,13.9862529 14.6647169,14.3953915 13.9941406,14.7725718 C13.3235644,15.1497522 12.4121151,15.4486151 11.2597656,15.6691698 C10.1074161,15.8897244 8.85417344,16 7.5,16 C6.14582656,16 4.89258389,15.8897244 3.74023438,15.6691698 C2.58788486,15.4486151 1.67643564,15.1497522 1.00585938,14.7725718 C0.335283105,14.3953915 0,13.9862529 0,13.5451437 L0,5.47096774 C0.774743457,6.00797025 1.83267559,6.41391249 3.17382813,6.68880663 C4.51498066,6.96370077 5.95702354,7.10114578 7.5,7.10114578 Z M7.5,0 C8.85417344,9.69345321e-15 10.1074161,0.10943439 11.2597656,0.328306452 C12.4121151,0.547178514 13.3235644,0.843761569 13.9941406,1.21806452 C14.6647169,1.59236746 15,1.99838491 15,2.43612903 L15,3.65419355 C15,4.09193767 14.6647169,4.49795512 13.9941406,4.87225806 C13.3235644,5.24656101 12.4121151,5.54314407 11.2597656,5.76201613 C10.1074161,5.98088819 8.85417344,6.09032258 7.5,6.09032258 C6.14582656,6.09032258 4.89258389,5.98088819 3.74023438,5.76201613 C2.58788486,5.54314407 1.67643564,5.24656101 1.00585938,4.87225806 C0.335283105,4.49795512 0,4.09193767 0,3.65419355 L0,2.43612903 C0,1.99838491 0.335283105,1.59236746 1.00585938,1.21806452 C1.67643564,0.843761569 2.58788486,0.547178514 3.74023438,0.328306452 C4.89258389,0.10943439 6.14582656,9.69345321e-15 7.5,0 Z" id="path-1"></path>
        <path d="M7.5,1.93533509 C12.0040527,1.93533509 14.1868652,1.13351845 15,0 L15,1.61547599 C15,2.05260697 14.6647169,2.45805571 13.9941406,2.83183438 C13.3235644,3.20561305 12.4121151,3.50178068 11.2597656,3.72034617 C10.1074161,3.93891166 8.85417344,4.04819277 7.5,4.04819277 C6.14582656,4.04819277 4.89258389,3.93891166 3.74023437,3.72034617 C2.58788486,3.50178068 1.67643564,3.20561305 1.00585937,2.83183438 C0.335283105,2.45805571 0,2.05260697 0,1.61547599 L0,0 C0.879931641,0.976750753 2.99594727,1.93533509 7.5,1.93533509 Z" id="path-3"></path>
        <path d="M7.5,7.10114578 C9.04297646,7.10114578 10.4850193,6.96370077 11.8261719,6.68880663 C13.1673244,6.41391249 14.2252565,6.00797025 15,5.47096774 L15,13.5451437 C15,13.9862529 14.6647169,14.3953915 13.9941406,14.7725718 C13.3235644,15.1497522 12.4121151,15.4486151 11.2597656,15.6691698 C10.1074161,15.8897244 8.85417344,16 7.5,16 C6.14582656,16 4.89258389,15.8897244 3.74023438,15.6691698 C2.58788486,15.4486151 1.67643564,15.1497522 1.00585938,14.7725718 C0.335283105,14.3953915 0,13.9862529 0,13.5451437 L0,5.47096774 C0.774743457,6.00797025 1.83267559,6.41391249 3.17382813,6.68880663 C4.51498066,6.96370077 5.95702354,7.10114578 7.5,7.10114578 Z M7.5,0 C8.85417344,9.69345321e-15 10.1074161,0.10943439 11.2597656,0.328306452 C12.4121151,0.547178514 13.3235644,0.843761569 13.9941406,1.21806452 C14.6647169,1.59236746 15,1.99838491 15,2.43612903 L15,3.65419355 C15,4.09193767 14.6647169,4.49795512 13.9941406,4.87225806 C13.3235644,5.24656101 12.4121151,5.54314407 11.2597656,5.76201613 C10.1074161,5.98088819 8.85417344,6.09032258 7.5,6.09032258 C6.14582656,6.09032258 4.89258389,5.98088819 3.74023438,5.76201613 C2.58788486,5.54314407 1.67643564,5.24656101 1.00585938,4.87225806 C0.335283105,4.49795512 0,4.09193767 0,3.65419355 L0,2.43612903 C0,1.99838491 0.335283105,1.59236746 1.00585938,1.21806452 C1.67643564,0.843761569 2.58788486,0.547178514 3.74023438,0.328306452 C4.89258389,0.10943439 6.14582656,9.69345321e-15 7.5,0 Z" id="path-5"></path>
        <path d="M7.5,1.93533509 C12.0040527,1.93533509 14.1868652,1.13351845 15,0 L15,1.61547599 C15,2.05260697 14.6647169,2.45805571 13.9941406,2.83183438 C13.3235644,3.20561305 12.4121151,3.50178068 11.2597656,3.72034617 C10.1074161,3.93891166 8.85417344,4.04819277 7.5,4.04819277 C6.14582656,4.04819277 4.89258389,3.93891166 3.74023437,3.72034617 C2.58788486,3.50178068 1.67643564,3.20561305 1.00585937,2.83183438 C0.335283105,2.45805571 0,2.05260697 0,1.61547599 L0,0 C0.879931641,0.976750753 2.99594727,1.93533509 7.5,1.93533509 Z" id="path-7"></path>
        <path d="M7.5,7.10114578 C9.04297646,7.10114578 10.4850193,6.96370077 11.8261719,6.68880663 C13.1673244,6.41391249 14.2252565,6.00797025 15,5.47096774 L15,13.5451437 C15,13.9862529 14.6647169,14.3953915 13.9941406,14.7725718 C13.3235644,15.1497522 12.4121151,15.4486151 11.2597656,15.6691698 C10.1074161,15.8897244 8.85417344,16 7.5,16 C6.14582656,16 4.89258389,15.8897244 3.74023438,15.6691698 C2.58788486,15.4486151 1.67643564,15.1497522 1.00585938,14.7725718 C0.335283105,14.3953915 0,13.9862529 0,13.5451437 L0,5.47096774 C0.774743457,6.00797025 1.83267559,6.41391249 3.17382813,6.68880663 C4.51498066,6.96370077 5.95702354,7.10114578 7.5,7.10114578 Z M7.5,0 C8.85417344,9.69345321e-15 10.1074161,0.10943439 11.2597656,0.328306452 C12.4121151,0.547178514 13.3235644,0.843761569 13.9941406,1.21806452 C14.6647169,1.59236746 15,1.99838491 15,2.43612903 L15,3.65419355 C15,4.09193767 14.6647169,4.49795512 13.9941406,4.87225806 C13.3235644,5.24656101 12.4121151,5.54314407 11.2597656,5.76201613 C10.1074161,5.98088819 8.85417344,6.09032258 7.5,6.09032258 C6.14582656,6.09032258 4.89258389,5.98088819 3.74023438,5.76201613 C2.58788486,5.54314407 1.67643564,5.24656101 1.00585938,4.87225806 C0.335283105,4.49795512 0,4.09193767 0,3.65419355 L0,2.43612903 C0,1.99838491 0.335283105,1.59236746 1.00585938,1.21806452 C1.67643564,0.843761569 2.58788486,0.547178514 3.74023438,0.328306452 C4.89258389,0.10943439 6.14582656,9.69345321e-15 7.5,0 Z" id="path-9"></path>
        <path d="M7.5,1.93533509 C12.0040527,1.93533509 14.1868652,1.13351845 15,0 L15,1.61547599 C15,2.05260697 14.6647169,2.45805571 13.9941406,2.83183438 C13.3235644,3.20561305 12.4121151,3.50178068 11.2597656,3.72034617 C10.1074161,3.93891166 8.85417344,4.04819277 7.5,4.04819277 C6.14582656,4.04819277 4.89258389,3.93891166 3.74023437,3.72034617 C2.58788486,3.50178068 1.67643564,3.20561305 1.00585937,2.83183438 C0.335283105,2.45805571 0,2.05260697 0,1.61547599 L0,0 C0.879931641,0.976750753 2.99594727,1.93533509 7.5,1.93533509 Z" id="path-11"></path>
    </defs>
    <g id="Page-1" stroke="none" stroke-width="1" fill="none" fill-rule="evenodd">
        <g id="Desktop-Copy-7" transform="translate(-119.000000, -197.000000)">
            <g id="Group" transform="translate(119.000000, 197.000000)">
                <circle id="Oval-5" fill="#FFFFFF" opacity="0.200000003" cx="26" cy="26" r="26"></circle>
                <g id="Group-2" transform="translate(18.000000, 6.000000)">
                    <g id="Path-4">
                        <mask id="mask-2" fill="white">
                            <use xlink:href="#path-1"></use>
                        </mask>
                        <use id="Mask" fill="#FFFFFF" xlink:href="#path-1"></use>
                        <polygon fill="#4A4A4A" opacity="0.200000003" mask="url(#mask-2)" points="11.4345703 5.78702658 11.4345703 18.5768864 18.668162 18.5768864 19.226702 3.97082928"></polygon>
                    </g>
                    <g id="Path-4" transform="translate(0.000000, 2.313253)">
                        <mask id="mask-4" fill="white">
                            <use xlink:href="#path-3"></use>
                        </mask>
                        <use id="Mask" fill="#D9EEFA" xlink:href="#path-3"></use>
                        <polygon fill="#3C474E" opacity="0.100000001" mask="url(#mask-4)" points="11.5 -0.962013704 11.5 17.5803415 18.8065882 17.5803415 18.5286461 -1.2511898"></polygon>
                    </g>
                </g>
                <g id="Group-2" transform="translate(8.000000, 24.000000)">
                    <g id="Path-4">
                        <mask id="mask-6" fill="white">
                            <use xlink:href="#path-5"></use>
                        </mask>
                        <use id="Mask" fill="#FFFFFF" xlink:href="#path-5"></use>
                        <polygon fill="#4A4A4A" opacity="0.200000003" mask="url(#mask-6)" points="11.4345703 5.78702658 11.4345703 18.5768864 18.668162 18.5768864 19.226702 3.97082928"></polygon>
                    </g>
                    <g id="Path-4" transform="translate(0.000000, 2.313253)">
                        <mask id="mask-8" fill="white">
                            <use xlink:href="#path-7"></use>
                        </mask>
                        <use id="Mask" fill="#D9EEFA" xlink:href="#path-7"></use>
                        <polygon fill="#3C474E" opacity="0.100000001" mask="url(#mask-8)" points="11.5 -0.962013704 11.5 17.5803415 18.8065882 17.5803415 18.5286461 -1.2511898"></polygon>
                    </g>
                </g>
                <g id="Group-2" transform="translate(28.000000, 24.000000)">
                    <g id="Path-4">
                        <mask id="mask-10" fill="white">
                            <use xlink:href="#path-9"></use>
                        </mask>
                        <use id="Mask" fill="#FFFFFF" xlink:href="#path-9"></use>
                        <polygon fill="#4A4A4A" opacity="0.200000003" mask="url(#mask-10)" points="11.4345703 5.78702658 11.4345703 18.5768864 18.668162 18.5768864 19.226702 3.97082928"></polygon>
                    </g>
                    <g id="Path-4" transform="translate(0.000000, 2.313253)">
                        <mask id="mask-12" fill="white">
                            <use xlink:href="#path-11"></use>
                        </mask>
                        <use id="Mask" fill="#D9EEFA" xlink:href="#path-11"></use>
                        <polygon fill="#3C474E" opacity="0.100000001" mask="url(#mask-12)" points="11.5 -0.962013704 11.5 17.5803415 18.8065882 17.5803415 18.5286461 -1.2511898"></polygon>
                    </g>
                </g>
                <g id="Group-8-Copy-9" transform="translate(6.000000, 11.000000)" stroke="#FFFFFF" stroke-dasharray="1,3.079999923706055" stroke-linecap="round" stroke-width="1.3">
                    <path d="M10.1600605,1.74468951 C5.51999138,1.74468951 1.75847216,5.51085418 1.75847216,10.1566537" id="Oval-4" transform="translate(5.959266, 5.950672) rotate(-17.000000) translate(-5.959266, -5.950672) "></path>
                </g>
                <g id="Group-8-Copy-9" transform="translate(39.114515, 17.114515) rotate(118.000000) translate(-39.114515, -17.114515) translate(33.114515, 11.114515)" stroke="#FFFFFF" stroke-dasharray="1,3.079999923706055" stroke-linecap="round" stroke-width="1.3">
                    <path d="M10.1600605,1.74468951 C5.51999138,1.74468951 1.75847216,5.51085418 1.75847216,10.1566537" id="Oval-4" transform="translate(5.959266, 5.950672) rotate(-17.000000) translate(-5.959266, -5.950672) "></path>
                </g>
                <g id="Group-8-Copy-9" transform="translate(25.531250, 42.396484) rotate(-117.000000) translate(-25.531250, -42.396484) translate(19.531250, 36.396484)" stroke="#FFFFFF" stroke-dasharray="1,3.079999923706055" stroke-linecap="round" stroke-width="1.3">
                    <path d="M10.1600605,1.74468951 C5.51999138,1.74468951 1.75847216,5.51085418 1.75847216,10.1566537" id="Oval-4" transform="translate(5.959266, 5.950672) rotate(-17.000000) translate(-5.959266, -5.950672) "></path>
                </g>
            </g>
        </g>
    </g>
</svg>