<?xml version="1.0" encoding="UTF-8"?>
<svg width="52px" height="52px" viewBox="0 0 52 52" version="1.1" xmlns="http://www.w3.org/2000/svg" xmlns:xlink="http://www.w3.org/1999/xlink">
    <!-- Generator: Sketch 50.2 (55047) - http://www.bohemiancoding.com/sketch -->
    <title>Group 7</title>
    <desc>Created with Sketch.</desc>
    <defs>
        <circle id="path-1" cx="26" cy="26" r="26"></circle>
        <path d="M11.5,11.0955403 C13.8658972,11.0955403 16.0770296,10.8807825 18.1334635,10.4512604 C20.1898974,10.0217383 21.81206,9.38745352 23,8.5483871 L23,21.164287 C23,21.8535201 22.4858992,22.4927992 21.4576823,23.0821435 C20.4294653,23.6714878 19.0319099,24.1384612 17.264974,24.4830777 C15.498038,24.8276943 13.5763993,25 11.5,25 C9.42360073,25 7.50196196,24.8276943 5.73502604,24.4830777 C3.96809012,24.1384612 2.57053465,23.6714878 1.54231771,23.0821435 C0.514100762,22.4927992 0,21.8535201 0,21.164287 L0,8.5483871 C1.18793997,9.38745352 2.81010257,10.0217383 4.86653646,10.4512604 C6.92297035,10.8807825 9.13410275,11.0955403 11.5,11.0955403 Z M11.5,0 C13.5763993,1.51460206e-14 15.498038,0.170991234 17.264974,0.512978831 C19.0319099,0.854966428 20.4294653,1.31837745 21.4576823,1.90322581 C22.4858992,2.48807416 23,3.12247642 23,3.80645161 L23,5.70967742 C23,6.39365261 22.4858992,7.02805487 21.4576823,7.61290323 C20.4294653,8.19775158 19.0319099,8.6611626 17.264974,9.0031502 C15.498038,9.3451378 13.5763993,9.51612903 11.5,9.51612903 C9.42360073,9.51612903 7.50196196,9.3451378 5.73502604,9.0031502 C3.96809012,8.6611626 2.57053465,8.19775158 1.54231771,7.61290323 C0.514100762,7.02805487 0,6.39365261 0,5.70967742 L0,3.80645161 C0,3.12247642 0.514100762,2.48807416 1.54231771,1.90322581 C2.57053465,1.31837745 3.96809012,0.854966428 5.73502604,0.512978831 C7.50196196,0.170991234 9.42360073,1.51460206e-14 11.5,0 Z" id="path-3"></path>
        <path d="M11.5,3.02396108 C18.4062142,3.02396108 21.7531934,1.77112258 23,0 L23,2.52418123 C23,3.20719839 22.4858992,3.84071205 21.4576823,4.42474122 C20.4294653,5.00877038 19.0319099,5.47153232 17.264974,5.8130409 C15.498038,6.15454948 13.5763993,6.3253012 11.5,6.3253012 C9.42360073,6.3253012 7.50196196,6.15454948 5.73502604,5.8130409 C3.96809012,5.47153232 2.57053465,5.00877038 1.54231771,4.42474122 C0.514100762,3.84071205 0,3.20719839 0,2.52418123 L0,0 C1.34922852,1.52617305 4.59378581,3.02396108 11.5,3.02396108 Z" id="path-5"></path>
        <path d="M11.5,11.0955403 C13.8658972,11.0955403 16.0770296,10.8807825 18.1334635,10.4512604 C20.1898974,10.0217383 21.81206,9.38745352 23,8.5483871 L23,21.164287 C23,21.8535201 22.4858992,22.4927992 21.4576823,23.0821435 C20.4294653,23.6714878 19.0319099,24.1384612 17.264974,24.4830777 C15.498038,24.8276943 13.5763993,25 11.5,25 C9.42360073,25 7.50196196,24.8276943 5.73502604,24.4830777 C3.96809012,24.1384612 2.57053465,23.6714878 1.54231771,23.0821435 C0.514100762,22.4927992 0,21.8535201 0,21.164287 L0,8.5483871 C1.18793997,9.38745352 2.81010257,10.0217383 4.86653646,10.4512604 C6.92297035,10.8807825 9.13410275,11.0955403 11.5,11.0955403 Z M11.5,0 C13.5763993,1.51460206e-14 15.498038,0.170991234 17.264974,0.512978831 C19.0319099,0.854966428 20.4294653,1.31837745 21.4576823,1.90322581 C22.4858992,2.48807416 23,3.12247642 23,3.80645161 L23,5.70967742 C23,6.39365261 22.4858992,7.02805487 21.4576823,7.61290323 C20.4294653,8.19775158 19.0319099,8.6611626 17.264974,9.0031502 C15.498038,9.3451378 13.5763993,9.51612903 11.5,9.51612903 C9.42360073,9.51612903 7.50196196,9.3451378 5.73502604,9.0031502 C3.96809012,8.6611626 2.57053465,8.19775158 1.54231771,7.61290323 C0.514100762,7.02805487 0,6.39365261 0,5.70967742 L0,3.80645161 C0,3.12247642 0.514100762,2.48807416 1.54231771,1.90322581 C2.57053465,1.31837745 3.96809012,0.854966428 5.73502604,0.512978831 C7.50196196,0.170991234 9.42360073,1.51460206e-14 11.5,0 Z" id="path-7"></path>
        <path d="M11.5,3.02396108 C18.4062142,3.02396108 21.7531934,1.77112258 23,0 L23,2.52418123 C23,3.20719839 22.4858992,3.84071205 21.4576823,4.42474122 C20.4294653,5.00877038 19.0319099,5.47153232 17.264974,5.8130409 C15.498038,6.15454948 13.5763993,6.3253012 11.5,6.3253012 C9.42360073,6.3253012 7.50196196,6.15454948 5.73502604,5.8130409 C3.96809012,5.47153232 2.57053465,5.00877038 1.54231771,4.42474122 C0.514100762,3.84071205 0,3.20719839 0,2.52418123 L0,0 C1.34922852,1.52617305 4.59378581,3.02396108 11.5,3.02396108 Z" id="path-9"></path>
    </defs>
    <g id="Page-1" stroke="none" stroke-width="1" fill="none" fill-rule="evenodd">
        <g id="Desktop-Copy-7" transform="translate(-119.000000, -267.000000)">
            <g id="Group-7" transform="translate(119.000000, 267.000000)">
                <g id="Group-2-+-Group-2-Mask">
                    <mask id="mask-2" fill="white">
                        <use xlink:href="#path-1"></use>
                    </mask>
                    <use id="Mask" fill="#FFFFFF" opacity="0.200000003" xlink:href="#path-1"></use>
                    <g id="Group-2" mask="url(#mask-2)">
                        <g transform="translate(-6.000000, 14.000000)" id="Path-4">
                            <g>
                                <mask id="mask-4" fill="white">
                                    <use xlink:href="#path-3"></use>
                                </mask>
                                <use id="Mask" fill="#FFFFFF" xlink:href="#path-3"></use>
                                <polygon fill="#4A4A4A" opacity="0.200000003" mask="url(#mask-4)" points="17.5330078 9.04222903 17.5330078 29.0263849 28.624515 29.0263849 29.4809431 6.20442076"></polygon>
                            </g>
                            <g transform="translate(0.000000, 3.614458)">
                                <mask id="mask-6" fill="white">
                                    <use xlink:href="#path-5"></use>
                                </mask>
                                <use id="Mask" fill="#D9EEFA" xlink:href="#path-5"></use>
                                <polygon fill="#3C474E" opacity="0.100000001" mask="url(#mask-6)" points="17.6333333 -1.50314641 17.6333333 27.4692837 28.8367685 27.4692837 28.4105907 -1.95498406"></polygon>
                            </g>
                        </g>
                    </g>
                    <g id="Group-2" mask="url(#mask-2)">
                        <g transform="translate(36.000000, 14.000000)" id="Path-4">
                            <g>
                                <mask id="mask-8" fill="white">
                                    <use xlink:href="#path-7"></use>
                                </mask>
                                <use id="Mask" fill="#FFFFFF" xlink:href="#path-7"></use>
                            </g>
                            <g transform="translate(0.000000, 3.614458)">
                                <mask id="mask-10" fill="white">
                                    <use xlink:href="#path-9"></use>
                                </mask>
                                <use id="Mask" fill="#D9EEFA" xlink:href="#path-9"></use>
                            </g>
                        </g>
                    </g>
                </g>
                <polygon id="Path-5" fill="#FFFFFF" points="28.5641098 13 21 28.5442966 27.3116332 26.975092 22.8621568 38.5080668 33 21.9855647 26.1975658 23.2006793"></polygon>
            </g>
        </g>
    </g>
</svg>