<?xml version="1.0" encoding="UTF-8"?>
<svg width="252px" height="136px" viewBox="0 0 252 136" version="1.1" xmlns="http://www.w3.org/2000/svg" xmlns:xlink="http://www.w3.org/1999/xlink">
    <!-- Generator: Sketch 50.2 (55047) - http://www.bohemiancoding.com/sketch -->
    <title>Group 9</title>
    <desc>Created with Sketch.</desc>
    <defs>
        <rect id="path-1" x="0" y="0" width="39.6845303" height="27.2004705" rx="1.728"></rect>
        <path d="M14.2199372,21.182399 L14.368318,18.120841 C13.3528502,16.8874074 12.6920317,15.3583651 12.5686825,13.7051166 L12.0280907,6.45956898 C11.7619172,2.89204754 14.4518855,0 18.0173271,0 L20.817355,0 C24.3912924,0 27.0729507,2.88955811 26.8065914,6.45956898 L26.2659996,13.7051166 C26.1169719,15.7025338 25.1862355,17.514976 23.7953774,18.8455579 L23.9086343,21.182399 L34.8945752,24.5602828 C36.680662,25.1094569 38.1285714,27.0594989 38.1285714,28.9391404 L38.1285714,32.0791219 C38.1285714,33.0070265 37.3669388,33.7592417 36.4410368,33.7592417 L1.6875346,33.7592417 C0.755534973,33.7592417 0,33.0020797 0,32.0791219 L0,28.9391404 C0,27.0699382 1.44856746,25.1092546 3.2339962,24.5602828 L14.2199372,21.182399 Z" id="path-3"></path>
        <polygon id="path-5" points="0 25.6060664 34.2195918 25.6060664 34.2195918 0 0 0"></polygon>
        <rect id="path-7" x="0" y="0.0378642412" width="11.5731429" height="21.5916924" rx="0.96768"></rect>
        <path d="M14.2199372,21.182399 L14.368318,18.120841 C13.3528502,16.8874074 12.6920317,15.3583651 12.5686825,13.7051166 L12.0280907,6.45956898 C11.7619172,2.89204754 14.4518855,0 18.0173271,0 L20.817355,0 C24.3912924,0 27.0729507,2.88955811 26.8065914,6.45956898 L26.2659996,13.7051166 C26.1169719,15.7025338 25.1862355,17.514976 23.7953774,18.8455579 L23.9086343,21.182399 L34.8945752,24.5602828 C36.680662,25.1094569 38.1285714,27.0594989 38.1285714,28.9391404 L38.1285714,32.0791219 C38.1285714,33.0070265 37.3669388,33.7592417 36.4410368,33.7592417 L1.6875346,33.7592417 C0.755534973,33.7592417 0,33.0020797 0,32.0791219 L0,28.9391404 C0,27.0699382 1.44856746,25.1092546 3.2339962,24.5602828 L14.2199372,21.182399 Z" id="path-9"></path>
        <path d="M9.52486085,32.1781991 L9.52486085,33.7478673 C9.52486085,33.9604276 9.44631461,34.1443713 9.28921976,34.2997038 C9.13212492,34.4550363 8.94609434,34.5327014 8.73112245,34.5327014 L7.14364564,34.5327014 C6.92867375,34.5327014 6.74264317,34.4550363 6.58554832,34.2997038 C6.42845348,34.1443713 6.34990724,33.9604276 6.34990724,33.7478673 L6.34990724,32.1781991 C6.34990724,31.9656387 6.42845348,31.7816951 6.58554832,31.6263626 C6.74264317,31.47103 6.92867375,31.3933649 7.14364564,31.3933649 L8.73112245,31.3933649 C8.94609434,31.3933649 9.13212492,31.47103 9.28921976,31.6263626 C9.44631461,31.7816951 9.52486085,31.9656387 9.52486085,32.1781991 Z M9.52486085,25.8995261 L9.52486085,27.4691943 C9.52486085,27.6817546 9.44631461,27.8656983 9.28921976,28.0210308 C9.13212492,28.1763633 8.94609434,28.2540284 8.73112245,28.2540284 L7.14364564,28.2540284 C6.92867375,28.2540284 6.74264317,28.1763633 6.58554832,28.0210308 C6.42845348,27.8656983 6.34990724,27.6817546 6.34990724,27.4691943 L6.34990724,25.8995261 C6.34990724,25.6869658 6.42845348,25.5030221 6.58554832,25.3476896 C6.74264317,25.192357 6.92867375,25.1146919 7.14364564,25.1146919 L8.73112245,25.1146919 C8.94609434,25.1146919 9.13212492,25.192357 9.28921976,25.3476896 C9.44631461,25.5030221 9.52486085,25.6869658 9.52486085,25.8995261 Z M15.8747681,25.8995261 L15.8747681,27.4691943 C15.8747681,27.6817546 15.7962218,27.8656983 15.639127,28.0210308 C15.4820322,28.1763633 15.2960016,28.2540284 15.0810297,28.2540284 L13.4935529,28.2540284 C13.278581,28.2540284 13.0925504,28.1763633 12.9354556,28.0210308 C12.7783607,27.8656983 12.6998145,27.6817546 12.6998145,27.4691943 L12.6998145,25.8995261 C12.6998145,25.6869658 12.7783607,25.5030221 12.9354556,25.3476896 C13.0925504,25.192357 13.278581,25.1146919 13.4935529,25.1146919 L15.0810297,25.1146919 C15.2960016,25.1146919 15.4820322,25.192357 15.639127,25.3476896 C15.7962218,25.5030221 15.8747681,25.6869658 15.8747681,25.8995261 Z M9.52486085,19.6208531 L9.52486085,21.1905213 C9.52486085,21.4030816 9.44631461,21.5870253 9.28921976,21.7423578 C9.13212492,21.8976904 8.94609434,21.9753555 8.73112245,21.9753555 L7.14364564,21.9753555 C6.92867375,21.9753555 6.74264317,21.8976904 6.58554832,21.7423578 C6.42845348,21.5870253 6.34990724,21.4030816 6.34990724,21.1905213 L6.34990724,19.6208531 C6.34990724,19.4082928 6.42845348,19.2243491 6.58554832,19.0690166 C6.74264317,18.9136841 6.92867375,18.836019 7.14364564,18.836019 L8.73112245,18.836019 C8.94609434,18.836019 9.13212492,18.9136841 9.28921976,19.0690166 C9.44631461,19.2243491 9.52486085,19.4082928 9.52486085,19.6208531 Z M28.5745826,32.1781991 L28.5745826,33.7478673 C28.5745826,33.9604276 28.4960363,34.1443713 28.3389415,34.2997038 C28.1818466,34.4550363 27.995816,34.5327014 27.7808442,34.5327014 L26.1933673,34.5327014 C25.9783955,34.5327014 25.7923649,34.4550363 25.63527,34.2997038 C25.4781752,34.1443713 25.3996289,33.9604276 25.3996289,33.7478673 L25.3996289,32.1781991 C25.3996289,31.9656387 25.4781752,31.7816951 25.63527,31.6263626 C25.7923649,31.47103 25.9783955,31.3933649 26.1933673,31.3933649 L27.7808442,31.3933649 C27.995816,31.3933649 28.1818466,31.47103 28.3389415,31.6263626 C28.4960363,31.7816951 28.5745826,31.9656387 28.5745826,32.1781991 Z M22.2246753,25.8995261 L22.2246753,27.4691943 C22.2246753,27.6817546 22.1461291,27.8656983 21.9890342,28.0210308 C21.8319394,28.1763633 21.6459088,28.2540284 21.4309369,28.2540284 L19.8434601,28.2540284 C19.6284882,28.2540284 19.4424576,28.1763633 19.2853628,28.0210308 C19.128268,27.8656983 19.0497217,27.6817546 19.0497217,27.4691943 L19.0497217,25.8995261 C19.0497217,25.6869658 19.128268,25.5030221 19.2853628,25.3476896 C19.4424576,25.192357 19.6284882,25.1146919 19.8434601,25.1146919 L21.4309369,25.1146919 C21.6459088,25.1146919 21.8319394,25.192357 21.9890342,25.3476896 C22.1461291,25.5030221 22.2246753,25.6869658 22.2246753,25.8995261 Z M15.8747681,19.6208531 L15.8747681,21.1905213 C15.8747681,21.4030816 15.7962218,21.5870253 15.639127,21.7423578 C15.4820322,21.8976904 15.2960016,21.9753555 15.0810297,21.9753555 L13.4935529,21.9753555 C13.278581,21.9753555 13.0925504,21.8976904 12.9354556,21.7423578 C12.7783607,21.5870253 12.6998145,21.4030816 12.6998145,21.1905213 L12.6998145,19.6208531 C12.6998145,19.4082928 12.7783607,19.2243491 12.9354556,19.0690166 C13.0925504,18.9136841 13.278581,18.836019 13.4935529,18.836019 L15.0810297,18.836019 C15.2960016,18.836019 15.4820322,18.9136841 15.639127,19.0690166 C15.7962218,19.2243491 15.8747681,19.4082928 15.8747681,19.6208531 Z M28.5745826,25.8995261 L28.5745826,27.4691943 C28.5745826,27.6817546 28.4960363,27.8656983 28.3389415,28.0210308 C28.1818466,28.1763633 27.995816,28.2540284 27.7808442,28.2540284 L26.1933673,28.2540284 C25.9783955,28.2540284 25.7923649,28.1763633 25.63527,28.0210308 C25.4781752,27.8656983 25.3996289,27.6817546 25.3996289,27.4691943 L25.3996289,25.8995261 C25.3996289,25.6869658 25.4781752,25.5030221 25.63527,25.3476896 C25.7923649,25.192357 25.9783955,25.1146919 26.1933673,25.1146919 L27.7808442,25.1146919 C27.995816,25.1146919 28.1818466,25.192357 28.3389415,25.3476896 C28.4960363,25.5030221 28.5745826,25.6869658 28.5745826,25.8995261 Z M22.2246753,19.6208531 L22.2246753,21.1905213 C22.2246753,21.4030816 22.1461291,21.5870253 21.9890342,21.7423578 C21.8319394,21.8976904 21.6459088,21.9753555 21.4309369,21.9753555 L19.8434601,21.9753555 C19.6284882,21.9753555 19.4424576,21.8976904 19.2853628,21.7423578 C19.128268,21.5870253 19.0497217,21.4030816 19.0497217,21.1905213 L19.0497217,19.6208531 C19.0497217,19.4082928 19.128268,19.2243491 19.2853628,19.0690166 C19.4424576,18.9136841 19.6284882,18.836019 19.8434601,18.836019 L21.4309369,18.836019 C21.6459088,18.836019 21.8319394,18.9136841 21.9890342,19.0690166 C22.1461291,19.2243491 22.2246753,19.4082928 22.2246753,19.6208531 Z M28.5745826,19.6208531 L28.5745826,21.1905213 C28.5745826,21.4030816 28.4960363,21.5870253 28.3389415,21.7423578 C28.1818466,21.8976904 27.995816,21.9753555 27.7808442,21.9753555 L26.1933673,21.9753555 C25.9783955,21.9753555 25.7923649,21.8976904 25.63527,21.7423578 C25.4781752,21.5870253 25.3996289,21.4030816 25.3996289,21.1905213 L25.3996289,19.6208531 C25.3996289,19.4082928 25.4781752,19.2243491 25.63527,19.0690166 C25.7923649,18.9136841 25.9783955,18.836019 26.1933673,18.836019 L27.7808442,18.836019 C27.995816,18.836019 28.1818466,18.9136841 28.3389415,19.0690166 C28.4960363,19.2243491 28.5745826,19.4082928 28.5745826,19.6208531 Z M22.2246753,11.7725118 L22.2246753,3.92417062 C22.2246753,3.71161031 22.1461291,3.52766665 21.9890342,3.37233412 C21.8319394,3.21700159 21.6459088,3.13933649 21.4309369,3.13933649 L19.8434601,3.13933649 C19.6284882,3.13933649 19.4424576,3.21700159 19.2853628,3.37233412 C19.128268,3.52766665 19.0497217,3.71161031 19.0497217,3.92417062 L19.0497217,6.27867299 L15.8747681,6.27867299 L15.8747681,3.92417062 C15.8747681,3.71161031 15.7962218,3.52766665 15.639127,3.37233412 C15.4820322,3.21700159 15.2960016,3.13933649 15.0810297,3.13933649 L13.4935529,3.13933649 C13.278581,3.13933649 13.0925504,3.21700159 12.9354556,3.37233412 C12.7783607,3.52766665 12.6998145,3.71161031 12.6998145,3.92417062 L12.6998145,11.7725118 C12.6998145,11.9850722 12.7783607,12.1690158 12.9354556,12.3243483 C13.0925504,12.4796809 13.278581,12.557346 13.4935529,12.557346 L15.0810297,12.557346 C15.2960016,12.557346 15.4820322,12.4796809 15.639127,12.3243483 C15.7962218,12.1690158 15.8747681,11.9850722 15.8747681,11.7725118 L15.8747681,9.41800948 L19.0497217,9.41800948 L19.0497217,11.7725118 C19.0497217,11.9850722 19.128268,12.1690158 19.2853628,12.3243483 C19.4424576,12.4796809 19.6284882,12.557346 19.8434601,12.557346 L21.4309369,12.557346 C21.6459088,12.557346 21.8319394,12.4796809 21.9890342,12.3243483 C22.1461291,12.1690158 22.2246753,11.9850722 22.2246753,11.7725118 Z M22.2246753,43.9507109 L22.2246753,36.6335393 C22.2246753,35.9548918 21.6745228,35.4047393 20.9958753,35.4047393 L13.8845179,35.4047393 C13.2058704,35.4047393 12.6557179,35.9548918 12.6557179,36.6335393 L12.6557179,43.9507109 L1.58747681,43.9507109 C1.15753302,43.9507109 0.785471867,43.7953807 0.471282178,43.4847156 C0.157092488,43.1740506 0,42.8061633 0,42.3810427 L0,10.9876777 C0,10.5625571 0.157092488,10.1946698 0.471282178,9.88400474 C0.785471867,9.57333968 1.15753302,9.41800948 1.58747681,9.41800948 L9.52486085,9.41800948 L9.52486085,2.35450237 C9.52486085,1.70047066 9.75636557,1.14455205 10.219382,0.686729858 C10.6823983,0.228907664 11.2446241,0 11.9060761,0 L23.0184137,0 C23.6798657,0 24.2420915,0.228907664 24.7051078,0.686729858 C25.1681242,1.14455205 25.3996289,1.70047066 25.3996289,2.35450237 L25.3996289,9.41800948 L33.337013,9.41800948 C33.7669568,9.41800948 34.1390179,9.57333968 34.4532076,9.88400474 C34.7673973,10.1946698 34.9244898,10.5625571 34.9244898,10.9876777 L34.9244898,42.3810427 C34.9244898,42.8061633 34.7673973,43.1740506 34.4532076,43.4847156 C34.1390179,43.7953807 33.7669568,43.9507109 33.337013,43.9507109 L22.2246753,43.9507109 Z" id="path-11"></path>
    </defs>
    <g id="Page-1" stroke="none" stroke-width="1" fill="none" fill-rule="evenodd">
        <g id="Desktop-Copy-5" transform="translate(-826.000000, -303.000000)">
            <g id="Group-9" transform="translate(826.000000, 304.000000)">
                <path d="M123.466935,28.7601862 L123.466935,-0.330004611 L201.63169,54.6049841 L123.466935,109.539973 L123.466935,80.449782 L5.11403473,80.449782 C2.28963134,80.449782 -5.68434189e-14,78.1620493 -5.68434189e-14,75.3283899 L-5.68434189e-14,33.8815783 C-5.68434189e-14,31.0531115 2.29757743,28.7601862 5.11403473,28.7601862 L123.466935,28.7601862 Z" id="Combined-Shape" fill="#0090FC" opacity="0.100000001"></path>
                <path d="M173.930463,54.8056879 L173.930463,26.1087441 L250.955789,80.2737395 L173.930463,134.438735 L173.930463,105.741791 L51.2687478,105.741791 C48.4355423,105.741791 46.1387755,103.454219 46.1387755,100.624628 L46.1387755,59.9228506 C46.1387755,57.0967197 48.4258424,54.8056879 51.2687478,54.8056879 L173.930463,54.8056879 Z" id="Combined-Shape" fill="#D1ED64" opacity="0.5" transform="translate(148.663658, 80.273740) scale(-1, 1) translate(-148.663658, -80.273740) "></path>
                <g id="Group-9-Copy-3" transform="translate(24.991837, 34.396209)">
                    <g id="Group-3" transform="translate(10.980096, 30.911508)">
                        <rect id="Rectangle-5" fill="#A5C2D2" x="0" y="0.0120371915" width="17.9148942" height="3.43059959" rx="0.648"></rect>
                        <ellipse id="Oval-2" fill="#D1ED64" cx="16.0512643" cy="1.75742996" rx="1" ry="1"></ellipse>
                        <rect id="Rectangle-5" fill="#A5C2D2" x="0" y="4.22505423" width="17.9148942" height="3.43059959" rx="0.648"></rect>
                        <ellipse id="Oval-2" fill="#D1ED64" cx="16.0512643" cy="5.970447" rx="1" ry="1"></ellipse>
                    </g>
                    <g id="Group-5">
                        <g id="Group-2">
                            <g id="Path-2">
                                <mask id="mask-2" fill="white">
                                    <use xlink:href="#path-1"></use>
                                </mask>
                                <use id="Mask" fill="#A5C2D2" xlink:href="#path-1"></use>
                                <rect id="Rectangle-2" fill="#0090FC" opacity="0.800000012" mask="url(#mask-2)" x="1.44474954" y="1.44446298" width="36.8411132" height="24.2147983"></rect>
                                <path d="M5.81624559,20.1841132 L18.1948145,10.8639415 L22.6588648,15.1273643 L33.6107435,7.40625825" id="Path-4" stroke="#D1ED64" stroke-width="1.728" stroke-linecap="round" stroke-dasharray="0.1439999938011169,2.879999923706055" mask="url(#mask-2)"></path>
                                <path d="M8.69527547,20.4719279 L16.6263975,15.811842 L27.1506012,18.493777 L34.6529482,12.7582833" id="Path-4" stroke="#69B0B8" stroke-width="1.728" stroke-linecap="round" stroke-dasharray="0.1439999938011169,2.879999923706055" mask="url(#mask-2)"></path>
                                <polygon fill="#FFFFFF" opacity="0.300000012" mask="url(#mask-2)" points="21.2270301 -0.823516034 6.55209662 31.1534657 -9.74435801 31.1534657 -9.26897041 -0.904724413"></polygon>
                            </g>
                        </g>
                        <path d="M30.5856107,16.9080954 L30.0674882,14.8410406 L35.8217272,17.9487556 L30.0674882,21.0564707 L30.5549226,19.1118465 L26.5463708,19.1118465 L26.5463708,16.9080954 L30.5856107,16.9080954 Z" id="Combined-Shape" fill="#FFFFFF" transform="translate(31.184491, 17.948756) rotate(-127.000000) translate(-31.184491, -17.948756) "></path>
                    </g>
                </g>
                <g id="Rectangle" transform="translate(5.767347, 41.402844)">
                    <mask id="mask-4" fill="white">
                        <use xlink:href="#path-3"></use>
                    </mask>
                    <use id="Mask" fill="#0090FC" xlink:href="#path-3"></use>
                    <rect fill="#4A4A4A" opacity="0.100000001" mask="url(#mask-4)" x="19.0642857" y="-3.51658768" width="21.1825397" height="39.7374408"></rect>
                </g>
                <path d="M172.957661,87.264455 L198.07476,87.264455 C198.50306,87.264455 198.896003,87.5020675 199.094945,87.8813606 L201.728557,92.9024791 C202.024081,93.4659119 201.806899,94.1622343 201.243466,94.4577587 C201.078392,94.544341 200.894774,94.5895735 200.708372,94.5895735 L170.324049,94.5895735 C169.687817,94.5895735 169.172049,94.0738055 169.172049,93.4375735 C169.172049,93.2511712 169.217281,93.0675528 169.303863,92.9024791 L171.937475,87.8813606 C172.136417,87.5020675 172.52936,87.264455 172.957661,87.264455 Z" id="Rectangle-13" fill="#4A4A4A" opacity="0.100000001"></path>
                <g id="Group-8" transform="translate(168.534694, 62.422749)">
                    <g id="Laptop">
                        <mask id="mask-6" fill="white">
                            <use xlink:href="#path-5"></use>
                        </mask>
                        <g id="Clip-2"></g>
                        <path d="M34.1371261,24.2587025 L0.0825446997,24.2587025 L0,24.4194111 C0,24.8566455 0.354484504,25.6060664 0.791513708,25.6060664 L33.4278414,25.6060664 C33.8651073,25.6060664 34.2195918,24.8566455 34.2195918,24.4194111 L34.1371261,24.2587025 Z M31.0181043,18.1788397 C31.0181043,18.1524888 31.012896,18.1275581 31.0102129,18.1019173 C31.012896,18.0758821 31.0181043,18.0511091 31.0181043,18.0252317 L31.0181043,0.791156129 C31.0181043,0.354158343 30.6636987,0 30.2263539,0 L3.99300121,0 C3.555972,0 3.20156641,0.354158343 3.20156641,0.791156129 L3.20156641,18.0252317 C3.20156641,18.0511091 3.20685369,18.0758821 3.20937896,18.1019173 C3.20685369,18.1275581 3.20156641,18.1524888 3.20156641,18.1788397 L3.19485867,18.1916206 L31.0247332,18.1916206 L31.0181043,18.1788397 Z M31.5122677,19.1419074 L2.70748193,19.1419074 L0.570158179,23.3081002 L33.6495126,23.3081002 L31.5122677,19.1419074 L31.5122677,19.1419074 Z" id="Fill-1" fill="#A5C2D2" mask="url(#mask-6)"></path>
                        <polygon id="Path" fill="#7E9DAE" mask="url(#mask-6)" points="13.503792 22.3081887 14.3918183 20.6202364 19.9154476 20.6202364 20.7160365 22.3081887"></polygon>
                        <polygon id="Path" fill="#4A4A4A" mask="url(#mask-6)" points="5.17750976 16.8411799 29.0420821 16.8411799 29.0420821 1.9752079 5.17750976 1.9752079"></polygon>
                        <rect id="Rectangle-8" fill="#FFFFFF" mask="url(#mask-6)" x="12.3036735" y="5.61804739" width="9.0355102" height="6.15309953" rx="0.768"></rect>
                        <path d="M17.3193069,9.11630545 L16.5396819,9.11630545 L16.4191944,6.88138045 L17.4397944,6.88138045 L17.3193069,9.11630545 Z M16.4286444,9.94318045 C16.4286444,9.79985473 16.471169,9.6884246 16.5562194,9.6088867 C16.6412698,9.5293488 16.7649061,9.48958045 16.9271319,9.48958045 C17.0877827,9.48958045 17.2094502,9.5293488 17.2921381,9.6088867 C17.3748261,9.6884246 17.4161694,9.79985473 17.4161694,9.94318045 C17.4161694,10.0849312 17.3732511,10.1955738 17.2874131,10.2751117 C17.2015752,10.3546496 17.0814827,10.394418 16.9271319,10.394418 C16.7712061,10.394418 16.6491448,10.3546496 16.5609444,10.2751117 C16.4727439,10.1955738 16.4286444,10.0849312 16.4286444,9.94318045 Z" id="!" fill="#BFD95D" mask="url(#mask-6)"></path>
                        <polygon id="Path-2" fill="#FFFFFF" opacity="0.300000012" mask="url(#mask-6)" points="17.3793795 -0.257531621 11.0838686 18.7167609 3.34506122 18.7268246 3.44874864 -0.305744076"></polygon>
                    </g>
                </g>
                <g id="Group-7" transform="translate(83.626531, 65.289100)">
                    <ellipse id="Oval-3" fill="#FFFFFF" cx="14.4183673" cy="14.3317536" rx="14.4183673" ry="14.3317536"></ellipse>
                    <path d="M12.4166531,16.2150948 L12.4166531,15.5490948 C12.4166531,14.9730919 12.5396518,14.4720969 12.7856531,14.0460948 C13.0316543,13.6200927 13.4816498,13.1670972 14.1356531,12.6870948 C14.7656562,12.2370925 15.1811521,11.8710962 15.3821531,11.5890948 C15.5831541,11.3070934 15.6836531,10.9920965 15.6836531,10.6440948 C15.6836531,10.2540928 15.5396545,9.95709581 15.2516531,9.75309479 C14.9636516,9.54909377 14.5616556,9.44709479 14.0456531,9.44709479 C13.1456486,9.44709479 12.1196588,9.74109185 10.9676531,10.3290948 L9.98665306,8.35809479 C11.3246598,7.60809104 12.7436456,7.23309479 14.2436531,7.23309479 C15.4796592,7.23309479 16.4621494,7.53009182 17.1911531,8.12409479 C17.9201567,8.71809776 18.2846531,9.51008984 18.2846531,10.5000948 C18.2846531,11.1600981 18.1346546,11.7300924 17.8346531,12.2100948 C17.5346516,12.6900972 16.9646573,13.2300918 16.1246531,13.8300948 C15.5486502,14.2560969 15.1841538,14.5800937 15.0311531,14.8020948 C14.8781523,15.0240959 14.8016531,15.315093 14.8016531,15.6750948 L14.8016531,16.2150948 L12.4166531,16.2150948 Z M12.1286531,19.2930948 C12.1286531,18.7890923 12.2636517,18.4080961 12.5336531,18.1500948 C12.8036544,17.8920935 13.1966505,17.7630948 13.7126531,17.7630948 C14.2106556,17.7630948 14.5961517,17.8950935 14.8691531,18.1590948 C15.1421544,18.4230961 15.2786531,18.8010923 15.2786531,19.2930948 C15.2786531,19.7670972 15.1406544,20.1405934 14.8646531,20.4135948 C14.5886517,20.6865962 14.2046555,20.8230948 13.7126531,20.8230948 C13.2086505,20.8230948 12.8186544,20.6895961 12.5426531,20.4225948 C12.2666517,20.1555935 12.1286531,19.7790972 12.1286531,19.2930948 Z" id="?" fill="#4A4A4A"></path>
                </g>
                <path d="M151.416665,88.2199052 L159.699972,88.2199052 C160.336205,88.2199052 160.851972,88.7356732 160.851972,89.3719052 C160.851972,89.4935713 160.832699,89.6144694 160.794868,89.7301045 L160.402507,90.9294221 C160.247592,91.4029451 159.805831,91.7232227 159.307611,91.7232227 L151.809026,91.7232227 C151.310807,91.7232227 150.869045,91.4029451 150.71413,90.9294221 L150.321769,89.7301045 C150.123941,89.1254102 150.453771,88.4748372 151.058466,88.2770092 C151.174101,88.2391787 151.294999,88.2199052 151.416665,88.2199052 Z" id="Rectangle-13" fill="#4A4A4A" opacity="0.100000001"></path>
                <g id="Group-2-Copy" transform="translate(149.630612, 64.015166)">
                    <g id="Path-2">
                        <mask id="mask-8" fill="white">
                            <use xlink:href="#path-7"></use>
                        </mask>
                        <use id="Mask" fill="#A5C2D2" xlink:href="#path-7"></use>
                        <rect id="Rectangle-2" fill="#4A4A4A" opacity="0.800000012" mask="url(#mask-8)" x="0.609112782" y="2.16295566" width="10.3549173" height="16.9832074"></rect>
                        <rect id="Rectangle-8" fill="#FFFFFF" mask="url(#mask-8)" x="2.15314286" y="5.61804739" width="7.26685714" height="6.15309953" rx="0.768"></rect>
                        <polygon id="Triangle-2" fill="#FFFFFF" mask="url(#mask-8)" transform="translate(4.037143, 12.191545) scale(1, -1) translate(-4.037143, -12.191545) " points="4.03714286 11.6564929 4.84457143 12.7265972 3.22971429 12.7265972"></polygon>
                        <path d="M8.09155179,9.11630545 L7.31192679,9.11630545 L7.19143929,6.88138045 L8.21203929,6.88138045 L8.09155179,9.11630545 Z M7.20088929,9.94318045 C7.20088929,9.79985473 7.24341386,9.6884246 7.32846429,9.6088867 C7.41351471,9.5293488 7.53715097,9.48958045 7.69937679,9.48958045 C7.86002759,9.48958045 7.98169512,9.5293488 8.06438304,9.6088867 C8.14707095,9.6884246 8.18841429,9.79985473 8.18841429,9.94318045 C8.18841429,10.0849312 8.14549596,10.1955738 8.05965804,10.2751117 C7.97382011,10.3546496 7.85372756,10.394418 7.69937679,10.394418 C7.54345101,10.394418 7.42138973,10.3546496 7.33318929,10.2751117 C7.24498884,10.1955738 7.20088929,10.0849312 7.20088929,9.94318045 Z" id="!" fill="#BFD95D" mask="url(#mask-8)"></path>
                        <rect id="Rectangle-3" fill="#000000" opacity="0.100000001" mask="url(#mask-8)" x="5.03533233" y="19.6268199" width="1.5024782" height="1.48202518" rx="0.741012589"></rect>
                        <rect id="Rectangle-4" fill="#000000" opacity="0.100000001" mask="url(#mask-8)" x="4.95411729" y="0.961313628" width="1.62430075" height="1" rx="0.5"></rect>
                        <rect id="Rectangle-4" fill="#000000" opacity="0.100000001" mask="url(#mask-8)" x="4.14196692" y="0.961313628" width="1" height="1" rx="0.5"></rect>
                        <polygon fill="#FFFFFF" opacity="0.300000012" mask="url(#mask-8)" points="9.41306116 -1.00564118 0.995566659 24.3641828 -2.42228571 24.3776386 -2.28364911 -1.07010427"></polygon>
                    </g>
                </g>
                <g id="Rectangle" transform="translate(117.910204, 64.652133)">
                    <mask id="mask-10" fill="white">
                        <use xlink:href="#path-9"></use>
                    </mask>
                    <use id="Mask" fill="#BFD95D" xlink:href="#path-9"></use>
                    <rect fill="#4A4A4A" opacity="0.100000001" mask="url(#mask-10)" x="19.0642857" y="-3.51658768" width="21.1825397" height="39.7374408"></rect>
                </g>
                <g id="Rectangle-9" transform="translate(207.944898, 57.645498)">
                    <mask id="mask-12" fill="white">
                        <use xlink:href="#path-11"></use>
                    </mask>
                    <use id="Mask" fill="#BFD95D" xlink:href="#path-11"></use>
                    <rect fill="#4A4A4A" opacity="0.100000001" mask="url(#mask-12)" x="17.2703521" y="-1.14654028" width="21.4919937" height="47.0081517"></rect>
                </g>
            </g>
        </g>
    </g>
</svg>