<?xml version="1.0" encoding="UTF-8"?>
<svg width="278px" height="278px" viewBox="0 0 278 278" version="1.1" xmlns="http://www.w3.org/2000/svg" xmlns:xlink="http://www.w3.org/1999/xlink">
    <!-- Generator: Sketch 50.2 (55047) - http://www.bohemiancoding.com/sketch -->
    <title>Group 10</title>
    <desc>Created with Sketch.</desc>
    <defs>
        <circle id="path-1" cx="139" cy="139" r="139"></circle>
        <rect id="path-3" x="0" y="0" width="102.37365" height="29.7213823"></rect>
        <path d="M2.71416768,6.32444587 L1.34034075,7.2087354 C1.24637287,7.27039275 1.1524064,7.29736743 1.05843851,7.28966026 C0.956639974,7.27424593 0.87441931,7.23185714 0.811774056,7.16249262 L0.0835266094,6.30700122 C0.0208813546,6.22992953 -0.00652553328,6.13937166 0.00130512357,6.03532489 C0.00913578043,5.93127812 0.0522037471,5.8484273 0.130510316,5.78676995 L8.57583151,0.300578062 C8.82641252,0.100191685 9.12397302,0 9.46852192,0 C9.81307083,0 10.1106313,0.100191685 10.3612123,0.300578062 L18.8065335,5.78676995 C18.8848401,5.8484273 18.9279081,5.93127812 18.9357387,6.03532489 C18.9435694,6.13937166 18.9161625,6.22992953 18.8535172,6.30700122 L18.1252698,7.16249262 C18.0626245,7.23185714 17.9804039,7.27424593 17.8786053,7.28966026 C17.741569,7.28966026 17.6593484,7.26268558 17.5967031,7.2087354 L16.2250187,6.32582494 C16.2311233,7.53487244 16.2341756,12.6538226 16.2341756,12.6538226 C16.2341756,12.854209 16.1597855,13.0276177 16.011003,13.1740539 C15.8622205,13.3204901 15.6860334,13.3937071 15.4824363,13.3937071 L3.45460753,13.3937071 C3.25101045,13.3937071 3.07482331,13.3204901 2.92604083,13.1740539 C2.77725835,13.0276177 2.70286823,12.854209 2.70286823,12.6538226 C2.70286823,12.6538226 2.71202148,7.53093468 2.71416768,6.32444586 Z" id="path-5"></path>
        <path d="M0.012223838,9.3266057 L-1.36160309,10.2108952 C-1.45557098,10.2725526 -1.54953745,10.2995273 -1.64350533,10.2918201 C-1.74530387,10.2764058 -1.82752453,10.234017 -1.89016979,10.1646524 L-2.61841724,9.30916104 C-2.68106249,9.23208936 -2.70846938,9.14153149 -2.70063872,9.03748472 C-2.69280806,8.93343794 -2.6497401,8.85058713 -2.57143353,8.78892978 L5.87388766,3.30273789 C6.12446868,3.10235151 6.42202918,3.00215983 6.76657808,3.00215983 C7.11112698,3.00215983 7.40868748,3.10235151 7.6592685,3.30273789 L16.1045897,8.78892978 C16.1828963,8.85058713 16.2259642,8.93343794 16.2337949,9.03748472 C16.2416255,9.14153149 16.2142186,9.23208936 16.1515734,9.30916104 L15.4233259,10.1646524 C15.3606807,10.234017 15.27846,10.2764058 15.1766615,10.2918201 C15.0396252,10.2918201 14.9574045,10.2648454 14.8947593,10.2108952 L13.5230748,9.32798477 C13.5291795,10.5370323 13.5322318,15.6559824 13.5322318,15.6559824 C13.5322318,15.8563688 13.4578416,16.0297775 13.3090592,16.1762137 C13.1602767,16.3226499 12.9840896,16.3958669 12.7804925,16.3958669 L0.752663685,16.3958669 C0.549066607,16.3958669 0.37287947,16.3226499 0.22409699,16.1762137 C0.07531451,16.0297775 0.000924385747,15.8563688 0.000924385747,15.6559824 C0.000924385747,15.6559824 0.010077634,10.5330945 0.012223838,9.32660569 Z" id="path-7"></path>
        <path d="M0.012223838,9.3266057 L-1.36160309,10.2108952 C-1.45557098,10.2725526 -1.54953745,10.2995273 -1.64350533,10.2918201 C-1.74530387,10.2764058 -1.82752453,10.234017 -1.89016979,10.1646524 L-2.61841724,9.30916104 C-2.68106249,9.23208936 -2.70846938,9.14153149 -2.70063872,9.03748472 C-2.69280806,8.93343794 -2.6497401,8.85058713 -2.57143353,8.78892978 L5.87388766,3.30273789 C6.12446868,3.10235151 6.42202918,3.00215983 6.76657808,3.00215983 C7.11112698,3.00215983 7.40868748,3.10235151 7.6592685,3.30273789 L16.1045897,8.78892978 C16.1828963,8.85058713 16.2259642,8.93343794 16.2337949,9.03748472 C16.2416255,9.14153149 16.2142186,9.23208936 16.1515734,9.30916104 L15.4233259,10.1646524 C15.3606807,10.234017 15.27846,10.2764058 15.1766615,10.2918201 C15.0396252,10.2918201 14.9574045,10.2648454 14.8947593,10.2108952 L13.5230748,9.32798477 C13.5291795,10.5370323 13.5322318,15.6559824 13.5322318,15.6559824 C13.5322318,15.8563688 13.4578416,16.0297775 13.3090592,16.1762137 C13.1602767,16.3226499 12.9840896,16.3958669 12.7804925,16.3958669 L0.752663685,16.3958669 C0.549066607,16.3958669 0.37287947,16.3226499 0.22409699,16.1762137 C0.07531451,16.0297775 0.000924385747,15.8563688 0.000924385747,15.6559824 C0.000924385747,15.6559824 0.010077634,10.5330945 0.012223838,9.32660569 Z" id="path-9"></path>
        <path d="M0.012223838,9.3266057 L-1.36160309,10.2108952 C-1.45557098,10.2725526 -1.54953745,10.2995273 -1.64350533,10.2918201 C-1.74530387,10.2764058 -1.82752453,10.234017 -1.89016979,10.1646524 L-2.61841724,9.30916104 C-2.68106249,9.23208936 -2.70846938,9.14153149 -2.70063872,9.03748472 C-2.69280806,8.93343794 -2.6497401,8.85058713 -2.57143353,8.78892978 L5.87388766,3.30273789 C6.12446868,3.10235151 6.42202918,3.00215983 6.76657808,3.00215983 C7.11112698,3.00215983 7.40868748,3.10235151 7.6592685,3.30273789 L16.1045897,8.78892978 C16.1828963,8.85058713 16.2259642,8.93343794 16.2337949,9.03748472 C16.2416255,9.14153149 16.2142186,9.23208936 16.1515734,9.30916104 L15.4233259,10.1646524 C15.3606807,10.234017 15.27846,10.2764058 15.1766615,10.2918201 C15.0396252,10.2918201 14.9574045,10.2648454 14.8947593,10.2108952 L13.5230748,9.32798477 C13.5291795,10.5370323 13.5322318,15.6559824 13.5322318,15.6559824 C13.5322318,15.8563688 13.4578416,16.0297775 13.3090592,16.1762137 C13.1602767,16.3226499 12.9840896,16.3958669 12.7804925,16.3958669 L0.752663685,16.3958669 C0.549066607,16.3958669 0.37287947,16.3226499 0.22409699,16.1762137 C0.07531451,16.0297775 0.000924385747,15.8563688 0.000924385747,15.6559824 C0.000924385747,15.6559824 0.010077634,10.5330945 0.012223838,9.32660569 Z" id="path-11"></path>
        <path d="M0.012223838,9.3266057 L-1.36160309,10.2108952 C-1.45557098,10.2725526 -1.54953745,10.2995273 -1.64350533,10.2918201 C-1.74530387,10.2764058 -1.82752453,10.234017 -1.89016979,10.1646524 L-2.61841724,9.30916104 C-2.68106249,9.23208936 -2.70846938,9.14153149 -2.70063872,9.03748472 C-2.69280806,8.93343794 -2.6497401,8.85058713 -2.57143353,8.78892978 L5.87388766,3.30273789 C6.12446868,3.10235151 6.42202918,3.00215983 6.76657808,3.00215983 C7.11112698,3.00215983 7.40868748,3.10235151 7.6592685,3.30273789 L16.1045897,8.78892978 C16.1828963,8.85058713 16.2259642,8.93343794 16.2337949,9.03748472 C16.2416255,9.14153149 16.2142186,9.23208936 16.1515734,9.30916104 L15.4233259,10.1646524 C15.3606807,10.234017 15.27846,10.2764058 15.1766615,10.2918201 C15.0396252,10.2918201 14.9574045,10.2648454 14.8947593,10.2108952 L13.5230748,9.32798477 C13.5291795,10.5370323 13.5322318,15.6559824 13.5322318,15.6559824 C13.5322318,15.8563688 13.4578416,16.0297775 13.3090592,16.1762137 C13.1602767,16.3226499 12.9840896,16.3958669 12.7804925,16.3958669 L0.752663685,16.3958669 C0.549066607,16.3958669 0.37287947,16.3226499 0.22409699,16.1762137 C0.07531451,16.0297775 0.000924385746,15.8563688 0.000924385746,15.6559824 C0.000924385746,15.6559824 0.010077634,10.5330945 0.012223838,9.32660569 Z" id="path-13"></path>
        <rect id="path-15" x="0" y="0" width="102.37365" height="29.4211663"></rect>
        <rect id="path-17" x="0" y="0" width="82.463638" height="56.5332312" rx="3.6"></rect>
        <rect id="path-19" x="0" y="0" width="82.463638" height="56.5332312" rx="3.6"></rect>
        <path d="M2.58172244,6.04335939 L1.27493516,6.88834716 C1.18555269,6.94726418 1.09617157,6.97303999 1.00678911,6.96567536 C0.909958108,6.95094611 0.831749627,6.91044126 0.772161319,6.84415962 L0.0794506999,6.02669005 C0.0198623918,5.95304377 -0.00620710202,5.8665107 0.0012414365,5.76708823 C0.00868997502,5.66766576 0.0496563224,5.5884972 0.124141708,5.52958018 L8.15735034,0.287219037 C8.39570357,0.0957387216 8.67874379,0 9.00647948,0 C9.33421518,0 9.61725539,0.0957387216 9.85560863,0.287219037 L17.8888173,5.52958018 C17.9633026,5.5884972 18.004269,5.66766576 18.0117175,5.76708823 C18.0191661,5.8665107 17.9930966,5.95304377 17.9335083,6.02669005 L17.2407976,6.84415962 C17.1812093,6.91044126 17.1030009,6.95094611 17.0061699,6.96567536 C16.8758206,6.96567536 16.7976121,6.93989955 16.7380238,6.88834716 L15.4332745,6.04467717 C15.4390812,7.19998922 15.4419846,12.0914305 15.4419846,12.0914305 C15.4419846,12.2829108 15.3712245,12.4486124 15.2297023,12.5885404 C15.0881801,12.7284683 14.9205905,12.7984312 14.7269285,12.7984312 L3.2860305,12.7984312 C3.0923685,12.7984312 2.9247789,12.7284683 2.78325666,12.5885404 C2.64173443,12.4486124 2.57097438,12.2829108 2.57097438,12.0914305 C2.57097438,12.0914305 2.57968097,7.19622648 2.58172244,6.04335938 Z" id="path-21"></path>
        <path d="M2.58172244,6.04335939 L1.27493516,6.88834716 C1.18555269,6.94726418 1.09617157,6.97303999 1.00678911,6.96567536 C0.909958108,6.95094611 0.831749627,6.91044126 0.772161319,6.84415962 L0.0794506999,6.02669005 C0.0198623918,5.95304377 -0.00620710202,5.8665107 0.0012414365,5.76708823 C0.00868997502,5.66766576 0.0496563224,5.5884972 0.124141708,5.52958018 L8.15735034,0.287219037 C8.39570357,0.0957387216 8.67874379,0 9.00647948,0 C9.33421518,0 9.61725539,0.0957387216 9.85560863,0.287219037 L17.8888173,5.52958018 C17.9633026,5.5884972 18.004269,5.66766576 18.0117175,5.76708823 C18.0191661,5.8665107 17.9930966,5.95304377 17.9335083,6.02669005 L17.2407976,6.84415962 C17.1812093,6.91044126 17.1030009,6.95094611 17.0061699,6.96567536 C16.8758206,6.96567536 16.7976121,6.93989955 16.7380238,6.88834716 L15.4332745,6.04467717 C15.4390812,7.19998922 15.4419846,12.0914305 15.4419846,12.0914305 C15.4419846,12.2829108 15.3712245,12.4486124 15.2297023,12.5885404 C15.0881801,12.7284683 14.9205905,12.7984312 14.7269285,12.7984312 L3.2860305,12.7984312 C3.0923685,12.7984312 2.9247789,12.7284683 2.78325666,12.5885404 C2.64173443,12.4486124 2.57097438,12.2829108 2.57097438,12.0914305 C2.57097438,12.0914305 2.57968097,7.19622648 2.58172244,6.04335938 Z" id="path-23"></path>
        <path d="M2.58172244,6.04335939 L1.27493516,6.88834716 C1.18555269,6.94726418 1.09617157,6.97303999 1.00678911,6.96567536 C0.909958108,6.95094611 0.831749627,6.91044126 0.772161319,6.84415962 L0.0794506999,6.02669005 C0.0198623918,5.95304377 -0.00620710202,5.8665107 0.0012414365,5.76708823 C0.00868997502,5.66766576 0.0496563224,5.5884972 0.124141708,5.52958018 L8.15735034,0.287219037 C8.39570357,0.0957387216 8.67874379,0 9.00647948,0 C9.33421518,0 9.61725539,0.0957387216 9.85560863,0.287219037 L17.8888173,5.52958018 C17.9633026,5.5884972 18.004269,5.66766576 18.0117175,5.76708823 C18.0191661,5.8665107 17.9930966,5.95304377 17.9335083,6.02669005 L17.2407976,6.84415962 C17.1812093,6.91044126 17.1030009,6.95094611 17.0061699,6.96567536 C16.8758206,6.96567536 16.7976121,6.93989955 16.7380238,6.88834716 L15.4332745,6.04467717 C15.4390812,7.19998922 15.4419846,12.0914305 15.4419846,12.0914305 C15.4419846,12.2829108 15.3712245,12.4486124 15.2297023,12.5885404 C15.0881801,12.7284683 14.9205905,12.7984312 14.7269285,12.7984312 L3.2860305,12.7984312 C3.0923685,12.7984312 2.9247789,12.7284683 2.78325666,12.5885404 C2.64173443,12.4486124 2.57097438,12.2829108 2.57097438,12.0914305 C2.57097438,12.0914305 2.57968097,7.19622648 2.58172244,6.04335938 Z" id="path-25"></path>
        <path d="M2.58172244,6.04335939 L1.27493516,6.88834716 C1.18555269,6.94726418 1.09617157,6.97303999 1.00678911,6.96567536 C0.909958108,6.95094611 0.831749627,6.91044126 0.772161319,6.84415962 L0.0794506999,6.02669005 C0.0198623918,5.95304377 -0.00620710202,5.8665107 0.0012414365,5.76708823 C0.00868997502,5.66766576 0.0496563224,5.5884972 0.124141708,5.52958018 L8.15735034,0.287219037 C8.39570357,0.0957387216 8.67874379,0 9.00647948,0 C9.33421518,0 9.61725539,0.0957387216 9.85560863,0.287219037 L17.8888173,5.52958018 C17.9633026,5.5884972 18.004269,5.66766576 18.0117175,5.76708823 C18.0191661,5.8665107 17.9930966,5.95304377 17.9335083,6.02669005 L17.2407976,6.84415962 C17.1812093,6.91044126 17.1030009,6.95094611 17.0061699,6.96567536 C16.8758206,6.96567536 16.7976121,6.93989955 16.7380238,6.88834716 L15.4332745,6.04467717 C15.4390812,7.19998922 15.4419846,12.0914305 15.4419846,12.0914305 C15.4419846,12.2829108 15.3712245,12.4486124 15.2297023,12.5885404 C15.0881801,12.7284683 14.9205905,12.7984312 14.7269285,12.7984312 L3.2860305,12.7984312 C3.0923685,12.7984312 2.9247789,12.7284683 2.78325666,12.5885404 C2.64173443,12.4486124 2.57097438,12.2829108 2.57097438,12.0914305 C2.57097438,12.0914305 2.57968097,7.19622648 2.58172244,6.04335938 Z" id="path-27"></path>
        <path d="M2.58172244,6.04335939 L1.27493516,6.88834716 C1.18555269,6.94726418 1.09617157,6.97303999 1.00678911,6.96567536 C0.909958108,6.95094611 0.831749627,6.91044126 0.772161319,6.84415962 L0.0794506999,6.02669005 C0.0198623918,5.95304377 -0.00620710202,5.8665107 0.0012414365,5.76708823 C0.00868997502,5.66766576 0.0496563224,5.5884972 0.124141708,5.52958018 L8.15735034,0.287219037 C8.39570357,0.0957387216 8.67874379,0 9.00647948,0 C9.33421518,0 9.61725539,0.0957387216 9.85560863,0.287219037 L17.8888173,5.52958018 C17.9633026,5.5884972 18.004269,5.66766576 18.0117175,5.76708823 C18.0191661,5.8665107 17.9930966,5.95304377 17.9335083,6.02669005 L17.2407976,6.84415962 C17.1812093,6.91044126 17.1030009,6.95094611 17.0061699,6.96567536 C16.8758206,6.96567536 16.7976121,6.93989955 16.7380238,6.88834716 L15.4332745,6.04467717 C15.4390812,7.19998922 15.4419846,12.0914305 15.4419846,12.0914305 C15.4419846,12.2829108 15.3712245,12.4486124 15.2297023,12.5885404 C15.0881801,12.7284683 14.9205905,12.7984312 14.7269285,12.7984312 L3.2860305,12.7984312 C3.0923685,12.7984312 2.9247789,12.7284683 2.78325666,12.5885404 C2.64173443,12.4486124 2.57097438,12.2829108 2.57097438,12.0914305 C2.57097438,12.0914305 2.57968097,7.19622648 2.58172244,6.04335938 Z" id="path-29"></path>
    </defs>
    <g id="Page-1" stroke="none" stroke-width="1" fill="none" fill-rule="evenodd">
        <g id="Desktop-Copy-6" transform="translate(-451.000000, -176.000000)">
            <g id="Group-10" transform="translate(451.000000, 176.000000)">
                <g id="Rectangle-14-+--copy-8-+-Combined-Shape-+-Combined-Shape-Mask">
                    <mask id="mask-2" fill="white">
                        <use xlink:href="#path-1"></use>
                    </mask>
                    <use id="Mask" fill="#C0D4DF" opacity="0.200000003" xlink:href="#path-1"></use>
                    <rect id="Rectangle-14" fill="#FFFFFF" opacity="0.600000024" mask="url(#mask-2)" x="102.073434" y="-12.9092873" width="73.8531317" height="73.8531317"></rect>
                </g>
                <g id="Group" transform="translate(138.948164, 119.443844) rotate(-270.000000) translate(-138.948164, -119.443844) translate(80.448164, 52.443844)">
                    <g id="Group-7" transform="translate(13.209503, 0.000000)">
                        <mask id="mask-4" fill="white">
                            <use xlink:href="#path-3"></use>
                        </mask>
                        <use id="Mask" fill="#ACC4EF" xlink:href="#path-3"></use>
                        <g mask="url(#mask-4)" id="Group-8">
                            <g transform="translate(3.295680, 4.503240)">
                                <g transform="translate(7.011718, 9.725541) rotate(-90.000000) translate(-7.011718, -9.725541) translate(-2.488282, 2.725541)">
                                    <mask id="mask-6" fill="white">
                                        <use xlink:href="#path-5"></use>
                                    </mask>
                                    <use id="-copy-9" fill="#4BABB6" xlink:href="#path-5"></use>
                                </g>
                                <g transform="translate(42.086040, 0.000000)">
                                    <mask id="mask-8" fill="white">
                                        <use xlink:href="#path-7"></use>
                                    </mask>
                                    <use id="-copy-10" fill="#4BABB6" transform="translate(6.766578, 9.699013) rotate(-90.000000) translate(-6.766578, -9.699013) " xlink:href="#path-7"></use>
                                </g>
                                <g transform="translate(21.043020, 0.000000)">
                                    <mask id="mask-10" fill="white">
                                        <use xlink:href="#path-9"></use>
                                    </mask>
                                    <use id="-copy-11" fill="#4BABB6" transform="translate(6.766578, 9.699013) rotate(-90.000000) translate(-6.766578, -9.699013) " xlink:href="#path-9"></use>
                                </g>
                                <g transform="translate(66.131220, 0.000000)">
                                    <mask id="mask-12" fill="white">
                                        <use xlink:href="#path-11"></use>
                                    </mask>
                                    <use id="-copy-7" fill="#4BABB6" transform="translate(6.766578, 9.699013) rotate(-90.000000) translate(-6.766578, -9.699013) " xlink:href="#path-11"></use>
                                </g>
                                <g transform="translate(88.675319, 0.000000)">
                                    <mask id="mask-14" fill="white">
                                        <use xlink:href="#path-13"></use>
                                    </mask>
                                    <use id="-copy-13" fill="#4BABB6" transform="translate(6.766578, 9.699013) rotate(-90.000000) translate(-6.766578, -9.699013) " xlink:href="#path-13"></use>
                                </g>
                            </g>
                        </g>
                    </g>
                    <g id="Combined-Shape-+-ready-+-Combined-Shape-+-ready-+-Combined-Shape-+-ready-+-Combined-Shape-+-ready-+-Combined-Shape-+-ready-Mask" transform="translate(12.909287, 103.574514)">
                        <mask id="mask-16" fill="white">
                            <use xlink:href="#path-15"></use>
                        </mask>
                        <use id="Mask" fill="#FFFFFF" opacity="0.300000012" xlink:href="#path-15"></use>
                        <path d="M11.0712676,16.2449377 L11.1296721,15.1517627 C10.5584148,14.6081871 10.1752759,13.8651272 10.1119845,13.0421121 L9.92207704,10.572634 C9.79965286,8.98068086 11.0038756,7.69014787 12.6006652,7.69014787 L13.2413231,7.69014787 C14.8430907,7.69014787 16.0423481,8.98051569 15.9199113,10.572634 L15.7300038,13.0421121 C15.6665573,13.8671435 15.2786246,14.6150034 14.7005342,15.1605865 L14.7584674,16.2449377 L19.1381347,17.5745118 C19.9343784,17.8162345 20.5798614,18.6870333 20.5798614,19.52625 L20.5798614,20.5137497 C20.5798614,20.9309445 20.245416,21.2691477 19.8196449,21.2691477 L6.01009002,21.2691477 C5.59023405,21.2691477 5.24987354,20.9328632 5.24987354,20.5137497 L5.24987354,19.52625 C5.24987354,18.6900574 5.90338661,17.8137967 6.69160027,17.5745118 L11.0712676,16.2449377 Z" id="Combined-Shape" fill="#D1ED64" mask="url(#mask-16)" transform="translate(12.914867, 14.479648) rotate(-90.000000) translate(-12.914867, -14.479648) "></path>
                        <path d="M30.4591934,16.2449377 L30.517598,15.1517627 C29.9463407,14.6081871 29.5632018,13.8651272 29.4999104,13.0421121 L29.3100029,10.572634 C29.1875787,8.98068086 30.3918014,7.69014787 31.988591,7.69014787 L32.629249,7.69014787 C34.2310165,7.69014787 35.430274,8.98051569 35.3078371,10.572634 L35.1179296,13.0421121 C35.0544832,13.8671435 34.6665505,14.6150034 34.0884601,15.1605865 L34.1463932,16.2449377 L38.5260605,17.5745118 C39.3223042,17.8162345 39.9677873,18.6870333 39.9677873,19.52625 L39.9677873,20.5137497 C39.9677873,20.9309445 39.6333418,21.2691477 39.2075708,21.2691477 L25.3980159,21.2691477 C24.9781599,21.2691477 24.6377994,20.9328632 24.6377994,20.5137497 L24.6377994,19.52625 C24.6377994,18.6900574 25.2913125,17.8137967 26.0795261,17.5745118 L30.4591934,16.2449377 Z" id="Combined-Shape" fill="#D1ED64" mask="url(#mask-16)" transform="translate(32.302793, 14.479648) rotate(-90.000000) translate(-32.302793, -14.479648) "></path>
                        <path d="M49.8471192,16.2449377 L49.9055238,15.1517627 C49.3342665,14.6081871 48.9511276,13.8651272 48.8878362,13.0421121 L48.6979287,10.572634 C48.5755046,8.98068086 49.7797273,7.69014787 51.3765169,7.69014787 L52.0171748,7.69014787 C53.6189424,7.69014787 54.8181998,8.98051569 54.6957629,10.572634 L54.5058555,13.0421121 C54.442409,13.8671435 54.0544763,14.6150034 53.4763859,15.1605865 L53.5343191,16.2449377 L57.9139864,17.5745118 C58.7102301,17.8162345 59.3557131,18.6870333 59.3557131,19.52625 L59.3557131,20.5137497 C59.3557131,20.9309445 59.0212677,21.2691477 58.5954966,21.2691477 L44.7859417,21.2691477 C44.3660857,21.2691477 44.0257252,20.9328632 44.0257252,20.5137497 L44.0257252,19.52625 C44.0257252,18.6900574 44.6792383,17.8137967 45.467452,17.5745118 L49.8471192,16.2449377 Z" id="Combined-Shape" fill="#D1ED64" mask="url(#mask-16)" transform="translate(51.690719, 14.479648) rotate(-90.000000) translate(-51.690719, -14.479648) "></path>
                        <path d="M69.2350451,16.2449377 L69.2934497,15.1517627 C68.7221924,14.6081871 68.3390535,13.8651272 68.2757621,13.0421121 L68.0858546,10.572634 C67.9634304,8.98068086 69.1676531,7.69014787 70.7644427,7.69014787 L71.4051007,7.69014787 C73.0068682,7.69014787 74.2061257,8.98051569 74.0836888,10.572634 L73.8937813,13.0421121 C73.8303348,13.8671435 73.4424021,14.6150034 72.8643118,15.1605865 L72.9222449,16.2449377 L77.3019122,17.5745118 C78.0981559,17.8162345 78.7436389,18.6870333 78.7436389,19.52625 L78.7436389,20.5137497 C78.7436389,20.9309445 78.4091935,21.2691477 77.9834225,21.2691477 L64.1738676,21.2691477 C63.7540116,21.2691477 63.4136511,20.9328632 63.4136511,20.5137497 L63.4136511,19.52625 C63.4136511,18.6900574 64.0671641,17.8137967 64.8553778,17.5745118 L69.2350451,16.2449377 Z" id="Combined-Shape" fill="#D1ED64" mask="url(#mask-16)" transform="translate(71.078645, 14.479648) rotate(-90.000000) translate(-71.078645, -14.479648) "></path>
                    </g>
                    <polygon id="Path-16" fill="#C0D4DF" opacity="0.400000006" points="1.13686838e-13 29.9635487 13.2095032 0 13.2095032 29.1121549 1.13686838e-13 103.456069"></polygon>
                    <polygon id="Path-16" fill="#C0D4DF" opacity="0.400000006" transform="translate(6.604752, 81.406613) scale(1, -1) translate(-6.604752, -81.406613) " points="1.98763372e-13 58.8581643 13.2095032 29.5542699 13.2095032 58.8581643 1.13686838e-13 133.258956"></polygon>
                </g>
                <g id="Group-8" transform="translate(47.434125, 124.289417)"></g>
                <g id="Group-6" transform="translate(47.434125, 137.498920)">
                    <g id="Group-9" transform="translate(0.000000, 0.000000)">
                        <g id="Group-3" transform="translate(22.816415, 64.246220)">
                            <rect id="Rectangle-5" fill="#FFFFFF" x="0" y="0.0250179986" width="37.2267819" height="7.13012959" rx="1.35"></rect>
                            <ellipse id="Oval-2" fill="#D1ED64" cx="33.3541972" cy="3.65262779" rx="1.12429878" ry="1.12580994"></ellipse>
                            <rect id="Rectangle-5" fill="#FFFFFF" x="0" y="8.78131749" width="37.2267819" height="7.13012959" rx="1.35"></rect>
                            <ellipse id="Oval-2" fill="#D1ED64" cx="33.3541972" cy="12.4089273" rx="1.12429878" ry="1.12580994"></ellipse>
                        </g>
                        <g id="Group-5">
                            <g id="Group-2">
                                <g id="Path-2">
                                    <mask id="mask-18" fill="white">
                                        <use xlink:href="#path-17"></use>
                                    </mask>
                                    <use id="Mask" fill="#FFFFFF" xlink:href="#path-17"></use>
                                    <rect id="Rectangle-2" fill="#0090FC" opacity="0.800000012" mask="url(#mask-18)" x="3.00215983" y="3.00215983" width="76.5550756" height="50.3278349"></rect>
                                    <path d="M12.0860387,41.9504927 L37.8084503,22.5795255 L47.0846551,31.4405879 L69.8424339,15.3931054" id="Path-4" stroke="#D1ED64" stroke-width="3.6" stroke-linecap="round" stroke-dasharray="0.3,6" mask="url(#mask-18)"></path>
                                    <polygon fill="#FFFFFF" opacity="0.300000012" mask="url(#mask-18)" points="64.0833792 -1.71158886 4.10509777 64.7138721 -20.2485756 64.7491035 -19.2607299 -1.88037168"></polygon>
                                </g>
                            </g>
                        </g>
                    </g>
                    <path d="M61.173413,37.4350978 L60.0902978,33.059042 L72.0437373,39.5968901 L60.0902978,46.1347382 L61.1104643,42.0130108 L52.6067421,42.0130108 L52.6067421,37.4350978 L61.173413,37.4350978 Z" id="Combined-Shape" fill="#FFFFFF" transform="translate(62.363762, 39.596890) rotate(-127.000000) translate(-62.363762, -39.596890) "></path>
                </g>
                <g id="Group-4" transform="translate(151.909287, 137.498920)">
                    <g id="Group-9">
                        <g id="Group-5">
                            <g id="Group-2">
                                <g id="Path-2">
                                    <mask id="mask-20" fill="white">
                                        <use xlink:href="#path-19"></use>
                                    </mask>
                                    <use id="Mask" fill="#FFFFFF" xlink:href="#path-19"></use>
                                    <rect id="Rectangle-2" fill="#262F35" opacity="0.800000012" mask="url(#mask-20)" x="3.00215983" y="3.00215983" width="76.5550756" height="50.3278349"></rect>
                                    <g id="Group-2" mask="url(#mask-20)" fill="#4BABB6">
                                        <g transform="translate(8.105832, 14.410367)">
                                            <rect id="Rectangle-9" x="52.3029633" y="13.8819097" width="5.83625995" height="13.4258818" rx="0.6"></rect>
                                            <rect id="Rectangle-9" x="60.3505651" y="3.75779462" width="5.83625995" height="23.2930961" rx="0.6"></rect>
                                            <rect id="Rectangle-9" x="35.7950622" y="0.266720475" width="5.83625995" height="26.7362224" rx="0.6"></rect>
                                            <rect id="Rectangle-9" x="43.842664" y="5.5033317" width="5.83625995" height="21.5946411" rx="0.6"></rect>
                                            <path d="M29.4390228,25.9280519 L29.4390228,27.7857902 L0.025726073,27.7857902 L0.025726073,5.49293008 L1.86405712,5.49293008 L1.86405712,25.9280519 L29.4390228,25.9280519 Z M27.6006918,7.81510301 L27.6006918,14.1285107 C27.6006918,14.3317018 27.50734,14.4744173 27.3206336,14.5566613 C27.1339271,14.6389053 26.9639789,14.6026217 26.8107839,14.4478094 L25.0729866,12.6916662 L15.9818651,21.8787628 C15.8861182,21.9755205 15.7760109,22.0238986 15.65154,22.0238986 C15.527069,22.0238986 15.4169618,21.9755205 15.3212149,21.8787628 L11.9748779,18.4970985 L6.00030198,24.5347481 L3.24280541,21.7481406 L11.6445528,13.2576958 C11.7402997,13.1609381 11.8504069,13.11256 11.9748779,13.11256 C12.0993488,13.11256 12.2094561,13.1609381 12.305203,13.2576958 L15.65154,16.6393601 L22.31549,9.90505865 L20.5776927,8.14891537 C20.4244977,7.99410306 20.3885932,7.82236074 20.469978,7.63368325 C20.5513629,7.44500575 20.6925874,7.35066842 20.8936559,7.35066842 L27.141109,7.35066842 C27.2751547,7.35066842 27.3852619,7.39420873 27.4714341,7.48129065 C27.5576063,7.56837257 27.6006918,7.67964224 27.6006918,7.81510301 Z" id=""></path>
                                        </g>
                                    </g>
                                    <polygon fill="#FFFFFF" opacity="0.300000012" mask="url(#mask-20)" points="64.0833792 -1.71158886 4.10509777 64.7138721 -20.2485756 64.7491035 -19.2607299 -1.88037168"></polygon>
                                </g>
                            </g>
                        </g>
                    </g>
                    <g id="Group-3" transform="translate(23.116631, 64.246220)">
                        <rect id="Rectangle-5" fill="#FFFFFF" x="0" y="0.0250179986" width="37.2267819" height="7.13012959" rx="1.35"></rect>
                        <ellipse id="Oval-2" fill="#D1ED64" cx="33.3541972" cy="3.65262779" rx="1.12429878" ry="1.12580994"></ellipse>
                        <rect id="Rectangle-5" fill="#FFFFFF" x="0" y="8.78131749" width="37.2267819" height="7.13012959" rx="1.35"></rect>
                        <ellipse id="Oval-2" fill="#D1ED64" cx="33.3541972" cy="12.4089273" rx="1.12429878" ry="1.12580994"></ellipse>
                    </g>
                    <path d="M61.173413,37.4350978 L60.0902978,33.059042 L72.0437373,39.5968901 L60.0902978,46.1347382 L61.1104643,42.0130108 L52.6067421,42.0130108 L52.6067421,37.4350978 L61.173413,37.4350978 Z" id="Combined-Shape" fill="#FFFFFF" transform="translate(62.363762, 39.596890) rotate(-127.000000) translate(-62.363762, -39.596890) "></path>
                </g>
                <g id="Group-8" transform="translate(108.377970, 43.231102)">
                    <mask id="mask-22" fill="white">
                        <use xlink:href="#path-21"></use>
                    </mask>
                    <use id="-copy-23" fill="#4BABB6" xlink:href="#path-21"></use>
                </g>
                <g id="Group-8" transform="translate(130.894168, 43.231102)">
                    <mask id="mask-24" fill="white">
                        <use xlink:href="#path-23"></use>
                    </mask>
                    <use id="-copy-24" fill="#4BABB6" xlink:href="#path-23"></use>
                </g>
                <g id="Group-8" transform="translate(108.377970, 26.719222)">
                    <mask id="mask-26" fill="white">
                        <use xlink:href="#path-25"></use>
                    </mask>
                    <use id="-copy-25" fill="#4BABB6" xlink:href="#path-25"></use>
                </g>
                <g id="Group-8" transform="translate(130.894168, 26.719222)">
                    <mask id="mask-28" fill="white">
                        <use xlink:href="#path-27"></use>
                    </mask>
                    <use id="-copy-26" fill="#4BABB6" xlink:href="#path-27"></use>
                </g>
                <g id="Group-8" transform="translate(108.377970, 9.907127)">
                    <mask id="mask-30" fill="white">
                        <use xlink:href="#path-29"></use>
                    </mask>
                    <use id="-copy-27" fill="#4BABB6" xlink:href="#path-29"></use>
                </g>
                <path d="M160.984057,34.8520924 L161.038819,33.8154588 C160.502251,33.3015881 160.142673,32.6009394 160.08403,31.8297203 L159.904653,29.4706951 C159.789104,27.9510987 160.935319,26.7192225 162.457047,26.7192225 L162.988596,26.7192225 C164.513793,26.7192225 165.656931,27.9459497 165.540991,29.4706951 L165.361613,31.8297203 C165.30247,32.6075301 164.938571,33.3126223 164.395925,33.8271719 L164.450068,34.8520924 L168.550047,36.1108853 C169.307892,36.343562 169.922246,37.1737445 169.922246,37.9715713 L169.922246,38.9103677 C169.922246,39.3069866 169.59419,39.6285097 169.207634,39.6285097 L156.226491,39.6285097 C155.831822,39.6285097 155.511879,39.2971486 155.511879,38.9103677 L155.511879,37.9715713 C155.511879,37.1766195 156.126189,36.3435757 156.884079,36.1108853 L160.984057,34.8520924 Z" id="Combined-Shape" fill="#D1ED64"></path>
                <path d="M160.984057,17.7397814 L161.038819,16.7031478 C160.502251,16.1892771 160.142673,15.4886284 160.08403,14.7174092 L159.904653,12.3583841 C159.789104,10.8387877 160.935319,9.60691145 162.457047,9.60691145 L162.988596,9.60691145 C164.513793,9.60691145 165.656931,10.8336387 165.540991,12.3583841 L165.361613,14.7174092 C165.30247,15.4952191 164.938571,16.2003113 164.395925,16.7148609 L164.450068,17.7397814 L168.550047,18.9985742 C169.307892,19.231251 169.922246,20.0614335 169.922246,20.8592602 L169.922246,21.7980567 C169.922246,22.1946756 169.59419,22.5161987 169.207634,22.5161987 L156.226491,22.5161987 C155.831822,22.5161987 155.511879,22.1848376 155.511879,21.7980567 L155.511879,20.8592602 C155.511879,20.0643085 156.126189,19.2312647 156.884079,18.9985742 L160.984057,17.7397814 Z" id="Combined-Shape" fill="#D1ED64"></path>
                <path d="M137.867427,17.7397814 L137.922189,16.7031478 C137.38562,16.1892771 137.026042,15.4886284 136.9674,14.7174092 L136.788022,12.3583841 C136.672474,10.8387877 137.818688,9.60691145 139.340417,9.60691145 L139.871966,9.60691145 C141.397163,9.60691145 142.5403,10.8336387 142.42436,12.3583841 L142.244983,14.7174092 C142.185839,15.4952191 141.82194,16.2003113 141.279294,16.7148609 L141.333437,17.7397814 L145.433416,18.9985742 C146.191261,19.231251 146.805616,20.0614335 146.805616,20.8592602 L146.805616,21.7980567 C146.805616,22.1946756 146.47756,22.5161987 146.091003,22.5161987 L133.109861,22.5161987 C132.715191,22.5161987 132.395248,22.1848376 132.395248,21.7980567 L132.395248,20.8592602 C132.395248,20.0643085 133.009558,19.2312647 133.767448,18.9985742 L137.867427,17.7397814 Z" id="Combined-Shape" fill="#D1ED64"></path>
                <path d="M160.984057,51.6641875 L161.038819,50.6275538 C160.502251,50.1136831 160.142673,49.4130344 160.08403,48.6418153 L159.904653,46.2827901 C159.789104,44.7631938 160.935319,43.5313175 162.457047,43.5313175 L162.988596,43.5313175 C164.513793,43.5313175 165.656931,44.7580447 165.540991,46.2827901 L165.361613,48.6418153 C165.30247,49.4196251 164.938571,50.1247174 164.395925,50.6392669 L164.450068,51.6641875 L168.550047,52.9229803 C169.307892,53.155657 169.922246,53.9858395 169.922246,54.7836663 L169.922246,55.7224627 C169.922246,56.1190816 169.59419,56.4406048 169.207634,56.4406048 L156.226491,56.4406048 C155.831822,56.4406048 155.511879,56.1092436 155.511879,55.7224627 L155.511879,54.7836663 C155.511879,53.9887145 156.126189,53.1556708 156.884079,52.9229803 L160.984057,51.6641875 Z" id="Combined-Shape" fill="#D1ED64"></path>
            </g>
        </g>
    </g>
</svg>