<?xml version="1.0" encoding="UTF-8"?>
<svg width="278px" height="278px" viewBox="0 0 278 278" version="1.1" xmlns="http://www.w3.org/2000/svg" xmlns:xlink="http://www.w3.org/1999/xlink">
    <!-- Generator: Sketch 50.2 (55047) - http://www.bohemiancoding.com/sketch -->
    <title>Group 4</title>
    <desc>Created with Sketch.</desc>
    <defs>
        <rect id="path-1" x="0" y="0.12012888" width="36.3261339" height="68.5022527" rx="5.4"></rect>
        <rect id="path-3" x="0" y="0.12012888" width="36.3261339" height="68.5022527" rx="5.4"></rect>
        <rect id="path-5" x="0" y="0.12012888" width="36.3261339" height="68.5022527" rx="5.4"></rect>
        <path d="M45.0323974,44.2364573 C54.2969213,44.2364573 62.9554077,43.3802461 71.0081162,41.6677981 C79.0608248,39.9553501 85.4129875,37.4265404 90.0647948,34.0812931 L90.0647948,84.3792238 C90.0647948,87.1271055 88.0516479,89.6758271 84.0252936,92.025465 C79.9989393,94.375103 74.5263069,96.2368645 67.607232,97.6108053 C60.6881572,98.9847461 53.1632876,99.6717063 45.0323974,99.6717063 C36.9015072,99.6717063 29.3766376,98.9847461 22.4575628,97.6108053 C15.5384879,96.2368645 10.0658555,94.375103 6.03950121,92.025465 C2.01314694,89.6758271 0,87.1271055 0,84.3792238 L0,34.0812931 C4.65180737,37.4265404 11.00397,39.9553501 19.0566786,41.6677981 C27.1093871,43.3802461 35.7678735,44.2364573 45.0323974,44.2364573 Z M45.0323974,0 C53.1632876,6.03851888e-14 60.6881572,0.68171952 67.607232,2.04517901 C74.5263069,3.40863851 79.9989393,5.25619721 84.0252936,7.58791054 C88.0516479,9.91962388 90.0647948,12.4489021 90.0647948,15.1758211 L90.0647948,22.7637316 C90.0647948,25.4906506 88.0516479,28.0199288 84.0252936,30.3516422 C79.9989393,32.6833555 74.5263069,34.5309142 67.607232,35.8943737 C60.6881572,37.2578332 53.1632876,37.9395527 45.0323974,37.9395527 C36.9015072,37.9395527 29.3766376,37.2578332 22.4575628,35.8943737 C15.5384879,34.5309142 10.0658555,32.6833555 6.03950121,30.3516422 C2.01314694,28.0199288 0,25.4906506 0,22.7637316 L0,15.1758211 C0,12.4489021 2.01314694,9.91962388 6.03950121,7.58791054 C10.0658555,5.25619721 15.5384879,3.40863851 22.4575628,2.04517901 C29.3766376,0.68171952 36.9015072,6.03851888e-14 45.0323974,0 Z" id="path-7"></path>
        <path d="M45.0323974,12.0561344 C72.0761698,12.0561344 85.1824738,7.06123237 90.0647948,0 L90.0647948,10.063578 C90.0647948,12.7866774 88.0516479,15.3124129 84.0252936,17.6408603 C79.9989393,19.9693076 74.5263069,21.8142785 67.607232,23.1758282 C60.6881572,24.5373779 53.1632876,25.2181425 45.0323974,25.2181425 C36.9015072,25.2181425 29.3766376,24.5373779 22.4575628,23.1758282 C15.5384879,21.8142785 10.0658555,19.9693076 6.03950121,17.6408603 C2.01314694,15.3124129 0,12.7866774 0,10.063578 L0,0 C5.28339084,6.08465088 17.9886251,12.0561344 45.0323974,12.0561344 Z" id="path-9"></path>
        <path d="M2.58172244,6.04335939 L1.27493516,6.88834716 C1.18555269,6.94726418 1.09617157,6.97303999 1.00678911,6.96567536 C0.909958108,6.95094611 0.831749627,6.91044126 0.772161319,6.84415962 L0.0794506999,6.02669005 C0.0198623918,5.95304377 -0.00620710202,5.8665107 0.0012414365,5.76708823 C0.00868997502,5.66766576 0.0496563224,5.5884972 0.124141708,5.52958018 L8.15735034,0.287219037 C8.39570357,0.0957387216 8.67874379,0 9.00647948,0 C9.33421518,0 9.61725539,0.0957387216 9.85560863,0.287219037 L17.8888173,5.52958018 C17.9633026,5.5884972 18.004269,5.66766576 18.0117175,5.76708823 C18.0191661,5.8665107 17.9930966,5.95304377 17.9335083,6.02669005 L17.2407976,6.84415962 C17.1812093,6.91044126 17.1030009,6.95094611 17.0061699,6.96567536 C16.8758206,6.96567536 16.7976121,6.93989955 16.7380238,6.88834716 L15.4332745,6.04467717 C15.4390812,7.19998922 15.4419846,12.0914305 15.4419846,12.0914305 C15.4419846,12.2829108 15.3712245,12.4486124 15.2297023,12.5885404 C15.0881801,12.7284683 14.9205905,12.7984312 14.7269285,12.7984312 L3.2860305,12.7984312 C3.0923685,12.7984312 2.9247789,12.7284683 2.78325666,12.5885404 C2.64173443,12.4486124 2.57097438,12.2829108 2.57097438,12.0914305 C2.57097438,12.0914305 2.57968097,7.19622648 2.58172244,6.04335938 Z" id="path-11"></path>
        <path d="M2.58172244,6.04335939 L1.27493516,6.88834716 C1.18555269,6.94726418 1.09617157,6.97303999 1.00678911,6.96567536 C0.909958108,6.95094611 0.831749627,6.91044126 0.772161319,6.84415962 L0.0794506999,6.02669005 C0.0198623918,5.95304377 -0.00620710202,5.8665107 0.0012414365,5.76708823 C0.00868997502,5.66766576 0.0496563224,5.5884972 0.124141708,5.52958018 L8.15735034,0.287219037 C8.39570357,0.0957387216 8.67874379,0 9.00647948,0 C9.33421518,0 9.61725539,0.0957387216 9.85560863,0.287219037 L17.8888173,5.52958018 C17.9633026,5.5884972 18.004269,5.66766576 18.0117175,5.76708823 C18.0191661,5.8665107 17.9930966,5.95304377 17.9335083,6.02669005 L17.2407976,6.84415962 C17.1812093,6.91044126 17.1030009,6.95094611 17.0061699,6.96567536 C16.8758206,6.96567536 16.7976121,6.93989955 16.7380238,6.88834716 L15.4332745,6.04467717 C15.4390812,7.19998922 15.4419846,12.0914305 15.4419846,12.0914305 C15.4419846,12.2829108 15.3712245,12.4486124 15.2297023,12.5885404 C15.0881801,12.7284683 14.9205905,12.7984312 14.7269285,12.7984312 L3.2860305,12.7984312 C3.0923685,12.7984312 2.9247789,12.7284683 2.78325666,12.5885404 C2.64173443,12.4486124 2.57097438,12.2829108 2.57097438,12.0914305 C2.57097438,12.0914305 2.57968097,7.19622648 2.58172244,6.04335938 Z" id="path-13"></path>
        <path d="M2.58172244,6.04335939 L1.27493516,6.88834716 C1.18555269,6.94726418 1.09617157,6.97303999 1.00678911,6.96567536 C0.909958108,6.95094611 0.831749627,6.91044126 0.772161319,6.84415962 L0.0794506999,6.02669005 C0.0198623918,5.95304377 -0.00620710202,5.8665107 0.0012414365,5.76708823 C0.00868997502,5.66766576 0.0496563224,5.5884972 0.124141708,5.52958018 L8.15735034,0.287219037 C8.39570357,0.0957387216 8.67874379,0 9.00647948,0 C9.33421518,0 9.61725539,0.0957387216 9.85560863,0.287219037 L17.8888173,5.52958018 C17.9633026,5.5884972 18.004269,5.66766576 18.0117175,5.76708823 C18.0191661,5.8665107 17.9930966,5.95304377 17.9335083,6.02669005 L17.2407976,6.84415962 C17.1812093,6.91044126 17.1030009,6.95094611 17.0061699,6.96567536 C16.8758206,6.96567536 16.7976121,6.93989955 16.7380238,6.88834716 L15.4332745,6.04467717 C15.4390812,7.19998922 15.4419846,12.0914305 15.4419846,12.0914305 C15.4419846,12.2829108 15.3712245,12.4486124 15.2297023,12.5885404 C15.0881801,12.7284683 14.9205905,12.7984312 14.7269285,12.7984312 L3.2860305,12.7984312 C3.0923685,12.7984312 2.9247789,12.7284683 2.78325666,12.5885404 C2.64173443,12.4486124 2.57097438,12.2829108 2.57097438,12.0914305 C2.57097438,12.0914305 2.57968097,7.19622648 2.58172244,6.04335938 Z" id="path-15"></path>
        <path d="M2.58172244,6.04335939 L1.27493516,6.88834716 C1.18555269,6.94726418 1.09617157,6.97303999 1.00678911,6.96567536 C0.909958108,6.95094611 0.831749627,6.91044126 0.772161319,6.84415962 L0.0794506999,6.02669005 C0.0198623918,5.95304377 -0.00620710202,5.8665107 0.0012414365,5.76708823 C0.00868997502,5.66766576 0.0496563224,5.5884972 0.124141708,5.52958018 L8.15735034,0.287219037 C8.39570357,0.0957387216 8.67874379,0 9.00647948,0 C9.33421518,0 9.61725539,0.0957387216 9.85560863,0.287219037 L17.8888173,5.52958018 C17.9633026,5.5884972 18.004269,5.66766576 18.0117175,5.76708823 C18.0191661,5.8665107 17.9930966,5.95304377 17.9335083,6.02669005 L17.2407976,6.84415962 C17.1812093,6.91044126 17.1030009,6.95094611 17.0061699,6.96567536 C16.8758206,6.96567536 16.7976121,6.93989955 16.7380238,6.88834716 L15.4332745,6.04467717 C15.4390812,7.19998922 15.4419846,12.0914305 15.4419846,12.0914305 C15.4419846,12.2829108 15.3712245,12.4486124 15.2297023,12.5885404 C15.0881801,12.7284683 14.9205905,12.7984312 14.7269285,12.7984312 L3.2860305,12.7984312 C3.0923685,12.7984312 2.9247789,12.7284683 2.78325666,12.5885404 C2.64173443,12.4486124 2.57097438,12.2829108 2.57097438,12.0914305 C2.57097438,12.0914305 2.57968097,7.19622648 2.58172244,6.04335938 Z" id="path-17"></path>
        <path d="M2.58172244,6.04335939 L1.27493516,6.88834716 C1.18555269,6.94726418 1.09617157,6.97303999 1.00678911,6.96567536 C0.909958108,6.95094611 0.831749627,6.91044126 0.772161319,6.84415962 L0.0794506999,6.02669005 C0.0198623918,5.95304377 -0.00620710202,5.8665107 0.0012414365,5.76708823 C0.00868997502,5.66766576 0.0496563224,5.5884972 0.124141708,5.52958018 L8.15735034,0.287219037 C8.39570357,0.0957387216 8.67874379,0 9.00647948,0 C9.33421518,0 9.61725539,0.0957387216 9.85560863,0.287219037 L17.8888173,5.52958018 C17.9633026,5.5884972 18.004269,5.66766576 18.0117175,5.76708823 C18.0191661,5.8665107 17.9930966,5.95304377 17.9335083,6.02669005 L17.2407976,6.84415962 C17.1812093,6.91044126 17.1030009,6.95094611 17.0061699,6.96567536 C16.8758206,6.96567536 16.7976121,6.93989955 16.7380238,6.88834716 L15.4332745,6.04467717 C15.4390812,7.19998922 15.4419846,12.0914305 15.4419846,12.0914305 C15.4419846,12.2829108 15.3712245,12.4486124 15.2297023,12.5885404 C15.0881801,12.7284683 14.9205905,12.7984312 14.7269285,12.7984312 L3.2860305,12.7984312 C3.0923685,12.7984312 2.9247789,12.7284683 2.78325666,12.5885404 C2.64173443,12.4486124 2.57097438,12.2829108 2.57097438,12.0914305 C2.57097438,12.0914305 2.57968097,7.19622648 2.58172244,6.04335938 Z" id="path-19"></path>
        <path d="M116.488556,176.962052 C116.348225,177.032535 116.220586,177.063371 116.106083,177.054561 C115.984869,177.03694 115.898866,176.988483 115.848263,176.909189 L115.310369,175.931234 C115.268273,175.843129 115.274683,175.739608 115.329209,175.620667 C115.383661,175.501726 115.470566,175.407015 115.589653,175.336531 L125.78733,169.064988 C126.026127,168.835916 126.301539,168.721382 126.617027,168.721382 C126.932516,168.721382 127.207928,168.835916 127.446724,169.064988 L137.644402,175.336531 C137.763488,175.407015 137.850394,175.501726 137.904846,175.620667 C137.959372,175.739608 137.965781,175.843129 137.923686,175.931234 L137.385792,176.909189 C137.335189,176.988483 137.249186,177.03694 137.127972,177.054561 C136.956703,177.054561 136.843816,177.023725 136.745498,176.962052 L134.762808,175.952752 C135.144957,177.334875 136.736331,183.186606 136.736331,183.186606 C136.798476,183.415678 136.739716,183.61391 136.55855,183.781308 C136.375387,183.948707 136.127349,184.032405 135.815926,184.032405 L117.418128,184.032405 C117.106706,184.032405 116.858668,183.948707 116.675505,183.781308 C116.494339,183.61391 116.435579,183.415678 116.497724,183.186606 C116.497724,183.186606 118.098011,177.330374 118.474257,175.951176 L116.488556,176.962052 Z" id="path-21"></path>
        <filter x="-6.6%" y="-9.8%" width="113.2%" height="119.6%" filterUnits="objectBoundingBox" id="filter-22">
            <feGaussianBlur stdDeviation="1.5" in="SourceAlpha" result="shadowBlurInner1"></feGaussianBlur>
            <feOffset dx="0" dy="0" in="shadowBlurInner1" result="shadowOffsetInner1"></feOffset>
            <feComposite in="shadowOffsetInner1" in2="SourceAlpha" operator="arithmetic" k2="-1" k3="1" result="shadowInnerInner1"></feComposite>
            <feColorMatrix values="0 0 0 0 0   0 0 0 0 0   0 0 0 0 0  0 0 0 0.5 0" type="matrix" in="shadowInnerInner1"></feColorMatrix>
        </filter>
        <path d="M151.251196,178.256265 L151.404988,177.005685 C150.85241,176.387506 150.544674,175.544666 150.585171,174.614887 L150.740174,171.728307 C150.86113,169.901824 151.925292,168.421166 153.10027,168.421166 L153.539928,168.421166 C154.71523,168.421166 155.779615,169.899392 155.901634,171.728307 L156.058043,174.614887 C156.099206,175.549808 155.787012,176.397508 155.227638,177.016961 L155.38007,178.256265 L160.645173,179.780103 C161.671982,180.060608 162.753794,181.063844 163.044283,182.017714 L163.394787,183.168656 C163.54006,183.645687 163.196803,184.032397 162.632085,184.032397 L143.99918,184.032397 C143.432678,184.032397 143.091176,183.645785 143.236479,183.168656 L143.586983,182.017714 C143.877904,181.062421 144.961829,180.059919 145.986092,179.780103 L151.251196,178.256265 Z" id="path-23"></path>
        <filter x="-7.4%" y="-9.6%" width="114.8%" height="119.2%" filterUnits="objectBoundingBox" id="filter-24">
            <feGaussianBlur stdDeviation="1.5" in="SourceAlpha" result="shadowBlurInner1"></feGaussianBlur>
            <feOffset dx="0" dy="0" in="shadowBlurInner1" result="shadowOffsetInner1"></feOffset>
            <feComposite in="shadowOffsetInner1" in2="SourceAlpha" operator="arithmetic" k2="-1" k3="1" result="shadowInnerInner1"></feComposite>
            <feColorMatrix values="0 0 0 0 0   0 0 0 0 0   0 0 0 0 0  0 0 0 0.5 0" type="matrix" in="shadowInnerInner1"></feColorMatrix>
        </filter>
    </defs>
    <g id="Page-1" stroke="none" stroke-width="1" fill="none" fill-rule="evenodd">
        <g id="Desktop-Copy-6" transform="translate(-123.000000, -176.000000)">
            <g id="Group-4" transform="translate(123.000000, 176.000000)">
                <circle id="Oval-5" fill="#C0D4DF" opacity="0.200000003" cx="139" cy="139" r="139"></circle>
                <g id="Group-8-Copy-7" transform="translate(93.066955, 45.933045)" stroke="#FFFFFF" stroke-dasharray="0.2400000035762787,2.159999942779541" stroke-linecap="round" stroke-width="1.2">
                    <g id="Group-7" transform="translate(70.347571, 12.609071) scale(-1, 1) translate(-70.347571, -12.609071) translate(53.632507, 0.000000)">
                        <path d="M29.5718187,3.66648573 C19.8206583,3.66648573 11.915781,11.5811255 11.915781,21.3443285" id="Oval-4" transform="translate(20.743800, 12.505407) rotate(-45.000000) translate(-20.743800, -12.505407) "></path>
                        <path d="M21.5479537,3.66648573 C11.7967933,3.66648573 3.89191601,11.5811255 3.89191601,21.3443285" id="Oval-4" transform="translate(12.719935, 12.505407) rotate(-45.000000) translate(-12.719935, -12.505407) "></path>
                    </g>
                    <g id="Group-7">
                        <path d="M29.5718187,3.66648573 C19.8206583,3.66648573 11.915781,11.5811255 11.915781,21.3443285" id="Oval-4" transform="translate(20.743800, 12.505407) rotate(-45.000000) translate(-20.743800, -12.505407) "></path>
                        <path d="M21.5479537,3.66648573 C11.7967933,3.66648573 3.89191601,11.5811255 3.89191601,21.3443285" id="Oval-4" transform="translate(12.719935, 12.505407) rotate(-45.000000) translate(-12.719935, -12.505407) "></path>
                    </g>
                </g>
                <g id="Group-8-Copy-8" transform="translate(175.326134, 86.161987)" stroke="#FFFFFF" stroke-dasharray="0.2400000035762787,2.159999942779541" stroke-linecap="round" stroke-width="1.2">
                    <g id="Group-7" transform="translate(70.400648, 12.609071) scale(-1, 1) translate(-70.400648, -12.609071) translate(53.738661, 0.000000)">
                        <path d="M29.5718187,3.66648573 C19.8206583,3.66648573 11.915781,11.5811255 11.915781,21.3443285" id="Oval-4" transform="translate(20.743800, 12.505407) rotate(-45.000000) translate(-20.743800, -12.505407) "></path>
                        <path d="M21.5479537,3.66648573 C11.7967933,3.66648573 3.89191601,11.5811255 3.89191601,21.3443285" id="Oval-4" transform="translate(12.719935, 12.505407) rotate(-45.000000) translate(-12.719935, -12.505407) "></path>
                    </g>
                    <g id="Group-7">
                        <path d="M29.5718187,3.66648573 C19.8206583,3.66648573 11.915781,11.5811255 11.915781,21.3443285" id="Oval-4" transform="translate(20.743800, 12.505407) rotate(-45.000000) translate(-20.743800, -12.505407) "></path>
                        <path d="M21.5479537,3.66648573 C11.7967933,3.66648573 3.89191601,11.5811255 3.89191601,21.3443285" id="Oval-4" transform="translate(12.719935, 12.505407) rotate(-45.000000) translate(-12.719935, -12.505407) "></path>
                    </g>
                </g>
                <g id="Group-8-Copy-9" transform="translate(11.708423, 86.161987)" stroke="#FFFFFF" stroke-dasharray="0.2400000035762787,2.159999942779541" stroke-linecap="round" stroke-width="1.2">
                    <g id="Group-7" transform="translate(70.347571, 12.609071) scale(-1, 1) translate(-70.347571, -12.609071) translate(53.632507, 0.000000)">
                        <path d="M29.5718187,3.66648573 C19.8206583,3.66648573 11.915781,11.5811255 11.915781,21.3443285" id="Oval-4" transform="translate(20.743800, 12.505407) rotate(-45.000000) translate(-20.743800, -12.505407) "></path>
                        <path d="M21.5479537,3.66648573 C11.7967933,3.66648573 3.89191601,11.5811255 3.89191601,21.3443285" id="Oval-4" transform="translate(12.719935, 12.505407) rotate(-45.000000) translate(-12.719935, -12.505407) "></path>
                    </g>
                    <g id="Group-7">
                        <path d="M29.5718187,3.66648573 C19.8206583,3.66648573 11.915781,11.5811255 11.915781,21.3443285" id="Oval-4" transform="translate(20.743800, 12.505407) rotate(-45.000000) translate(-20.743800, -12.505407) "></path>
                        <path d="M21.5479537,3.66648573 C11.7967933,3.66648573 3.89191601,11.5811255 3.89191601,21.3443285" id="Oval-4" transform="translate(12.719935, 12.505407) rotate(-45.000000) translate(-12.719935, -12.505407) "></path>
                    </g>
                </g>
                <g id="Group-2" transform="translate(36.926566, 63.946004)">
                    <g id="Path-2">
                        <mask id="mask-2" fill="white">
                            <use xlink:href="#path-1"></use>
                        </mask>
                        <use id="Mask" fill="#FFFFFF" xlink:href="#path-1"></use>
                        <rect id="Rectangle-2" fill="#0090FC" opacity="0.800000012" mask="url(#mask-2)" x="1.91190178" y="6.86223816" width="32.5023303" height="53.8812774"></rect>
                        <rect id="Rectangle-3" fill="#000000" opacity="0.100000001" mask="url(#mask-2)" x="15.8050548" y="62.2684573" width="4.7160244" height="4.70190392" rx="2.35095196"></rect>
                        <rect id="Rectangle-4" fill="#000000" opacity="0.100000001" mask="url(#mask-2)" x="15.5501345" y="3.04988362" width="5.09840476" height="1" rx="0.5"></rect>
                        <g id="Group-3" mask="url(#mask-2)">
                            <g transform="translate(5.103672, 12.308855)" id="Rectangle">
                                <rect fill="#4BABB6" x="0" y="0" width="25.8185745" height="3.90280778"></rect>
                                <rect fill="#D1ED64" x="0" y="7.50539957" width="25.8185745" height="3.90280778"></rect>
                                <rect fill="#D1ED64" x="0" y="15.0107991" width="25.8185745" height="3.90280778"></rect>
                                <rect fill="#4BABB6" x="0" y="22.8164147" width="25.8185745" height="3.90280778"></rect>
                            </g>
                        </g>
                        <polygon fill="#FFFFFF" opacity="0.300000012" mask="url(#mask-2)" points="28.229429 -2.07396058 1.80834044 78.4148709 -8.91971887 78.4575613 -8.48456206 -2.27847751"></polygon>
                    </g>
                </g>
                <g id="Group-2" transform="translate(118.885529, 26.719222)">
                    <g id="Path-2">
                        <mask id="mask-4" fill="white">
                            <use xlink:href="#path-3"></use>
                        </mask>
                        <use id="Mask" fill="#FFFFFF" xlink:href="#path-3"></use>
                        <rect id="Rectangle-2" fill="#0090FC" opacity="0.800000012" mask="url(#mask-4)" x="1.91190178" y="6.86223816" width="32.5023303" height="53.8812774"></rect>
                        <rect id="Rectangle-3" fill="#000000" opacity="0.100000001" mask="url(#mask-4)" x="15.8050548" y="62.2684573" width="4.7160244" height="4.70190392" rx="2.35095196"></rect>
                        <rect id="Rectangle-4" fill="#000000" opacity="0.100000001" mask="url(#mask-4)" x="15.5501345" y="3.04988362" width="5.09840476" height="1" rx="0.5"></rect>
                        <g id="Group-3" mask="url(#mask-4)">
                            <g transform="translate(5.403888, 12.609071)" id="Rectangle">
                                <rect fill="#4BABB6" x="0" y="0" width="25.8185745" height="3.90280778"></rect>
                                <rect fill="#D1ED64" x="0" y="7.50539957" width="25.8185745" height="3.90280778"></rect>
                                <rect fill="#D1ED64" x="0" y="15.0107991" width="25.8185745" height="3.90280778"></rect>
                                <rect fill="#4BABB6" x="0" y="22.8164147" width="25.8185745" height="3.90280778"></rect>
                            </g>
                        </g>
                        <polygon fill="#FFFFFF" opacity="0.300000012" mask="url(#mask-4)" points="28.229429 -2.07396058 1.80834044 78.4148709 -8.91971887 78.4575613 -8.48456206 -2.27847751"></polygon>
                    </g>
                </g>
                <g id="Group-2" transform="translate(200.844492, 64.246220)">
                    <g id="Path-2">
                        <mask id="mask-6" fill="white">
                            <use xlink:href="#path-5"></use>
                        </mask>
                        <use id="Mask" fill="#FFFFFF" xlink:href="#path-5"></use>
                        <rect id="Rectangle-2" fill="#0090FC" opacity="0.800000012" mask="url(#mask-6)" x="1.91190178" y="6.86223816" width="32.5023303" height="53.8812774"></rect>
                        <rect id="Rectangle-3" fill="#000000" opacity="0.100000001" mask="url(#mask-6)" x="15.8050548" y="62.2684573" width="4.7160244" height="4.70190392" rx="2.35095196"></rect>
                        <rect id="Rectangle-4" fill="#000000" opacity="0.100000001" mask="url(#mask-6)" x="15.5501345" y="3.04988362" width="5.09840476" height="1" rx="0.5"></rect>
                        <g id="Group-3" mask="url(#mask-6)">
                            <g transform="translate(5.103672, 12.008639)" id="Rectangle">
                                <rect fill="#4BABB6" x="0" y="0" width="25.8185745" height="3.90280778"></rect>
                                <rect fill="#D1ED64" x="0" y="7.50539957" width="25.8185745" height="3.90280778"></rect>
                                <rect fill="#D1ED64" x="0" y="15.0107991" width="25.8185745" height="3.90280778"></rect>
                                <rect fill="#4BABB6" x="0" y="22.8164147" width="25.8185745" height="3.90280778"></rect>
                            </g>
                        </g>
                        <polygon fill="#FFFFFF" opacity="0.300000012" mask="url(#mask-6)" points="28.229429 -2.07396058 1.80834044 78.4148709 -8.91971887 78.4575613 -8.48456206 -2.27847751"></polygon>
                    </g>
                </g>
                <path d="M55.8401728,142.602592 C55.8401728,142.602592 58.5350803,165.435425 74.2987648,180.631513" id="Path-3" stroke="#FFFFFF" stroke-width="3" stroke-dasharray="3.6,3"></path>
                <polygon id="Triangle" fill="#FFFFFF" transform="translate(77.401626, 183.377868) rotate(135.000000) translate(-77.401626, -183.377868) " points="77.4016262 178.874628 86.4081057 187.881108 68.3951467 187.881108"></polygon>
                <g id="Group" transform="translate(203.246220, 167.820734) scale(-1, 1) translate(-203.246220, -167.820734) translate(187.634989, 142.302376)">
                    <path d="M0.290834233,0.229852862 C0.290834233,0.229852862 2.98574177,23.0626856 18.7494263,38.2587743" id="Path-3" stroke="#FFFFFF" stroke-width="3" stroke-dasharray="3.6,3"></path>
                    <polygon id="Triangle" fill="#FFFFFF" transform="translate(21.667606, 41.189535) rotate(135.000000) translate(-21.667606, -41.189535) " points="21.6676063 36.686295 30.6740858 45.6927745 12.6611269 45.6927745"></polygon>
                </g>
                <g id="Group" transform="translate(137.048596, 127.591793) scale(-1, 1) translate(-137.048596, -127.591793) translate(127.892009, 104.775378)">
                    <path d="M8.99709773,0.229852862 L8.99709773,37.5668703" id="Path-3" stroke="#FFFFFF" stroke-width="3" stroke-dasharray="3.6,3"></path>
                    <polygon id="Triangle" fill="#FFFFFF" transform="translate(9.297314, 41.129590) rotate(180.000000) translate(-9.297314, -41.129590) " points="9.29731371 36.6263499 18.3037932 45.6328294 0.290834233 45.6328294"></polygon>
                </g>
                <g id="Group-2" transform="translate(93.967603, 163.917927)">
                    <g id="Path-4">
                        <mask id="mask-8" fill="white">
                            <use xlink:href="#path-7"></use>
                        </mask>
                        <use id="Mask" fill="#C0D4DF" xlink:href="#path-7"></use>
                        <polygon fill="#4A4A4A" opacity="0.200000003" mask="url(#mask-8)" points="68.6568153 36.0501759 68.6568153 115.724373 112.089612 115.724373 115.443265 24.7362081"></polygon>
                    </g>
                    <g id="Path-4" transform="translate(0.000000, 14.410367)">
                        <mask id="mask-10" fill="white">
                            <use xlink:href="#path-9"></use>
                        </mask>
                        <use id="Mask" fill="#B1C7D4" xlink:href="#path-9"></use>
                        <polygon fill="#3C474E" opacity="0.100000001" mask="url(#mask-10)" points="69.049676 -5.99284671 69.049676 109.516415 112.920767 109.516415 111.251914 -7.79426388"></polygon>
                    </g>
                </g>
                <g id="Group-8" transform="translate(107.177106, 244.075594)">
                    <mask id="mask-12" fill="white">
                        <use xlink:href="#path-11"></use>
                    </mask>
                    <use id="-copy-23" fill="#4BABB6" xlink:href="#path-11"></use>
                </g>
                <g id="Group-8" transform="translate(129.693305, 244.075594)">
                    <mask id="mask-14" fill="white">
                        <use xlink:href="#path-13"></use>
                    </mask>
                    <use id="-copy-24" fill="#4BABB6" xlink:href="#path-13"></use>
                </g>
                <g id="Group-8" transform="translate(107.177106, 227.563715)">
                    <mask id="mask-16" fill="white">
                        <use xlink:href="#path-15"></use>
                    </mask>
                    <use id="-copy-25" fill="#4BABB6" xlink:href="#path-15"></use>
                </g>
                <g id="Group-8" transform="translate(129.693305, 227.563715)">
                    <mask id="mask-18" fill="white">
                        <use xlink:href="#path-17"></use>
                    </mask>
                    <use id="-copy-26" fill="#4BABB6" xlink:href="#path-17"></use>
                </g>
                <g id="Group-8" transform="translate(107.177106, 210.751620)">
                    <mask id="mask-20" fill="white">
                        <use xlink:href="#path-19"></use>
                    </mask>
                    <use id="-copy-27" fill="#4BABB6" xlink:href="#path-19"></use>
                </g>
                <path d="M159.783193,235.696585 L159.837956,234.659951 C159.301387,234.146081 158.941809,233.445432 158.883166,232.674213 L158.703789,230.315188 C158.58824,228.795591 159.734455,227.563715 161.256183,227.563715 L161.787732,227.563715 C163.312929,227.563715 164.456067,228.790442 164.340127,230.315188 L164.160749,232.674213 C164.101606,233.452023 163.737707,234.157115 163.195061,234.671664 L163.249204,235.696585 L167.349183,236.955378 C168.107028,237.188054 168.721382,238.018237 168.721382,238.816064 L168.721382,239.75486 C168.721382,240.151479 168.393326,240.473002 168.00677,240.473002 L155.025627,240.473002 C154.630958,240.473002 154.311015,240.141641 154.311015,239.75486 L154.311015,238.816064 C154.311015,238.021112 154.925325,237.188068 155.683215,236.955378 L159.783193,235.696585 Z" id="Combined-Shape" fill="#D1ED64"></path>
                <path d="M159.783193,218.584274 L159.837956,217.54764 C159.301387,217.03377 158.941809,216.333121 158.883166,215.561902 L158.703789,213.202877 C158.58824,211.68328 159.734455,210.451404 161.256183,210.451404 L161.787732,210.451404 C163.312929,210.451404 164.456067,211.678131 164.340127,213.202877 L164.160749,215.561902 C164.101606,216.339712 163.737707,217.044804 163.195061,217.559353 L163.249204,218.584274 L167.349183,219.843067 C168.107028,220.075743 168.721382,220.905926 168.721382,221.703753 L168.721382,222.642549 C168.721382,223.039168 168.393326,223.360691 168.00677,223.360691 L155.025627,223.360691 C154.630958,223.360691 154.311015,223.02933 154.311015,222.642549 L154.311015,221.703753 C154.311015,220.908801 154.925325,220.075757 155.683215,219.843067 L159.783193,218.584274 Z" id="Combined-Shape" fill="#D1ED64"></path>
                <path d="M136.666563,218.584274 L136.721325,217.54764 C136.184756,217.03377 135.825178,216.333121 135.766536,215.561902 L135.587158,213.202877 C135.47161,211.68328 136.617824,210.451404 138.139553,210.451404 L138.671102,210.451404 C140.196299,210.451404 141.339436,211.678131 141.223496,213.202877 L141.044119,215.561902 C140.984975,216.339712 140.621076,217.044804 140.07843,217.559353 L140.132573,218.584274 L144.232552,219.843067 C144.990397,220.075743 145.604752,220.905926 145.604752,221.703753 L145.604752,222.642549 C145.604752,223.039168 145.276696,223.360691 144.890139,223.360691 L131.908997,223.360691 C131.514327,223.360691 131.194384,223.02933 131.194384,222.642549 L131.194384,221.703753 C131.194384,220.908801 131.808694,220.075757 132.566584,219.843067 L136.666563,218.584274 Z" id="Combined-Shape" fill="#D1ED64"></path>
                <g id="-copy-27">
                    <use fill="#627884" fill-rule="evenodd" xlink:href="#path-21"></use>
                    <use fill="black" fill-opacity="1" filter="url(#filter-22)" xlink:href="#path-21"></use>
                </g>
                <g id="Combined-Shape">
                    <use fill="#627884" fill-rule="evenodd" xlink:href="#path-23"></use>
                    <use fill="black" fill-opacity="1" filter="url(#filter-24)" xlink:href="#path-23"></use>
                </g>
                <path d="M159.783193,252.50868 L159.837956,251.472046 C159.301387,250.958176 158.941809,250.257527 158.883166,249.486308 L158.703789,247.127283 C158.58824,245.607686 159.734455,244.37581 161.256183,244.37581 L161.787732,244.37581 C163.312929,244.37581 164.456067,245.602537 164.340127,247.127283 L164.160749,249.486308 C164.101606,250.264118 163.737707,250.96921 163.195061,251.483759 L163.249204,252.50868 L167.349183,253.767473 C168.107028,254.000149 168.721382,254.830332 168.721382,255.628159 L168.721382,256.566955 C168.721382,256.963574 168.393326,257.285097 168.00677,257.285097 L155.025627,257.285097 C154.630958,257.285097 154.311015,256.953736 154.311015,256.566955 L154.311015,255.628159 C154.311015,254.833207 154.925325,254.000163 155.683215,253.767473 L159.783193,252.50868 Z" id="Combined-Shape" fill="#D1ED64"></path>
            </g>
        </g>
    </g>
</svg>