<?xml version="1.0" encoding="UTF-8"?>
<svg width="771px" height="250px" viewBox="0 0 771 250" version="1.1" xmlns="http://www.w3.org/2000/svg" xmlns:xlink="http://www.w3.org/1999/xlink">
    <!-- Generator: Sketch 43.2 (39069) - http://www.bohemiancoding.com/sketch -->
    <title>Group</title>
    <desc>Created with Sketch.</desc>
    <defs></defs>
    <g id="logo2" stroke="none" stroke-width="1" fill="none" fill-rule="evenodd">
        <g id="logo_final-inverted" transform="translate(-359.000000, -281.000000)" fill="#FFFFFF">
            <g id="Group" transform="translate(359.000000, 281.000000)">
                <g id="Group-8" transform="translate(317.000000, 69.000000)">
                    <path d="M123.773438,111.40625 C111.679627,111.40625 102.22269,107.878942 95.4023438,100.824219 C88.5819971,93.769496 85.171875,84.0547494 85.171875,71.6796875 C85.171875,58.976499 88.3359059,48.9922238 94.6640625,41.7265625 C100.992219,34.4609012 109.687445,30.828125 120.75,30.828125 C131.015676,30.828125 139.12497,33.9452813 145.078125,40.1796875 C151.03128,46.4140937 154.007812,54.9921329 154.007812,65.9140625 L154.007812,74.84375 L102.1875,74.84375 C102.421876,82.3906627 104.460918,88.191386 108.304688,92.2460938 C112.148457,96.3008015 117.562465,98.328125 124.546875,98.328125 C129.140648,98.328125 133.417949,97.8945356 137.378906,97.0273438 C141.339864,96.1601519 145.593727,94.7187601 150.140625,92.703125 L150.140625,106.132812 C146.109355,108.054697 142.031271,109.414059 137.90625,110.210938 C133.781229,111.007816 129.070339,111.40625 123.773438,111.40625 Z M120.75,43.34375 C115.499974,43.34375 111.292985,45.0077959 108.128906,48.3359375 C104.964828,51.6640791 103.078128,56.5155931 102.46875,62.890625 L137.765625,62.890625 C137.671875,56.4687179 136.125015,51.6054853 133.125,48.3007812 C130.124985,44.9960772 126.000026,43.34375 120.75,43.34375 Z" id="e"></path>
                    <path d="M202.976562,105.21875 C207.382835,105.21875 211.226546,104.843754 214.507812,104.09375 L214.507812,109.71875 C211.132796,110.843756 207.24221,111.40625 202.835938,111.40625 C196.085904,111.40625 191.105485,109.601581 187.894531,105.992188 C184.683578,102.382794 183.078125,96.7109762 183.078125,88.9765625 L183.078125,39.6171875 L171.757812,39.6171875 L171.757812,35.5390625 L183.078125,32.375 L186.59375,15.078125 L190.179688,15.078125 L190.179688,33.5703125 L212.609375,33.5703125 L212.609375,39.6171875 L190.179688,39.6171875 L190.179688,87.9921875 C190.179688,93.8515918 191.210927,98.1874859 193.273438,101 C195.335948,103.812514 198.57029,105.21875 202.976562,105.21875 Z M290.328125,110 L290.328125,60.4296875 C290.328125,52.7421491 288.710954,47.1523612 285.476562,43.6601563 C282.242171,40.1679513 277.226596,38.421875 270.429688,38.421875 C261.289017,38.421875 254.597677,40.7304457 250.355469,45.3476562 C246.11326,49.9648668 243.992188,57.4530732 243.992188,67.8125 L243.992188,110 L237.03125,110 L237.03125,0.59375 L243.992188,0.59375 L243.992188,35.3984375 L243.640625,45.171875 L244.132812,45.171875 C246.992202,40.578102 250.601541,37.2500103 254.960938,35.1875 C259.320334,33.1249897 264.734343,32.09375 271.203125,32.09375 C288.546962,32.09375 297.21875,41.3983445 297.21875,60.0078125 L297.21875,110 L290.328125,110 Z M358.835938,111.40625 C347.726507,111.40625 339.066437,107.984409 332.855469,101.140625 C326.6445,94.2968408 323.539062,84.7109991 323.539062,72.3828125 C323.539062,60.1952516 326.539033,50.4336304 332.539062,43.0976562 C338.539092,35.7616821 346.624949,32.09375 356.796875,32.09375 C365.79692,32.09375 372.898411,35.2343436 378.101562,41.515625 C383.304714,47.7969064 385.90625,56.3280711 385.90625,67.109375 L385.90625,72.734375 L330.851562,72.734375 C330.945313,83.2344275 333.394507,91.2499723 338.199219,96.78125 C343.00393,102.312528 349.882768,105.078125 358.835938,105.078125 C363.195334,105.078125 367.027327,104.773441 370.332031,104.164062 C373.636735,103.554684 377.820287,102.242198 382.882812,100.226562 L382.882812,106.554688 C378.570291,108.429697 374.585956,109.707028 370.929688,110.386719 C367.273419,111.06641 363.24221,111.40625 358.835938,111.40625 Z M356.796875,38.28125 C349.437463,38.28125 343.531272,40.707007 339.078125,45.5585938 C334.624978,50.4101805 332.023441,57.4062043 331.273438,66.546875 L378.523438,66.546875 C378.523438,57.6874557 376.601582,50.7617437 372.757812,45.7695312 C368.914043,40.7773188 363.593784,38.28125 356.796875,38.28125 Z M443.09375,32.09375 C446.328141,32.09375 449.796856,32.4218717 453.5,33.078125 L452.164062,39.7578125 C448.976547,38.9609335 445.671892,38.5625 442.25,38.5625 C435.734342,38.5625 430.390646,41.3280973 426.21875,46.859375 C422.046854,52.3906527 419.960938,59.3749578 419.960938,67.8125 L419.960938,110 L413,110 L413,33.5703125 L418.90625,33.5703125 L419.609375,47.3515625 L420.101562,47.3515625 C423.242203,41.7265344 426.593732,37.7773551 430.15625,35.5039062 C433.718768,33.2304574 438.031225,32.09375 443.09375,32.09375 Z" id="ther"></path>
                    <path d="M54.46875,110 L51.1640625,99.171875 L50.6015625,99.171875 C46.8515438,103.906274 43.078144,107.128898 39.28125,108.839844 C35.484356,110.55079 30.6094048,111.40625 24.65625,111.40625 C17.0155868,111.40625 11.0508027,109.343771 6.76171875,105.21875 C2.4726348,101.093729 0.328125,95.2578502 0.328125,87.7109375 C0.328125,79.6952724 3.30465773,73.6484579 9.2578125,69.5703125 C15.2109673,65.4921671 24.2811891,63.2656269 36.46875,62.890625 L49.8984375,62.46875 L49.8984375,58.3203125 C49.8984375,53.3515377 48.7382929,49.6367311 46.4179688,47.1757812 C44.0976446,44.7148314 40.5000244,43.484375 35.625,43.484375 C31.6406051,43.484375 27.8203308,44.0703066 24.1640625,45.2421875 C20.5077942,46.4140684 16.9922044,47.796867 13.6171875,49.390625 L8.2734375,37.578125 C12.4922086,35.374989 17.1093499,33.6992245 22.125,32.5507812 C27.1406501,31.402338 31.8749777,30.828125 36.328125,30.828125 C46.2187995,30.828125 53.6835686,32.9843534 58.7226563,37.296875 C63.7617439,41.6093966 66.28125,48.3827663 66.28125,57.6171875 L66.28125,110 L54.46875,110 Z M29.859375,98.75 C35.859405,98.75 40.6757631,97.0742355 44.3085938,93.7226562 C47.9414244,90.371077 49.7578125,85.6719052 49.7578125,79.625 L49.7578125,72.875 L39.7734375,73.296875 C31.9921486,73.5781264 26.3320489,74.8788946 22.7929688,77.1992188 C19.2538886,79.5195429 17.484375,83.0702886 17.484375,87.8515625 C17.484375,91.3203298 18.5156147,94.0038968 20.578125,95.9023438 C22.6406353,97.8007907 25.7343544,98.75 29.859375,98.75 Z" id="a"></path>
                </g>
                <g id="Group-5">
                    <path d="M209.788786,216.84779 C187.507617,237.426708 157.722133,250 125,250 C106.584351,250 89.0988309,246.017646 73.357638,238.867138 C103.107175,211.706776 121.771218,172.608644 121.771218,129.151292 C121.771218,121.762473 121.231671,114.499672 120.189827,107.400139 C130.298144,103.597382 140.678937,100.350977 151.294877,97.698246 C151.292635,98.0347192 151.291513,98.371472 151.291513,98.7084871 C151.291513,146.889272 174.233284,189.71172 209.788786,216.84779 Z M216.394726,210.276729 C182.470339,184.870271 160.516605,144.353164 160.516605,98.7084871 C160.516605,97.6525711 160.528354,96.5993991 160.551727,95.5490948 C179.977196,91.3803862 200.13548,89.1858993 220.806313,89.1858993 C228.986642,89.1858993 237.0867,89.5295827 245.092835,90.2032979 C248.287763,101.249255 250,112.92467 250,125 C250,157.961589 237.242016,187.943391 216.394726,210.276729 Z M179.035497,12.2507593 C165.514728,31.1055203 156.299512,53.2569123 152.827797,77.266987 C140.359964,80.6028893 128.210674,84.7180445 116.435311,89.5570685 C108.150013,59.5277555 90.671317,33.3120622 67.2173443,14.1281094 C84.4989863,5.10305072 104.153552,0 125,0 C144.354236,0 162.681116,4.39863411 179.035497,12.2507593 Z M187.279593,16.5955755 C207.864492,28.447371 224.755696,45.9938427 235.802084,67.0838713 C234.189072,67.0584407 232.572984,67.0456779 230.953915,67.0456779 C207.427189,67.0456779 184.529886,69.7405596 162.553854,74.8384757 C166.267296,53.3338605 174.911287,33.5174873 187.279603,16.5955809 Z M64.4945851,234.406719 C41.9576488,221.916437 23.6872146,202.664793 12.4218042,179.390309 C39.9601766,150.062542 73.6193915,126.549854 111.360097,110.891595 C112.142491,116.867292 112.546125,122.962155 112.546125,129.151292 C112.546125,171.18264 93.9306229,208.866105 64.4945818,234.406722 Z M58.6130835,19.0664745 C82.3251216,37.4807448 99.9288853,63.3872736 107.871383,93.2330699 C69.3060982,110.50182 35.0312712,135.63633 7.08771131,166.595792 C2.49734818,153.58337 0,139.583329 0,125 C0,80.3556603 23.4044575,41.1777246 58.6130877,19.0664778 Z" id="Combined-Shape"></path>
                </g>
            </g>
        </g>
    </g>
</svg>