<?xml version="1.0" encoding="UTF-8"?>
<svg width="52px" height="52px" viewBox="0 0 52 52" version="1.1" xmlns="http://www.w3.org/2000/svg" xmlns:xlink="http://www.w3.org/1999/xlink">
    <!-- Generator: Sketch 50.2 (55047) - http://www.bohemiancoding.com/sketch -->
    <title>Group 12</title>
    <desc>Created with Sketch.</desc>
    <defs></defs>
    <g id="Page-1" stroke="none" stroke-width="1" fill="none" fill-rule="evenodd">
        <g id="Desktop-Copy-7" transform="translate(-632.000000, -337.000000)" fill="#FFFFFF">
            <g id="Group-12" transform="translate(632.000000, 337.000000)">
                <circle id="Oval-5" opacity="0.200000003" cx="26" cy="26" r="26"></circle>
                <rect id="Rectangle-12" opacity="0.400000006" x="13" y="13" width="26" height="26" rx="4"></rect>
                <path d="M40.1093199,23.1094057 C40.2030697,23.2031555 40.2499446,23.31253 40.2499446,23.43753 C40.2499446,23.5625299 40.2030697,23.6719044 40.1093199,23.7656542 L29.8437194,34.0312547 L25.5312297,34.5000036 C25.2187302,34.5312537 24.9609183,34.445316 24.757794,34.2421917 C24.5546697,34.0390674 24.468732,33.7812555 24.4999821,33.468756 L24.968731,29.1562663 L35.2343315,18.8906658 C35.3280813,18.796916 35.4374558,18.7500411 35.5624557,18.7500411 C35.6874557,18.7500411 35.7968302,18.796916 35.89058,18.8906658 L40.1093199,23.1094057 Z M43.4843119,17.8125434 C43.8280608,18.1875425 43.9999356,18.6250412 43.9999356,19.1250402 C43.9999356,19.6250393 43.8280608,20.0469133 43.4843119,20.3906622 L41.7968159,22.0781582 C41.7030661,22.171908 41.5936916,22.2187829 41.4686917,22.2187829 C41.3436917,22.2187829 41.2343172,22.171908 41.1405674,22.0781582 L36.9218275,17.8594183 C36.8280777,17.7656685 36.7812028,17.656294 36.7812028,17.531294 C36.7812028,17.4062941 36.8280777,17.2969196 36.9218275,17.2031698 L38.6093235,15.5156738 C38.9530724,15.1719249 39.3749464,15.0000501 39.8749455,15.0000501 C40.3749445,15.0000501 40.8124432,15.1719249 41.1874423,15.5156738 L43.4843119,17.8125434 Z" id="ï„"></path>
            </g>
        </g>
    </g>
</svg>