<?xml version="1.0" encoding="UTF-8"?>
<svg width="52px" height="52px" viewBox="0 0 52 52" version="1.1" xmlns="http://www.w3.org/2000/svg" xmlns:xlink="http://www.w3.org/1999/xlink">
    <!-- Generator: Sketch 50.2 (55047) - http://www.bohemiancoding.com/sketch -->
    <title>Group 13</title>
    <desc>Created with Sketch.</desc>
    <defs>
        <rect id="path-1" x="0" y="0" width="34.9594049" height="23.9793637" rx="1.8"></rect>
    </defs>
    <g id="Page-1" stroke="none" stroke-width="1" fill="none" fill-rule="evenodd">
        <g id="Desktop-Copy-7" transform="translate(-119.000000, -337.000000)">
            <g id="Group-13" transform="translate(119.000000, 337.000000)">
                <circle id="Oval-5" fill="#FFFFFF" opacity="0.200000003" cx="26" cy="26" r="26"></circle>
                <g id="Group-6" transform="translate(9.000000, 13.000000)">
                    <g id="Group-9">
                        <g id="Group-3" transform="translate(9.672727, 27.250936)">
                            <rect id="Rectangle-5" fill="#FFFFFF" x="0" y="0.0106117353" width="15.7818182" height="3.02434457" rx="0.675"></rect>
                            <ellipse id="Oval-2" fill="#D1ED64" cx="14.1400854" cy="1.54931336" rx="1" ry="1"></ellipse>
                            <rect id="Rectangle-5" fill="#FFFFFF" x="0" y="3.7247191" width="15.7818182" height="3.02434457" rx="0.675"></rect>
                            <ellipse id="Oval-2" fill="#D1ED64" cx="14.1400854" cy="5.26342072" rx="1" ry="1"></ellipse>
                        </g>
                        <g id="Group-5">
                            <g id="Group-2">
                                <g id="Path-2">
                                    <mask id="mask-2" fill="white">
                                        <use xlink:href="#path-1"></use>
                                    </mask>
                                    <use id="Mask" fill="#FFFFFF" xlink:href="#path-1"></use>
                                    <rect id="Rectangle-2" fill="#0090FC" opacity="0.800000012" mask="url(#mask-2)" x="2" y="2" width="31" height="20"></rect>
                                    <polygon fill="#FFFFFF" opacity="0.300000012" mask="url(#mask-2)" points="27.1673292 -0.725994446 1.74030371 27.4492974 -8.58412471 27.4642413 -8.16534018 -0.797586047"></polygon>
                                </g>
                            </g>
                        </g>
                    </g>
                    <path d="M25.7679416,15.7293518 L25.3369852,13.8863885 L29.9667681,16.5666529 L25.3369852,19.2469174 L25.7449071,17.5024601 L22.1336851,17.5024601 L22.1336851,15.7293518 L25.7679416,15.7293518 Z" id="Combined-Shape" fill="#FFFFFF" transform="translate(26.050227, 16.566653) rotate(-127.000000) translate(-26.050227, -16.566653) "></path>
                </g>
                <path d="M30.65625,26.8549107 C30.380951,27.7552128 29.8675633,28.480652 29.1160714,29.03125 C28.3645796,29.581848 27.5163738,29.8571429 26.5714286,29.8571429 C25.6264834,29.8571429 24.7782776,29.581848 24.0267857,29.03125 C23.2752939,28.480652 22.7619061,27.7552128 22.4866071,26.8549107 C22.427083,26.6688979 22.4419638,26.4884681 22.53125,26.3136161 C22.6205362,26.138764 22.7619038,26.0215777 22.9553571,25.9620536 C23.14137,25.9025295 23.3217997,25.9174103 23.4966518,26.0066964 C23.6715039,26.0959826 23.7886902,26.2373502 23.8482143,26.4308036 C24.0342271,27.0260446 24.3783457,27.5078107 24.8805804,27.8761161 C25.382815,28.2444215 25.9464254,28.4285714 26.5714286,28.4285714 C27.1964317,28.4285714 27.7600421,28.2444215 28.2622768,27.8761161 C28.7645114,27.5078107 29.10863,27.0260446 29.2946429,26.4308036 C29.354167,26.2373502 29.4732134,26.0959826 29.6517857,26.0066964 C29.830358,25.9174103 30.0126479,25.9025295 30.1986607,25.9620536 C30.3846735,26.0215777 30.522321,26.138764 30.6116071,26.3136161 C30.7008933,26.4884681 30.7157741,26.6688979 30.65625,26.8549107 Z M24.71875,20.9955357 C25.0014895,21.2708347 25.1428571,21.6056528 25.1428571,22 C25.1428571,22.3943472 25.0033496,22.7310254 24.7243304,23.0100446 C24.4453111,23.2890639 24.1086329,23.4285714 23.7142857,23.4285714 C23.3199385,23.4285714 22.9832603,23.2890639 22.7042411,23.0100446 C22.4252218,22.7310254 22.2857143,22.3943472 22.2857143,22 C22.2857143,21.6056528 22.4252218,21.2689746 22.7042411,20.9899554 C22.9832603,20.7109361 23.3199385,20.5714286 23.7142857,20.5714286 C24.1086329,20.5714286 24.443451,20.7127962 24.71875,20.9955357 Z M30.4330357,20.9955357 C30.7157752,21.2708347 30.8571429,21.6056528 30.8571429,22 C30.8571429,22.3943472 30.7176353,22.7310254 30.4386161,23.0100446 C30.1595968,23.2890639 29.8229186,23.4285714 29.4285714,23.4285714 C29.0342242,23.4285714 28.697546,23.2890639 28.4185268,23.0100446 C28.1395075,22.7310254 28,22.3943472 28,22 C28,21.6056528 28.1395075,21.2689746 28.4185268,20.9899554 C28.697546,20.7109361 29.0342242,20.5714286 29.4285714,20.5714286 C29.8229186,20.5714286 30.1577367,20.7127962 30.4330357,20.9955357 Z M33.1450893,27.6361607 C33.5245555,26.7507396 33.7142857,25.8244096 33.7142857,24.8571429 C33.7142857,23.8898761 33.5245555,22.9654062 33.1450893,22.0837054 C32.7656231,21.2020045 32.2578157,20.4430835 31.6216518,19.8069196 C30.9854879,19.1707557 30.2265669,18.6629483 29.3448661,18.2834821 C28.4631652,17.904016 27.5386953,17.7142857 26.5714286,17.7142857 C25.6041618,17.7142857 24.6796919,17.904016 23.7979911,18.2834821 C22.9162902,18.6629483 22.1573693,19.1707557 21.5212054,19.8069196 C20.8850415,20.4430835 20.377234,21.2020045 19.9977679,22.0837054 C19.6183017,22.9654062 19.4285714,23.8898761 19.4285714,24.8571429 C19.4285714,25.8244096 19.6183017,26.7488795 19.9977679,27.6305804 C20.377234,28.5122812 20.8850415,29.2712022 21.5212054,29.9073661 C22.1573693,30.54353 22.9162902,31.0513374 23.7979911,31.4308036 C24.6796919,31.8102698 25.6041618,32 26.5714286,32 C27.5386953,32 28.4631652,31.8102698 29.3448661,31.4308036 C30.2265669,31.0513374 30.9854879,30.54353 31.6216518,29.9073661 C32.2578157,29.2712022 32.7656231,28.5141413 33.1450893,27.6361607 Z" id="" fill="#FFFFFF" opacity="0.5"></path>
            </g>
        </g>
    </g>
</svg>