<?xml version="1.0" encoding="UTF-8"?>
<svg width="52px" height="52px" viewBox="0 0 52 52" version="1.1" xmlns="http://www.w3.org/2000/svg" xmlns:xlink="http://www.w3.org/1999/xlink">
    <!-- Generator: Sketch 50.2 (55047) - http://www.bohemiancoding.com/sketch -->
    <title>Group 10</title>
    <desc>Created with Sketch.</desc>
    <defs>
        <path d="M11.961778,17.3880406 L12.0831421,15.1410271 C10.9061946,14.0226103 10.1163496,12.4950247 9.98502878,10.8058714 L9.60599036,5.93037459 C9.35136038,2.65511914 11.8073802,0 15.1043783,0 L16.4207998,0 C19.7121056,0 22.1734346,2.66004673 21.9191878,5.93037459 L21.5401493,10.8058714 C21.4082116,12.5029611 20.6093065,14.0412663 19.4180613,15.1633076 L19.538222,17.3880406 L28.5190293,20.0849065 C30.1653739,20.5792909 31.5,22.3678231 31.5,24.076828 L31.5,26.0479202 C31.5,26.9051102 30.8127828,27.6 29.9379101,27.6 L1.5620899,27.6 C0.699371469,27.6 0,26.9040634 0,26.0479202 L0,24.076828 C0,22.366535 1.32926222,20.5809016 2.98097074,20.0849065 L11.961778,17.3880406 Z" id="path-1"></path>
        <rect id="path-3" x="0" y="0" width="156.1875" height="43.6465116"></rect>
    </defs>
    <g id="Page-1" stroke="none" stroke-width="1" fill="none" fill-rule="evenodd">
        <g id="Desktop-Copy-7" transform="translate(-632.000000, -197.000000)">
            <g id="Group-10" transform="translate(632.000000, 197.000000)">
                <circle id="Oval-5" fill="#FFFFFF" opacity="0.200000003" cx="26" cy="26" r="26"></circle>
                <g id="Group-4" transform="translate(10.000000, 9.000000)">
                    <mask id="mask-2" fill="white">
                        <use xlink:href="#path-1"></use>
                    </mask>
                    <path stroke="#FFFFFF" stroke-width="0.924" d="M11.5179603,17.0389346 L11.6105335,15.3249736 C10.40721,14.1138444 9.65574031,12.5308455 9.52441866,10.8416809 L9.14538024,5.96618405 C8.86971625,2.42037228 11.5402167,-0.462 15.1043783,-0.462 L16.4207998,-0.462 C19.979516,-0.462 22.6550597,2.42554579 22.3797979,5.96618405 L22.0007595,10.8416809 C21.8687091,12.540218 21.1077274,14.1339632 19.890735,15.34846 L19.9820397,17.0389346 L28.6519026,19.6424263 C30.4928596,20.1952513 31.962,22.1630668 31.962,24.076828 L31.962,26.0479202 C31.962,27.1645667 31.0636332,28.062 29.9379101,28.062 L1.5620899,28.062 C0.44519429,28.062 -0.462,27.1601992 -0.462,26.0479202 L-0.462,24.076828 C-0.462,22.1603637 1.0031373,20.1964534 2.84809743,19.6424263 L11.5179603,17.0389346 Z"></path>
                    <g mask="url(#mask-2)">
                        <g transform="translate(-52.500000, -5.134884)">
                            <mask id="mask-4" fill="white">
                                <use xlink:href="#path-3"></use>
                            </mask>
                            <g id="Rectangle-11" stroke="none" fill="none"></g>
                            <g id="Group-3" stroke="none" stroke-width="1" fill="none" fill-rule="evenodd" mask="url(#mask-4)">
                                <g transform="translate(-224.108195, -43.181716)" fill="#FFFFFF" id="Combined-Shape">
                                    <path d="M0.00225585679,98.3183267 L98.4789865,-0.158403957 L99.1204701,0.483079684 L0.643739498,98.9598103 L0.00225585679,98.3183267 Z M4.64449346,98.3183267 L103.121224,-0.158403957 L103.762708,0.483079684 L5.2859771,98.9598103 L4.64449346,98.3183267 Z M9.28673106,98.3183267 L107.763462,-0.158403957 L108.404945,0.483079684 L9.9282147,98.9598103 L9.28673106,98.3183267 Z M13.9289687,98.3183267 L112.405699,-0.158403957 L113.047183,0.483079684 L14.5704523,98.9598103 L13.9289687,98.3183267 Z M18.5712063,98.3183267 L117.047937,-0.158403957 L117.689421,0.483079684 L19.2126899,98.9598103 L18.5712063,98.3183267 Z M23.2134439,98.3183267 L121.690174,-0.158403957 L122.331658,0.483079684 L23.8549275,98.9598103 L23.2134439,98.3183267 Z M27.8556815,98.3183267 L126.332412,-0.158403957 L126.973896,0.483079684 L28.4971651,98.9598103 L27.8556815,98.3183267 Z M32.4979191,98.3183267 L130.97465,-0.158403957 L131.616133,0.483079684 L33.1394027,98.9598103 L32.4979191,98.3183267 Z M37.1401567,98.3183267 L135.616887,-0.158403957 L136.258371,0.483079684 L37.7816403,98.9598103 L37.1401567,98.3183267 Z M41.7823943,98.3183267 L140.259125,-0.158403957 L140.900609,0.483079684 L42.4238779,98.9598103 L41.7823943,98.3183267 Z M46.4246319,98.3183267 L144.901362,-0.158403957 L145.542846,0.483079684 L47.0661155,98.9598103 L46.4246319,98.3183267 Z M51.0668695,98.3183267 L149.5436,-0.158403957 L150.185084,0.483079684 L51.7083531,98.9598103 L51.0668695,98.3183267 Z M55.7091071,98.3183267 L154.185838,-0.158403957 L154.827321,0.483079684 L56.3505907,98.9598103 L55.7091071,98.3183267 Z M60.3513447,98.3183267 L158.828075,-0.158403957 L159.469559,0.483079684 L60.9928283,98.9598103 L60.3513447,98.3183267 Z M64.9935823,98.3183267 L163.470313,-0.158403957 L164.111797,0.483079684 L65.6350659,98.9598103 L64.9935823,98.3183267 Z M69.6358199,98.3183267 L168.11255,-0.158403957 L168.754034,0.483079684 L70.2773035,98.9598103 L69.6358199,98.3183267 Z M74.2780575,98.3183267 L172.754788,-0.158403957 L173.396272,0.483079684 L74.9195411,98.9598103 L74.2780575,98.3183267 Z M78.9202951,98.3183267 L177.397026,-0.158403957 L178.038509,0.483079684 L79.5617787,98.9598103 L78.9202951,98.3183267 Z M83.5625327,98.3183267 L182.039263,-0.158403957 L182.680747,0.483079684 L84.2040163,98.9598103 L83.5625327,98.3183267 Z M88.2047703,98.3183267 L186.681501,-0.158403957 L187.322985,0.483079684 L88.8462539,98.9598103 L88.2047703,98.3183267 Z M92.8470079,98.3183267 L191.323738,-0.158403957 L191.965222,0.483079684 L93.4884915,98.9598103 L92.8470079,98.3183267 Z M97.4892455,98.3183267 L195.965976,-0.158403957 L196.60746,0.483079684 L98.1307291,98.9598103 L97.4892455,98.3183267 Z M102.131483,98.3183267 L200.608214,-0.158403957 L201.249697,0.483079684 L102.772967,98.9598103 L102.131483,98.3183267 Z M106.773721,98.3183267 L205.250451,-0.158403957 L205.891935,0.483079684 L107.415204,98.9598103 L106.773721,98.3183267 Z M111.415958,98.3183267 L209.892689,-0.158403957 L210.534173,0.483079684 L112.057442,98.9598103 L111.415958,98.3183267 Z M116.058196,98.3183267 L214.534926,-0.158403957 L215.17641,0.483079684 L116.69968,98.9598103 L116.058196,98.3183267 Z M120.700433,98.3183267 L219.177164,-0.158403957 L219.818648,0.483079684 L121.341917,98.9598103 L120.700433,98.3183267 Z M125.342671,98.3183267 L223.819402,-0.158403957 L224.460885,0.483079684 L125.984155,98.9598103 L125.342671,98.3183267 Z M129.984909,98.3183267 L228.461639,-0.158403957 L229.103123,0.483079684 L130.626392,98.9598103 L129.984909,98.3183267 Z M134.627146,98.3183267 L233.103877,-0.158403957 L233.745361,0.483079684 L135.26863,98.9598103 L134.627146,98.3183267 Z M139.269384,98.3183267 L237.746114,-0.158403957 L238.387598,0.483079684 L139.910868,98.9598103 L139.269384,98.3183267 Z M143.911621,98.3183267 L242.388352,-0.158403957 L243.029836,0.483079684 L144.553105,98.9598103 L143.911621,98.3183267 Z M148.553859,98.3183267 L247.03059,-0.158403957 L247.672073,0.483079684 L149.195343,98.9598103 L148.553859,98.3183267 Z M153.196097,98.3183267 L251.672827,-0.158403957 L252.314311,0.483079684 L153.83758,98.9598103 L153.196097,98.3183267 Z M157.838334,98.3183267 L256.315065,-0.158403957 L256.956549,0.483079684 L158.479818,98.9598103 L157.838334,98.3183267 Z M162.480572,98.3183267 L260.957302,-0.158403957 L261.598786,0.483079684 L163.122056,98.9598103 L162.480572,98.3183267 Z M167.122809,98.3183267 L265.59954,-0.158403957 L266.241024,0.483079684 L167.764293,98.9598103 L167.122809,98.3183267 Z M171.765047,98.3183267 L270.241778,-0.158403957 L270.883261,0.483079684 L172.406531,98.9598103 L171.765047,98.3183267 Z M176.407285,98.3183267 L274.884015,-0.158403957 L275.525499,0.483079684 L177.048768,98.9598103 L176.407285,98.3183267 Z M181.049522,98.3183267 L279.526253,-0.158403957 L280.167737,0.483079684 L181.691006,98.9598103 L181.049522,98.3183267 Z M185.69176,98.3183267 L284.168491,-0.158403957 L284.809974,0.483079684 L186.333244,98.9598103 L185.69176,98.3183267 Z M190.333997,98.3183267 L288.810728,-0.158403957 L289.452212,0.483079684 L190.975481,98.9598103 L190.333997,98.3183267 Z M194.976235,98.3183267 L293.452966,-0.158403957 L294.094449,0.483079684 L195.617719,98.9598103 L194.976235,98.3183267 Z M199.618473,98.3183267 L298.095203,-0.158403957 L298.736687,0.483079684 L200.259956,98.9598103 L199.618473,98.3183267 Z M204.26071,98.3183267 L302.737441,-0.158403957 L303.378925,0.483079684 L204.902194,98.9598103 L204.26071,98.3183267 Z M208.902948,98.3183267 L307.379679,-0.158403957 L308.021162,0.483079684 L209.544432,98.9598103 L208.902948,98.3183267 Z M213.545185,98.3183267 L312.021916,-0.158403957 L312.6634,0.483079684 L214.186669,98.9598103 L213.545185,98.3183267 Z M218.187423,98.3183267 L316.664154,-0.158403957 L317.305637,0.483079684 L218.828907,98.9598103 L218.187423,98.3183267 Z M222.829661,98.3183267 L321.306391,-0.158403957 L321.947875,0.483079684 L223.471144,98.9598103 L222.829661,98.3183267 Z M227.471898,98.3183267 L325.948629,-0.158403957 L326.590113,0.483079684 L228.113382,98.9598103 L227.471898,98.3183267 Z M232.114136,98.3183267 L330.590867,-0.158403957 L331.23235,0.483079684 L232.75562,98.9598103 L232.114136,98.3183267 Z M236.756373,98.3183267 L335.233104,-0.158403957 L335.874588,0.483079684 L237.397857,98.9598103 L236.756373,98.3183267 Z M241.398611,98.3183267 L339.875342,-0.158403957 L340.516825,0.483079684 L242.040095,98.9598103 L241.398611,98.3183267 Z M246.040849,98.3183267 L344.517579,-0.158403957 L345.159063,0.483079684 L246.682332,98.9598103 L246.040849,98.3183267 Z M250.683086,98.3183267 L349.159817,-0.158403957 L349.801301,0.483079684 L251.32457,98.9598103 L250.683086,98.3183267 Z M255.325324,98.3183267 L353.802055,-0.158403957 L354.443538,0.483079684 L255.966808,98.9598103 L255.325324,98.3183267 Z M259.967561,98.3183267 L358.444292,-0.158403957 L359.085776,0.483079684 L260.609045,98.9598103 L259.967561,98.3183267 Z M264.609799,98.3183267 L363.08653,-0.158403957 L363.728013,0.483079684 L265.251283,98.9598103 L264.609799,98.3183267 Z M269.252037,98.3183267 L367.728767,-0.158403957 L368.370251,0.483079684 L269.89352,98.9598103 L269.252037,98.3183267 Z M273.894274,98.3183267 L372.371005,-0.158403957 L373.012489,0.483079684 L274.535758,98.9598103 L273.894274,98.3183267 Z M278.536512,98.3183267 L377.013243,-0.158403957 L377.654726,0.483079684 L279.177996,98.9598103 L278.536512,98.3183267 Z M283.178749,98.3183267 L381.65548,-0.158403957 L382.296964,0.483079684 L283.820233,98.9598103 L283.178749,98.3183267 Z M287.820987,98.3183267 L386.297718,-0.158403957 L386.939201,0.483079684 L288.462471,98.9598103 L287.820987,98.3183267 Z M292.463225,98.3183267 L390.939955,-0.158403957 L391.581439,0.483079684 L293.104708,98.9598103 L292.463225,98.3183267 Z M297.105462,98.3183267 L395.582193,-0.158403957 L396.223677,0.483079684 L297.746946,98.9598103 L297.105462,98.3183267 Z M301.7477,98.3183267 L400.224431,-0.158403957 L400.865914,0.483079684 L302.389184,98.9598103 L301.7477,98.3183267 Z M306.389937,98.3183267 L404.866668,-0.158403957 L405.508152,0.483079684 L307.031421,98.9598103 L306.389937,98.3183267 Z M311.032175,98.3183267 L409.508906,-0.158403957 L410.150389,0.483079684 L311.673659,98.9598103 L311.032175,98.3183267 Z M315.674413,98.3183267 L414.151143,-0.158403957 L414.792627,0.483079684 L316.315896,98.9598103 L315.674413,98.3183267 Z M320.31665,98.3183267 L418.793381,-0.158403957 L419.434865,0.483079684 L320.958134,98.9598103 L320.31665,98.3183267 Z M324.958888,98.3183267 L423.435619,-0.158403957 L424.077102,0.483079684 L325.600372,98.9598103 L324.958888,98.3183267 Z M329.601126,98.3183267 L428.077856,-0.158403957 L428.71934,0.483079684 L330.242609,98.9598103 L329.601126,98.3183267 Z M334.243363,98.3183267 L432.720094,-0.158403957 L433.361577,0.483079684 L334.884847,98.9598103 L334.243363,98.3183267 Z M338.885601,98.3183267 L437.362331,-0.158403957 L438.003815,0.483079684 L339.527084,98.9598103 L338.885601,98.3183267 Z M343.527838,98.3183267 L442.004569,-0.158403957 L442.646053,0.483079684 L344.169322,98.9598103 L343.527838,98.3183267 Z M348.170076,98.3183267 L446.646807,-0.158403957 L447.28829,0.483079684 L348.81156,98.9598103 L348.170076,98.3183267 Z M352.812314,98.3183267 L451.289044,-0.158403957 L451.930528,0.483079684 L353.453797,98.9598103 L352.812314,98.3183267 Z M357.454551,98.3183267 L455.931282,-0.158403957 L456.572765,0.483079684 L358.096035,98.9598103 L357.454551,98.3183267 Z M362.096789,98.3183267 L460.573519,-0.158403957 L461.215003,0.483079684 L362.738272,98.9598103 L362.096789,98.3183267 Z M366.739026,98.3183267 L465.215757,-0.158403957 L465.857241,0.483079684 L367.38051,98.9598103 L366.739026,98.3183267 Z M371.381264,98.3183267 L469.857995,-0.158403957 L470.499478,0.483079684 L372.022748,98.9598103 L371.381264,98.3183267 Z M376.023502,98.3183267 L474.500232,-0.158403957 L475.141716,0.483079684 L376.664985,98.9598103 L376.023502,98.3183267 Z M380.665739,98.3183267 L479.14247,-0.158403957 L479.783953,0.483079684 L381.307223,98.9598103 L380.665739,98.3183267 Z M385.307977,98.3183267 L483.784707,-0.158403957 L484.426191,0.483079684 L385.94946,98.9598103 L385.307977,98.3183267 Z M389.950214,98.3183267 L488.426945,-0.158403957 L489.068429,0.483079684 L390.591698,98.9598103 L389.950214,98.3183267 Z M394.592452,98.3183267 L493.069183,-0.158403957 L493.710666,0.483079684 L395.233936,98.9598103 L394.592452,98.3183267 Z M399.23469,98.3183267 L497.71142,-0.158403957 L498.352904,0.483079684 L399.876173,98.9598103 L399.23469,98.3183267 Z M403.876927,98.3183267 L502.353658,-0.158403957 L502.995141,0.483079684 L404.518411,98.9598103 L403.876927,98.3183267 Z"></path>
                                </g>
                            </g>
                        </g>
                    </g>
                </g>
                <g id="ready" transform="translate(16.000000, 30.000000)">
                    <circle id="Oval" fill="#0090FC" cx="9.702" cy="9.702" r="9.702"></circle>
                    <path d="M7.4844033,8.28759207 L11.9196086,8.28759207 L11.9196086,6.62439009 C11.9196086,5.40297613 10.9234199,4.40678744 9.70200595,4.40678744 C8.48059199,4.40678744 7.4844033,5.40297613 7.4844033,6.62439009 L7.4844033,8.28759207 Z M14.6916119,9.11919306 L14.6916119,14.108799 C14.6916119,14.5679121 14.319124,14.9404 13.8600109,14.9404 L5.54400099,14.9404 C5.08488794,14.9404 4.7124,14.5679121 4.7124,14.108799 L4.7124,9.11919306 C4.7124,8.66008001 5.08488794,8.28759207 5.54400099,8.28759207 L5.82120132,8.28759207 L5.82120132,6.62439009 C5.82120132,4.49341255 7.57102841,2.74358546 9.70200595,2.74358546 C11.8329835,2.74358546 13.5828106,4.49341255 13.5828106,6.62439009 L13.5828106,8.28759207 L13.8600109,8.28759207 C14.319124,8.28759207 14.6916119,8.66008001 14.6916119,9.11919306 Z" id="" fill="#FFFFFF"></path>
                </g>
            </g>
        </g>
    </g>
</svg>