<?xml version="1.0" encoding="UTF-8"?>
<svg width="52px" height="52px" viewBox="0 0 52 52" version="1.1" xmlns="http://www.w3.org/2000/svg" xmlns:xlink="http://www.w3.org/1999/xlink">
    <!-- Generator: Sketch 50.2 (55047) - http://www.bohemiancoding.com/sketch -->
    <title>Group 11</title>
    <desc>Created with Sketch.</desc>
    <defs></defs>
    <g id="Page-1" stroke="none" stroke-width="1" fill="none" fill-rule="evenodd">
        <g id="Desktop-Copy-7" transform="translate(-632.000000, -267.000000)" fill="#FFFFFF">
            <g id="Group-11" transform="translate(632.000000, 267.000000)">
                <circle id="Oval-5" opacity="0.200000003" cx="26" cy="26" r="26"></circle>
                <path d="M39.1249353,19.5000417 C39.1249353,23.2552414 38.4322284,26.7005457 37.0468153,29.8359546 C35.8436932,32.4609483 34.2395306,34.7578178 32.2343268,36.7265632 C30.5572471,38.3671842 28.8072513,39.5520775 26.9843393,40.2812422 C26.3280908,40.5729079 25.6718424,40.5729079 25.015594,40.2812422 C22.9374739,39.4427028 21.023416,38.0937474 19.2734202,36.2343768 C17.3411334,34.229173 15.8281159,31.8776161 14.7343685,29.1797061 C13.4947878,26.153672 12.8749979,22.9271172 12.8749979,19.5000417 C12.8749979,18.953168 13.0208312,18.4609817 13.3124969,18.0234827 C13.6041626,17.5859838 14.0052038,17.2760884 14.515619,17.0937975 L25.015594,12.7188079 C25.6718424,12.4271422 26.3280908,12.4271422 26.9843393,12.7188079 L37.4843142,17.0937975 C37.9947294,17.2760884 38.3957707,17.5859838 38.6874364,18.0234827 C38.9791021,18.4609817 39.1249353,18.953168 39.1249353,19.5000417 Z M25.9999666,36.8906253 C28.7343351,35.5416699 30.9582884,33.4635498 32.6718257,30.6562651 C34.5676548,27.5573139 35.5520275,24.0390934 35.6249437,20.1016028 L25.9999666,16.0547374 L25.9999666,36.8906253 Z" id="ï­"></path>
            </g>
        </g>
    </g>
</svg>