<?xml version="1.0" encoding="UTF-8"?>
<svg width="233px" height="122px" viewBox="0 0 233 122" version="1.1" xmlns="http://www.w3.org/2000/svg" xmlns:xlink="http://www.w3.org/1999/xlink">
    <!-- Generator: Sketch 50.2 (55047) - http://www.bohemiancoding.com/sketch -->
    <title>Group 6</title>
    <desc>Created with Sketch.</desc>
    <defs>
        <path d="M100,131 C189.470129,131 262,84.8853292 262,28 C262,-28.8853292 0.36328125,20.359375 0.36328125,28 C0.36328125,35.640625 10.5298705,131 100,131 Z" id="path-1"></path>
        <ellipse id="path-3" cx="71.0374332" cy="70.5793872" rx="71.0374332" ry="70.5793872"></ellipse>
        <rect id="path-5" x="0" y="0" width="46.656" height="31.104" rx="4.1472"></rect>
        <filter x="-2.1%" y="-3.2%" width="108.6%" height="112.9%" filterUnits="objectBoundingBox" id="filter-6">
            <feOffset dx="2" dy="2" in="SourceAlpha" result="shadowOffsetOuter1"></feOffset>
            <feColorMatrix values="0 0 0 0 0   0 0 0 0 0   0 0 0 0 0  0 0 0 0.233072917 0" type="matrix" in="shadowOffsetOuter1"></feColorMatrix>
        </filter>
        <rect id="path-7" x="0" y="0" width="46.656" height="31.104" rx="4.1472"></rect>
        <filter x="-2.1%" y="-3.2%" width="108.6%" height="112.9%" filterUnits="objectBoundingBox" id="filter-8">
            <feOffset dx="2" dy="2" in="SourceAlpha" result="shadowOffsetOuter1"></feOffset>
            <feColorMatrix values="0 0 0 0 0   0 0 0 0 0   0 0 0 0 0  0 0 0 0.233072917 0" type="matrix" in="shadowOffsetOuter1"></feColorMatrix>
        </filter>
        <rect id="path-9" x="0" y="0" width="46.656" height="31.104" rx="4.1472"></rect>
        <filter x="-2.1%" y="-3.2%" width="108.6%" height="112.9%" filterUnits="objectBoundingBox" id="filter-10">
            <feOffset dx="2" dy="2" in="SourceAlpha" result="shadowOffsetOuter1"></feOffset>
            <feColorMatrix values="0 0 0 0 0   0 0 0 0 0   0 0 0 0 0  0 0 0 0.233072917 0" type="matrix" in="shadowOffsetOuter1"></feColorMatrix>
        </filter>
        <rect id="path-11" x="0" y="0" width="46.656" height="31.104" rx="4.1472"></rect>
        <filter x="-2.1%" y="-3.2%" width="108.6%" height="112.9%" filterUnits="objectBoundingBox" id="filter-12">
            <feOffset dx="2" dy="2" in="SourceAlpha" result="shadowOffsetOuter1"></feOffset>
            <feColorMatrix values="0 0 0 0 0   0 0 0 0 0   0 0 0 0 0  0 0 0 0.233072917 0" type="matrix" in="shadowOffsetOuter1"></feColorMatrix>
        </filter>
        <rect id="path-13" x="0" y="0" width="46.656" height="31.104" rx="4.1472"></rect>
        <filter x="-2.1%" y="-3.2%" width="108.6%" height="112.9%" filterUnits="objectBoundingBox" id="filter-14">
            <feOffset dx="2" dy="2" in="SourceAlpha" result="shadowOffsetOuter1"></feOffset>
            <feColorMatrix values="0 0 0 0 0   0 0 0 0 0   0 0 0 0 0  0 0 0 0.233072917 0" type="matrix" in="shadowOffsetOuter1"></feColorMatrix>
        </filter>
        <rect id="path-15" x="0" y="0" width="46.656" height="31.104" rx="4.1472"></rect>
        <filter x="-2.1%" y="-3.2%" width="108.6%" height="112.9%" filterUnits="objectBoundingBox" id="filter-16">
            <feOffset dx="2" dy="2" in="SourceAlpha" result="shadowOffsetOuter1"></feOffset>
            <feColorMatrix values="0 0 0 0 0   0 0 0 0 0   0 0 0 0 0  0 0 0 0.233072917 0" type="matrix" in="shadowOffsetOuter1"></feColorMatrix>
        </filter>
    </defs>
    <g id="Page-1" stroke="none" stroke-width="1" fill="none" fill-rule="evenodd">
        <g id="Desktop-Copy-8" transform="translate(-504.000000, -507.000000)">
            <g id="Group-6" transform="translate(481.000000, 498.000000)">
                <g id="planet-earth-free-flat-vector-icon">
                    <mask id="mask-2" fill="white">
                        <use xlink:href="#path-1"></use>
                    </mask>
                    <g id="Oval-2"></g>
                    <g id="Combined-Shape" mask="url(#mask-2)">
                        <g transform="translate(82.385027, 36.894150)">
                            <mask id="mask-4" fill="white">
                                <use xlink:href="#path-3"></use>
                            </mask>
                            <use id="Mask" stroke="none" fill="#86C4F3" fill-rule="evenodd" xlink:href="#path-3"></use>
                            <path d="M77.5363936,29.8895181 C77.5935743,30.1466043 77.610062,30.4118737 77.6507551,30.7286286 C77.1859422,30.7289695 76.7442824,30.7286286 76.3092877,30.7286286 C75.9918118,30.7286286 75.6778439,30.7282876 75.3603679,30.7282876 C75.305292,30.4101689 75.248462,30.1162586 75.2018053,29.8206435 C75.1562011,29.5233236 75.1197176,29.2249807 75.0793754,28.926297 C75.0614845,28.7847972 75.0856898,28.6640962 75.1881241,28.5423724 C75.406323,28.2839222 75.6034738,28.0056963 75.8125519,27.7387221 C75.8458781,27.6950788 75.8925348,27.6425704 75.9434011,27.6309777 C76.4261048,27.5095948 76.9105626,27.3957131 77.4195765,27.2729663 C77.6946053,27.822258 77.961215,28.3487053 78.2365947,28.9007247 C78.0689112,29.0538172 77.9152599,29.2147518 77.7419636,29.3477275 C77.5458652,29.4929778 77.4848257,29.6549354 77.5363936,29.8895181 Z M70.5294717,36.8823328 C70.8234439,36.8888111 71.1044364,36.8959713 71.3661348,36.9014267 C71.4440128,37.3508163 71.5404834,37.7698601 71.5825797,38.1936774 C71.6155551,38.5053178 71.6804535,38.7763835 71.9102289,39.013353 C72.1550888,39.2666886 72.3680257,39.5483243 72.592539,39.819049 C72.651123,39.8889465 72.7019893,39.9649813 72.7777626,40.069998 C72.6595422,40.1027305 72.5735957,40.1337581 72.4883508,40.1494424 C71.2023102,40.3632264 69.9187251,40.5715549 68.6337369,40.79284 C68.4179936,40.8293231 68.2685519,40.7894304 68.1324406,40.6237223 C68.0380749,40.505749 67.9040684,40.4164166 67.8097027,40.2967385 C67.4581989,39.8538273 66.9874225,39.6073109 66.4292963,39.5012713 C66.2805561,39.4733123 66.1367273,39.4156896 65.9493989,39.3594306 C66.6071529,38.3494976 67.3203337,37.409121 67.6606118,36.2535966 C67.5992214,36.2017702 67.5315166,36.138692 67.4589005,36.0851608 C67.2957775,35.9675285 67.138969,35.8376215 66.9632171,35.7418108 C66.0406075,35.2419587 65.4803765,34.4134181 64.8924321,33.6104497 C64.7770182,33.4529247 64.7429904,33.2865347 64.7307123,33.0928675 C64.7008941,32.6175648 64.6356449,32.1453307 64.575307,31.6724148 C64.5504,31.4770428 64.509707,31.2843986 64.4700663,31.0617496 C64.6984385,30.9768498 64.8913797,30.8868355 65.0934417,30.8367139 C65.2923465,30.7865923 65.428107,30.6764612 65.5565005,30.5322337 C65.9848299,30.048066 66.4229818,29.5720813 66.8537668,29.0872316 C66.9649711,28.9576656 67.0863487,28.907203 67.2656086,28.8809489 C67.6413176,28.8280996 68.0068535,28.7111492 68.3748449,28.6167024 C68.5576128,28.5696494 68.7403807,28.5154363 68.9445476,28.4588364 C69.3823487,29.1898615 69.7973476,29.8782663 70.2470759,30.6232709 C70.0751829,30.6519118 69.9555594,30.678166 69.833831,30.6911226 C69.4640856,30.7272647 69.0964449,30.7661345 68.7281027,30.7900019 C68.5421775,30.8022766 68.4432513,30.8878584 68.4074695,31.058681 C68.4004535,31.0927773 68.3804578,31.1261917 68.383615,31.1592651 C68.4036107,31.6314992 68.185061,32.0348587 67.9921198,32.4453784 C67.9665112,32.4958409 67.954584,32.5524408 67.9272214,32.633931 C68.0815743,32.7580417 68.2250524,32.8981775 68.3951914,32.9980798 C68.654785,33.1511723 68.7631829,33.3683658 68.807384,33.6496605 C68.8501818,33.9077696 68.9354267,34.1594005 69.0108492,34.4403542 C69.6682524,34.2923762 70.2814545,34.154968 70.9213176,34.0107405 C71.346139,34.4468325 71.7713112,34.8822425 72.232616,35.3565224 C71.6120471,35.693394 71.0300663,36.009126 70.4330011,36.333723 C70.4631701,36.5048865 70.4947422,36.6845741 70.5294717,36.8823328 Z M58.6306139,36.5451202 C58.5990417,36.7735655 58.5383529,36.9989422 58.4892406,37.232843 C58.4099594,37.2543237 58.3436578,37.2802369 58.2752513,37.2897839 C57.660646,37.3695693 57.0456898,37.4531052 56.4286289,37.520275 C56.3079529,37.5335726 56.1690353,37.501863 56.052569,37.4541281 C55.6894888,37.3075139 55.3302674,37.1486251 54.9738524,36.9835989 C54.8216043,36.9130195 54.6872471,36.8966533 54.5367529,36.9870085 C54.0964963,37.2560285 53.6292278,37.2573924 53.130738,37.1591949 C52.5578781,37.0449723 51.9730909,36.9924639 51.3974246,36.8976762 C51.104154,36.8489184 50.8333348,36.8867653 50.5551487,36.9788254 C49.5609754,37.307173 48.5632941,37.6266555 47.5673668,37.9481838 C47.4775615,37.9778476 47.3831957,37.9938729 47.2719914,38.020468 C47.1386866,37.8404395 47.0092406,37.6634796 46.8552385,37.455151 C46.5949433,37.5342545 46.3265797,37.6164266 46.0305027,37.7074638 C46.0024385,37.6106303 45.9684107,37.5284581 45.9557818,37.4428763 C45.9049155,37.0988445 45.8298439,36.7541306 45.8228278,36.407712 C45.818969,36.1891546 45.9214032,35.9692333 45.9712171,35.7660192 C46.0701433,35.7448795 46.120308,35.7182844 46.1627551,35.7274904 C46.6444064,35.8311432 46.8373476,35.4758595 47.0604578,35.184336 C47.1092193,35.1209168 47.129215,35.0043074 47.1071144,34.9272497 C46.9082096,34.2876027 47.0541433,33.66364 47.1758717,33.0359267 C47.2007786,32.9135209 47.2263872,32.7914561 47.2583102,32.6424551 C47.5291294,32.726673 47.7732877,32.8177102 48.0255144,32.8780607 C48.1942503,32.9179534 48.375615,32.9387522 48.5471572,32.9247727 C49.0182845,32.8879486 49.4862545,32.828962 49.9910588,32.8357813 C49.7321668,33.1157121 49.4732749,33.3959839 49.1870203,33.7066013 C49.4276706,33.8170734 49.6395551,33.9156118 49.8528428,34.0117634 C50.0482396,34.1000729 50.256616,34.1669017 50.4358759,34.2777147 C50.678631,34.4277386 50.9101604,34.3929603 51.1550203,34.3114701 C51.4377668,34.2177052 51.7187594,34.1215536 52.0043123,34.0386995 C52.1663829,33.9919876 52.2726759,33.9101564 52.3319615,33.7512675 C52.4340449,33.4795198 52.5505112,33.2142505 52.6760984,32.9094293 C52.2653091,32.7846368 51.8832856,32.6690503 51.4223316,32.5289144 C52.7108278,31.6441148 53.9133775,30.7456767 55.2597561,29.9161132 C55.2352,30.150014 55.2432684,30.3273148 55.1909989,30.4858627 C55.1559187,30.5932662 55.0569925,30.7112394 54.9542075,30.7634068 C54.643046,30.9202499 54.4865882,31.1336929 54.5535914,31.4852259 C54.5735872,31.5851282 54.5511358,31.6932135 54.5528898,31.7968663 C54.5630631,32.3332015 54.5409626,32.8630583 54.2490952,33.3441574 C54.221031,33.3905284 54.217523,33.4515609 54.1933176,33.5412342 C54.320308,33.5439619 54.4251979,33.5507812 54.5269305,33.5446438 C55.2523893,33.5044102 55.9799529,33.4556524 56.705061,33.4212151 C56.7994267,33.4164416 56.9246631,33.4525837 56.9892107,33.5170258 C57.7760599,34.3094243 58.5572963,35.110006 59.3388834,35.9102467 C59.3444963,35.916725 59.3437947,35.9317273 59.3543187,35.9746887 C59.2368,36.0261742 59.1168257,36.1001632 58.9856257,36.129145 C58.7463786,36.1813124 58.6635893,36.3269037 58.6306139,36.5451202 Z M117.830229,47.9861411 C117.566426,48.1511673 117.342965,48.3789308 117.06969,48.6063532 C117.437681,48.812636 117.766383,48.9950513 117.966691,49.424324 C117.159495,50.7977239 116.359666,52.1741924 115.542999,53.541114 C114.444988,55.3809515 113.454674,57.2852311 112.099876,58.9689075 C111.975341,59.1230229 111.978498,59.289072 111.989022,59.4633042 C112.093561,61.2946177 112.202661,63.1262721 112.434541,64.9483796 C112.455589,65.129431 112.42507,65.2852512 112.327196,65.4455039 C111.720308,66.4602105 111.120086,67.4796905 110.418481,68.7675086 C110.268338,68.6007776 110.189057,68.5162187 110.11188,68.429955 C109.435183,67.6644926 108.756381,66.8973253 108.076175,66.13084 C105.782982,63.5286087 103.484175,60.9270593 101.195191,58.3214184 C101.100124,58.213674 101.036278,58.0609224 101.014528,57.9204456 C100.947174,57.5194729 100.912445,57.1150905 100.865437,56.7107081 C100.839829,56.4686242 100.828954,56.2244945 100.794926,55.9830926 C100.737395,55.6216716 100.668637,55.2616144 100.600933,54.8773488 C100.249429,54.9356535 99.9172193,54.9782739 99.5920257,55.0495353 C99.4362695,55.0843135 99.2773561,55.1518242 99.1486118,55.2442253 C98.8135957,55.4859682 98.4968214,55.7485099 98.0614759,55.9414951 C96.3295658,54.6990251 94.5994096,53.4541683 92.8639914,52.215449 C92.7373519,52.1240708 92.6766631,52.0183722 92.655615,51.871758 C92.6138695,51.5955778 92.5703701,51.3187157 92.3490139,50.7551035 C92.0322396,50.5099509 91.6975743,50.2859381 91.2790674,50.0912481 C89.5359316,50.7820396 87.7903401,51.4772636 86.042293,52.1629406 C85.4624171,52.391045 84.9025369,52.7118914 83.877493,52.6300602 C82.7444021,52.641653 81.611662,52.6447217 80.4796235,52.6726806 C80.1793369,52.6808638 79.9797305,52.5877808 79.7639872,52.2236321 C79.5447358,51.936882 79.3275893,51.649791 79.0957091,51.3473566 C78.2130909,51.8669845 77.3623957,52.3709282 76.4871444,52.8871465 C76.1472171,52.5628905 75.8206203,52.2597742 75.507354,51.9447242 C75.3863273,51.8212955 75.2624941,51.7841305 75.0909519,51.816522 C74.6461348,51.8986941 74.1957048,51.9546121 73.7491337,52.0449673 C73.5295316,52.0896335 73.3979807,52.0241686 73.2580107,51.8690303 C72.3946866,50.9054682 71.5152257,49.9545218 70.656462,48.9865272 C70.4610652,48.7652421 70.2656684,48.6343122 69.9538053,48.6762507 C69.803662,48.6956856 69.6458011,48.6609074 69.4907465,48.6574977 C69.1497668,48.6520423 68.8066824,48.6506785 68.4495658,48.6476098 C68.3811594,49.2985086 68.3211722,49.9098556 68.2538182,50.5208617 C68.2373305,50.6865699 68.3113497,50.8045431 68.413784,50.926267 C69.663692,52.4118438 70.906584,53.8984434 72.3571508,55.5722319 C72.4097711,55.2592276 72.459585,55.0007775 72.4960684,54.7402816 C72.5192214,54.5728687 72.5809626,54.4378472 72.7142674,54.319874 C73.0875209,53.9928902 73.4495487,53.651927 74.0388963,53.1687821 C74.1827251,53.6839776 74.3132235,54.1664405 74.456,54.6431071 C74.5117775,54.8224538 74.4970439,54.9789559 74.4163594,55.1463688 C74.2104385,55.5780283 74.0139893,56.0141202 73.7677262,56.693319 C74.514584,56.5692083 75.2196963,56.4393014 75.9290182,56.3434907 C76.2159743,56.303939 76.4092663,56.1852838 76.581861,55.9735456 C77.2101476,55.2121747 77.8524663,54.4603508 78.7035123,53.4991755 C78.7687615,53.651586 78.8199786,53.7671726 78.8676877,53.883782 C79.0023957,54.2308826 79.1416642,54.5779831 79.2690053,54.9284933 C79.3412706,55.1245472 79.4563337,55.256159 79.6520813,55.3584479 C80.6564278,55.877053 81.6513027,56.4103195 82.6465283,56.9394944 C82.8955979,57.0714472 83.1404578,57.2095373 83.3123508,57.5409535 C82.8128086,58.6354455 82.3136171,59.7302784 81.8091636,60.8217017 C81.7498781,60.94854 81.6744556,61.068559 81.5962267,61.1841456 C80.9447872,62.1456619 80.2965048,63.108542 79.6317348,64.0622161 C79.5149176,64.2292881 79.3538995,64.3820396 79.1806032,64.4938756 C78.6768513,64.8252918 78.159769,65.1376141 77.6381262,65.4437991 C77.4437818,65.5583628 77.3213519,65.7053179 77.237861,65.9098958 C77.0122952,66.4608924 76.7614717,66.9996143 76.5338011,67.5506109 C76.4601326,67.7367768 76.3443679,67.8472489 76.1517775,67.9304439 C74.9341433,68.4640514 73.6835337,68.9243517 72.5157134,69.5697951 C71.9996834,69.857909 71.4152471,70.0580544 70.9567487,70.4136791 C70.4884278,70.7771459 70.1344684,71.2831353 69.729292,71.7260465 C69.5405604,71.9333521 69.3518289,72.1403168 69.138892,72.3714899 C68.8877176,72.157365 68.6488214,71.9691533 68.4281668,71.7618476 C68.2836364,71.6295539 68.1408599,71.5869335 67.9444107,71.6029588 C67.4715294,71.6414876 66.9944385,71.6537623 66.362293,71.3346207 C65.8248642,70.1569338 65.2860321,68.9806106 64.7573733,67.799855 C64.674584,67.6102794 64.5570652,67.4708255 64.3830674,67.3525112 C63.6060406,66.8277688 62.8426952,66.288365 62.0667209,65.7646455 C61.8804449,65.639512 61.7531037,65.4901701 61.6703144,65.2896837 C61.4289626,64.7226619 61.1725262,64.1600726 60.9413476,63.5862315 C60.8641711,63.3894957 60.7634909,63.2923212 60.5421348,63.2595887 C60.0113711,63.1801443 59.4869219,63.0597843 58.9561583,62.9810218 C58.7267337,62.9465845 58.6025497,62.8548654 58.518708,62.6461959 C58.2394695,61.9557453 57.9167316,61.2802972 57.6595936,60.5806407 C57.4599872,60.0286212 57.1442652,59.5799136 56.7257583,59.1635975 C56.0662503,58.5089481 55.3748193,57.8808939 54.9405262,57.0424653 C54.7591615,56.6909322 54.5332449,56.3605389 54.3192556,56.0243491 C54.0116021,55.5405223 53.721138,55.0461256 53.3794567,54.5837795 C52.9346396,53.9809565 52.4487786,53.4060925 51.9787037,52.817931 C51.8783743,52.6921155 51.7741861,52.5690278 51.6293048,52.391386 C51.5251166,53.0780859 51.5114353,53.7102317 51.3290182,54.3437414 C50.8161455,53.6689752 50.3025711,52.9928451 49.7493561,52.4408256 C50.1145412,53.7163691 50.4744642,54.9932763 50.8508749,56.2647282 C50.9918973,56.7410538 51.0901219,57.2293131 51.3798845,57.6626774 C51.9506396,58.5212228 52.4971893,59.3951115 53.029707,60.2771834 C53.2184385,60.5898467 53.4615444,60.8124957 53.7793711,60.9966158 C54.1877048,61.2352901 54.5718332,61.513516 54.9615743,61.7849228 C55.1401326,61.9097153 55.2355508,62.0911077 55.295538,62.3025049 C55.5526759,63.1746889 55.8182332,64.0420993 56.0746695,64.9129194 C56.1325519,65.1086323 56.244107,65.2177405 56.4503786,65.2811597 C57.2796749,65.5402917 58.1068663,65.8188587 59.2192599,66.2092616 C59.0905155,67.29898 58.9649283,68.3569889 58.8410952,69.4105653 C59.3406374,69.70959 59.8058011,69.9922485 60.2797348,70.2646781 C60.4653091,70.3717406 60.6575487,70.4678922 60.8585583,70.543927 C62.5964321,71.1968716 64.3371123,71.8450427 66.0770909,72.4969644 C66.4215786,72.6241436 66.7615059,72.7588241 67.114062,72.8941865 C66.8979679,73.4997372 66.6973091,74.067441 66.484723,74.6634447 C66.9902289,74.789942 67.4638118,74.8980274 67.933185,75.0299801 C68.1689241,75.096468 68.3580064,75.0719186 68.5709433,74.9443984 C69.8429519,74.1830275 71.1254845,73.436659 72.4017027,72.6841532 C73.9869775,71.749573 75.5719016,70.812947 77.4837733,69.7815332 C77.4644791,69.9298522 77.4500963,70.0679424 77.4315037,70.2063734 C77.1817326,71.8845944 76.9266995,73.5631564 76.6842952,75.2430822 C76.6421989,75.5363105 76.5636193,75.8080582 76.4243508,76.0705999 C75.8574545,77.1333823 75.3133604,78.2084393 74.7229604,79.259288 C73.8291166,80.8509043 72.9061561,82.4268363 71.9856513,84.0037912 C71.8579594,84.2243944 71.6902759,84.4255627 71.5215401,84.6219575 C71.2794866,84.9063209 70.986216,85.1542011 70.7708235,85.4579994 C70.3119743,86.1095801 69.8882053,86.7857101 69.4518075,87.4529752 C69.0487358,88.0704596 68.6751316,88.7094246 68.2415401,89.3061103 C66.3338781,91.9393693 64.4072727,94.5620584 62.4873326,97.1867933 C62.4168214,97.2849907 62.3477134,97.3879616 62.2400171,97.5407131 C62.7413134,97.5076397 63.1706952,97.4725204 63.5990246,97.4517217 C64.2287144,97.4193302 64.0631358,97.3409086 64.3893818,97.8376921 C64.5998631,98.1592204 64.8275337,98.4817716 64.9583829,98.8370553 C65.1895615,99.4586312 65.3607529,100.103734 65.5424684,100.74304 C65.6982246,101.292672 65.9076535,101.817415 66.1907508,102.320336 C67.2333348,104.191542 68.2587294,106.068885 69.2893861,107.945206 C69.3507765,108.054314 69.4037476,108.167514 69.1880043,108.544619 C67.8391701,109.778906 66.4977027,111.022058 65.1362396,112.245093 C64.4230588,112.88474 63.734785,113.54314 63.2261219,114.355996 C63.1240385,114.516249 62.9900321,114.591943 62.7998973,114.635927 C62.2452791,114.764811 61.697677,114.91654 61.3675722,115.34854 C62.3294717,116.238795 63.2885647,117.128027 64.259585,118.009076 C64.4342845,118.16626 64.4781348,118.294804 64.387277,118.519498 C64.000693,119.459534 63.6453305,120.409457 63.265061,121.35188 C63.1854289,121.544865 63.197707,121.692161 63.3152257,121.865029 C63.5541219,122.213835 63.770216,122.575256 63.9929754,122.933608 C64.0712043,123.05806 64.1476791,123.185921 64.0441925,123.530294 C62.3171936,125.611533 60.5856342,127.689022 58.8603893,129.77333 C58.7379594,129.919945 58.6014973,130.000412 58.4092578,130.004844 C58.1468578,130.012005 57.8855102,130.029053 57.6241626,130.038941 C56.972723,130.061785 56.3181262,130.080538 55.6649326,130.103042 C55.1892449,130.118726 54.7170652,130.131342 54.2413775,130.149413 C53.816907,130.164415 53.394892,130.188283 52.9504257,130.206354 C52.9132406,130.770648 52.878862,131.312438 52.487016,131.717844 C51.3079701,131.123545 50.1292749,130.531633 48.9477733,129.949949 C48.7436064,129.849024 48.5969711,129.723891 48.5254075,129.510448 C48.4250781,129.213128 48.3282567,128.914444 48.2033711,128.628035 C48.0626995,128.302074 48.0048171,127.940312 47.7308406,127.667201 C46.7135144,126.652835 45.7189904,125.616307 44.6967529,124.607397 C43.9232342,123.844321 43.2198759,123.035556 42.64,122.119388 C41.6728385,120.584031 40.6709476,119.069472 39.6774759,117.551163 C39.5831102,117.405571 39.4676963,117.268504 39.3414075,117.147803 C38.2577797,116.114344 37.1730995,115.081225 36.0796492,114.056631 C35.9095102,113.895696 35.8053219,113.713963 35.7372663,113.499156 C35.4306652,112.534912 35.1265198,111.569986 34.8020278,110.613584 C34.6578481,110.183288 34.6069818,109.775837 34.7216941,109.325766 C34.9728684,108.345497 35.1623016,107.350225 35.3959358,106.366887 C35.4482053,106.146966 35.3994439,105.999329 35.257369,105.833621 C34.7490567,105.248528 34.2582845,104.646728 33.7510246,104.060953 C33.585446,103.871036 33.4717861,103.65998 33.395662,103.425738 C32.9599658,102.099391 32.5207615,100.775431 32.0945369,99.4463565 C31.9612321,99.0300405 31.7609241,98.663505 31.4936128,98.310949 C30.3387722,96.8021868 29.2021733,95.2784221 28.0554011,93.7635225 C27.9326203,93.600883 27.855093,93.434493 27.8280813,93.2285512 C27.6674139,92.0055161 27.4923636,90.7869136 27.3222246,89.5655833 C27.2369797,88.9579868 27.1496299,88.3473217 26.7321754,87.6660772 C25.777292,87.5215088 24.8224086,87.3704621 23.8654203,87.2388503 C23.6047743,87.2033901 23.4423529,87.0953048 23.3083465,86.8784521 C22.8708963,86.1726583 22.4148535,85.4760704 21.9654759,84.7774368 C21.6950075,84.3556653 21.4217326,83.9349166 21.130216,83.4845042 C19.5021433,84.5039843 17.8989775,85.5084619 16.2909005,86.5166902 C15.5871914,86.194139 14.8971636,85.8797709 14.205031,85.563016 C13.6342759,86.0328633 13.0838674,86.4894131 12.2812321,86.7355886 C11.6287401,86.13788 10.9776513,85.5384667 10.3251594,84.9414401 C9.4456984,84.1388126 8.56308021,83.33789 7.48576684,82.2594234 C7.31106738,81.6081836 7.12619465,80.9576258 7.00130909,80.29718 C6.85362139,79.527967 6.5922738,78.795578 6.35337754,78.0550059 C6.08080428,77.2155544 5.78753369,76.3832632 5.50689198,75.5468804 C5.22800428,74.7108386 4.96034225,73.8690004 4.6733861,73.0356862 C4.58463316,72.7772361 4.45308235,72.5327655 4.34012406,72.2824985 C4.32503957,72.1911203 4.30820107,72.0990603 4.38432513,71.6435334 C4.66145882,68.7852387 4.93333048,65.9245573 5.21186738,63.0659216 C5.22695187,62.9090785 5.26694332,62.7399608 5.34762781,62.6059622 C6.2155123,61.1486854 7.09602567,59.6978869 7.97232941,58.2440197 C8.18947594,57.8839625 8.42381176,57.5402716 8.7255016,57.2327228 C9.9063016,56.0298045 11.0667551,54.8094972 12.2419422,53.6021464 C12.3671786,53.4742852 12.4257626,53.3416505 12.4341818,53.1704869 C12.467508,52.5229978 12.5082011,51.8738038 12.5401241,51.2266556 C12.5485433,51.0541282 12.6109861,50.9221754 12.7376257,50.7980648 C13.9854289,49.5770755 15.2276193,48.3533585 16.4666524,47.1238451 C16.6073241,46.9833683 16.7343144,46.9373383 16.9370781,46.9779129 C17.8039102,47.1507812 18.6742503,47.2987593 19.5403807,47.4736734 C19.7589305,47.5183396 19.9238075,47.4808336 20.103769,47.356723 C20.8825497,46.8180011 21.6767658,46.2990551 22.4513369,45.7538549 C22.6786567,45.5946251 22.8803679,45.5629155 23.1476791,45.632813 C23.7366759,45.7869283 24.3312856,45.9151305 24.9265968,46.0354905 C25.1079615,46.0719736 25.3061647,46.0784519 25.4892834,46.0504929 C26.7163893,45.8561439 27.9431444,45.6495202 29.1695487,45.447329 C29.2944342,45.4268712 29.417215,45.4070953 29.6294503,45.3712942 C28.8685604,46.6516111 28.1550289,47.8524835 27.4309733,49.071768 C27.8028235,49.3298772 28.1574845,49.5654828 28.4998674,49.8143859 C28.6517647,49.9238351 28.8068193,49.9766844 28.9948492,49.9780483 C29.5670075,49.9831627 30.1402182,49.9968013 30.7134289,50.0097579 C31.0793155,50.0189639 31.4462545,50.0336253 31.8103872,50.045559 C32.0303401,50.6582699 32.248539,51.2358616 32.4467422,51.8195907 C32.5200599,52.03883 32.6242481,52.1769201 32.8817369,52.2011285 C33.1416813,52.2263598 33.397416,52.2965982 33.6556064,52.345015 C34.3309005,52.4732171 35.0090011,52.6000555 35.7705925,52.4820822 C35.8642567,51.9096049 35.9645861,51.3384915 36.0449198,50.7636275 C36.0757904,50.5396147 36.1512128,50.379362 36.379585,50.2811646 C36.629707,50.1734202 36.8626396,50.0295337 37.1022374,49.9003087 C37.7575358,49.5491165 38.4121326,49.1965606 39.0895316,48.8317299 C39.3845561,49.2616846 39.6771251,49.6701585 39.946892,50.0936348 C40.0675679,50.2818465 40.2208684,50.3561765 40.4408214,50.3735656 C41.1764535,50.4325523 41.9117348,50.5082461 42.6473668,50.573711 C43.4882396,50.6477001 44.3308663,50.7175975 45.1892791,50.7909046 C45.4772877,50.2484321 45.7628406,49.7138018 46.3044791,49.2678219 C46.8355936,49.5105877 47.3681112,49.7496029 47.8929112,50.0008928 C48.0626995,50.083065 48.2184556,50.1082962 48.4064856,50.0602204 C49.0638888,49.8955352 49.7237476,49.7298271 50.3895701,49.5954875 C50.6302203,49.5460479 50.7575615,49.4471685 50.8512257,49.2303159 C51.593523,47.5173167 52.3428364,45.8067042 53.1019722,44.1008652 C53.2019508,43.8761704 53.1503829,43.7285334 52.9953283,43.574759 C52.5933091,43.1771958 51.8278588,43.2562993 51.4774075,43.7172816 C51.2248299,44.0504026 50.9469947,44.3647707 50.6737198,44.6927774 C50.519016,44.6020811 50.407461,44.5376391 50.2973091,44.4708103 C49.4732749,43.9740269 48.6667807,43.4516712 47.7824086,43.0578587 C47.3919658,42.8836265 47.0057326,42.6967787 46.3651679,42.2426156 C46.2136214,41.766631 46.0911914,41.2814403 45.955431,40.8000002 C45.7863444,40.1958134 45.6530396,39.578329 45.435893,38.9901675 C45.1766503,38.2932386 44.8405818,37.6239278 44.2424642,36.7476523 C43.694862,36.7462885 43.1462075,36.7394692 42.599307,36.7357186 C42.4526717,36.7364005 42.3225241,36.7616318 42.2221947,36.8922207 C41.945061,37.2560285 41.654246,37.6113122 41.2809925,38.1486702 C41.3781647,38.3515433 41.2276706,38.4824732 41.1445305,38.6212452 C40.8586267,39.0907516 40.5618481,39.5558254 40.2591059,40.0168077 C40.1517604,40.1794472 40.0966845,40.3345854 40.122293,40.5357537 C40.2064856,41.2166573 40.2696299,41.8992657 40.249985,42.9313613 C39.6045091,42.4887911 38.9569283,42.0492895 38.1128984,41.3261065 C37.7287701,40.4273274 37.3569198,39.5234339 36.969985,38.6249958 C36.9064898,38.4804274 36.8082652,38.3372229 36.6917989,38.2301604 C35.6825412,37.288761 34.6641626,36.3552037 33.4440727,35.2903755 C33.3672471,35.6003111 33.3016471,35.87956 33.2279786,36.185063 C32.6207401,36.175857 32.0356021,36.1652872 31.4332749,36.2283653 C31.8019679,36.5205708 32.1780278,36.8035703 32.5354952,37.1077095 C32.7407144,37.2816007 32.938216,37.473563 33.1002866,37.6839373 C33.808907,38.6065838 34.5185797,39.5282074 35.198785,40.4696069 C35.5348535,40.9346807 35.8074267,41.442034 36.1094674,42.0526991 C35.8944257,42.0878183 35.6835936,42.1471459 35.4713583,42.1515785 C35.0244364,42.1618074 34.7171337,42.3725226 34.464907,42.7114401 C34.3080984,42.9235192 34.1141048,43.1083213 33.9018695,43.342904 C33.6822674,42.7564472 33.493185,42.2347735 33.289369,41.7175323 C33.225523,41.5583025 33.1469433,41.3925943 33.033985,41.2643922 C32.2695872,40.4014142 31.4967701,39.5445737 30.7183401,38.6945523 C30.6116963,38.5793068 30.4657626,38.4773588 30.3173733,38.4224637 C29.5245604,38.1292353 28.7215743,37.8574876 27.9287615,37.5646002 C27.7526588,37.4994762 27.6183016,37.5185702 27.4604406,37.603811 C26.1014332,38.3331313 24.7392684,39.0573372 23.3757005,39.7784744 C23.1995979,39.8712164 23.0845348,39.996009 22.9968342,40.1726279 C22.3815273,41.4205533 21.752539,42.6620004 21.1361797,43.9085619 C21.0432171,44.0967736 20.9200856,44.2270216 20.7218824,44.3139672 C20.3310888,44.4868356 19.9550289,44.6924364 19.5621305,44.862577 C19.3144642,44.9703214 19.0538182,45.057949 18.7914182,45.1244368 C18.2010182,45.2734377 17.6081626,45.410164 17.0128513,45.5390481 C16.7016898,45.6058769 16.3824599,45.6450876 16.0481455,45.6999827 C15.7099722,45.1486452 15.375307,44.6003763 15.0378353,44.0544942 C14.7119401,43.5249783 14.7182545,43.5300928 15.0332749,43.0118287 C16.034815,41.3724775 17.0286374,39.7293757 18.0270203,38.0890017 C18.268723,37.6914385 18.5121797,37.2969441 18.754584,36.9034725 C19.5119658,37.0957758 20.2370738,37.279555 20.9667422,37.465039 C21.5953797,36.8223233 22.2131422,36.1925642 23.0049027,35.2978767 C23.3195722,34.6844839 23.6240684,34.0663175 23.9489112,33.4583801 C24.0408214,33.2851708 24.0239829,33.1620831 23.9061134,33.0164918 C23.7079102,32.7723621 23.5244406,32.5156168 23.3956963,32.1930656 C24.0727444,31.7382207 24.7497925,31.280989 25.7657155,30.7930706 C26.1203765,30.8445561 26.4746866,30.9042246 26.8226824,30.983669 C27.0391273,31.0320858 27.2096171,31.0106051 27.3783529,30.8568307 C27.5783102,30.6737335 27.8045775,30.5192771 28.0189176,30.3505003 C28.2108064,30.2011585 28.4002396,30.0490889 28.5482781,29.8318953 C28.4163765,29.8867904 28.2862289,29.9791914 28.1504684,29.9901022 C27.7912471,30.0184022 27.4169412,30.0027179 27.1061305,29.8213254 C26.9121369,29.7074437 26.7500663,29.7132401 26.5676492,29.7616569 C26.1789604,29.8676964 25.7741348,29.9498686 25.4071957,30.1073936 C24.7771551,30.3784593 24.2088556,30.0951189 23.5332107,30.0272672 C23.7668449,29.8247351 23.9296171,29.6743703 24.1029134,29.5355982 C24.2407786,29.4271719 24.3786439,29.3091987 24.5372064,29.2379373 C24.7841711,29.1247376 25.0504299,29.0504076 25.3061647,28.9552788 C25.5973305,28.8461706 25.8856898,28.7305841 26.2273711,28.5969265 C25.9004235,28.4083738 25.6362695,28.2549404 25.3503658,28.0892322 C25.7495786,27.7434955 26.0972235,27.3970769 26.6044834,27.2620555 C26.9380963,27.173746 27.261185,27.0465667 27.5912898,26.9483693 C27.7996663,26.8869959 27.908415,26.7877756 27.8992941,26.5531929 C27.8789476,26.0928926 27.9866439,25.6571416 28.2851765,25.1467196 C28.0631187,25.1269438 27.848077,25.1068269 27.6161968,25.0860282 C27.7933519,24.5698099 28.0525947,24.151448 28.4546139,23.8159402 C28.574939,23.7143331 28.6945626,23.576584 28.7412193,23.4326975 C28.8629476,23.0617295 29.059046,22.7020133 28.9829219,22.2887659 C28.9752043,22.2393262 29.0102845,22.1840902 29.3972193,22.1636324 C29.6852278,22.1534035 29.8346695,22.3051321 29.9837604,22.529145 C30.1567059,22.7879361 30.1788064,23.0613886 30.2223059,23.3491615 C30.2914139,23.7971872 30.1300449,24.067912 29.6968043,24.2240732 C29.5210524,24.2861285 29.3712599,24.4153535 29.3916064,24.6345929 C29.6203294,24.7174469 29.7381989,24.8453081 29.6845262,25.1092137 C29.6413775,25.3236795 29.6617241,25.5500791 29.6522524,25.7693185 C29.6312043,26.2800814 29.5971765,26.7922081 29.8037989,27.2814904 C29.872907,27.4468575 29.8087102,27.5736959 29.6904898,27.6865547 C29.2312898,28.1226466 29.2786481,28.7131949 29.1695487,29.2624867 C29.3628406,29.1097352 29.5399957,28.9532331 29.6859294,28.7728635 C30.3566631,27.9456867 31.1947294,27.3394541 32.170661,26.8846092 C32.704231,26.636047 33.2206118,26.3445234 33.6815658,25.9646904 C34.4193027,25.356753 35.1777369,24.7713191 35.9288043,24.1783841 C36.2764492,23.9039087 36.6276021,23.632502 36.9047358,23.7010356 C36.7314396,24.0839373 36.5518289,24.4644522 36.3115294,25.106486 C36.4774588,25.4344926 36.633215,25.7696594 36.8672,26.0775492 C37.2983358,25.8869508 37.7028107,25.7188559 38.0978139,25.5306442 C38.9369326,25.1313763 39.7886802,24.7764336 40.7347936,24.7061951 C40.9186139,24.6922157 41.0396406,24.6103845 41.1413733,24.4627474 C41.3532578,24.1534938 41.5872428,23.8575377 42.155893,23.3689374 C42.4547765,23.3743928 42.7536599,23.3655278 43.0511401,23.3413194 C43.200231,23.3287037 43.3591444,23.2946074 43.491046,23.2291425 C44.2122952,22.8690853 44.9279316,22.4981173 45.8842182,21.9597364 C45.5856856,21.6992405 45.3124107,21.4595433 45.0131765,21.1963197 C45.2134845,20.859789 45.4239658,20.535874 45.6035765,20.1969565 C45.7091679,19.997493 45.8701861,19.9112293 46.0768086,19.8692909 C47.3786353,19.6101588 48.634507,19.1952066 50.1643551,18.6714871 C49.8107465,18.5279415 49.467662,18.440314 49.1214203,18.3714394 C48.9611037,18.338707 48.7899123,18.3202949 48.6260877,18.3322287 C48.185831,18.3646202 47.7487316,18.4253116 47.3088257,18.4577031 C47.0632642,18.4761151 46.7917433,18.5224861 46.570738,18.4478152 C46.2392299,18.3352973 45.9417497,18.1279917 45.5832299,17.9356884 C46.185908,17.5336928 46.7580663,17.1780681 47.3014588,16.7822098 C47.8585326,16.3761226 48.5240043,16.1793869 48.8776128,15.7170407 C48.5064642,15.5867928 48.1265455,15.4787074 47.7662717,15.3266378 C47.5101861,15.2178706 47.3263658,15.2669693 47.1109733,15.4163112 C45.5506053,16.5067116 43.9807658,17.5858602 42.140107,18.885612 C42.6424556,19.1798632 43.1146353,19.4574073 43.6071615,19.7465441 C41.7524706,21.471477 40.0191572,23.2478954 37.8055957,24.5012763 C38.3914353,23.3375688 38.9755209,22.1735203 39.5757433,20.98049 C39.1235594,20.9313913 38.7113668,20.8826336 38.0988663,20.8884299 C37.5782759,21.0844838 37.0594396,21.2829244 36.5395508,21.481365 C36.2852193,21.5778576 36.0298353,21.6740092 35.7965519,21.564219 C36.0277305,20.9654876 36.2687316,20.3715297 36.4858781,19.7676838 C36.5753326,19.5218493 36.7153027,19.3667111 36.9573561,19.2449872 C37.9925733,18.7246773 39.0162139,18.1815229 40.047923,17.6560986 C40.2366545,17.559265 40.3748706,17.4327677 40.4853733,17.2605812 C40.8414374,16.7085618 41.1960984,16.1565423 41.5675979,15.6154337 C41.654246,15.4892773 41.7952684,15.3777823 41.9359401,15.3095897 C43.8969241,14.3671673 45.8617668,13.4305414 47.8287144,12.5000527 C48.5973219,12.1365859 49.3336556,11.7008349 50.1794396,11.505122 C50.352385,11.4648884 50.5242781,11.413062 50.6958203,11.3639633 C51.198169,11.2197358 51.6994652,11.0744855 52.2025155,10.9288942 C52.6929369,10.7863716 53.1872171,10.652373 53.6737797,10.4955299 C53.9256556,10.4143807 54.144907,10.4106301 54.3915209,10.5282624 C55.692646,11.1464287 57.0000856,11.7492517 58.3026139,12.3568482 C58.5594011,12.4765263 58.8193455,12.5927947 59.0884107,12.7165644 C59.5307722,12.2685387 59.9615572,11.8365383 60.3976043,11.3949909 C61.004492,11.6248001 61.5969968,11.839266 62.1814332,12.0745306 C62.3768299,12.1532931 62.5536342,12.1461329 62.7357005,12.0786222 C63.344693,11.8498359 63.9501775,11.6101387 64.5633797,11.3888536 C65.1523765,11.1754106 65.7469861,10.9739013 66.3405433,10.7778475 C66.6001369,10.6922657 66.8685005,10.6319152 67.1316021,10.559631 C67.6911316,10.4044928 68.254169,10.2456039 68.8151016,10.096603 C69.3900663,9.94385144 69.9678374,9.8023517 70.544907,9.65198692 C70.8076578,9.58311235 71.073215,9.50673659 71.3349134,9.4296789 C71.4959316,9.38126212 71.574862,9.28988398 71.5829305,9.10269517 C71.6120471,8.53533236 71.667123,7.97069727 71.7723636,7.11419765 C72.814246,7.7265676 73.8217497,8.31677494 74.8313583,8.90732324 C74.5580834,8.15140778 74.1290524,7.48687045 73.8259594,6.749367 C74.4416171,6.5519493 75.0207914,6.3794219 75.5876877,6.17927649 C75.939893,6.05550684 76.2791187,5.98151782 76.657985,6.05789359 C77.1245519,6.15302232 77.5949775,6.20962222 78.0685604,6.27781486 C78.5365305,6.34532558 79.0037989,6.40703993 79.4987807,6.406358 C78.4295358,5.76432425 77.3595893,5.1222905 76.2689455,4.46730015 C76.6099251,4.00495402 76.9270503,3.58386444 77.2343529,3.15390981 C77.3315251,3.01854741 77.4609711,2.99229325 77.6037476,2.98479206 C77.8184385,2.97251738 78.0341818,2.95717403 78.2450139,2.97626797 C78.5424941,3.00286311 78.7768299,2.92819216 78.9732791,2.70008776 C79.2255059,2.41026902 79.4987807,2.13783941 79.7615316,1.85688571 C79.8320428,1.84529296 79.904308,1.83370021 80.2740535,1.91621331 C81.0430118,2.06760099 81.8133733,2.21660191 82.5847872,2.36526188 C83.0597733,2.45698099 83.5368642,2.54460853 84.0251807,2.63700957 C84.3700193,2.21864769 84.7124021,1.81665205 85.1077561,1.33077946 C107.647899,6.406358 123.455809,16.0990273 133.57037,35.6497508 C133.880128,36.5993333 134.193395,37.5489159 134.503504,38.4988394 C134.633301,38.8946978 134.756432,39.2932838 134.880265,39.6840276 C134.09061,40.4368744 133.392163,41.2302958 132.773698,42.0888412 C132.521822,42.4366237 132.383957,42.7949761 132.380449,43.2470933 C132.374486,44.0231256 132.270999,44.798476 132.180843,45.5707577 C132.151025,45.8261391 132.198383,46.0024171 132.381151,46.1926746 C133.550725,47.4208241 134.696796,48.6707953 135.876894,49.8897388 C136.245587,50.2705947 136.486588,50.6681578 136.524475,51.194946 C136.579551,51.9979144 136.814588,52.7466697 137.358682,53.373701 C137.501459,53.5366814 137.491636,53.6938655 137.420073,53.8865097 C136.953857,55.0938605 136.500971,56.3073486 135.658695,57.611192 C135.051106,57.1962397 134.448428,56.7741272 133.837681,56.3676991 C133.61387,56.2186982 133.445134,56.0393515 133.316389,55.8074965 C133.131517,55.4726706 132.920684,55.1518242 132.70459,54.7975634 C132.41588,55.0413521 132.159093,55.2592276 131.891782,55.4832405 C132.194524,55.9657034 132.475517,56.4260038 132.773348,56.8747114 C132.900338,57.0690604 132.95822,57.2709107 132.963833,57.4979922 C132.985583,58.2293583 133.021014,58.9600425 133.0368,59.6920905 C133.039256,59.8690504 133.092578,60.0013442 133.218165,60.123068 C133.984317,60.8806883 134.623478,61.7341193 135.328941,62.8020161 C135.442952,63.0028434 135.614494,63.1378648 135.81831,63.2490189 C136.15929,63.4385944 136.495007,63.6431723 137.048222,64.0976763 C137.181176,64.6759499 137.350965,65.2477453 137.466028,65.8280647 C137.614417,66.5638633 137.834019,67.2679524 138.194995,67.9318078 C138.343384,68.2059422 138.458447,68.49542 138.463358,68.7675086 C137.369206,67.9178283 136.278212,67.067125 135.046195,65.9838849 C134.889386,65.4240233 134.735735,64.8634797 134.600325,64.2978217 C134.552265,64.0939257 134.460004,63.9404923 134.29653,63.8061528 C133.786464,63.3833584 133.297446,62.9387423 132.777206,62.5265178 C132.528488,62.3273953 132.419739,62.0836066 132.340458,61.7954926 C132.145061,61.0893578 131.937035,60.3879964 131.728659,59.6859532 C131.512214,58.9494726 131.296471,58.2150378 131.075465,57.4788982 C130.923568,56.9671124 130.805348,56.4410062 130.601882,55.9472914 C130.209686,54.9905486 129.794687,54.0392612 129.333382,53.1094545 C129.097994,52.6348337 128.98293,52.187149 129.143949,51.3667915 C128.902246,51.1472112 128.649318,50.9368369 128.355345,50.6835012 C128.237827,51.5280671 128.130832,52.3177379 127.751264,53.0893377 C127.269964,52.9907993 126.79603,52.8769176 126.312625,52.7947455 C126.082849,52.7541708 125.96954,52.6409711 125.897626,52.4333245 C125.614528,51.6327428 125.316347,50.8355708 125.02483,50.0377168 C124.95502,49.8491642 124.852937,49.6940259 124.680693,49.5685515 C123.723003,48.8729865 122.769172,48.1702613 121.820603,47.4603758 C121.660988,47.3389929 121.523825,47.3151255 121.333339,47.3867278 C120.795559,47.5875551 120.244449,47.7334874 119.664924,47.7679247 C119.236595,47.7934969 118.807213,47.829639 118.379585,47.8719185 C118.192607,47.8903305 117.978267,47.8940811 117.830229,47.9861411 Z M80.8153412,107.452514 C80.8195508,109.150852 80.8420021,110.84578 80.8451594,112.542413 C80.8465626,112.783133 80.815692,113.031354 80.7493904,113.261504 C80.3803465,114.550686 80.0039358,115.834072 79.6191059,117.116776 C79.5608727,117.315216 79.4629989,117.507519 79.3454802,117.676637 C79.0529112,118.103523 78.7357861,118.509951 78.4365519,118.933087 C78.3397305,119.072541 78.2320342,119.138006 78.0538267,119.122321 C77.4483422,119.070154 76.8432086,119.021737 76.2370225,118.986959 C76.0082995,118.974343 75.8781519,118.878533 75.7665968,118.686229 C74.9846588,117.333628 74.1925476,115.985119 73.6431914,114.463741 C74.1504513,113.970026 74.688231,113.449716 75.237938,112.914745 C75.174092,112.825753 75.1218225,112.750742 75.0649925,112.679821 C74.4545968,111.904471 73.8494631,111.126393 73.2295957,110.360248 C73.0910289,110.188744 73.0422674,110.030196 73.0976941,109.817776 C73.2159144,109.356112 73.3201027,108.890356 73.4109604,108.422213 C73.4481455,108.243208 73.5312856,108.139555 73.6968642,108.059429 C74.4682781,107.687097 75.2291679,107.298058 75.9988278,106.926749 C76.200539,106.82821 76.3443679,106.701031 76.4513626,106.506 C76.8856556,105.715988 77.3213519,104.928363 77.7735358,104.147898 C77.8903529,103.941616 77.9184171,103.743516 77.893861,103.514389 C77.8436963,103.054088 77.8184385,102.591742 77.7773947,102.065977 C78.0703144,102.0953 78.3035979,102.117803 78.5379337,102.144058 C78.8708449,102.181564 79.2005989,102.228957 79.533861,102.260667 C79.6861091,102.277033 79.796261,102.329201 79.8923807,102.452288 C80.4452449,103.15365 81.0037219,103.850238 81.5688642,104.543075 C81.6979594,104.699577 81.712693,104.833916 81.638323,105.018378 C81.3899551,105.624269 81.1545668,106.231525 80.9332107,106.846622 C80.8616471,107.037221 80.8160428,107.249982 80.8153412,107.452514 Z M140.960017,63.3410789 C141.038246,63.1746889 141.089112,62.9929555 141.119983,62.811904 C141.210841,62.3226218 141.294332,61.8302709 141.362036,61.3365561 C141.499551,60.346058 141.738096,59.3760176 141.979448,58.4070001 C142.01979,58.6224889 142.063641,58.8366138 142.100124,59.0524435 C142.803833,63.0727409 143.145164,67.0667841 143.159897,71.007978 C142.808744,70.9807009 142.457591,70.9353528 142.100826,70.9268287 C142.07662,70.8170386 142.047153,70.7171363 142.028911,70.6162112 C141.957698,70.2176252 141.860175,69.8183573 141.82264,69.4149978 C141.77037,68.8414976 141.537437,68.3525564 141.213647,67.8810042 C140.783914,67.2536319 140.39277,66.6023922 139.974614,65.9702463 C139.855692,65.7919226 139.845168,65.6459903 139.943042,65.4550509 C140.290687,64.7557353 140.629561,64.0492595 140.960017,63.3410789 Z M114.38886,72.5532233 C114.343256,72.5886835 114.291337,72.6159605 114.20539,72.6708556 C114.094537,72.2910226 113.989647,71.9381256 113.88616,71.5838648 C113.653929,70.7938531 113.423803,70.0031593 113.19508,69.2111018 C113.086682,68.8316097 112.983897,68.4504128 112.887076,68.0668292 C112.869185,67.9863619 112.873044,67.874185 112.913737,67.8083791 C113.263837,67.2682933 113.627268,66.7357088 113.986139,66.2021013 C114.003679,66.1758472 114.042267,66.1618677 114.09138,66.1277713 C114.178729,66.1986917 114.271692,66.2682482 114.356235,66.3449649 C114.86139,66.7906039 115.366896,67.2335151 115.863983,67.6869962 C115.961857,67.7766695 116.062888,67.8980524 116.092355,68.0214811 C116.283191,68.7760327 116.449121,69.5370626 116.638203,70.293319 C116.699594,70.5391535 116.637151,70.7052026 116.437194,70.8657963 C115.748569,71.4208844 115.070118,71.989952 114.38886,72.5532233 Z M24.6396406,25.5064358 C24.9623786,25.3495927 25.1879444,25.09728 25.3107251,24.7702962 C25.4012321,24.5285533 25.5780364,24.4719534 25.8151786,24.4982076 C26.0281155,24.5203702 26.2424556,24.5336678 26.4876663,24.5537846 C26.6255316,25.0457945 26.7598888,25.514278 26.8858267,25.9851482 C26.903016,26.0475445 26.9061733,26.1269889 26.8837219,26.1856346 C26.7847957,26.4352197 26.6837647,26.6844638 26.5623872,26.923479 C26.5185369,27.0090608 26.4192599,27.0738438 26.332261,27.1328304 C26.0877519,27.2978566 25.8221947,27.4356057 25.5927701,27.6180211 C25.2552984,27.8897688 24.8645048,27.934094 24.4544171,27.9450048 C24.1225583,27.952506 23.7903487,27.9681903 23.4542802,27.9811469 C23.3171166,27.7997545 23.3935914,27.5886982 23.3413219,27.4079877 C23.2287144,27.0179258 23.3956963,26.7945949 23.7345711,26.6411614 C23.9822374,26.5303484 24.1109818,26.3339536 24.1723722,26.0843685 C24.2355166,25.8231907 24.3867123,25.6295236 24.6396406,25.5064358 Z M139.5968,77.2462411 C138.346541,75.3654879 137.07348,73.4976914 135.856548,71.5951166 C134.875003,70.0601002 133.967127,68.4790537 133.012945,66.9249434 C132.843859,66.6477403 132.742828,66.363036 132.700381,66.0493498 C132.640744,65.6333747 132.56883,65.2211501 132.509895,64.8065389 C132.493758,64.6964077 132.497617,64.582526 132.490952,64.4706901 C132.522875,64.462166 132.550237,64.4553467 132.580406,64.4457998 C132.763525,64.6268512 132.948398,64.805516 133.129763,64.9872494 C133.604047,65.4618702 134.092364,65.926603 134.554721,66.4138395 C135.135298,67.0268914 135.860056,67.4646881 136.52658,67.9727233 C137.046118,68.3668768 137.573373,68.7490966 138.099927,69.1306345 C138.270768,69.2509945 138.383025,69.3969267 138.460903,69.5899119 C138.820124,70.4648235 139.19022,71.3356436 139.564526,72.2027131 C139.628723,72.3486454 139.728351,72.4877583 139.840958,72.5995943 C140.170011,72.9214636 140.508886,73.2320811 140.852321,73.538266 C140.981416,73.6531706 141.031581,73.760915 140.972646,73.9344653 C140.584659,75.0572572 140.20474,76.1844816 139.821313,77.3106831 C139.811491,77.3417108 139.788338,77.3703517 139.757467,77.4252468 C139.696428,77.358418 139.636791,77.3086374 139.5968,77.2462411 Z" id="Combined-Shape" stroke="none" fill="#D1ED64" fill-rule="evenodd" mask="url(#mask-4)" transform="translate(73.743552, 66.524312) rotate(10.000000) translate(-73.743552, -66.524312) "></path>
                        </g>
                    </g>
                    <path d="M125.122988,172.240179 C126.715999,172.346274 128.323386,172.400174 129.943434,172.400174 C169.191554,172.400174 201.008441,140.76489 201.008441,101.740789 C201.008441,72.7066662 183.396415,47.7625731 158.215326,36.8941504 C195.21541,39.3583664 224.459893,69.980239 224.459893,107.39354 C224.459893,146.417641 192.643006,178.052925 153.394887,178.052925 C143.347562,178.052925 133.787231,175.979755 125.122995,172.240179 Z" id="Combined-Shape" fill="#4A4A4A" opacity="0.200000003" mask="url(#mask-2)"></path>
                </g>
                <path d="M101.082405,104.442509 C103.075059,104.442509 104.690423,102.835726 104.690423,100.853659 C104.690423,98.8715913 103.075059,97.2648084 101.082405,97.2648084 C99.0897521,97.2648084 97.4743875,98.8715913 97.4743875,100.853659 C97.4743875,102.835726 99.0897521,104.442509 101.082405,104.442509 Z" id="Oval" stroke="#0090FC" stroke-width="1.728" fill="#D1ED64" stroke-dasharray="1.152000069618225,1.728000044822693"></path>
                <path d="M112.628062,92.9581882 C114.620716,92.9581882 116.23608,91.3514052 116.23608,89.369338 C116.23608,87.3872708 114.620716,85.7804878 112.628062,85.7804878 C110.635409,85.7804878 109.020045,87.3872708 109.020045,89.369338 C109.020045,91.3514052 110.635409,92.9581882 112.628062,92.9581882 Z" id="Oval" stroke="#0090FC" stroke-width="1.728" fill="#D1ED64" stroke-dasharray="1.152000069618225,1.728000044822693"></path>
                <path d="M192.004454,98.7003484 C193.997108,98.7003484 195.612472,97.0935655 195.612472,95.1114983 C195.612472,93.129431 193.997108,91.5226481 192.004454,91.5226481 C190.011801,91.5226481 188.396437,93.129431 188.396437,95.1114983 C188.396437,97.0935655 190.011801,98.7003484 192.004454,98.7003484 Z" id="Oval" stroke="#0090FC" stroke-width="1.728" fill="#D1ED64" stroke-dasharray="1.152000069618225,1.728000044822693"></path>
                <g id="id" transform="translate(81.959911, 25.128920) rotate(2.000000) translate(-81.959911, -25.128920) translate(58.507795, 9.696864)">
                    <g id="Group-2">
                        <g id="Rectangle-7">
                            <use fill="black" fill-opacity="1" filter="url(#filter-6)" xlink:href="#path-5"></use>
                            <use fill="#0090FC" fill-rule="evenodd" xlink:href="#path-5"></use>
                        </g>
                        <g id="Rectangle-7">
                            <use fill="black" fill-opacity="1" filter="url(#filter-8)" xlink:href="#path-7"></use>
                            <use fill="#B5CAD5" fill-rule="evenodd" xlink:href="#path-7"></use>
                        </g>
                        <path d="M11.4485898,17.2973974 L11.5328956,15.6674859 C11.0267714,15.0617954 10.6957774,14.308752 10.6321574,13.4955014 L10.4267115,10.8692986 C10.2706686,8.87461252 11.7782607,7.2576 13.7711808,7.2576 L14.2224319,7.2576 C16.2255742,7.2576 17.7222049,8.88406111 17.5669012,10.8692986 L17.3614553,13.4955014 C17.2786144,14.5544519 16.7476397,15.506959 15.9681717,16.1675869 L16.0266102,17.2973974 L20.4260388,18.6593066 C21.7424433,19.0668193 22.8096,20.5130763 22.8096,21.8866258 L22.8096,22.084262 C22.8096,22.7711595 22.2466901,23.328 21.5624894,23.328 L5.9127106,23.328 C5.22395043,23.328 4.6656,22.7648084 4.6656,22.084262 L4.6656,21.8866258 C4.6656,20.5117393 5.7240286,19.0695212 7.0491612,18.6593066 L11.4485898,17.2973974 Z" id="Combined-Shape" fill="#FFFFFF"></path>
                        <path d="M20.7360031,21.2543926 L24.883208,21.2543926 L24.883208,19.6991907 C24.883208,18.5570894 23.9517069,17.6255883 22.8096056,17.6255883 C21.6675042,17.6255883 20.7360031,18.5570894 20.7360031,19.6991907 L20.7360031,21.2543926 Z M27.4752111,22.0319935 L27.4752111,26.6975991 C27.4752111,27.1268996 27.1269107,27.4752 26.6976102,27.4752 L18.9216009,27.4752 C18.4923004,27.4752 18.144,27.1268996 18.144,26.6975991 L18.144,22.0319935 C18.144,21.602693 18.4923004,21.2543926 18.9216009,21.2543926 L19.1808012,21.2543926 L19.1808012,19.6991907 C19.1808012,17.7065884 20.8170032,16.0703864 22.8096056,16.0703864 C24.8022079,16.0703864 26.4384099,17.7065884 26.4384099,19.6991907 L26.4384099,21.2543926 L26.6976102,21.2543926 C27.1269107,21.2543926 27.4752111,21.602693 27.4752111,22.0319935 Z" id="" fill="#3C474E"></path>
                        <path d="M28.593,15.0336 L28.593,6.15195 L30.47625,6.15195 L30.47625,15.0336 L28.593,15.0336 Z M40.858425,10.507725 C40.858425,11.9697823 40.4422917,13.0895961 39.6100125,13.8672 C38.7777333,14.6448039 37.5759079,15.0336 36.0045,15.0336 L33.48945,15.0336 L33.48945,6.15195 L36.277875,6.15195 C37.7277822,6.15195 38.853671,6.53467117 39.655575,7.300125 C40.457479,8.06557883 40.858425,9.13476814 40.858425,10.507725 Z M38.902275,10.556325 C38.902275,8.64876546 38.0598834,7.695 36.375075,7.695 L35.3727,7.695 L35.3727,13.4784 L36.180675,13.4784 C37.9950841,13.4784 38.902275,12.5043847 38.902275,10.556325 Z" id="ID" fill="#FFFFFF"></path>
                    </g>
                </g>
                <g id="id" transform="translate(48.766147, 73.219512) rotate(-10.000000) translate(-48.766147, -73.219512) translate(25.314031, 57.787456)">
                    <g id="Group-2">
                        <g id="Rectangle-7">
                            <use fill="black" fill-opacity="1" filter="url(#filter-10)" xlink:href="#path-9"></use>
                            <use fill="#0090FC" fill-rule="evenodd" xlink:href="#path-9"></use>
                        </g>
                        <g id="Rectangle-7">
                            <use fill="black" fill-opacity="1" filter="url(#filter-12)" xlink:href="#path-11"></use>
                            <use fill="#B5CAD5" fill-rule="evenodd" xlink:href="#path-11"></use>
                        </g>
                        <path d="M11.4485898,17.2973974 L11.5328956,15.6674859 C11.0267714,15.0617954 10.6957774,14.308752 10.6321574,13.4955014 L10.4267115,10.8692986 C10.2706686,8.87461252 11.7782607,7.2576 13.7711808,7.2576 L14.2224319,7.2576 C16.2255742,7.2576 17.7222049,8.88406111 17.5669012,10.8692986 L17.3614553,13.4955014 C17.2786144,14.5544519 16.7476397,15.506959 15.9681717,16.1675869 L16.0266102,17.2973974 L20.4260388,18.6593066 C21.7424433,19.0668193 22.8096,20.5130763 22.8096,21.8866258 L22.8096,22.084262 C22.8096,22.7711595 22.2466901,23.328 21.5624894,23.328 L5.9127106,23.328 C5.22395043,23.328 4.6656,22.7648084 4.6656,22.084262 L4.6656,21.8866258 C4.6656,20.5117393 5.7240286,19.0695212 7.0491612,18.6593066 L11.4485898,17.2973974 Z" id="Combined-Shape" fill="#FFFFFF"></path>
                        <path d="M20.7360031,21.2543926 L24.883208,21.2543926 L24.883208,19.6991907 C24.883208,18.5570894 23.9517069,17.6255883 22.8096056,17.6255883 C21.6675042,17.6255883 20.7360031,18.5570894 20.7360031,19.6991907 L20.7360031,21.2543926 Z M27.4752111,22.0319935 L27.4752111,26.6975991 C27.4752111,27.1268996 27.1269107,27.4752 26.6976102,27.4752 L18.9216009,27.4752 C18.4923004,27.4752 18.144,27.1268996 18.144,26.6975991 L18.144,22.0319935 C18.144,21.602693 18.4923004,21.2543926 18.9216009,21.2543926 L19.1808012,21.2543926 L19.1808012,19.6991907 C19.1808012,17.7065884 20.8170032,16.0703864 22.8096056,16.0703864 C24.8022079,16.0703864 26.4384099,17.7065884 26.4384099,19.6991907 L26.4384099,21.2543926 L26.6976102,21.2543926 C27.1269107,21.2543926 27.4752111,21.602693 27.4752111,22.0319935 Z" id="" fill="#3C474E"></path>
                        <path d="M28.593,15.0336 L28.593,6.15195 L30.47625,6.15195 L30.47625,15.0336 L28.593,15.0336 Z M40.858425,10.507725 C40.858425,11.9697823 40.4422917,13.0895961 39.6100125,13.8672 C38.7777333,14.6448039 37.5759079,15.0336 36.0045,15.0336 L33.48945,15.0336 L33.48945,6.15195 L36.277875,6.15195 C37.7277822,6.15195 38.853671,6.53467117 39.655575,7.300125 C40.457479,8.06557883 40.858425,9.13476814 40.858425,10.507725 Z M38.902275,10.556325 C38.902275,8.64876546 38.0598834,7.695 36.375075,7.695 L35.3727,7.695 L35.3727,13.4784 L36.180675,13.4784 C37.9950841,13.4784 38.902275,12.5043847 38.902275,10.556325 Z" id="ID" fill="#FFFFFF"></path>
                    </g>
                </g>
                <path d="M92.8561247,98.4132404 L67.4556793,87.5031359" id="Line" stroke="#0090FC" stroke-width="1.152" stroke-linecap="square"></path>
                <path d="M109.456805,82.6242661 L88.3783847,41.5638872" id="Line-2" stroke="#0090FC" stroke-width="1.152" stroke-linecap="square"></path>
                <path d="M195.897757,89.0832702 L220.146993,49.8919861" id="Line-3" stroke="#0090FC" stroke-width="1.152" stroke-linecap="square"></path>
                <g id="id" transform="translate(229.167038, 38.766551) rotate(6.000000) translate(-229.167038, -38.766551) translate(205.714922, 23.334495)">
                    <g id="Group-2">
                        <g id="Rectangle-7">
                            <use fill="black" fill-opacity="1" filter="url(#filter-14)" xlink:href="#path-13"></use>
                            <use fill="#0090FC" fill-rule="evenodd" xlink:href="#path-13"></use>
                        </g>
                        <g id="Rectangle-7">
                            <use fill="black" fill-opacity="1" filter="url(#filter-16)" xlink:href="#path-15"></use>
                            <use fill="#B5CAD5" fill-rule="evenodd" xlink:href="#path-15"></use>
                        </g>
                        <path d="M11.4485898,17.2973974 L11.5328956,15.6674859 C11.0267714,15.0617954 10.6957774,14.308752 10.6321574,13.4955014 L10.4267115,10.8692986 C10.2706686,8.87461252 11.7782607,7.2576 13.7711808,7.2576 L14.2224319,7.2576 C16.2255742,7.2576 17.7222049,8.88406111 17.5669012,10.8692986 L17.3614553,13.4955014 C17.2786144,14.5544519 16.7476397,15.506959 15.9681717,16.1675869 L16.0266102,17.2973974 L20.4260388,18.6593066 C21.7424433,19.0668193 22.8096,20.5130763 22.8096,21.8866258 L22.8096,22.084262 C22.8096,22.7711595 22.2466901,23.328 21.5624894,23.328 L5.9127106,23.328 C5.22395043,23.328 4.6656,22.7648084 4.6656,22.084262 L4.6656,21.8866258 C4.6656,20.5117393 5.7240286,19.0695212 7.0491612,18.6593066 L11.4485898,17.2973974 Z" id="Combined-Shape" fill="#FFFFFF"></path>
                        <path d="M20.7360031,21.2543926 L24.883208,21.2543926 L24.883208,19.6991907 C24.883208,18.5570894 23.9517069,17.6255883 22.8096056,17.6255883 C21.6675042,17.6255883 20.7360031,18.5570894 20.7360031,19.6991907 L20.7360031,21.2543926 Z M27.4752111,22.0319935 L27.4752111,26.6975991 C27.4752111,27.1268996 27.1269107,27.4752 26.6976102,27.4752 L18.9216009,27.4752 C18.4923004,27.4752 18.144,27.1268996 18.144,26.6975991 L18.144,22.0319935 C18.144,21.602693 18.4923004,21.2543926 18.9216009,21.2543926 L19.1808012,21.2543926 L19.1808012,19.6991907 C19.1808012,17.7065884 20.8170032,16.0703864 22.8096056,16.0703864 C24.8022079,16.0703864 26.4384099,17.7065884 26.4384099,19.6991907 L26.4384099,21.2543926 L26.6976102,21.2543926 C27.1269107,21.2543926 27.4752111,21.602693 27.4752111,22.0319935 Z" id="" fill="#3C474E"></path>
                        <path d="M28.593,15.0336 L28.593,6.15195 L30.47625,6.15195 L30.47625,15.0336 L28.593,15.0336 Z M40.858425,10.507725 C40.858425,11.9697823 40.4422917,13.0895961 39.6100125,13.8672 C38.7777333,14.6448039 37.5759079,15.0336 36.0045,15.0336 L33.48945,15.0336 L33.48945,6.15195 L36.277875,6.15195 C37.7277822,6.15195 38.853671,6.53467117 39.655575,7.300125 C40.457479,8.06557883 40.858425,9.13476814 40.858425,10.507725 Z M38.902275,10.556325 C38.902275,8.64876546 38.0598834,7.695 36.375075,7.695 L35.3727,7.695 L35.3727,13.4784 L36.180675,13.4784 C37.9950841,13.4784 38.902275,12.5043847 38.902275,10.556325 Z" id="ID" fill="#FFFFFF"></path>
                    </g>
                </g>
            </g>
        </g>
    </g>
</svg>