<?xml version="1.0" encoding="UTF-8"?>
<svg width="252px" height="140px" viewBox="0 0 252 140" version="1.1" xmlns="http://www.w3.org/2000/svg" xmlns:xlink="http://www.w3.org/1999/xlink">
    <!-- Generator: Sketch 50.2 (55047) - http://www.bohemiancoding.com/sketch -->
    <title>Group 4</title>
    <desc>Created with Sketch.</desc>
    <defs>
        <circle id="path-1" cx="39.2" cy="39.2" r="39.2"></circle>
        <rect id="path-3" x="0" y="0.0531192237" width="16" height="30.2906885" rx="1.3824"></rect>
        <rect id="path-5" x="-1.42108547e-14" y="0.0530028198" width="10.052968" height="11.5373269"></rect>
    </defs>
    <g id="Page-1" stroke="none" stroke-width="1" fill="none" fill-rule="evenodd">
        <g id="Desktop-Copy-5" transform="translate(-140.000000, -309.000000)">
            <g id="Group-4" transform="translate(140.000000, 308.000000)">
                <path d="M228.8,44.4135519 C233.408356,44.4135519 237.715258,43.9874724 241.720833,43.1353005 C245.726409,42.2831287 248.8861,41.0247078 251.2,39.36 L251.2,64.3899454 C251.2,65.7573839 250.198621,67.0257136 248.195833,68.1949727 C246.193046,69.3642317 243.470851,70.290707 240.029167,70.9744262 C236.587483,71.6581455 232.844465,72 228.8,72 C224.755535,72 221.012517,71.6581455 217.570833,70.9744262 C214.129149,70.290707 211.406954,69.3642317 209.404167,68.1949727 C207.401379,67.0257136 206.4,65.7573839 206.4,64.3899454 L206.4,39.36 C208.7139,41.0247078 211.873591,42.2831287 215.879167,43.1353005 C219.884742,43.9874724 224.191644,44.4135519 228.8,44.4135519 Z M228.8,22.4 C232.844465,22.4 236.587483,22.7392466 240.029167,23.41775 C243.470851,24.0962534 246.193046,25.0156609 248.195833,26.176 C250.198621,27.3363391 251.2,28.5949932 251.2,29.952 L251.2,33.728 C251.2,35.0850068 250.198621,36.3436609 248.195833,37.504 C246.193046,38.6643391 243.470851,39.5837466 240.029167,40.26225 C236.587483,40.9407534 232.844465,41.28 228.8,41.28 C224.755535,41.28 221.012517,40.9407534 217.570833,40.26225 C214.129149,39.5837466 211.406954,38.6643391 209.404167,37.504 C207.401379,36.3436609 206.4,35.0850068 206.4,33.728 L206.4,29.952 C206.4,28.5949932 207.401379,27.3363391 209.404167,26.176 C211.406954,25.0156609 214.129149,24.0962534 217.570833,23.41775 C221.012517,22.7392466 224.755535,22.4 228.8,22.4 Z" id="" fill="#C0D4DF"></path>
                <circle id="Oval-2" stroke="#FFFFFF" stroke-width="1.6" fill="#D1ED64" cx="228.8" cy="56" r="6.4"></circle>
                <g id="planet-earth-free-flat-vector-icon" transform="translate(84.800000, 62.400000)">
                    <g id="Combined-Shape">
                        <mask id="mask-2" fill="white">
                            <use xlink:href="#path-1"></use>
                        </mask>
                        <use id="Mask" fill="#86C4F3" xlink:href="#path-1"></use>
                        <path d="M42.7862677,16.6007266 C42.8178212,16.743513 42.8269195,16.8908444 42.8493748,17.066771 C42.592881,17.0669604 42.3491635,17.066771 42.109124,17.066771 C41.9339338,17.066771 41.7606795,17.0665816 41.5854894,17.0665816 C41.5550973,16.8898976 41.5237373,16.7266589 41.4979911,16.5624734 C41.4728257,16.3973411 41.4526933,16.2316406 41.4304316,16.0657507 C41.420559,15.9871614 41.433916,15.9201237 41.4904415,15.8525179 C41.6108484,15.7089739 41.7196405,15.5544464 41.8350143,15.4061681 C41.8534044,15.3819285 41.8791506,15.3527652 41.9072198,15.3463266 C42.1735862,15.2789101 42.4409205,15.2156599 42.7218054,15.147486 C42.8735723,15.4525643 43.0206933,15.7449546 43.1726538,16.0515478 C43.0801225,16.1365758 42.9953343,16.2259594 42.8997057,16.2998145 C42.7914943,16.380487 42.7578114,16.4704386 42.7862677,16.6007266 Z M38.9196958,20.4845565 C39.081916,20.4881546 39.2369738,20.4921314 39.3813847,20.4951614 C39.4243595,20.7447536 39.4775941,20.9774918 39.5008237,21.2128812 C39.5190202,21.3859671 39.5548326,21.5365179 39.6816277,21.6681314 C39.8167467,21.8088348 39.9342499,21.965256 40.0581412,22.1156174 C40.0904691,22.1544386 40.1185383,22.1966686 40.1603516,22.2549952 C40.0951151,22.2731749 40.0476879,22.2904077 40.0006479,22.2991188 C39.2909827,22.4178551 38.5826726,22.5335614 37.8735881,22.6564638 C37.7545363,22.6767266 37.6720711,22.65457 37.596962,22.5625353 C37.5448889,22.4970126 37.4709412,22.4473971 37.4188681,22.3809275 C37.2249007,22.1349333 36.965116,21.9980174 36.6571299,21.9391227 C36.5750519,21.9235942 36.495684,21.8915903 36.3923121,21.860344 C36.7552751,21.2994242 37.1488237,20.7771362 37.3365965,20.1353546 C37.30272,20.10657 37.265359,20.0715362 37.2252879,20.0418048 C37.1352731,19.9764715 37.0487427,19.9043208 36.951759,19.8511072 C36.442643,19.5734879 36.1334953,19.113314 35.8090548,18.667343 C35.7453669,18.5798531 35.7265896,18.4874396 35.7198143,18.3798763 C35.70336,18.1158918 35.6673541,17.8536116 35.6340583,17.5909527 C35.6203141,17.4824425 35.5978588,17.3754473 35.5759842,17.2517874 C35.7020049,17.2046338 35.8084741,17.1546396 35.9199763,17.1268019 C36.0297363,17.0989643 36.1046519,17.0377971 36.1755022,16.9576928 C36.4118637,16.6887845 36.6536454,16.4244213 36.891362,16.1551343 C36.9527269,16.0831729 37.0197057,16.0551459 37.1186252,16.0405643 C37.3259496,16.0112116 37.5276602,15.946257 37.7307259,15.893801 C37.8315812,15.8676676 37.9324365,15.8375575 38.0451002,15.8061217 C38.2866884,16.2121353 38.5156938,16.5944773 38.7638637,17.0082551 C38.6690094,17.0241623 38.6029985,17.038744 38.5358262,17.0459401 C38.3317926,17.0660135 38.1289205,17.0876019 37.9256612,17.100858 C37.8230637,17.1076754 37.7684741,17.1552077 37.7487289,17.2500831 C37.7448573,17.2690203 37.7338232,17.2875787 37.7355654,17.3059478 C37.7465995,17.568228 37.625999,17.7922551 37.5195299,18.0202589 C37.5053985,18.048286 37.4988168,18.0797217 37.4837175,18.1249816 C37.5688928,18.193913 37.6480672,18.2717449 37.7419536,18.3272309 C37.885203,18.4122589 37.9450193,18.5328889 37.9694104,18.6891208 C37.9930272,18.8324754 38.0400672,18.9722319 38.0816869,19.1282744 C38.4444563,19.046087 38.7828346,18.96977 39.1359249,18.8896657 C39.3703506,19.1318725 39.6049699,19.3737005 39.8595279,19.6371169 C39.5170844,19.8242164 39.1959348,19.9995749 38.8664612,20.179857 C38.8831091,20.2749217 38.9005314,20.3747208 38.9196958,20.4845565 Z M32.3536474,20.2972676 C32.3362252,20.4241469 32.3027358,20.5493217 32.2756346,20.6792309 C32.2318854,20.6911614 32.1952988,20.7055536 32.1575506,20.710856 C31.818398,20.7551691 31.4790519,20.8015652 31.1385442,20.8388715 C31.0719526,20.846257 30.9952948,20.8286454 30.9310262,20.8021333 C30.7306706,20.7207034 30.5324444,20.632456 30.3357669,20.5408 C30.2517531,20.5016 30.1776119,20.4925101 30.0945659,20.5426937 C29.8516227,20.6921082 29.5937738,20.6928657 29.3186963,20.6383266 C29.0025798,20.574887 28.6798815,20.5457237 28.3622163,20.4930783 C28.2003832,20.4659981 28.0509393,20.4870184 27.8974301,20.5381488 C27.3488237,20.720514 26.7982815,20.8979556 26.2487072,21.0765333 C26.1991506,21.0930087 26.1470775,21.1019092 26.0857126,21.1166802 C26.0121521,21.0166918 25.940721,20.9184077 25.8557393,20.8027014 C25.7121027,20.8466357 25.5640138,20.8922744 25.4006321,20.9428367 C25.3851457,20.8890551 25.3663684,20.8434164 25.3593995,20.7958841 C25.3313304,20.6048077 25.2899042,20.4133527 25.2860326,20.2209507 C25.2839032,20.0995633 25.3404286,19.9774184 25.367917,19.8645527 C25.4225067,19.8528116 25.4501886,19.8380406 25.4736119,19.8431536 C25.7393975,19.9007227 25.8458667,19.7033971 25.9689837,19.5414841 C25.9958914,19.5062609 26.0069254,19.4414957 25.9947299,19.3986976 C25.8849699,19.0434357 25.9654993,18.696885 26.0326716,18.3482512 C26.0464158,18.2802667 26.0605472,18.2124715 26.078163,18.1297159 C26.2276069,18.1764908 26.3623388,18.2270531 26.501523,18.260572 C26.5946351,18.2827285 26.694716,18.2942802 26.7893768,18.2865159 C27.0493551,18.2660638 27.3075911,18.2333024 27.5861531,18.2370899 C27.4432909,18.3925643 27.3004286,18.548228 27.1424672,18.7207459 C27.2752632,18.7821024 27.3921857,18.8368309 27.5098825,18.8902338 C27.6177067,18.9392812 27.7326933,18.9763981 27.8316128,19.037944 C27.9655704,19.1212676 28.0933333,19.1019517 28.2284523,19.0566918 C28.384478,19.0046145 28.5395358,18.9512116 28.6971101,18.9051942 C28.7865442,18.8792502 28.845199,18.833801 28.8779141,18.7455536 C28.9342459,18.5946242 28.9985146,18.4472928 29.0678163,18.2779942 C28.8411338,18.2086841 28.6303249,18.144487 28.3759605,18.0666551 C29.0869807,17.5752348 29.7505738,17.0762396 30.4935348,16.6154976 C30.4799842,16.7454068 30.4844365,16.8438802 30.4555931,16.9319382 C30.4362351,16.9915903 30.3816454,17.057113 30.3249264,17.086087 C30.1532207,17.1731981 30.066884,17.2917449 30.1038578,17.4869874 C30.1148919,17.5424734 30.1025027,17.6025043 30.1034706,17.6600734 C30.1090844,17.9579556 30.0968889,18.2522396 29.9358301,18.5194435 C29.9203437,18.5451981 29.9184079,18.5790957 29.9050509,18.6289005 C29.9751269,18.6304155 30.0330074,18.6342029 30.0891457,18.6307942 C30.4894696,18.6084483 30.8909551,18.5813681 31.2910854,18.5622415 C31.3431585,18.5595903 31.4122667,18.5796638 31.4478854,18.6154551 C31.8820859,19.0555556 32.3131891,19.500201 32.7444859,19.944657 C32.7475832,19.9482551 32.747196,19.9565874 32.7530035,19.9804483 C32.6881541,20.0090435 32.6219496,20.0501372 32.5495506,20.0662338 C32.4175289,20.0952077 32.371844,20.1760696 32.3536474,20.2972676 Z M65.021282,26.6516444 C64.8757096,26.7433005 64.752399,26.869801 64.6016,26.9961121 C64.8046657,27.1106821 64.9860504,27.2119961 65.0965847,27.4504155 C64.6511565,28.2132058 64.2097936,28.9777005 63.7591388,29.7368928 C63.1532326,30.758744 62.6067556,31.8163865 61.8591486,32.7515053 C61.7904277,32.8371014 61.7921699,32.9293256 61.7979773,33.0260947 C61.8556642,34.0432116 61.9158677,35.0605179 62.0438242,36.0725217 C62.055439,36.1730783 62.0385975,36.2596213 61.9845886,36.3486261 C61.6496948,36.9121971 61.318479,37.4784193 60.9313185,38.1936773 C60.8484662,38.1010744 60.804717,38.0541101 60.7621294,38.006199 C60.3887131,37.5810589 60.0141353,37.154972 59.6387832,36.7292638 C58.3733491,35.2839768 57.1048178,33.8390686 55.8417067,32.3918879 C55.7892464,32.3320464 55.7540148,32.2472077 55.7420128,32.1691865 C55.7048454,31.946485 55.685681,31.7218899 55.6597412,31.4972947 C55.6456099,31.3628406 55.6396089,31.2272502 55.6208316,31.0931749 C55.5890844,30.8924406 55.5511427,30.6924638 55.5137817,30.4790415 C55.3198143,30.5114242 55.1364938,30.5350957 54.9570449,30.5746744 C54.8710953,30.5939903 54.7834035,30.631486 54.7123595,30.6828058 C54.5274904,30.8170705 54.3526874,30.962887 54.1124543,31.0700715 C53.1567486,30.38 52.2020109,29.6886029 51.2443694,29.0006145 C51.1744869,28.9498628 51.1409975,28.8911575 51.1293827,28.8097275 C51.1063467,28.6563362 51.0823427,28.5025662 50.9601936,28.1895343 C50.7853906,28.0533758 50.6007151,27.9289585 50.3697738,27.8208271 C49.4078736,28.2044947 48.4446183,28.5906242 47.4800079,28.9714512 C47.1600198,29.0981411 46.8510657,29.2763401 46.2854242,29.2308908 C45.66016,29.2373295 45.0350894,29.2390338 44.4104059,29.2545623 C44.2447012,29.2591072 44.1345541,29.2074087 44.0155022,29.0051594 C43.8945146,28.8458976 43.7746884,28.6864464 43.6467319,28.5184734 C43.159684,28.8070763 42.6902519,29.0869681 42.2072691,29.3736773 C42.0196899,29.1935845 41.8394667,29.0252329 41.6665995,28.8502531 C41.5998143,28.7817005 41.5314805,28.7610589 41.4368198,28.7790493 C41.19136,28.8246879 40.942803,28.8557449 40.6963753,28.9059285 C40.5751941,28.9307362 40.5026015,28.8943768 40.425363,28.8082126 C39.948962,28.2730473 39.4636563,27.7448889 38.9897719,27.2072618 C38.8819477,27.0843594 38.7741235,27.0116406 38.6020306,27.0349333 C38.5191783,27.0457275 38.4320672,27.0264116 38.3465047,27.0245179 C38.1583447,27.0214879 37.9690232,27.0207304 37.7719585,27.0190261 C37.7342104,27.3805372 37.7011081,27.7200812 37.6639407,28.0594357 C37.6548425,28.1514705 37.6956879,28.2169932 37.7522133,28.284599 C38.4419398,29.1096928 39.1277946,29.9353546 39.9282489,30.8649816 C39.9572859,30.6911382 39.9847743,30.5475942 40.0049067,30.402914 C40.017683,30.3099324 40.0517531,30.2349411 40.1253136,30.1694184 C40.331283,29.9878106 40.5310578,29.7984386 40.8562726,29.5300986 C40.9356405,29.8162396 41.0076523,30.084201 41.0864395,30.348943 C41.1172188,30.4485527 41.1090884,30.5354744 41.0645649,30.628456 C40.9509333,30.868201 40.8425284,31.1104077 40.7066351,31.4876367 C41.1187674,31.4187053 41.5078637,31.3465546 41.899283,31.2933411 C42.0576316,31.2713739 42.1642943,31.2054725 42.2595358,31.0878725 C42.606238,30.6650048 42.9606835,30.2474396 43.4303091,29.7136 C43.4663151,29.7982493 43.4945778,29.8624464 43.5209047,29.9272116 C43.5952395,30.1199923 43.6720909,30.3127729 43.7423605,30.5074473 C43.782238,30.6163362 43.8457323,30.6894338 43.9537501,30.7462454 C44.5079704,31.0342802 45.056964,31.330458 45.6061511,31.6243633 C45.7435931,31.6976502 45.8787121,31.7743459 45.9735664,31.9584155 C45.6979081,32.5662995 45.4224435,33.1743729 45.1440751,33.7805527 C45.11136,33.850999 45.0697402,33.917658 45.0265719,33.9818551 C44.6670933,34.5158841 44.309357,35.0506705 43.9425225,35.580344 C43.8780602,35.6731362 43.7892069,35.7579749 43.6935783,35.8200889 C43.415597,36.0041585 43.1302598,36.1776232 42.8424059,36.3476792 C42.7351625,36.4113082 42.667603,36.4929275 42.6215309,36.6065507 C42.4970588,36.9125758 42.3586489,37.2117836 42.2330153,37.5178087 C42.1923635,37.6212058 42.128482,37.6825623 42.0222064,37.7287691 C41.3502894,38.0251362 40.6601758,38.2807884 40.0157472,38.6392696 C39.7309906,38.7992889 39.4084859,38.9104502 39.1554765,39.1079652 C38.8970469,39.3098357 38.7017244,39.5908638 38.4781393,39.836858 C38.3739931,39.9519961 38.2698469,40.0669449 38.1523437,40.1953391 C38.0137402,40.0764135 37.8819121,39.9718802 37.7601501,39.856742 C37.6803951,39.7832657 37.6016079,39.7595942 37.493203,39.7684947 C37.2322568,39.7898937 36.9689877,39.7967111 36.620156,39.6194589 C36.3235911,38.9653681 36.0262519,38.3120348 35.7345264,37.6562396 C35.6888415,37.5509488 35.6239921,37.4734957 35.5279763,37.4077836 C35.099196,37.1163401 34.6779654,36.8167536 34.2497659,36.5258783 C34.1469748,36.4563787 34.0767052,36.3734338 34.0310202,36.2620831 C33.897837,35.9471575 33.7563299,35.6346937 33.6287605,35.3159807 C33.5861728,35.206713 33.5306153,35.152742 33.4084662,35.1345623 C33.1155793,35.0904386 32.8261768,35.0235903 32.5332899,34.9798454 C32.4066884,34.9607188 32.338161,34.9097778 32.2918953,34.7938821 C32.1378054,34.4104039 31.9597116,34.035258 31.8178173,33.6466667 C31.7076701,33.3400734 31.5334479,33.0908599 31.3025067,32.8596367 C30.9385758,32.4960425 30.5570291,32.1472193 30.3173768,31.6815536 C30.2172958,31.4863111 30.0926301,31.3028097 29.9745462,31.1160889 C29.8047763,30.84737 29.6444919,30.5727807 29.4559447,30.3159923 C29.2104849,29.9811826 28.9423763,29.6619014 28.6829788,29.3352348 C28.6276148,29.2653565 28.5701215,29.1969932 28.4901728,29.0983304 C28.4326795,29.4797256 28.4251299,29.8308213 28.3244681,30.1826744 C28.0414538,29.8079072 27.7580523,29.4323826 27.4527763,29.1257894 C27.6542933,29.83423 27.8529067,30.543428 28.0606183,31.2495961 C28.1384375,31.5141488 28.19264,31.7853295 28.3525373,32.0260213 C28.6674923,32.5028599 28.9690904,32.9882203 29.2629452,33.4781256 C29.3670914,33.6517797 29.5012425,33.7754396 29.6766262,33.8777005 C29.9019536,34.0102609 30.113924,34.1647884 30.3289916,34.3155285 C30.427524,34.3848386 30.4801778,34.4855845 30.51328,34.6029952 C30.6551743,35.0874087 30.8017146,35.569171 30.9432217,36.0528271 C30.9751625,36.1615266 31.036721,36.2221256 31.1505462,36.2573488 C31.6081699,36.4012715 32.0646321,36.5559884 32.6784751,36.7728193 C32.6074311,37.3780522 32.5381294,37.9656734 32.4697956,38.5508329 C32.7454538,38.7169121 33.0021412,38.8739014 33.2636681,39.0252097 C33.3660721,39.0846725 33.4721541,39.1380754 33.5830756,39.1803053 C34.5420721,39.5429527 35.5026173,39.9029488 36.4627753,40.265028 C36.6528711,40.3356638 36.8404504,40.4104657 37.0349985,40.4856464 C36.9157531,40.821971 36.8050252,41.1372754 36.6877156,41.4682976 C36.9666647,41.5385546 37.227998,41.5985855 37.4870084,41.6718725 C37.6170943,41.7088 37.7214341,41.6951652 37.8389373,41.6243401 C38.5408593,41.2014725 39.2485886,40.7869372 39.9528336,40.3689932 C40.8276227,39.8499246 41.7022183,39.3297198 42.7572306,38.7568696 C42.7465837,38.8392464 42.7386469,38.915942 42.7283872,38.9928271 C42.590558,39.9249159 42.4498252,40.8571942 42.3160612,41.79023 C42.2928316,41.9530899 42.2494696,42.1040193 42.1726183,42.2498357 C41.8597926,42.8401082 41.5595496,43.4371981 41.2337541,44.0208425 C40.7405116,44.9048309 40.231202,45.7801082 39.7232474,46.6559536 C39.6527842,46.7784773 39.5602528,46.8902068 39.4671407,46.999285 C39.3335704,47.1572213 39.1717373,47.2948947 39.052879,47.4636251 C38.799676,47.825515 38.5658311,48.2010396 38.3250173,48.5716406 C38.1025936,48.9145932 37.8964306,49.2694763 37.6571654,49.6008773 C36.604476,51.0633971 35.5413333,52.5200464 34.4818686,53.9778319 C34.442959,54.032371 34.4048237,54.0895614 34.3453946,54.1744 C34.6220207,54.1560309 34.858963,54.1365256 35.0953244,54.1249739 C35.442801,54.1069836 35.3514311,54.063428 35.5314607,54.339343 C35.6476089,54.5179208 35.7732425,54.6970667 35.8454479,54.8943923 C35.9730173,55.2396174 36.0674844,55.5979092 36.167759,55.9529816 C36.2537086,56.2582493 36.369276,56.5496928 36.5254953,56.8290164 C37.1008158,57.8682899 37.6666509,58.910972 38.2353896,59.953086 C38.2692662,60.013685 38.2984968,60.0765565 38.1794449,60.2860019 C37.4351289,60.9715285 36.694878,61.6619787 35.9435931,62.341256 C35.5500444,62.6965179 35.17024,63.0621952 34.8895486,63.513658 C34.8332168,63.6026628 34.7592691,63.6447034 34.6543486,63.6691324 C34.3482983,63.740715 34.0461195,63.8249855 33.8639605,64.0649198 C34.3947575,64.55937 34.9240059,65.0532522 35.459836,65.5425894 C35.556239,65.6298899 35.5804365,65.7012831 35.5302993,65.8260792 C35.3169738,66.3481778 35.120877,66.8757681 34.911036,67.3991923 C34.8670933,67.5063768 34.8738686,67.5881855 34.938718,67.6841971 C35.0705462,67.8779246 35.1897916,68.0786589 35.3127151,68.2776889 C35.3558835,68.3468097 35.398084,68.4178242 35.3409778,68.6090899 C34.3879822,69.7650164 33.4324701,70.9188599 32.4804425,72.0764908 C32.412883,72.1579208 32.3375802,72.2026126 32.2314983,72.2050744 C32.0867002,72.2090512 31.942483,72.2185198 31.7982657,72.2240116 C31.4387872,72.2366995 31.0775664,72.247115 30.71712,72.2596135 C30.4546252,72.2683246 30.1940662,72.2753314 29.9315714,72.2853681 C29.6973393,72.2937005 29.4644622,72.3069565 29.219196,72.3169932 C29.1986765,72.6304039 29.1797057,72.9313159 28.9634765,73.1564792 C28.3128533,72.8264039 27.6624237,72.4976541 27.0104454,72.1745855 C26.8977817,72.1185314 26.8168652,72.0490319 26.7773748,71.930485 C26.7220109,71.7653527 26.6685827,71.5994628 26.5996681,71.4403903 C26.5220425,71.2593507 26.4901017,71.0584271 26.3389156,70.9067401 C25.7775328,70.3433585 25.2287328,69.7676676 24.66464,69.2073159 C24.2377956,68.7835014 23.8496672,68.3343111 23.529679,67.8254686 C22.9959783,66.9727266 22.4431131,66.1315362 21.8948938,65.2882628 C21.8428207,65.207401 21.7791328,65.1312734 21.709444,65.0642357 C21.1114746,64.4902493 20.5129244,63.9164522 19.9095348,63.3473894 C19.8156484,63.2580058 19.7581551,63.1570705 19.7206005,63.0377662 C19.5514114,62.5022222 19.3835773,61.9662995 19.2045156,61.4351111 C19.1249541,61.1961237 19.0968849,60.9698242 19.1601857,60.7198531 C19.2987891,60.1754087 19.4033225,59.6226319 19.5322469,59.0764831 C19.5610904,58.9543382 19.5341827,58.8723401 19.4557827,58.7803053 C19.1752849,58.455343 18.9044662,58.1211014 18.6245491,57.7957604 C18.5331793,57.6902802 18.4704593,57.5730589 18.4284523,57.4429604 C18.1880257,56.7063034 17.9456632,55.970972 17.7104632,55.2328 C17.6369027,55.0015768 17.5263684,54.7980019 17.3788602,54.6021913 C16.7415941,53.7642203 16.1143941,52.9179169 15.4815802,52.0765372 C15.4138272,51.9862068 15.3710459,51.8937932 15.3561402,51.7794126 C15.2674805,51.1001353 15.170884,50.4233198 15.0769975,49.7449894 C15.0299575,49.4075285 14.981756,49.0683633 14.7513956,48.6899981 C14.2244701,48.6097043 13.6975447,48.5258126 13.1694578,48.452715 C13.0256277,48.4330203 12.936,48.3729894 12.8620523,48.2525488 C12.6206578,47.8605488 12.3690035,47.4736618 12.1210272,47.0856386 C11.9717768,46.8513855 11.8209778,46.6177005 11.6601126,46.3675401 C10.7617067,46.9337623 9.87704494,47.4916522 8.98967309,48.0516251 C8.60135111,47.8724792 8.22057877,47.6978783 7.83864494,47.5219517 C7.52368988,47.7829063 7.21996247,48.0364754 6.77705086,48.1732019 C6.4169916,47.8412329 6.05770667,47.5083169 5.69764741,47.1767266 C5.21234173,46.7309449 4.72529383,46.2861101 4.13080889,45.6871266 C4.03440593,45.3254261 3.93238914,44.9641043 3.86347457,44.5972908 C3.78197728,44.1700676 3.63776,43.7632966 3.50593185,43.3519807 C3.35552,42.8857469 3.19368691,42.4234899 3.03882272,41.9589604 C2.88492642,41.4946203 2.73722469,41.0270609 2.57887605,40.5642357 C2.52990025,40.4206918 2.45730765,40.2849121 2.39497481,40.145913 C2.38665086,40.0951614 2.37735901,40.0440309 2.41936593,39.79103 C2.57229432,38.2035246 2.72231901,36.6146937 2.87602173,35.026999 C2.88434568,34.9398879 2.90641383,34.8459594 2.95093728,34.7715362 C3.42985481,33.9621604 3.91574123,33.1563826 4.39930469,32.3489005 C4.51913086,32.1489237 4.64844247,31.9580367 4.81492148,31.7872232 C5.46651259,31.1191188 6.10687605,30.4413565 6.75536988,29.7707903 C6.82447802,29.6997758 6.85680593,29.6261101 6.86145185,29.5310454 C6.87984198,29.171428 6.90229728,28.8108638 6.91991309,28.4514357 C6.92455901,28.3556135 6.9590163,28.2823266 7.02889877,28.2133952 C7.7174637,27.5352541 8.40293136,26.8555981 9.08665679,26.1727227 C9.16428247,26.0947014 9.23435852,26.0691362 9.3462479,26.0916715 C9.82458469,26.1876831 10.3048573,26.2698705 10.7828069,26.3670184 C10.9034074,26.3918261 10.9943901,26.3709952 11.0936968,26.3020638 C11.5234449,26.002856 11.9617106,25.7146319 12.3891358,25.4118261 C12.5145758,25.3233894 12.6258844,25.3057778 12.7733926,25.344599 C13.0984138,25.4301952 13.4265323,25.501399 13.755038,25.5682473 C13.855119,25.5885101 13.9644919,25.5921082 14.0655407,25.5765797 C14.7426844,25.4686377 15.4196346,25.3538783 16.0963911,25.2415807 C16.1653057,25.2302184 16.2330588,25.2192348 16.3501748,25.1993507 C15.9302993,25.9104425 15.536557,26.5774106 15.1370074,27.2546048 C15.3422025,27.3979594 15.5379121,27.5288155 15.7268464,27.667057 C15.8106667,27.7278454 15.8962291,27.7571981 15.9999881,27.7579556 C16.3157175,27.7607961 16.6320277,27.768371 16.9483378,27.7755671 C17.150242,27.7806802 17.3527269,27.7888232 17.5536632,27.7954512 C17.675038,28.1357527 17.7954449,28.4565488 17.9048178,28.7807536 C17.945276,28.9025198 18.0027694,28.9792155 18.1448573,28.9926609 C18.2883002,29.0066744 18.4294202,29.045685 18.5718953,29.0725758 C18.9445373,29.1437797 19.3187279,29.2142261 19.7389906,29.1487034 C19.7906765,28.8307478 19.8460405,28.5135498 19.8903704,28.1942686 C19.9074054,28.0698512 19.9490252,27.9808464 20.0750459,27.9263072 C20.2130686,27.8664657 20.3416059,27.7865507 20.4738212,27.7147787 C20.8354291,27.5197256 21.1966499,27.323915 21.5704533,27.121287 C21.7332543,27.360085 21.8947002,27.5869527 22.0435635,27.8221527 C22.1101551,27.926686 22.1947496,27.9679691 22.3161244,27.9776271 C22.7220622,28.0103884 23.1278064,28.052429 23.5337442,28.0887884 C23.997756,28.1298821 24.4627358,28.1687034 24.9364267,28.2094184 C25.095356,27.9081275 25.2529304,27.6111923 25.5518183,27.3634937 C25.8448988,27.4983266 26.1387536,27.6310763 26.4283496,27.7706435 C26.5220425,27.8162821 26.6079921,27.8302957 26.7117511,27.8035942 C27.0745205,27.7121275 27.4386449,27.6200928 27.8060602,27.5454802 C27.9388563,27.5180213 28.0091259,27.4631034 28.0608119,27.3426628 C28.4704277,26.391258 28.8839151,25.4411787 29.3028227,24.4937507 C29.3579931,24.3689546 29.3295368,24.2869565 29.2439743,24.2015498 C29.0221314,23.980742 28.5997393,24.0246763 28.4063526,24.2807072 C28.2669748,24.4657237 28.1136593,24.6403246 27.9628602,24.8225005 C27.8774914,24.7721275 27.8159328,24.7363362 27.7551486,24.6992193 C27.3004286,24.4233043 26.8553877,24.1331865 26.3673719,23.9144618 C26.151917,23.8176928 25.9387852,23.7139169 25.5853077,23.4616734 C25.501681,23.1973101 25.4341215,22.9278338 25.3592059,22.6604406 C25.2659002,22.3248734 25.1923398,21.9819208 25.0725136,21.6552541 C24.9294578,21.2681778 24.7440079,20.8964406 24.4139536,20.4097546 C24.1117748,20.4089971 23.8090153,20.4052097 23.5072237,20.4031266 C23.4263072,20.4035053 23.3544889,20.4175188 23.2991249,20.4900483 C23.1461965,20.6921082 22.9857185,20.8894338 22.7797491,21.1878841 C22.8333709,21.3005604 22.7503249,21.3732792 22.7044464,21.4503536 C22.5466785,21.7111188 22.3829096,21.9694222 22.2158499,22.2254531 C22.1566143,22.3157836 22.1262222,22.4019478 22.1403536,22.5136773 C22.1868128,22.8918531 22.2216573,23.2709758 22.2108168,23.8442048 C21.8546291,23.5984 21.49728,23.3542995 21.0315259,22.9526415 C20.8195556,22.453457 20.6143605,21.9514319 20.4008415,21.4524367 C20.3658035,21.372143 20.311601,21.2926068 20.2473323,21.233144 C19.690402,20.7102879 19.1284385,20.1917874 18.4551664,19.6003787 C18.4127723,19.7725179 18.3765728,19.9276135 18.335921,20.0972908 C18.0008336,20.0921778 17.6779417,20.0863072 17.3455644,20.1213411 C17.5490173,20.2836329 17.7565353,20.4408116 17.9537936,20.6097314 C18.067038,20.7063111 18.1760237,20.8129275 18.2654578,20.92977 C18.6564899,21.4422106 19.0481027,21.9540831 19.4234548,22.4769391 C19.6089047,22.7352425 19.7593165,23.017028 19.9259891,23.3561932 C19.8073244,23.3756986 19.6909827,23.4086493 19.5738667,23.4111111 C19.3272454,23.4167923 19.1576691,23.5338242 19.0184849,23.7220599 C18.9319546,23.8398493 18.8249047,23.9424889 18.7077886,24.0727768 C18.5866074,23.747057 18.4822677,23.4573179 18.3697975,23.1700406 C18.3345659,23.0816039 18.291204,22.9895691 18.2288711,22.9183652 C17.8070598,22.4390647 17.3806025,21.9631729 16.9510479,21.4910686 C16.8921995,21.4270609 16.8116701,21.3704386 16.7297857,21.3399498 C16.2922943,21.1770899 15.8491891,21.0261604 15.4116978,20.8634899 C15.3145205,20.8273198 15.2403793,20.8379246 15.1532681,20.8852676 C14.4033383,21.2903343 13.6516662,21.6925604 12.8992198,22.0930821 C12.8020425,22.1445913 12.7385481,22.2139014 12.6901531,22.3119961 C12.3506133,23.0050976 12.003524,23.694601 11.6634035,24.3869449 C11.6121047,24.4914783 11.544158,24.5638184 11.4347852,24.6121082 C11.2191368,24.7081198 11.0116188,24.8223111 10.7948089,24.9168077 C10.6581412,24.9766493 10.5143111,25.0253179 10.3695131,25.0622454 C10.0437175,25.145001 9.71656691,25.2209391 9.38806123,25.2925217 C9.21635556,25.3296386 9.04019753,25.3514164 8.85571556,25.3819053 C8.6691042,25.0756908 8.48442864,24.7711807 8.29820444,24.4679961 C8.1183684,24.1739014 8.12185284,24.176742 8.2956879,23.8888966 C8.84835951,22.9783961 9.39677235,22.0658126 9.94770173,21.154744 C10.0810785,20.9339362 10.2154232,20.7148329 10.3491872,20.4962976 C10.7671269,20.6031034 11.1672573,20.7051749 11.5699042,20.8081932 C11.9168,20.4512271 12.2576948,20.101457 12.6946054,19.6045449 C12.8682469,19.2638647 13.0362746,18.9205333 13.2155299,18.5828831 C13.2662479,18.4866821 13.256956,18.4183188 13.1919131,18.337457 C13.0825402,18.2018667 12.9812978,18.0592696 12.9102538,17.8801237 C13.2838637,17.6275014 13.6574736,17.3735536 14.218082,17.1025623 C14.4137916,17.1311575 14.6093077,17.1642976 14.8013393,17.2084213 C14.9207783,17.2353121 15.0148583,17.2233816 15.1079704,17.1379749 C15.2183111,17.0362821 15.3431704,16.9504966 15.4614479,16.8567575 C15.5673363,16.7738126 15.6718696,16.6893527 15.7535605,16.5687227 C15.6807743,16.5992116 15.608956,16.6505314 15.5340405,16.6565913 C15.3358143,16.6723092 15.1292642,16.6635981 14.9577521,16.5628522 C14.8507022,16.4996019 14.7612681,16.5028213 14.6606064,16.5297121 C14.4461195,16.5886068 14.2227279,16.6342454 14.020243,16.7217353 C13.6725728,16.872286 13.3589728,16.7149179 12.9861373,16.6772329 C13.1150617,16.5647459 13.204883,16.4812329 13.3005116,16.4041585 C13.3765886,16.3439382 13.4526657,16.2784155 13.540164,16.2388367 C13.6764444,16.1759652 13.8233719,16.1346821 13.9644919,16.0818473 C14.1251635,16.0212483 14.2842864,15.9570512 14.4728336,15.8828174 C14.2924168,15.7780947 14.1466509,15.6928773 13.988883,15.6008425 C14.2091773,15.4088193 14.4010153,15.2164174 14.6809323,15.1414261 C14.8650272,15.0923787 15.0433146,15.021743 15.2254736,14.9672039 C15.3404602,14.9331169 15.4004701,14.8780097 15.395437,14.7477217 C15.3842094,14.4920696 15.4436385,14.2500522 15.6083753,13.9665623 C15.485839,13.9555787 15.3671743,13.9444058 15.2392178,13.9328541 C15.3369758,13.6461449 15.4800316,13.4137855 15.7018746,13.2274435 C15.7682726,13.1710106 15.8342835,13.0945043 15.8600296,13.0145894 C15.927202,12.8085527 16.0354133,12.6087652 15.9934064,12.3792464 C15.9891477,12.3517874 16.0085057,12.3211092 16.2220247,12.3097469 C16.3809541,12.3040657 16.4634193,12.3883362 16.5456909,12.5127536 C16.6411259,12.656487 16.6533215,12.8083633 16.6773254,12.9681932 C16.7154607,13.217028 16.6264138,13.3673894 16.3873422,13.4541217 C16.2903585,13.4885874 16.2076998,13.5603594 16.2189274,13.6821256 C16.3451417,13.728143 16.4101847,13.7991575 16.3805669,13.9457314 C16.3567565,14.0648464 16.3679842,14.1905894 16.3627575,14.3123556 C16.3511427,14.5960348 16.3323654,14.8804715 16.4463842,15.1522203 C16.4845195,15.2440657 16.4490943,15.3145121 16.3838578,15.3771942 C16.1304612,15.619401 16.1565946,15.9473932 16.0963911,16.2524715 C16.2030538,16.1676329 16.3008119,16.0807111 16.3813412,15.9805333 C16.7514667,15.5211169 17.2139299,15.1844135 17.7524701,14.9317913 C18.0469057,14.7937391 18.3318558,14.6318261 18.5862202,14.4208657 C18.9933195,14.0832155 19.41184,13.7580638 19.8262953,13.4287459 C20.0181333,13.2763014 20.2119072,13.1255614 20.3648356,13.1636251 C20.2692069,13.3762899 20.1700938,13.587629 20.0374914,13.9442164 C20.1290548,14.1263923 20.2150044,14.3125449 20.3441225,14.4835478 C20.5820326,14.3776889 20.8052306,14.2843285 21.023202,14.1797952 C21.4862459,13.9580406 21.9562588,13.7609043 22.4783447,13.7218937 C22.5797807,13.7141295 22.6465659,13.6686802 22.7027042,13.5866821 C22.8196267,13.4149217 22.9487447,13.2505469 23.2625383,12.9791768 C23.4274686,12.9822068 23.592399,12.9772831 23.7565551,12.9638377 C23.8388267,12.9568309 23.9265185,12.9378937 23.9993047,12.9015343 C24.3973057,12.7015575 24.7922094,12.4955208 25.3199091,12.1965024 C25.1551723,12.0518222 25.0043733,11.9186937 24.8392494,11.7724986 C24.9497837,11.5855884 25.0659319,11.405685 25.1650449,11.2174493 C25.2233126,11.1066667 25.3121659,11.0587556 25.4261847,11.0354628 C26.144561,10.8915401 26.8375783,10.6610744 27.6817817,10.370199 C27.4866528,10.2904734 27.2973314,10.2418048 27.1062677,10.2035517 C27.0178015,10.185372 26.9233343,10.1751459 26.8329323,10.1817739 C26.5899891,10.1997643 26.3487881,10.2334725 26.1060385,10.2514628 C25.9705323,10.2616889 25.8207012,10.2874435 25.6987457,10.245971 C25.5158123,10.1834783 25.3516563,10.0683401 25.1538173,9.9615343 C25.4863881,9.73826473 25.8021175,9.54074976 26.1019733,9.32088889 C26.4093788,9.09534686 26.7766005,8.98607923 26.9717294,8.72929082 C26.7669215,8.65695072 26.5572741,8.59691981 26.3584672,8.5124599 C26.2171536,8.45205024 26.1157175,8.47931981 25.9968593,8.56226473 C25.1358143,9.16787633 24.2695427,9.76723865 23.2538272,10.4891246 C23.5310341,10.6525527 23.7915931,10.8067014 24.0633798,10.9672889 C23.039921,11.9253217 22.083441,12.9119498 20.8619496,13.6080812 C21.1852286,12.9617546 21.5075398,12.3152386 21.8387556,11.6526261 C21.5892306,11.6253565 21.3617738,11.5982763 21.0237827,11.6014957 C20.7365096,11.7103845 20.4502044,11.820599 20.1633185,11.9308135 C20.0229728,11.9844058 19.8820464,12.0378087 19.7533156,11.9768309 C19.8808849,11.6442937 20.0138746,11.3144077 20.1337007,10.97903 C20.1830637,10.8424928 20.2603022,10.7563285 20.3938726,10.6887227 C20.9651279,10.3997411 21.5299951,10.0980715 22.0993146,9.80624928 C22.2034607,9.75246763 22.2797314,9.68221063 22.3407091,9.58657778 C22.5371931,9.27998454 22.7329027,8.9733913 22.9379042,8.67285797 C22.9857185,8.60279034 23.0635378,8.5408657 23.1411635,8.5029913 C24.223277,7.97956715 25.30752,7.45936232 26.3929244,6.94256618 C26.8170588,6.74069565 27.2233837,6.49867826 27.6901057,6.38997874 C27.7855407,6.36763285 27.8803951,6.33884831 27.9750558,6.31157874 C28.2522627,6.2314744 28.5288889,6.15080193 28.806483,6.0699401 C29.0771081,5.99078261 29.3498627,5.91635942 29.6183585,5.82924831 C29.7573491,5.78417778 29.8783368,5.78209469 30.0144237,5.84742802 C30.7324128,6.19075942 31.4538864,6.52556908 32.1726499,6.86302995 C32.3143506,6.92949952 32.4577936,6.99407536 32.6062696,7.06281739 C32.8503743,6.81398261 33.0880909,6.57404831 33.3287111,6.32881159 C33.6636049,6.45644831 33.990562,6.57556329 34.3130667,6.70622995 C34.4208909,6.74997488 34.5184553,6.74599807 34.6189235,6.70850242 C34.9549788,6.58143382 35.2890983,6.44830531 35.6274765,6.3254029 C35.9524978,6.20685604 36.2806163,6.0949372 36.6081541,5.98604831 C36.7514035,5.93851594 36.8994923,5.9049971 37.0446775,5.86485024 C37.353438,5.77868599 37.6641343,5.69043865 37.9736691,5.60768309 C38.2909472,5.52284444 38.6097738,5.44425507 38.9282133,5.36074203 C39.0732049,5.32248889 39.2197452,5.28006957 39.364156,5.2372715 C39.4530094,5.21038068 39.4965649,5.15962899 39.5010173,5.05566377 C39.5170844,4.74054879 39.5474765,4.42694879 39.6055506,3.95124638 C40.180484,4.29135845 40.7364464,4.61916135 41.2935704,4.94715362 C41.1427714,4.52731594 40.9060227,4.15822995 40.7387694,3.74861836 C41.0785027,3.63897198 41.3981037,3.54314976 41.7109294,3.43198841 C41.905284,3.36324638 42.092476,3.32215266 42.3015427,3.36457198 C42.5590044,3.41740676 42.8185956,3.44884251 43.0799289,3.48671691 C43.3381649,3.52421256 43.5960138,3.55848889 43.8691556,3.55811014 C43.279123,3.20152271 42.6887032,2.84493527 42.0868622,2.48115169 C42.2750222,2.22436329 42.4500188,1.99048889 42.6195951,1.75169082 C42.6732168,1.67651014 42.7446479,1.6619285 42.8234351,1.65776232 C42.9419062,1.65094493 43.060958,1.64242319 43.1772998,1.65302802 C43.3414558,1.66779903 43.4707674,1.62632657 43.5791723,1.49963671 C43.7183565,1.33867053 43.8691556,1.18736232 44.0141472,1.03131981 C44.0530568,1.02488116 44.0929343,1.01844251 44.2969679,1.06427053 C44.7212958,1.14835169 45.146398,1.23110725 45.572081,1.31367343 C45.8341886,1.36461449 46.0974578,1.41328309 46.3669215,1.4646029 C46.5572109,1.23224348 46.7461452,1.00897391 46.9643101,0.739118841 C59.4024512,3.55811014 68.1255996,8.94144727 73.7070341,19.7999768 C73.8779654,20.3273778 74.0508326,20.8547787 74.2219575,21.3823691 C74.2935822,21.60223 74.3615289,21.8236058 74.4298627,22.0406261 C73.9941136,22.4587594 73.6086953,22.899428 73.2674133,23.3762667 C73.1284227,23.5694261 73.0523457,23.768456 73.0504099,24.0195633 C73.047119,24.4505739 72.9900128,24.8812058 72.9402627,25.3101333 C72.9238084,25.4519729 72.9499417,25.5498783 73.050797,25.6555478 C73.6961936,26.3376657 74.3286202,27.0319034 74.9798242,27.7089082 C75.183277,27.9204367 75.3162667,28.1412444 75.3371733,28.4338242 C75.3675654,28.8797952 75.4972642,29.295656 75.7975072,29.6439111 C75.8762943,29.7344309 75.8708741,29.8217314 75.8313837,29.9287266 C75.5741156,30.5992928 75.3242035,31.2732676 74.8594173,31.9974261 C74.5241363,31.7669604 74.1915654,31.5325179 73.8545422,31.3067865 C73.731038,31.2240309 73.6379259,31.1244213 73.566882,30.9956483 C73.4648652,30.809685 73.3485235,30.631486 73.229278,30.4347285 C73.0699615,30.5701295 72.9282607,30.6911382 72.7807526,30.8155556 C72.9478123,31.0835169 73.1028701,31.3391691 73.2672198,31.5883826 C73.3372958,31.6963246 73.3692365,31.8084329 73.3723338,31.9345546 C73.3843358,32.3407575 73.4038874,32.7465816 73.4125985,33.1531633 C73.4139536,33.2514473 73.4433778,33.3249237 73.5126795,33.3925295 C73.9354588,33.813314 74.288162,34.2873121 74.6774519,34.8804251 C74.7403654,34.9919652 74.8350262,35.0669565 74.9474963,35.1286918 C75.1356563,35.2339826 75.3209126,35.3476058 75.6261886,35.6000386 C75.6995556,35.9212135 75.7932484,36.2387903 75.8567427,36.5611014 C75.9386272,36.9697662 76.0598084,37.3608193 76.2590025,37.7295266 C76.3408869,37.8817816 76.4043812,38.0425585 76.4070914,38.1936773 C75.8033146,37.7217623 75.20128,37.2492792 74.5214262,36.6476444 C74.4348958,36.3366957 74.3501077,36.0253681 74.2753857,35.7112 C74.2488652,35.5979556 74.1979536,35.5127382 74.1077452,35.4381256 C73.8262795,35.2033043 73.5564286,34.9563633 73.2693491,34.7274126 C73.1321007,34.6168193 73.0720909,34.4814184 73.0283417,34.321399 C72.9205175,33.9292097 72.8057244,33.5396715 72.6907378,33.1497546 C72.5712988,32.7407111 72.4522469,32.3328039 72.3302914,31.9239498 C72.2464711,31.6397024 72.1812346,31.3475014 72.068958,31.0732908 C71.8525353,30.541913 71.6235299,30.0135652 71.3689719,29.4971478 C71.2390795,29.233542 71.1755852,28.9848966 71.2644385,28.5292676 C71.1310617,28.4073121 70.9914904,28.2904696 70.8292701,28.1497662 C70.7644207,28.6188406 70.7053788,29.0574261 70.4959249,29.4859749 C70.2303328,29.4312464 69.9688059,29.3679961 69.7020523,29.3223575 C69.5752573,29.2998222 69.5127309,29.2369507 69.4730469,29.1216232 C69.3168277,28.6769778 69.1522844,28.2342261 68.9914193,27.7910957 C68.9528968,27.6863729 68.8965649,27.6002087 68.801517,27.5305198 C68.273043,27.144201 67.7466983,26.7539053 67.2232573,26.3596329 C67.1351783,26.2922164 67.0594884,26.2789604 66.9543743,26.3187285 C66.6576158,26.4302686 66.3535012,26.5113198 66.0337067,26.5304464 C65.7973452,26.5446493 65.560403,26.5647227 65.3244286,26.5882048 C65.2212504,26.5984309 65.1029728,26.600514 65.021282,26.6516444 Z M44.5956622,59.6794435 C44.5979852,60.6227053 44.6103743,61.5640734 44.6121165,62.5063884 C44.6128909,62.640085 44.5958558,62.7779478 44.5592691,62.9057739 C44.3556227,63.6217894 44.1479111,64.3345855 43.9355536,65.0470029 C43.9034193,65.1572174 43.8494104,65.2640232 43.784561,65.3579517 C43.6231151,65.5950454 43.4481185,65.8207768 43.2829946,66.0557874 C43.2295664,66.1332406 43.1701373,66.1696 43.0717985,66.1608889 C42.737679,66.131915 42.4037531,66.1050242 42.0692464,66.0857082 C41.9430321,66.0787014 41.8712138,66.0254879 41.8096553,65.9186821 C41.3781649,65.1674435 40.9410607,64.4184773 40.6379141,63.5734995 C40.9178311,63.2992889 41.2145896,63.0103072 41.5179299,62.7131826 C41.4826983,62.6637565 41.4538548,62.6220947 41.4224948,62.5827053 C41.0856652,62.1520734 40.7517393,61.7199266 40.409683,61.2944077 C40.3332188,61.1991536 40.3063111,61.1110957 40.3368968,60.9931169 C40.4021333,60.7367072 40.4596267,60.4780251 40.509764,60.2180174 C40.5302835,60.1185971 40.576162,60.061028 40.6675319,60.0165256 C41.0932148,59.8097314 41.5130904,59.593658 41.9378054,59.3874319 C42.0491141,59.3327034 42.128482,59.2620676 42.187524,59.1537469 C42.4271763,58.714972 42.667603,58.2775227 42.9171279,57.8440502 C42.9815901,57.7294802 42.9970765,57.6194551 42.9835259,57.4921971 C42.955844,57.2365449 42.9419062,56.9797565 42.9192573,56.6877449 C43.0808968,56.7040309 43.2096277,56.7165295 43.3389393,56.7311111 C43.5226469,56.751942 43.7046123,56.7782647 43.8885136,56.7958763 C43.9725274,56.8049662 44.0333116,56.8339401 44.0863526,56.9023034 C44.3914351,57.2918415 44.6996148,57.6787285 45.0114726,58.0635324 C45.0827101,58.1504541 45.0908405,58.2250667 45.0498015,58.3275169 C44.9127467,58.6640309 44.7828543,59.0013024 44.6607052,59.3429295 C44.6212148,59.4487884 44.5960494,59.5669565 44.5956622,59.6794435 Z M77.784802,35.1798222 C77.8279704,35.0874087 77.8560395,34.9864734 77.8730746,34.8859169 C77.9232119,34.6141681 77.969284,34.340715 78.0066449,34.0665043 C78.0825284,33.5163787 78.214163,32.9776155 78.3473462,32.4394203 C78.3696079,32.5591034 78.3938054,32.678029 78.4139378,32.7979014 C78.8022598,35.0307865 78.9906133,37.2490899 78.9987437,39.4380406 C78.8049699,39.4228908 78.611196,39.3977043 78.4143249,39.39297 C78.4009679,39.3319923 78.3847072,39.2765063 78.374641,39.2204522 C78.3353442,38.9990763 78.2815289,38.7773217 78.2608158,38.5532947 C78.2319723,38.234771 78.1034351,37.9632116 77.9247605,37.7013101 C77.6876247,37.3528657 77.4717827,36.9911652 77.2410351,36.6400696 C77.1754114,36.541028 77.169604,36.4599768 77.2236128,36.3539285 C77.4154509,35.9655266 77.6024494,35.5731478 77.784802,35.1798222 Z M63.1222598,40.2962744 C63.0970943,40.3159691 63.0684444,40.3311188 63.0210173,40.3616077 C62.9598459,40.1506473 62.9019654,39.9546473 62.8448593,39.7578899 C62.7167091,39.319115 62.5897205,38.8799614 62.4635062,38.4400502 C62.4036899,38.2292792 62.3469709,38.0175614 62.2935427,37.8045179 C62.2836701,37.7598261 62.2857995,37.6975227 62.3082548,37.6609739 C62.5014479,37.3610087 62.701997,37.0652097 62.9000296,36.7688425 C62.9097086,36.7542609 62.9310025,36.7464966 62.9581037,36.7275594 C63.0063052,36.7669488 63.057604,36.8055807 63.1042568,36.8481894 C63.3830123,37.0956986 63.6619615,37.3416928 63.9362647,37.5935575 C63.9902736,37.6433623 64.0460247,37.7107787 64.0622854,37.7793314 C64.1675931,38.1984116 64.2591565,38.6210899 64.3634963,39.0411169 C64.3973728,39.1776541 64.3629156,39.2698783 64.2525748,39.3590725 C63.8725768,39.66737 63.4981926,39.9834319 63.1222598,40.2962744 Z M13.5966894,14.1663498 C13.7747832,14.0792386 13.8992553,13.9391034 13.9670084,13.7574957 C14.0169521,13.6232309 14.1145165,13.5917952 14.2453768,13.6063768 C14.36288,13.618686 14.4811575,13.6260715 14.6164701,13.6372444 C14.6925472,13.9105082 14.7666884,14.1707053 14.8361837,14.432228 C14.8456691,14.4668831 14.8474114,14.5110068 14.8350222,14.5435787 C14.7804326,14.682199 14.7246815,14.82063 14.6577027,14.9533797 C14.6335052,15.0009121 14.578722,15.0368928 14.5307141,15.0696541 C14.3957886,15.1613101 14.2492484,15.2378164 14.1226469,15.3391304 C13.9364227,15.4900599 13.7207743,15.5146783 13.494479,15.5207382 C13.3113521,15.5249043 13.1280316,15.5336155 12.9425817,15.5408116 C12.8668919,15.4400657 12.9090923,15.3228444 12.8802489,15.2224773 C12.8181096,15.0058357 12.9102538,14.8817971 13.0972523,14.7965797 C13.23392,14.7350338 13.304964,14.6259556 13.3388405,14.4873353 C13.3736849,14.3422763 13.457118,14.234713 13.5966894,14.1663498 Z M77.0325491,42.9027903 C76.3426291,41.8582145 75.6401264,40.8208348 74.9685965,39.7641391 C74.426959,38.9115865 73.9259733,38.0334686 73.3994351,37.1703111 C73.3061294,37.0163517 73.2503783,36.8582261 73.2269551,36.6840039 C73.1940464,36.45297 73.1543625,36.2240193 73.121841,35.993743 C73.1129363,35.9325758 73.1150657,35.8693256 73.1113877,35.8072116 C73.1290035,35.8024773 73.1441027,35.7986899 73.1607506,35.7933874 C73.2617995,35.893944 73.3638163,35.9931749 73.4638973,36.0941101 C73.7256178,36.3577159 73.9950815,36.61583 74.2502202,36.8864425 C74.5705956,37.2269333 74.9705323,37.470087 75.3383348,37.7522512 C75.6250272,37.9711652 75.9159783,38.1834512 76.2065422,38.3953585 C76.3008158,38.4622068 76.3627615,38.543258 76.4057363,38.6504425 C76.6039625,39.136371 76.8081896,39.6200271 77.0147398,40.1016 C77.0501649,40.1826512 77.1051417,40.259915 77.167281,40.322029 C77.3488593,40.5007961 77.5358578,40.673314 77.7253728,40.84337 C77.7966104,40.9071884 77.8242923,40.96703 77.7917709,41.0634203 C77.5776711,41.6870222 77.3680237,42.313086 77.1564405,42.9385816 C77.1510202,42.9558145 77.138244,42.9717217 77.1212089,43.0022106 C77.0875259,42.9650937 77.0546173,42.9374454 77.0325491,42.9027903 Z" fill="#D1ED64" mask="url(#mask-2)" transform="translate(40.693295, 36.947799) rotate(10.000000) translate(-40.693295, -36.947799) "></path>
                    </g>
                    <path d="M23.5837398,75.1715839 C24.4627966,75.2305093 25.3497866,75.2604455 26.2437633,75.2604455 C47.9017288,75.2604455 65.4589789,57.6901154 65.4589789,36.0160147 C65.4589789,19.890377 55.7402801,6.03635403 41.8448078,-2.43804976e-13 C62.2622586,1.36863282 78.4,18.3761113 78.4,39.1555692 C78.4,60.8296698 60.8427499,78.4 39.1847844,78.4 C33.640452,78.4 28.3648538,77.2485552 23.5837398,75.1715839 Z" id="Combined-Shape" fill="#4A4A4A" opacity="0.200000003"></path>
                </g>
                <g id="Group-2-Copy-8" transform="translate(172.800000, 38.400000)">
                    <g id="Path-2">
                        <mask id="mask-4" fill="white">
                            <use xlink:href="#path-3"></use>
                        </mask>
                        <use id="Mask" fill="#4A4A4A" xlink:href="#path-3"></use>
                        <rect id="Rectangle-2" fill="#0090FC" opacity="0.800000012" mask="url(#mask-4)" x="0.842105263" y="3.03438078" width="14.3157895" height="23.8255083"></rect>
                        <rect id="Rectangle-3" fill="#000000" opacity="0.400000006" mask="url(#mask-4)" x="6.96140351" y="27.5341959" width="2.07719298" height="2.07911275" rx="1.03859649"></rect>
                        <rect id="Rectangle-4" fill="#000000" opacity="0.400000006" mask="url(#mask-4)" x="6.84912281" y="1.34861368" width="2.24561404" height="1" rx="0.5"></rect>
                        <rect id="Rectangle-4" fill="#000000" opacity="0.400000006" mask="url(#mask-4)" x="5.72631579" y="1.34861368" width="1" height="1" rx="0.5"></rect>
                        <polygon fill="#FFFFFF" opacity="0.300000012" mask="url(#mask-4)" points="12.4337719 -0.917074861 0.796491228 34.6739025 -3.92872807 34.6927796 -3.7370614 -1.00750924"></polygon>
                    </g>
                    <g id="Group-3" transform="translate(3.536842, 6.783305)" fill="#D1ED64">
                        <rect id="Rectangle" x="0" y="0" width="8.98245614" height="1.88041237"></rect>
                        <rect id="Rectangle-Copy" x="0" y="3.76082474" width="8.98245614" height="1.88041237"></rect>
                        <rect id="Rectangle-Copy" x="0" y="7.52164948" width="8.98245614" height="1.88041237"></rect>
                    </g>
                </g>
                <g id="Path-2" transform="translate(62.400000, 49.600000)">
                    <rect id="Combined-Shape" fill="#000000" x="0" y="0" width="12.8" height="25.6" rx="2.304"></rect>
                    <g transform="translate(1.402740, 1.856703)">
                        <mask id="mask-6" fill="white">
                            <use xlink:href="#path-5"></use>
                        </mask>
                        <use id="Mask" fill="#C0D4DF" opacity="0.800000012" xlink:href="#path-5"></use>
                        <rect id="Rectangle-5" fill="#D1ED64" mask="url(#mask-6)" x="1.16363636" y="1.68791209" width="7.85454545" height="1.12527473"></rect>
                        <rect id="Rectangle-5" fill="#D1ED64" mask="url(#mask-6)" x="1.16363636" y="3.65714286" width="7.85454545" height="1.12527473"></rect>
                        <polygon fill="#FFFFFF" opacity="0.300000012" mask="url(#mask-6)" points="8.93780763 -2.63946935 0.414220597 23.4187068 -3.04670975 23.4325277 -2.90632579 -2.7056815"></polygon>
                    </g>
                    <rect id="Rectangle-4" fill="#4A4A4A" x="5.5826506" y="0.817833595" width="1.64477314" height="1" rx="0.5"></rect>
                    <g id="Group" transform="translate(1.402740, 22.224176)" fill="#4A4A4A">
                        <rect id="Rectangle-4" x="0" y="0" width="3.18580901" height="1.62262048" rx="0.2304"></rect>
                        <rect id="Rectangle-4" x="6.84948937" y="0" width="3.18580901" height="1.62262048" rx="0.2304"></rect>
                        <rect id="Rectangle-4" x="3.42474469" y="0" width="3.18580901" height="1.62262048" rx="0.2304"></rect>
                    </g>
                    <g id="Group" transform="translate(1.402740, 20.311209)" fill="#4A4A4A">
                        <rect id="Rectangle-4" x="0" y="0" width="3.18580901" height="1.62262048" rx="0.2304"></rect>
                        <rect id="Rectangle-4" x="6.84948937" y="0" width="3.18580901" height="1.62262048" rx="0.2304"></rect>
                        <rect id="Rectangle-4" x="3.42474469" y="0" width="3.18580901" height="1.62262048" rx="0.2304"></rect>
                    </g>
                    <g id="Group" transform="translate(1.402740, 18.398242)" fill="#4A4A4A">
                        <rect id="Rectangle-4" x="0" y="0" width="3.18580901" height="1.62262048" rx="0.2304"></rect>
                        <rect id="Rectangle-4" x="6.84948937" y="0" width="3.18580901" height="1.62262048" rx="0.2304"></rect>
                        <rect id="Rectangle-4" x="3.42474469" y="0" width="3.18580901" height="1.62262048" rx="0.2304"></rect>
                    </g>
                    <g id="Group" transform="translate(1.402740, 14.572308)" fill="#4A4A4A">
                        <rect id="Rectangle-4" x="0" y="1.91296703" width="3.18580901" height="1.62262048" rx="0.2304"></rect>
                        <rect id="Rectangle-4" x="6.84948937" y="1.91296703" width="3.18580901" height="1.62262048" rx="0.2304"></rect>
                        <rect id="Rectangle-4" x="3.42474469" y="0" width="3.18580901" height="3.53558751" rx="0.2304"></rect>
                    </g>
                    <g id="Group" transform="translate(1.402740, 14.572308)" fill="#4A4A4A">
                        <rect id="Rectangle-4" x="0" y="0" width="3.18580901" height="1.62262048" rx="0.2304"></rect>
                        <rect id="Rectangle-4" x="6.84948937" y="0" width="3.18580901" height="1.62262048" rx="0.2304"></rect>
                    </g>
                </g>
                <path d="M35.2,32 C78.1842534,6.00222199 137.384253,2.63450407 212.8,21.8968462" id="Path-3" stroke="#0090FC" stroke-dasharray="1.279999971389771,0.9600000381469727"></path>
                <path d="M150.4,96 C167.656992,93.7233264 177.790326,85.7233264 180.8,72" id="Path-3" stroke="#0090FC" stroke-dasharray="1.279999971389771,0.9600000381469727"></path>
                <path d="M68.8,78.4 C71.3562453,86.1466257 74.6307343,97.8678795 91.2,99.2" id="Path-3" stroke="#0090FC" stroke-dasharray="1.279999971389771,0.9600000381469727"></path>
                <path d="M96.8,100.8 C98.1254834,100.8 99.2,99.7254834 99.2,98.4 C99.2,97.0745166 98.1254834,96 96.8,96 C95.4745166,96 94.4,97.0745166 94.4,98.4 C94.4,99.7254834 95.4745166,100.8 96.8,100.8 Z" id="Oval" stroke="#0090FC" fill="#D1ED64" stroke-dasharray="0.6399999856948853,0.9600000381469727"></path>
                <path d="M146.4,97.6 C147.725483,97.6 148.8,96.5254834 148.8,95.2 C148.8,93.8745166 147.725483,92.8 146.4,92.8 C145.074517,92.8 144,93.8745166 144,95.2 C144,96.5254834 145.074517,97.6 146.4,97.6 Z" id="Oval" stroke="#0090FC" fill="#D1ED64" stroke-dasharray="0.6399999856948853,0.9600000381469727"></path>
                <path d="M22.4,57.2135519 C27.0083564,57.2135519 31.3152578,56.7874724 35.3208333,55.9353005 C39.3264089,55.0831287 42.4860995,53.8247078 44.8,52.16 L44.8,77.1899454 C44.8,78.5573839 43.7986211,79.8257136 41.7958333,80.9949727 C39.7930455,82.1642317 37.0708505,83.090707 33.6291667,83.7744262 C30.1874828,84.4581455 26.4444647,84.8 22.4,84.8 C18.3555353,84.8 14.6125172,84.4581455 11.1708333,83.7744262 C7.72914946,83.090707 5.00695446,82.1642317 3.00416667,80.9949727 C1.00137888,79.8257136 0,78.5573839 0,77.1899454 L0,52.16 C2.31390046,53.8247078 5.47359108,55.0831287 9.47916667,55.9353005 C13.4847422,56.7874724 17.7916436,57.2135519 22.4,57.2135519 Z M22.4,35.2 C26.4444647,35.2 30.1874828,35.5392466 33.6291667,36.21775 C37.0708505,36.8962534 39.7930455,37.8156609 41.7958333,38.976 C43.7986211,40.1363391 44.8,41.3949932 44.8,42.752 L44.8,46.528 C44.8,47.8850068 43.7986211,49.1436609 41.7958333,50.304 C39.7930455,51.4643391 37.0708505,52.3837466 33.6291667,53.06225 C30.1874828,53.7407534 26.4444647,54.08 22.4,54.08 C18.3555353,54.08 14.6125172,53.7407534 11.1708333,53.06225 C7.72914946,52.3837466 5.00695446,51.4643391 3.00416667,50.304 C1.00137888,49.1436609 0,47.8850068 0,46.528 L0,42.752 C0,41.3949932 1.00137888,40.1363391 3.00416667,38.976 C5.00695446,37.8156609 7.72914946,36.8962534 11.1708333,36.21775 C14.6125172,35.5392466 18.3555353,35.2 22.4,35.2 Z" id="" fill="#C0D4DF"></path>
                <polygon id="Triangle-2" stroke="#FFFFFF" stroke-width="1.6" fill="#4BABB6" points="22.4 64 30.4 76.8 14.4 76.8"></polygon>
                <circle id="Oval-3" stroke="#0090FC" fill="#FFFFFF" cx="124.8" cy="11.2" r="9.6"></circle>
                <path d="M123.67,12.3625 L123.67,11.8075 C123.67,11.3274976 123.772499,10.9100018 123.9775,10.555 C124.182501,10.1999982 124.557497,9.822502 125.1025,9.4225 C125.627503,9.04749812 125.973749,8.74250118 126.14125,8.5075 C126.308751,8.27249882 126.3925,8.01000145 126.3925,7.72 C126.3925,7.39499838 126.272501,7.14750085 126.0325,6.9775 C125.792499,6.80749915 125.457502,6.7225 125.0275,6.7225 C124.277496,6.7225 123.422505,6.96749755 122.4625,7.4575 L121.645,5.815 C122.760006,5.18999688 123.942494,4.8775 125.1925,4.8775 C126.222505,4.8775 127.041247,5.12499753 127.64875,5.62 C128.256253,6.11500248 128.56,6.77499588 128.56,7.6 C128.56,8.15000275 128.435001,8.624998 128.185,9.025 C127.934999,9.425002 127.460003,9.8749975 126.76,10.375 C126.279998,10.7300018 125.976251,10.9999991 125.84875,11.185 C125.721249,11.3700009 125.6575,11.6124985 125.6575,11.9125 L125.6575,12.3625 L123.67,12.3625 Z M123.43,14.9275 C123.43,14.5074979 123.542499,14.1900011 123.7675,13.975 C123.992501,13.7599989 124.319998,13.6525 124.75,13.6525 C125.165002,13.6525 125.486249,13.7624989 125.71375,13.9825 C125.941251,14.2025011 126.055,14.5174979 126.055,14.9275 C126.055,15.322502 125.940001,15.6337489 125.71,15.86125 C125.479999,16.0887511 125.160002,16.2025 124.75,16.2025 C124.329998,16.2025 124.005001,16.0912511 123.775,15.86875 C123.544999,15.6462489 123.43,15.332502 123.43,14.9275 Z" id="?" fill="#0090FC"></path>
                <g id="Group-8-Copy" transform="translate(156.800000, 46.400000)" stroke="#0090FC" stroke-dasharray="0.1279999911785126,1.151999950408936" stroke-linecap="round">
                    <g id="Group-7" transform="translate(37.491713, 6.400000) scale(-1, 1) translate(-37.491713, -6.400000) translate(28.583425, 0.000000)">
                        <path d="M15.7602901,1.86100214 C10.5634127,1.86100214 6.35051118,5.87824446 6.35051118,10.833764" id="Oval-4" transform="translate(11.055401, 6.347383) rotate(-45.000000) translate(-11.055401, -6.347383) "></path>
                        <path d="M11.4839742,1.86100214 C6.28709676,1.86100214 2.07419524,5.87824446 2.07419524,10.833764" id="Oval-4" transform="translate(6.779085, 6.347383) rotate(-45.000000) translate(-6.779085, -6.347383) "></path>
                    </g>
                    <g id="Group-7">
                        <path d="M15.7602901,1.86100214 C10.5634127,1.86100214 6.35051118,5.87824446 6.35051118,10.833764" id="Oval-4" transform="translate(11.055401, 6.347383) rotate(-45.000000) translate(-11.055401, -6.347383) "></path>
                        <path d="M11.4839742,1.86100214 C6.28709676,1.86100214 2.07419524,5.87824446 2.07419524,10.833764" id="Oval-4" transform="translate(6.779085, 6.347383) rotate(-45.000000) translate(-6.779085, -6.347383) "></path>
                    </g>
                </g>
                <g id="Group-8-Copy-2" transform="translate(44.800000, 56.000000)" stroke="#0090FC" stroke-dasharray="0.1279999911785126,1.151999950408936" stroke-linecap="round">
                    <g id="Group-7" transform="translate(37.491713, 6.400000) scale(-1, 1) translate(-37.491713, -6.400000) translate(28.583425, 0.000000)">
                        <path d="M15.7602901,1.86100214 C10.5634127,1.86100214 6.35051118,5.87824446 6.35051118,10.833764" id="Oval-4" transform="translate(11.055401, 6.347383) rotate(-45.000000) translate(-11.055401, -6.347383) "></path>
                        <path d="M11.4839742,1.86100214 C6.28709676,1.86100214 2.07419524,5.87824446 2.07419524,10.833764" id="Oval-4" transform="translate(6.779085, 6.347383) rotate(-45.000000) translate(-6.779085, -6.347383) "></path>
                    </g>
                    <g id="Group-7">
                        <path d="M15.7602901,1.86100214 C10.5634127,1.86100214 6.35051118,5.87824446 6.35051118,10.833764" id="Oval-4" transform="translate(11.055401, 6.347383) rotate(-45.000000) translate(-11.055401, -6.347383) "></path>
                        <path d="M11.4839742,1.86100214 C6.28709676,1.86100214 2.07419524,5.87824446 2.07419524,10.833764" id="Oval-4" transform="translate(6.779085, 6.347383) rotate(-45.000000) translate(-6.779085, -6.347383) "></path>
                    </g>
                </g>
                <path d="M140,89.6 C141.325483,89.6 142.4,88.5254834 142.4,87.2 C142.4,85.8745166 141.325483,84.8 140,84.8 C138.674517,84.8 137.6,85.8745166 137.6,87.2 C137.6,88.5254834 138.674517,89.6 140,89.6 Z" id="Oval" stroke="#0090FC" fill="#D1ED64" stroke-dasharray="0.6399999856948853,0.9600000381469727"></path>
                <path d="M106.4,94.4 C107.725483,94.4 108.8,93.3254834 108.8,92 C108.8,90.6745166 107.725483,89.6 106.4,89.6 C105.074517,89.6 104,90.6745166 104,92 C104,93.3254834 105.074517,94.4 106.4,94.4 Z" id="Oval" stroke="#0090FC" fill="#D1ED64" stroke-dasharray="0.6399999856948853,0.9600000381469727"></path>
            </g>
        </g>
    </g>
</svg>