<?xml version="1.0" encoding="UTF-8"?>
<svg width="610px" height="210px" viewBox="0 0 610 210" version="1.1" xmlns="http://www.w3.org/2000/svg" xmlns:xlink="http://www.w3.org/1999/xlink">
    <!-- Generator: Sketch 43.1 (39012) - http://www.bohemiancoding.com/sketch -->
    <title>iPad Pro Portrait</title>
    <desc>Created with Sketch.</desc>
    <defs></defs>
    <g id="Page-1" stroke="none" stroke-width="1" fill="none" fill-rule="evenodd">
        <g id="iPad-Pro-Portrait">
            <g id="eha_blue_rgb" transform="translate(28.000000, 26.000000)">
                <g id="Group-3" fill="#FFFFFF">
                    <path d="M152.46282,85.564697 L113.927828,85.564697 L113.851935,85.591 L113.657049,85.8042424 L113.756366,85.9658182 L113.188573,86.1668485 L112.888748,86.5867576 L112.400595,86.5867576 L112.194466,86.6553333 L112.163546,86.7746364 L111.926497,87.0508182 L111.91338,87.2509091 L112.019256,87.3326364 L111.745665,87.7591212 L111.475823,88.0907273 L111.475823,88.4674242 L111.231278,88.9934848 L110.632566,89.8708788 L110.282145,90.0155455 L110.137855,90.0108485 L110.076016,90.0089697 L110.156594,90.1029091 L110.187513,90.3593636 L110.076016,90.5228182 L109.719974,91.6256667 L109.44451,92.3217576 L109.462312,92.7031515 L109.931725,93.1099091 L110.282145,93.5044545 L110.500455,93.4743939 L110.719702,94.0878182 L110.626007,94.2822727 L110.488275,94.2390606 L110.287767,94.3705758 L110.187513,94.771697 L110.218433,95.3851212 L110.469536,95.6293636 L110.426436,96.0182727 L110.20063,96.2061515 L110.256848,96.5762727 L110.438616,97.0159091 L110.344921,97.0403333 L110.444238,97.2404242 L110.513573,97.5663939 L110.706585,97.7354848 L110.544492,98.0041515 L110.7019,98.1929697 L110.869615,98.6880303 L110.812461,98.9388485 L111.400867,99.5090606 L111.831865,99.572 L112.189781,99.8754242 L112.189781,100.037939 L112.232881,100.065182 L112.351874,100.138455 L112.290035,100.528303 L112.201961,100.730273 L112.290035,100.805424 L111.951795,101.294848 L111.91338,101.471455 L111.976156,101.597333 L112.000517,101.697848 L111.875902,101.822788 L111.951795,102.414606 L112.139186,102.765939 L112.038932,102.866455 L112.038932,103.293879 L112.132627,103.394394 L112.14387,103.807727 L111.969597,103.983394 L112.031436,104.421152 L111.91338,105.243121 L111.844982,105.248758 L111.937741,105.387788 L111.945236,106.132727 L111.694133,106.171242 L111.681953,106.265182 L111.770026,106.383545 L112.100771,106.396697 L112.188844,106.465273 L112.2638,107.110636 L112.095149,107.353939 L111.919002,107.442242 L112.026751,107.590667 L111.976156,107.755061 L111.762531,107.755061 L111.524545,107.994606 L111.58732,108.082909 L111.662277,108.01903 L111.875902,108.044394 L111.725989,108.257636 L111.688511,108.597697 L111.474886,108.635273 L111.110412,109.100273 L111.110412,109.302242 L110.785289,109.754091 L110.509825,109.791667 L110.534186,110.105424 L109.430455,110.708515 L109.267426,110.721667 L109.180289,110.959333 L108.12528,111.52203 L107.71958,111.472242 L107.700841,111.559606 L107.219247,111.786 L106.5512,112.224697 L106.38817,112.117606 L106.381611,112.325212 L105.975911,112.820273 L105.775403,112.907636 L105.65641,112.643667 L105.588012,113.075788 L105.394063,113.126515 L105.331287,113.377333 L104.662303,113.772818 L104.650123,113.94097 L104.474912,114.091273 L104.319378,114.142 L104.338117,114.37403 L103.950219,114.386242 L103.061988,114.982758 L103.11352,115.359455 L102.824939,115.573636 L102.422986,115.573636 L102.260893,115.786879 L101.947014,115.584909 L101.770867,115.611212 L101.770867,115.748364 L101.933897,115.938121 L101.921716,116.201152 L101.797102,116.364606 L101.84676,116.616364 L101.67155,116.879394 L102.147522,117.521 L102.160639,117.747394 L101.947014,117.922121 L102.110981,117.999152 L102.286191,118.287545 L102.298371,118.677394 L102.494194,119.042818 L102.41268,120.082727 L102.506375,120.446273 L102.625368,120.427485 L102.625368,120.14003 L102.812758,119.73797 L102.838056,120.088364 L102.919571,120.076152 L102.899895,120.528939 L102.762163,120.700848 L102.736865,121.153636 L102.811821,121.216576 L102.611313,121.744515 L102.611313,122.021636 L102.461401,122.209515 L102.436103,122.548636 L102.34803,122.548636 L102.410806,122.83797 L102.662846,122.687667 L102.719063,122.878364 L102.512933,123.192121 L102.41268,123.617667 L101.806471,124.26303 L100.730849,124.751515 L99.2748249,125.040848 L98.718275,125.572545 L98.2938354,125.678697 L98.1682837,125.879727 L97.9565324,126.049758 L97.8375394,126.456515 L97.6688879,126.450879 L97.5124168,126.55703 L97.5808144,126.645333 L97.7438441,126.950636 L97.7251051,127.244667 L97.8750175,127.052091 L98.1130035,127.126303 L98.1870228,126.845424 L98.2938354,126.825697 L98.3050788,126.982576 L98.2366813,127.450394 L98.0736515,127.727515 L98.064282,127.98303 L98.0614711,128.065697 L97.8600263,128.330606 L97.9612172,128.368182 L97.7597723,128.970333 L97.7101138,129.487 L97.4618214,129.983939 L97.3006655,130.623667 L97.0617426,130.912061 L96.9877233,131.206091 L96.5304904,131.745303 L96.3871366,131.745303 L96.2859457,131.88997 L95.9495797,132.046848 L95.7940455,132.240364 L95.3930298,132.496818 L95.190648,132.892303 L94.8645884,133.269 L94.8645884,133.432455 L94.6762609,133.784727 L94.3633187,133.797879 L94.1122154,134.287303 L93.4226182,135.443697 L92.892303,135.95097 L92.8051664,136.413152 L92.4987828,136.546545 L92.2055166,136.896939 L92.0368651,136.903515 L91.9619089,137.034091 L90.2304203,138.745667 L90.017732,138.782303 L90.0242907,138.870606 L89.7432049,139.184364 L88.6057443,139.91803 L88.3621366,140.186697 L87.9620578,140.306939 L87.9620578,140.413091 L87.3268039,140.580303 L86.9632662,140.804818 L86.590359,140.838636 L86.4104641,140.701485 L85.9035727,140.721212 L85.4838179,140.84803 L85.3067338,141.154273 L85.5559632,141.361879 L85.5344133,141.449242 L84.9563135,141.462394 L84.6161996,141.287667 L84.3463573,141.259485 L84.113056,141.496212 L84.21331,141.704758 L84.1074343,141.807152 L83.3119615,141.637121 L83.0861559,141.465212 L82.3234764,141.270758 L81.8231436,141.370333 L81.8175219,141.489636 L81.5551751,141.583576 L81.1672767,141.376909 L80.2799825,141.370333 L80.0166988,141.489636 L79.9361208,141.765818 L79.7609107,141.684091 L79.5547811,141.741394 L79.3730123,141.890758 L79.2727583,142.024152 L78.8792382,142.048576 L78.6234501,142.160364 L78.1352977,141.985636 L77.7230385,142.010061 L77.6424606,142.130303 L77.2414448,142.042 L76.8863398,142.449697 L76.5855779,142.505121 L76.4797023,142.742788 L76.3044921,142.680788 L76.1470841,142.756879 L75.3225657,142.36797 L75.1548511,142.467545 L75.1351751,142.067364 L74.8222329,141.903909 L74.5851839,142.024152 L74.4287128,141.954636 L74.5664448,141.84097 L74.4793082,141.496212 L74.0914098,141.427636 L73.8159457,141.671879 L73.8356217,141.979061 L73.6229335,141.822182 L73.6041944,141.484 L73.7231874,141.202182 L73.6482312,140.781333 L73.8730998,140.413091 L73.5788967,139.879515 L73.2856305,139.616485 L73.0354641,139.184364 L73.0354641,138.756939 L73.2097373,138.595364 L73.3727671,138.763515 L73.5226795,138.763515 L73.7166287,138.550273 L73.8159457,138.037364 L73.6360508,137.479364 L73.6660333,137.228545 L73.1900613,136.435697 L73.176944,136.073091 L72.7122154,135.468121 L72.5004641,134.501485 L72.1500438,133.583697 L72.1622242,133.118697 L71.8099299,132.100394 L71.2721191,131.711485 L71.1840455,131.171333 L71.1718651,131.162879 L70.6068827,130.757061 L70.5197461,130.529727 L70.1177933,130.127667 L69.7177145,129.335758 L69.4160158,128.920545 L69.3850963,128.279879 L69.1218126,127.991485 L69.1218126,127.653303 L69.2970228,127.515212 L69.1480473,127.221182 L68.9222417,127.101879 L68.8023117,126.231061 L68.6018039,125.980242 L68.8388529,125.829 L68.6889405,125.351788 L68.7395359,124.647242 L68.2504466,123.340545 L68.1998511,122.058273 L67.9618651,121.203424 L68.1754904,121.116061 L68.1754904,120.425606 L67.2985026,119.155545 L67.2985026,118.690545 L66.4702364,117.508788 L66.3446848,116.766667 L65.5248511,114.920758 L64.9973468,114.014242 L64.0182312,113.008152 L63.9179772,111.422455 L63.9929335,110.892636 L63.9666988,110.087576 L64.0435289,109.558697 L64.0435289,108.955606 L64.4951401,108.401364 L64.595394,107.77197 L64.9973468,107.243091 L64.9973468,105.908212 L65.1481961,105.783273 L65.1725569,105.22903 L66.0767163,104.42397 L66.102014,104.02097 L66.8300263,103.466727 L67.0305342,103.466727 L67.6835902,102.233303 L67.6835902,100.773485 L67.4821454,100.521727 L67.50838,100.244606 L66.8806217,99.2122121 L66.8806217,98.7847879 L66.6285814,98.3817879 L66.6285814,97.7777576 L66.3278196,97.6274545 L66.855324,96.9473333 L66.9302802,96.2935152 L66.4290105,95.5880303 L66.3962172,94.2935455 L65.4798774,93.2649091 L65.4798774,93.0253636 L65.3046673,92.8111818 L65.7815762,92.5481515 L65.5801313,92.3969091 L65.1032224,92.384697 L65.0170228,92.1902424 L64.9280123,91.9948485 L65.1172767,91.6425758 L65.0039054,91.1653636 L64.8033975,90.9455455 L64.6150701,90.737 L64.6272504,90.4100909 L64.3639667,90.121697 L64.3517863,89.8210909 L63.8505166,89.5063939 L63.7371454,89.2922121 L63.4092119,88.9728182 L63.3361296,88.9023636 L63.0484851,88.7896364 L62.9978897,88.5125152 L62.397303,88.2241212 L62.2464536,87.8596364 L61.4931436,87.2565455 L61.0424694,86.7783939 L61.168021,86.6900909 L60.7417075,86.3378182 L60.5655604,85.9479697 L60.315394,85.6971515 L60.315394,85.1955152 L60.0146322,84.8056667 L60.0146322,84.5407576 L59.8263047,84.3904545 L59.4749475,83.6614848 L59.5002452,83.4858182 L59.9012609,83.6239091 L60.2151401,83.359 L60.2900963,82.4430909 L60.3406918,81.9780909 L60.5280823,82.1659697 L61.2551576,81.990303 L60.7417075,81.8653636 L60.414711,81.3364848 L60.7660683,81.286697 L60.7876182,80.8921515 L60.791366,80.7953939 L60.3781699,80.5821515 L60.791366,79.7911818 L61.3179335,79.1993636 L61.1923818,78.9100303 L61.2579685,78.8452121 L61.5193783,78.5840606 L61.2813923,78.332303 L61.5062609,77.7545758 L61.4444221,77.1129697 L61.1427233,76.6855455 L61.1427233,76.2205455 L61.2551576,76.007303 L61.0049912,75.6052424 L60.5159019,75.8184848 L60.3650525,75.6428182 L60.0764711,75.6052424 L59.8769002,74.5878788 L59.6136165,74.7250303 L59.3887478,74.6179394 L59.3756305,74.612303 L59.2500788,74.6874545 L58.949317,74.373697 L58.7853503,74.838697 L58.3590368,74.927 L58.1088704,74.8123939 L57.34338,75.0895152 L57.106331,74.989 L56.7793345,75.1900303 L55.1752715,75.2783333 L54.5737478,75.1148788 L54.1474343,74.7250303 L53.9600438,74.1463636 L53.7342382,74.0345758 L53.7464186,73.505697 L53.3322855,72.7015758 L52.6567426,72.0355455 L51.4405779,71.3948788 L50.9140105,71.6081212 L50.2665762,71.4709697 L50.1991156,71.4568788 L49.0588441,71.8467273 L48.4638792,71.7687576 L48.2933538,71.7462121 L47.4032487,72.2995152 L47.2636427,72.318303 L46.3632312,72.4385455 L45.5724431,72.8152424 L44.7076357,73.5432727 L43.7050963,73.6315758 L42.2753065,74.3229697 L41.6241243,74.0345758 L40.7340193,73.908697 L40.6496935,73.753697 L40.4079597,73.3178182 L40.0950175,73.3929697 L40.0200613,73.8081818 L39.2555079,73.4427576 L38.4281786,73.7076667 L36.2338354,73.7198788 L35.607014,73.8081818 L35.5948336,73.970697 L34.4536252,74.3981212 L34.3280736,74.5615758 L33.9645359,74.5615758 L33.38831,75.0641515 L33.2309019,75.0068485 L31.5959194,74.4103333 L30.3291594,73.4681212 L29.9787391,73.4305455 L28.949965,72.4000303 L28.8796935,72.3521212 L28.8787566,72.3521212 L28.2603678,71.9340909 L28.0102014,71.9218788 L27.5838879,71.3197273 L27.3084238,71.1929091 L27.4339755,70.954303 L27.3824431,70.9261212 L27.1828722,70.8162121 L26.5560508,70.8162121 L25.6687566,70.3559091 L25.2939755,70.2619697 L25.3876708,70.0609394 L25.1496848,69.7922727 L24.9435552,69.5921818 L25.0812872,69.3037879 L25.0691068,69.227697 L24.7374256,69.3526364 L24.3692032,68.9515152 L24.3692032,68.576697 L24.1996147,68.0515758 L23.8857356,68.0008485 L23.7601839,67.7368788 L23.9859895,67.3103939 L23.7480035,67.1835758 L23.7723643,66.9327576 L23.9485114,66.6180606 L23.9269615,66.6011515 L23.6852277,66.4038788 L23.2345534,66.1652727 L23.1080648,65.662697 L22.7576445,65.6504848 L22.6067951,65.4992424 L22.6199124,65.2362121 L22.7454641,65.1103333 L22.469063,64.9853939 L22.3191506,65.197697 L22.0689842,65.0981212 L21.6923292,65.0727576 L21.3156743,64.5570303 L21.4665236,63.9417273 L21.2032399,63.6514545 L21.1732574,63.6617879 L20.7769264,63.7773333 L20.7019702,63.6768182 L20.726331,63.4006364 L20.0245534,63.4767273 L20.4133888,63.049303 L20.2250613,63.0361515 L20.3253152,62.8849091 L20.1754028,62.7223939 L19.8990018,62.6848182 L19.7987478,62.5457879 L20.6260771,62.5335758 L20.7638091,62.4330606 L20.3131349,62.1822424 L19.9121191,62.2696061 L19.4858056,62.4208485 L19.2974781,62.3823333 L19.2103415,62.2066667 L18.8711646,62.1822424 L18.5704028,61.8797576 L18.8711646,61.654303 L18.646296,61.6289394 L18.0944308,61.6026364 L17.9566988,61.3518182 L17.9566988,61.3452424 L17.9688792,61.0249091 L17.8433275,60.9121818 L18.1197285,60.9882727 L18.2949387,61.0512121 L18.6584764,60.8248182 L18.0944308,60.6228485 L17.7177758,60.8248182 L17.6306392,60.6989394 L17.793669,60.5232727 L17.793669,60.0197576 L17.6053415,59.7811515 L17.8939229,59.4918182 L18.2321629,59.918303 L18.6837741,59.9060909 L18.9339405,59.6674848 L18.5582224,59.768 L18.1319089,59.5547576 L18.0063573,59.1658485 L18.2321629,59.0014545 L17.8189667,58.7384242 L17.9566988,58.7121212 L17.9566988,58.373 L17.6428196,58.3232121 L17.279282,57.6825455 L16.7152364,57.2297576 L17.7561909,56.2743939 L18.1825044,55.494697 L18.2546497,54.9545455 L18.3455342,54.276303 L18.6078809,53.2448485 L19.0088967,52.6793333 L19.122268,51.4853636 L18.7962084,49.7643939 L18.3202364,49.0344848 L18.5085639,48.8963939 L18.7343695,48.8963939 L18.8468039,48.3308788 L18.7212522,47.9795455 L18.9339405,47.7653636 L18.4579685,47.0495455 L18.2574606,47.2120606 L18.1197285,47.1369091 L17.9819965,46.7348485 L17.6175219,47.1500606 L17.5931611,46.5084545 L17.7561909,46.1449091 L17.7177758,45.5286667 L17.8939229,45.1763939 L17.8686252,44.7611818 L18.1066112,44.5103636 L18.3071191,44.4596364 L18.8336865,43.493 L19.122268,43.3793333 L18.9217601,43.2280909 L18.9470578,43.0646364 L19.6113573,42.1853636 L19.5738792,41.9336061 L19.9870753,41.0280303 L20.2250613,40.9030909 L21.002732,40.1741212 L21.0655079,39.6969091 L22.0811646,38.2126667 L21.9424956,37.7861818 L22.3941068,37.5222121 L22.5065412,37.195303 L23.6608669,36.5922121 L23.9616287,36.5790606 L23.9616287,35.9261818 L24.6034413,35.0271818 L25.0016462,34.4682424 L26.6188266,34.1657576 L27.7722154,33.1230303 L28.2987828,33.0732424 L28.7747548,32.5575152 L28.8871891,32.0925152 L29.9281436,30.911697 L30.0405779,30.4335455 L29.8531874,30.1949394 L29.7154553,30.0559091 L29.9281436,29.4406061 L29.6526795,28.887303 L29.6770403,28.5228182 L30.1042907,27.6426061 L30.7685902,27.0395152 L30.8135639,26.6383939 L30.5512172,26.0616061 L31.3064011,25.5167576 L31.5378284,25.1597879 L31.9444658,25.0282727 L32.6012697,24.5895758 L32.7755429,24.583 L33.2318389,24.0945152 L33.844606,23.8869091 L34.2072067,23.6304545 L34.3824168,23.617303 L35.1376007,22.9165152 L35.3577846,22.4843939 L35.4327408,21.8005152 L35.7887828,21.3308182 L35.8581173,20.429 L36.1710595,20.0767273 L36.4343433,20.1020909 L36.5739492,19.9743333 L36.8925131,19.8625455 L36.9927671,19.9874848 L36.9299912,20.0823636 L36.9299912,20.269303 L37.0049475,20.5323333 L37.1867163,20.6704242 L37.6430123,21.1589091 L38.005613,21.235 L38.5059457,21.1589091 L38.8554291,20.9776061 L39.1308932,20.9963939 L39.6612084,21.1410606 L40.1933975,21.0339697 L40.4876007,20.7145758 L40.4969702,20.7108182 L40.6140893,20.7493333 L40.7049737,21.0649697 L40.9111033,21.2782121 L41.848993,21.3533636 L42.0851051,21.3420909 L42.5310946,21.3223636 L43.037049,21.1589091 L43.355613,20.8141515 L43.4118301,20.615 L43.6188967,20.4261818 L44.0114799,20.2260909 L44.4808932,20.1941515 L44.5745884,20.0626364 L44.7497986,19.9367576 L44.9868476,19.9311212 L45.0927233,20.0316364 L45.2744921,20.0316364 L45.4815587,19.7620303 L45.4993608,19.5046364 L45.8938179,19.2603939 L46.1243082,19.2538182 L46.5899737,19.1880606 L47.3920053,18.5727576 L47.7564799,18.6225455 L48.3954816,18.5981212 L48.7459019,18.4722424 L49.1347373,18.6854848 L49.3849037,18.6986364 L49.8121541,18.2834242 L50.1241594,18.409303 L50.4764536,18.409303 L50.6394834,18.0701818 L50.8531086,18.0194545 L51.1529335,18.1209091 L51.3150263,18.0823939 L51.6673205,18.1331212 L52.1058144,18.0579697 L52.3072592,18.1209091 L52.7569965,18.1453333 L52.9706217,18.4853939 L53.3472767,18.4853939 L53.6855166,18.2204848 L53.9478634,18.2204848 L54.1624256,18.3087879 L54.312338,18.0579697 L54.6505779,17.9950303 L54.6758757,17.7686364 L55.0637741,17.6803333 L55.302697,17.856 L55.3401751,18.1209091 L55.9042207,18.1829091 L56.1918651,17.9067273 L56.2059194,17.7310606 L56.6565937,17.8945152 L57.0201313,18.2082727 L57.7228459,18.0072424 L57.9730123,18.0579697 L58.4377408,17.9696667 L58.5239405,18.0692424 L58.5248774,18.0701818 L58.9502539,17.6934848 L59.5517776,17.391 L59.9912084,17.3036364 L60.1664186,17.5422424 L60.1795359,17.329 L60.5430736,17.2529091 L60.7566988,17.4417273 L60.7182837,17.7310606 L60.8803765,17.7930606 L61.1314799,18.3585758 L61.2945096,18.4600303 L61.4959545,18.2458485 L62.0843608,17.705697 L62.2352102,17.8193636 L62.2352102,18.1453333 L61.9091506,18.635697 L61.8838529,18.9372424 L61.4828371,19.2134242 L61.4078809,19.654 L61.8088967,20.1941515 L62.297986,20.3829697 L62.2848687,20.9231212 L62.4104203,21.0114242 L62.4731961,21.2500303 L62.297986,21.4388485 L62.435718,21.6267273 L62.3101664,21.7779697 L61.8332574,22.2561212 L61.0068651,22.8338485 L60.8438354,23.3242121 L61.1071191,23.8014242 L61.6336865,24.1659091 L61.8726095,24.1161212 L61.9475657,24.3669394 L62.1714974,24.4674545 L62.297986,24.3669394 L62.2726883,24.2410606 L62.3729422,24.1659091 L62.6240455,24.304 L62.6362259,24.5426061 L62.6868214,24.7192121 L63.1759107,25.0198182 L63.3717338,25.0592727 L63.7511996,25.1334848 L64.0650788,25.4350303 L64.8792907,25.610697 L66.0467338,25.3974545 L66.5592469,25.5994242 L67.4755867,25.6238485 L68.0396322,25.9883333 L69.1049475,26.1386364 L69.5181436,26.6919394 L69.5059632,27.2076667 L70.0203503,28.2006061 L70.5722154,28.4767879 L71.2112172,28.4767879 L71.3864273,28.3762727 L71.9242382,28.4392121 L73.1535201,28.9549394 L73.9208844,29.3504242 L74.4202802,29.7571818 L75.058345,30.2841818 L75.7835464,30.5725758 L76.1264711,30.4401212 L76.6895797,29.9638485 L76.7467338,29.8079091 L77.177732,29.3692121 L77.3154641,28.9925152 L77.1149562,28.3264848 L76.8151313,27.8614848 L76.8638529,27.0066364 L77.0774781,26.8431818 L77.177732,26.3903939 L77.5787478,26.0005455 L78.2814623,25.6614242 L79.0956743,25.5862727 L79.6100613,25.322303 L79.735613,25.322303 L80.0869702,25.4979697 L80.2621804,25.3476667 L80.3989755,25.4228182 L80.9770753,25.5731212 L81.339676,25.5731212 L82.0414536,25.9629697 L82.0545709,26.164 L81.9290193,26.2147273 L82.0545709,26.4035455 L82.6439142,26.567 L83.0824081,26.6036364 L83.3082137,26.8046667 L84.4241243,26.943697 L84.7248862,26.8929697 L85.024711,26.943697 L85.262697,27.2076667 L85.4135464,27.6707879 L85.4135464,27.6726667 L85.5765762,27.6228788 L86.4048424,27.5843636 L87.0438441,27.7976061 L88.334965,27.8990606 L88.8737128,28.0127273 L89.3384413,28.338697 L89.5380123,28.2128182 L89.7254028,28.2128182 L90.2023117,28.5143636 L90.7663573,28.4767879 L91.1551926,28.5143636 L91.7567163,28.892 L92.3095184,28.892 L92.3713573,28.7407576 L92.7227145,28.4016364 L93.1480911,28.2635455 L93.3617163,28.1498788 L93.803958,27.9084545 L94.0035289,27.7647273 L94.4720053,27.7525152 L94.8036865,27.7083636 L94.5422767,27.8210909 L94.2218389,27.8586667 L94.2143433,27.935697 L94.3277145,28.0493636 L94.6903152,27.8990606 L95.0041944,27.935697 L95.3171366,27.8990606 L95.2665412,27.7853939 L95.0285552,27.7346667 L95.1166287,27.6350909 L95.6806743,27.7853939 L96.0189142,27.8990606 L96.2943783,27.8614848 L96.4330473,27.9986364 L96.2700175,28.0747273 L96.3449737,28.3640606 L96.6832137,28.5519394 L96.9099562,28.892 L96.9221366,28.6778182 L96.696331,28.338697 L96.7712872,28.0540606 L97.3746848,28.4824242 L98.202014,28.2560303 L99.2570228,28.431697 L99.708634,28.2560303 L99.9231961,27.9657576 L100.106839,28.0493636 L100.431961,28.5303333 L100.604361,29.1456364 L101.072837,29.8567576 L101.437312,30.721 L101.293021,31.1258788 L101.509457,31.6895152 L101.445744,31.7909697 L101.194641,32.7087576 L101.1581,33.0600909 L100.956655,33.5626667 L101.107504,33.7139091 L100.981953,34.3038485 L100.756147,34.5180303 L100.694308,34.7190606 L100.642776,34.6194848 L100.205219,34.3799394 L99.4153678,33.537303 L99.3141769,33.2235455 L98.875683,33.0225152 L98.7126532,32.6956061 L98.7126532,32.368697 L98.0736515,31.8285455 L98.0361734,31.6143636 L97.8862609,31.438697 L97.7719527,31.0112727 L97.6098599,31.0112727 L97.5470841,30.911697 L97.4721278,31.0244242 L97.4964886,31.2498788 L97.4590105,31.4772121 L97.8103678,31.9290606 L97.8103678,32.306697 L98.4240718,33.0356667 L98.499028,33.2996364 L99.4650263,34.1159697 L99.6027583,34.3799394 L99.5399825,34.6439091 L99.5652802,34.8825152 L100.130263,35.4987576 L100.130263,35.6875758 L100.305473,35.9008182 L100.368249,36.5414848 L100.542522,36.8186061 L100.531278,37.1699394 L101.571296,38.7030303 L101.647189,39.1680303 L101.921716,39.3446364 L102.581331,40.3122121 L102.725622,40.7574848 L102.913012,40.9838788 L102.931751,40.8702121 L103.040438,40.9528788 L103.311217,41.3737273 L103.468625,41.4019091 L103.658827,41.6038788 L103.170674,41.5728788 L103.046996,41.4667273 L103.011392,41.6160909 L103.118205,41.8377879 L103.139755,42.2492424 L103.080727,42.4812727 L103.337452,43.3455152 L103.849965,43.6780606 L104.162907,43.6902727 L104.362478,43.5963333 L104.575166,44.0359697 L104.919965,44.1355455 L105.018345,44.3422121 L105.406243,44.7367576 L105.693888,44.8504242 L105.689203,44.8842424 L105.669527,45.0251515 L105.632049,45.1763939 L105.720123,45.3003939 L105.675149,45.3896364 L105.737925,45.4647879 L105.731366,45.5333636 L105.799764,45.6263636 L105.911261,46.0876061 L106.227951,46.4708788 L106.22514,46.6296364 L106.144562,46.6324545 L106.101462,46.5244242 L105.970289,46.3647273 L105.915009,46.4173333 L105.959046,46.7226364 L106.359124,47.9166061 L106.448135,48.5704242 L106.349755,49.1866667 L106.57556,49.9006061 L106.873511,50.468 L107.149912,50.53 L107.876988,51.0203636 L107.876988,51.3350606 L108.215228,51.3482121 L108.578765,51.5360909 L108.578765,51.7624848 L108.704317,51.7624848 L109.092215,52.177697 L109.781813,54.0001212 L110.007618,55.1940909 L110.13317,55.2316667 L110.221243,55.6703636 L110.221243,55.8216061 L110.447049,55.8967576 L110.584781,56.2499697 L110.671918,56.7647576 L110.960499,56.8399091 L110.935201,56.3749091 L110.860245,56.3871212 L110.885543,56.048 L111.011095,55.9982121 L111.311856,56.4256364 L111.198485,56.5515152 L111.475823,56.9704848 L111.669772,57.1649394 L111.831865,57.0522121 L112.07641,57.0202727 L112.182285,57.0832121 L112.394974,57.0071212 L112.701357,57.3518788 L112.857828,57.5463333 L113.319746,57.6534242 L113.42,57.8281515 L113.983109,58.4547273 L114.220158,58.8746364 L114.563082,59.019303 L114.801068,59.3142727 L114.9388,59.3142727 L114.950981,59.2137576 L115.063415,59.369697 L115.338879,60.0592121 L115.545009,60.1165152 L115.782058,60.4227576 L115.720219,60.5232727 L115.869194,60.8492424 L116.045342,60.8492424 L116.226173,60.9431818 L116.357347,60.8248182 L116.413564,60.9187576 L116.500701,60.9591515 L116.508196,60.9619697 L116.500701,61.0869091 L116.88204,61.4636061 L116.988853,61.4636061 L116.939194,61.6195455 L116.996349,62.1333939 L116.82676,62.2029091 L116.520377,62.5476667 L116.289886,62.553303 L116.120298,62.8041212 L115.763319,62.8041212 L115.945088,63.0295758 L116.057522,63.0549394 L116.314247,62.9487879 L116.745245,62.9422121 L116.801462,63.0596364 L116.900779,63.2681818 L117.006655,63.2869697 L118.013879,64.3973333 L118.131935,64.6472121 L118.294965,64.6904242 L118.707224,65.0661818 L119.113862,65.166697 L119.595455,65.1037576 L119.745368,64.9224545 L120.176366,64.6594242 L120.446208,64.6528485 L121.001821,64.2085152 L121.163914,64.2028788 L121.264168,64.2968182 L121.714842,64.2770909 L121.870377,64.2207273 L122.201121,64.3776061 L122.682715,64.3212424 L123.689002,63.6946667 L124.014124,63.6317273 L124.339247,63.7754545 L124.589413,63.6946667 L125.037277,63.7143939 L125.500131,63.483303 L126.022951,63.4466667 L126.180359,63.5396667 L126.351821,63.5368485 L127.157601,63.3874848 L127.463984,63.142303 L127.952137,63.0737273 L128.089869,63.1996061 L128.139527,63.0624545 L128.648292,63.0013939 L128.943433,62.7073636 L128.99965,62.7515152 L129.126138,62.5110303 L129.086786,62.4706364 L129.288231,62.2714848 L129.428774,62.2902727 L129.409098,62.2151212 L129.607732,62.3560303 L130.034046,62.5025758 L130.224247,62.4866061 L130.299203,62.5335758 L130.127741,62.7890909 L130.021865,63.0530606 L130.003126,63.3217273 L129.907557,63.4870606 L129.987198,63.6336061 L130.20176,63.6392424 L130.217688,63.7388182 L130.043415,63.8853636 L129.895377,64.2310606 L130.043415,64.4339697 L130.096821,64.7148485 L129.975018,64.9750606 L130.198949,64.945 L130.171778,64.8642121 L130.277653,64.8923939 L130.373222,65.0915455 L130.267347,65.1469697 L130.23268,65.0821515 L130.021865,65.0849697 L129.877574,65.1234848 L129.633967,65.5368182 L129.76514,65.755697 L129.702364,66.1511818 L129.595552,66.3259091 L129.621786,66.7589697 L129.049308,67.5612121 L128.658599,68.3888182 L128.42155,68.6828485 L128.28944,68.6574848 L128.251961,68.6978788 L152.461883,68.6978788 C152.732662,68.6978788 152.937855,68.4620909 152.922863,68.1943636 C152.898503,67.9848788 152.865709,67.7791515 152.839475,67.5696667 C152.678319,66.2610909 152.481559,64.9647273 152.254816,63.6768182 C152.185482,63.2813333 152.116147,62.8839697 152.040254,62.4894242 C151.750736,60.9845152 151.430298,59.489 151.055517,58.0169697 C151.026471,57.9051818 150.991804,57.7962121 150.962758,57.6844242 C150.605779,56.3110303 150.203827,54.9554848 149.773765,53.6121515 C149.651025,53.2260606 149.523599,52.8427879 149.395236,52.4595152 C148.951121,51.1471818 148.481708,49.8470606 147.971068,48.5666667 C147.920473,48.4407879 147.876436,48.3111515 147.825841,48.1862121 C147.262732,46.7977879 146.650902,45.4356667 146.010963,44.0904545 C145.844186,43.7372424 145.669912,43.3887273 145.497513,43.0402121 C144.9419,41.9148182 144.361926,40.8053939 143.753844,39.7128788 C143.620797,39.4742727 143.496182,39.2300303 143.360324,38.9942424 C142.630438,37.7138485 141.8612,36.4597576 141.061042,35.2272727 C140.865219,34.9257273 140.660963,34.6307576 140.461392,34.3329697 C139.790534,33.3287576 139.095315,32.3414545 138.378546,31.3710606 C138.175228,31.0958182 137.976594,30.8168182 137.769527,30.5434545 C136.88317,29.3776667 135.965893,28.236303 135.015823,27.1240606 C134.822811,26.8976667 134.621366,26.6797273 134.425543,26.4552121 C133.619764,25.5336667 132.792434,24.6327879 131.944492,23.750697 C131.681208,23.4773333 131.420736,23.2020909 131.153704,22.9334242 C130.121182,21.890697 129.065236,20.8705152 127.974623,19.8879091 C127.837828,19.7639091 127.693538,19.6474242 127.554869,19.5243636 C126.57669,18.6554242 125.573214,17.8156061 124.550998,16.9973939 C124.241804,16.7493939 123.932609,16.5042121 123.619667,16.2609091 C122.479396,15.376 121.320385,14.5117576 120.129518,13.6907273 C120.098599,13.6691212 120.069553,13.6465758 120.038634,13.6259091 C118.817785,12.7870303 117.564142,11.9960606 116.294571,11.2276364 C115.958205,11.0247273 115.619028,10.8255758 115.278914,10.6273636 C114.170499,9.97918182 113.046156,9.35636364 111.902137,8.76360606 C111.701629,8.65933333 111.505806,8.54754545 111.303424,8.44421212 C109.985131,7.77630303 108.641541,7.15160606 107.281086,6.55884848 C106.93535,6.40854545 106.585867,6.26669697 106.238257,6.12109091 C105.103608,5.64575758 103.954904,5.19766667 102.792145,4.77681818 C102.48951,4.6659697 102.188748,4.54854545 101.883301,4.44239394 C100.475061,3.9529697 99.0480823,3.503 97.6033012,3.09436364 C97.2809895,3.00324242 96.953056,2.92433333 96.6288704,2.8369697 C95.428634,2.51381818 94.2171541,2.22072727 92.9953678,1.95581818 C92.6233975,1.8759697 92.2533012,1.79048485 91.8794571,1.71533333 C90.3887653,1.41660606 88.8849562,1.15357576 87.363345,0.942212121 C87.1141156,0.907454545 86.8602014,0.884909091 86.6090981,0.852030303 C85.2954904,0.682939394 83.9697023,0.549545455 82.6364186,0.447151515 C82.2241594,0.416151515 81.8119002,0.384212121 81.398704,0.359787879 C79.8321191,0.264909091 78.2561646,0.202909091 76.6661559,0.203848485 C76.5687128,0.203848485 76.4740806,0.210424242 76.3775744,0.211363636 C74.8784501,0.217939394 73.3680823,0.279 71.8511559,0.372939394 C71.3311471,0.405818182 70.8148862,0.448090909 70.2976883,0.49130303 C69.2351839,0.577727273 68.1670578,0.696090909 67.0970578,0.826666667 C66.4168301,0.912151515 65.7319177,0.983545455 65.0563748,1.08687879 C65.0048424,1.09439394 64.9514361,1.10660606 64.8989667,1.11412121 C30.7245534,6.417 4.002662,34.3263939 0.413196147,69.1234242 C0.397267951,69.2765455 0.385087566,69.4287273 0.371033275,69.5827879 C0.27265324,70.5926364 0.198633975,71.6109394 0.139605954,72.6320606 C0.122740806,72.9336061 0.103064799,73.2351515 0.0899474606,73.5357576 C0.0356042032,74.7118788 0.000936952715,75.892697 0,77.0819697 C0,77.1777879 0.00468476357,77.2726667 0.00468476357,77.3694242 C0.00843257443,78.4628788 0.0384150613,79.5497576 0.0871366025,80.6319394 C0.102127846,80.9635455 0.119929947,81.2932727 0.138669002,81.6239394 C0.193949212,82.5849394 0.267031524,83.5431212 0.356978984,84.4956667 C0.377591944,84.718303 0.39352014,84.9418788 0.416007005,85.1645152 C0.535,86.308697 0.680227671,87.4444242 0.847942207,88.5735758 C0.890105079,88.8535152 0.937889667,89.1306364 0.982863398,89.408697 C1.12621716,90.3039394 1.28456217,91.1944848 1.45883538,92.0803333 C1.5178634,92.3809394 1.57501751,92.6815455 1.63685639,92.9821515 C1.86922067,94.0906364 2.11845009,95.1925455 2.397662,96.2831818 C2.43045534,96.4118788 2.46793345,96.5377576 2.50166375,96.6655152 C2.75651489,97.6406061 3.03197898,98.6072424 3.32337128,99.5663636 C3.4161296,99.8735455 3.51169877,100.177909 3.6082049,100.482273 C3.89397548,101.381273 4.19380035,102.273697 4.51142732,103.158606 C4.57701401,103.340848 4.63791594,103.526848 4.70443958,103.709091 C5.08765324,104.752758 5.49616462,105.784212 5.92247811,106.805333 C6.03116462,107.066485 6.14547285,107.323879 6.25790718,107.583152 C6.60364273,108.388212 6.96343257,109.187636 7.33727671,109.977667 C7.46189142,110.243515 7.58463222,110.509364 7.71299475,110.772394 C8.19458844,111.764394 8.69211033,112.746061 9.21399299,113.712697 C9.28988616,113.851727 9.3704641,113.987939 9.44635727,114.12603 C9.907338,114.967727 10.3842469,115.797212 10.8752102,116.619182 C11.0354291,116.886909 11.1975219,117.153697 11.3605517,117.418606 C11.8580736,118.227424 12.3677758,119.026848 12.8934063,119.815 C12.9842907,119.953091 13.0723643,120.094 13.1651226,120.231152 C13.7778897,121.137667 14.4131436,122.029152 15.0624518,122.907485 C15.2329772,123.135758 15.4072504,123.362152 15.5787128,123.589485 C16.1024694,124.279939 16.6365324,124.962879 17.1818389,125.633606 C17.3589229,125.852485 17.5341331,126.073242 17.714028,126.290242 C18.4092469,127.129121 19.120394,127.954848 19.8502802,128.763667 C19.973021,128.898939 20.0995096,129.029515 20.2222504,129.162909 C20.8500088,129.847727 21.4899475,130.520333 22.1411296,131.180727 C22.3594396,131.402424 22.5786865,131.622242 22.7988704,131.841121 C23.4884676,132.524061 24.1902452,133.196667 24.9051401,133.854242 C25.0035201,133.944424 25.0972154,134.038364 25.1955954,134.126667 C26.0041856,134.862212 26.8315149,135.575212 27.6700876,136.276 C27.8940193,136.462939 28.1216988,136.645182 28.3475044,136.830242 C29.0202364,137.377909 29.702338,137.916182 30.3928722,138.441303 C30.6083713,138.604758 30.8210595,138.77197 31.0384326,138.934485 C31.9144834,139.585485 32.8027145,140.221455 33.7068739,140.835818 C33.8745884,140.950424 34.0479247,141.058455 34.2165762,141.172121 C34.9755079,141.680333 35.7438091,142.173515 36.5205429,142.653545 C36.7866375,142.817 37.0517951,142.980455 37.3188266,143.141091 C38.1808231,143.659636 39.0521891,144.16503 39.9357356,144.650697 C40.025683,144.699545 40.1128196,144.752152 40.203704,144.801 C41.1697023,145.326121 42.1525657,145.826818 43.1438616,146.311545 C43.4127671,146.443061 43.6844834,146.569879 43.9552627,146.697636 C44.7507356,147.075273 45.5518301,147.437879 46.3622942,147.788273 C46.6059019,147.895364 46.8495096,148.004333 47.0949912,148.107667 C48.1125219,148.535091 49.141296,148.942788 50.1803765,149.327 C50.3921278,149.405909 50.607627,149.477303 50.8203152,149.553394 C51.6785639,149.861515 52.5424343,150.155545 53.4147373,150.433606 C53.7164361,150.529424 54.0181349,150.626182 54.3217075,150.719182 C55.342986,151.032 56.3717601,151.328848 57.4108406,151.598455 C57.4670578,151.613485 57.522338,151.630394 57.5794921,151.645424 C58.6701051,151.926303 59.7728984,152.175242 60.8813135,152.409152 C61.1895709,152.47397 61.4987653,152.534091 61.8079597,152.595152 C62.6990018,152.771758 63.5947285,152.931455 64.497014,153.076121 C64.7565499,153.118394 65.013275,153.164424 65.2737478,153.203879 C66.399028,153.37297 67.5318039,153.517636 68.6711384,153.636939 C68.9222417,153.662303 69.174282,153.681091 69.4263222,153.704576 C70.3557793,153.792879 71.2899212,153.864273 72.2287478,153.918758 C72.5519965,153.936606 72.8743082,153.956333 73.1984939,153.971364 C74.3687478,154.02397 75.5436865,154.060606 76.7279947,154.060606 C77.9600876,154.060606 79.1846848,154.031485 80.4027233,153.973242 C80.864641,153.952576 81.319063,153.906545 81.7791068,153.876485 C82.5324168,153.826697 83.2885377,153.786303 84.0362259,153.715848 C84.5215674,153.669818 84.9994133,153.600303 85.481007,153.544879 C86.194965,153.463152 86.9126708,153.391758 87.6200701,153.291242 C88.1410158,153.21703 88.6535289,153.117455 89.1707268,153.032909 C89.8312785,152.924879 90.4955779,152.828121 91.1505079,152.703182 C91.6883187,152.600788 92.217697,152.47397 92.7517601,152.359364 C93.3767075,152.22597 94.0054028,152.103848 94.6247285,151.955424 C95.1672242,151.825788 95.7003503,151.671727 96.2381611,151.529879 C96.8387478,151.372061 97.4440193,151.225515 98.0380473,151.052667 C98.5730473,150.898606 99.0977408,150.721061 99.628993,150.553848 C100.216462,150.370667 100.808616,150.196879 101.389527,149.998667 C101.910473,149.822061 102.421112,149.62197 102.936436,149.433152 C103.515473,149.222727 104.100131,149.021697 104.672609,148.797182 C105.190744,148.593333 105.698573,148.367879 106.212023,148.153697 C106.768573,147.920727 107.330744,147.698091 107.881673,147.45197 C108.390438,147.224636 108.888897,146.975697 109.392977,146.73803 C109.934536,146.481576 110.482653,146.234515 111.017653,145.966788 C111.512364,145.717848 111.994895,145.449182 112.483984,145.190848 C113.014299,144.90997 113.549299,144.638485 114.072119,144.345394 C114.550902,144.077667 115.016567,143.790212 115.488792,143.512152 C116.007863,143.206848 116.533494,142.909061 117.046007,142.591545 C117.509799,142.304091 117.960473,141.99597 118.417706,141.699121 C118.921786,141.370333 119.432426,141.050939 119.928074,140.710879 C120.381559,140.400879 120.820989,140.07303 121.266979,139.753636 C121.753257,139.405121 122.245158,139.064121 122.722067,138.705273 C123.162434,138.373667 123.589685,138.025152 124.022557,137.684152 C124.488222,137.317788 124.961384,136.958 125.41768,136.581303 C125.846804,136.228091 126.26,135.85797 126.680692,135.496303 C127.127618,135.110212 127.580166,134.733515 128.017723,134.33803 C128.424361,133.970727 128.816944,133.587455 129.216086,133.212636 C129.649895,132.803061 130.090263,132.401939 130.514702,131.98203 C130.905412,131.597818 131.280193,131.196697 131.662469,130.803091 C132.076602,130.376606 132.497294,129.957636 132.902058,129.521758 C133.276839,129.116879 133.635692,128.697909 134.00204,128.286455 C134.396497,127.843061 134.797513,127.405303 135.181664,126.952515 C135.537706,126.532606 135.87782,126.098606 136.224492,125.671182 C136.599273,125.209939 136.979676,124.755273 137.343214,124.285576 C137.684264,123.845939 138.00845,123.393152 138.339194,122.945061 C138.690552,122.470667 139.048468,122.002848 139.388581,121.520939 C139.709019,121.066273 140.011655,120.599394 140.322723,120.138152 C140.654405,119.646848 140.991708,119.161182 141.311208,118.662364 C141.612907,118.191727 141.896804,117.708879 142.188196,117.231667 C142.496454,116.727212 142.810333,116.228394 143.107347,115.716424 C143.390306,115.226061 143.656401,114.725364 143.929054,114.229364 C144.211077,113.715515 144.501532,113.206364 144.773249,112.685 C145.035595,112.179606 145.28014,111.662939 145.533117,111.15097 C145.791716,110.625848 146.057811,110.103545 146.305166,109.571848 C146.545963,109.054242 146.767084,108.526303 146.996637,108.002121 C147.23275,107.462909 147.476357,106.925576 147.700289,106.379788 C147.916725,105.853727 148.112548,105.318273 148.316804,104.785636 C148.531366,104.228576 148.752487,103.676212 148.953932,103.113515 C149.14507,102.579 149.316532,102.03603 149.49549,101.496818 C149.686629,100.925667 149.883389,100.356394 150.06141,99.7786667 C150.228187,99.2319394 150.376226,98.6767576 150.53176,98.1253333 C150.695727,97.5447879 150.867189,96.9670606 151.018039,96.3818182 C151.162329,95.8191212 151.286007,95.2498485 151.418117,94.6824545 C151.554912,94.0962727 151.698266,93.5119697 151.821944,92.9201515 C151.940937,92.3480606 152.039317,91.7675152 152.14613,91.1897879 C152.255753,90.5942121 152.372872,90.0023939 152.468441,89.4021212 C152.562137,88.8187576 152.634282,88.2278788 152.713923,87.6398182 C152.785131,87.1156364 152.861961,86.5942727 152.922863,86.0672727 C152.937855,85.8004848 152.732662,85.564697 152.46282,85.564697 L152.46282,85.564697 Z M58.9052802,76.8931515 L58.928704,76.6404545 L59.1442032,76.6216667 L59.2706918,76.2374545 L59.622986,75.8776667 L59.7372942,75.9913333 L59.7738354,76.4657273 L59.5330385,77.1139091 L59.2172855,77.066 L58.9052802,76.8931515 Z M56.135648,82.1979091 L55.9501313,82.3172121 L55.818958,82.2937273 L55.7702364,81.9874848 L55.9623117,81.7770606 L56.254641,81.9574242 L56.135648,82.1979091 Z M24.8461121,70.0656364 L24.6221804,69.9237879 L24.5800175,69.7772424 L24.649352,69.6504242 L24.8254991,69.6917576 L24.9604203,69.8495758 L24.986655,70.0769091 L24.8461121,70.0656364 Z M62.2352102,24.0898182 L61.9719264,23.8897273 L62.0215849,23.7638485 L62.3232837,23.7638485 L62.4478984,23.9141515 L62.2352102,24.0898182 Z" id="Fill-1"></path>
                </g>
                <polyline id="Fill-4" fill="#477BB2" points="97.1601226 127.855273 97.0045884 127.89003 96.8912172 127.915394 97.1601226 127.855273"></polyline>
                <path d="M190.391602,109.671424 L185.0238,122.273394 L195.63479,122.273394 L190.391602,109.671424 Z M183.609002,125.527455 L179.822776,134.453576 L175.994387,134.453576 L190.475928,101.495879 L204.581751,134.453576 L200.712137,134.453576 L197.008363,125.527455 L183.609002,125.527455 L183.609002,125.527455 Z" id="Fill-5" fill="#FFFFFF"></path>
                <polyline id="Fill-6" fill="#FFFFFF" points="255.355219 106.25297 255.355219 115.598061 265.800368 115.598061 265.800368 118.852121 255.355219 118.852121 255.355219 134.453576 251.859448 134.453576 251.859448 102.99703 266.133923 102.99703 266.133923 106.25297 255.355219 106.25297"></polyline>
                <path d="M317.957715,117.557636 L319.039895,117.557636 C322.992898,117.557636 326.988065,116.806121 326.988065,111.92597 C326.988065,106.752727 323.200902,106.25297 318.998669,106.25297 L317.957715,106.25297 L317.957715,117.557636 Z M317.957715,134.453576 L314.461944,134.453576 L314.461944,102.99703 L318.998669,102.99703 C324.950193,102.99703 330.484772,104.582727 330.484772,111.674212 C330.484772,116.51397 327.446235,119.936182 322.619054,120.351394 L332.606033,134.453576 L328.319475,134.453576 L318.831891,120.644485 L317.957715,120.644485 L317.957715,134.453576 L317.957715,134.453576 Z" id="Fill-7" fill="#FFFFFF"></path>
                <polygon id="Fill-8" fill="#FFFFFF" points="380.497434 134.453576 383.994142 134.453576 383.994142 102.99703 380.497434 102.99703"></polygon>
                <path d="M458.414422,109.882788 C455.91838,107.293818 452.461961,105.71 448.842513,105.71 C441.852846,105.71 436.191778,111.80103 436.191778,118.725303 C436.191778,125.651455 441.893135,131.742485 448.925902,131.742485 C452.461961,131.742485 455.91838,130.073182 458.414422,127.570636 L458.414422,131.910636 C455.707566,133.870212 452.378573,134.996545 449.04958,134.996545 C440.186944,134.996545 432.696007,127.779182 432.696007,118.852121 C432.696007,109.839576 440.063266,102.455939 449.04958,102.455939 C452.54535,102.455939 455.626051,103.455455 458.414422,105.542788 L458.414422,109.882788" id="Fill-9" fill="#FFFFFF"></path>
                <path d="M519.481252,109.671424 L514.114387,122.273394 L524.72444,122.273394 L519.481252,109.671424 Z M512.699588,125.527455 L508.912426,134.453576 L505.084974,134.453576 L519.564641,101.495879 L533.671401,134.453576 L529.802723,134.453576 L526.098949,125.527455 L512.699588,125.527455 L512.699588,125.527455 Z" id="Fill-10" fill="#FFFFFF"></path>
                <path d="M204.365315,54.7431818 C203.533301,50.2030909 199.373231,47.2374242 194.844002,47.2374242 C189.945613,47.2374242 185.879238,49.8320303 184.862644,54.7431818 L204.365315,54.7431818 Z M219.985254,64.4734242 L184.585306,64.4734242 C184.585306,71.331 188.189764,75.0387879 195.12134,75.0387879 C198.726734,75.0387879 201.314597,73.8335455 203.163205,70.6818788 L219.338757,70.6818788 C218.043888,76.2421515 214.715832,80.3191212 210.373056,83.0067273 C206.028406,85.6952727 200.6681,86.990697 195.214098,86.990697 C179.501401,86.990697 167.763257,78.0955758 167.763257,61.6937576 C167.763257,45.8471212 178.577566,36.3028788 194.011988,36.3028788 C210.464877,36.3028788 219.985254,46.495303 219.985254,62.713 L219.985254,64.4734242 L219.985254,64.4734242 Z" id="Fill-11" fill="#FFFFFF"></path>
                <polyline id="Fill-12" fill="#FFFFFF" points="271.950525 42.5103939 271.950525 15.5450909 290.066506 15.5450909 290.066506 85.4172121 271.950525 85.4172121 271.950525 56.7826061 245.79268 56.7826061 245.79268 85.4172121 227.675762 85.4172121 227.675762 15.5450909 245.79268 15.5450909 245.79268 42.5103939 271.950525 42.5103939"></polyline>
                <path d="M333.205683,54.7431818 C332.374606,50.2030909 328.215473,47.2374242 323.686243,47.2374242 C318.787855,47.2374242 314.72148,49.8320303 313.703012,54.7431818 L333.205683,54.7431818 Z M348.825622,64.4734242 L313.425674,64.4734242 C313.425674,71.331 317.032005,75.0387879 323.963581,75.0387879 C327.567102,75.0387879 330.156839,73.8335455 332.005447,70.6818788 L348.180061,70.6818788 C346.884256,76.2421515 343.558074,80.3191212 339.213424,83.0067273 C334.870648,85.6952727 329.509405,86.990697 324.055403,86.990697 C308.343643,86.990697 296.604562,78.0955758 296.604562,61.6937576 C296.604562,45.8471212 307.417933,36.3028788 322.855166,36.3028788 C339.306182,36.3028788 348.825622,46.495303 348.825622,62.713 L348.825622,64.4734242 L348.825622,64.4734242 Z" id="Fill-13" fill="#FFFFFF"></path>
                <path d="M371.876532,61.6937576 C371.876532,67.7171515 375.850149,72.3502424 382.691778,72.3502424 C389.529658,72.3502424 393.504212,67.7171515 393.504212,61.6937576 C393.504212,55.8554242 389.529658,50.9442727 382.691778,50.9442727 C375.850149,50.9442727 371.876532,55.8554242 371.876532,61.6937576 Z M409.772522,85.4172121 L392.949536,85.4172121 L392.949536,80.1340606 L392.76683,80.1340606 C389.807933,84.8610909 383.984772,86.990697 378.439886,86.990697 C364.39028,86.990697 354.499807,75.2229091 354.499807,61.6007576 C354.499807,47.9786061 364.205701,36.3028788 378.25437,36.3028788 C383.707434,36.3028788 389.4369,38.3413636 392.949536,42.5103939 L392.949536,37.877303 L409.772522,37.877303 L409.772522,85.4172121 L409.772522,85.4172121 Z" id="Fill-14" fill="#FFFFFF"></path>
                <polygon id="Fill-15" fill="#FFFFFF" points="419.052102 85.4172121 435.875088 85.4172121 435.875088 8.50151515 419.052102 8.50151515"></polygon>
                <path d="M501.487075,8.50151515 L501.487075,43.900697 L501.672592,43.900697 C505.554387,38.7114848 510.266322,36.3028788 516.829676,36.3028788 C528.846095,36.3028788 534.668319,44.2717576 534.668319,56.3176061 L534.668319,85.4172121 L517.845333,85.4172121 L517.845333,61.0455758 C517.845333,55.4843636 517.015193,49.7390303 510.266322,49.7390303 C503.613021,49.7390303 501.487075,55.4843636 501.487075,61.0455758 L501.487075,85.4172121 L484.664089,85.4172121 L484.664089,8.50151515 L501.487075,8.50151515" id="Fill-16" fill="#FFFFFF"></path>
                <polyline id="Fill-17" fill="#FFFFFF" points="478.200989 37.877303 468.683424 37.877303 468.683424 8.50151515 451.860438 8.50151515 451.860438 37.877303 442.341935 37.877303 442.341935 51.7775152 451.860438 51.7775152 451.860438 85.4172121 468.683424 85.4172121 468.683424 51.7775152 478.200989 51.7775152 478.200989 37.877303"></polyline>
            </g>
        </g>
    </g>
</svg>