<?xml version="1.0" encoding="UTF-8"?>
<svg width="278px" height="278px" viewBox="0 0 278 278" version="1.1" xmlns="http://www.w3.org/2000/svg" xmlns:xlink="http://www.w3.org/1999/xlink">
    <!-- Generator: Sketch 50.2 (55047) - http://www.bohemiancoding.com/sketch -->
    <title>Group 11</title>
    <desc>Created with Sketch.</desc>
    <defs>
        <circle id="path-1" cx="138.9" cy="138.9" r="138.9"></circle>
        <rect id="path-3" x="0" y="0" width="48.3" height="53.4" rx="7.92"></rect>
        <rect id="path-5" x="0" y="0" width="302.886515" height="107.488597"></rect>
        <path d="M11.961778,17.3880406 L12.0831421,15.1410271 C10.9061946,14.0226103 10.1163496,12.4950247 9.98502878,10.8058714 L9.60599036,5.93037459 C9.35136038,2.65511914 11.8073802,0 15.1043783,0 L16.4207998,0 C19.7121056,0 22.1734346,2.66004673 21.9191878,5.93037459 L21.5401493,10.8058714 C21.4082116,12.5029611 20.6093065,14.0412663 19.4180613,15.1633076 L19.538222,17.3880406 L28.5190293,20.0849065 C30.1653739,20.5792909 31.5,22.3678231 31.5,24.076828 L31.5,26.0479202 C31.5,26.9051102 30.8127828,27.6 29.9379101,27.6 L1.5620899,27.6 C0.699371469,27.6 0,26.9040634 0,26.0479202 L0,24.076828 C0,22.366535 1.32926222,20.5809016 2.98097074,20.0849065 L11.961778,17.3880406 Z" id="path-7"></path>
        <rect id="path-9" x="0" y="0" width="156.1875" height="43.6465116"></rect>
        <path d="M11.961778,17.3880406 L12.0831421,15.1410271 C10.9061946,14.0226103 10.1163496,12.4950247 9.98502878,10.8058714 L9.60599036,5.93037459 C9.35136038,2.65511914 11.8073802,0 15.1043783,0 L16.4207998,0 C19.7121056,0 22.1734346,2.66004673 21.9191878,5.93037459 L21.5401493,10.8058714 C21.4082116,12.5029611 20.6093065,14.0412663 19.4180613,15.1633076 L19.538222,17.3880406 L28.5190293,20.0849065 C30.1653739,20.5792909 31.5,22.3678231 31.5,24.076828 L31.5,26.0479202 C31.5,26.9051102 30.8127828,27.6 29.9379101,27.6 L1.5620899,27.6 C0.699371469,27.6 0,26.9040634 0,26.0479202 L0,24.076828 C0,22.366535 1.32926222,20.5809016 2.98097074,20.0849065 L11.961778,17.3880406 Z" id="path-11"></path>
        <rect id="path-13" x="0" y="0" width="156.1875" height="43.6465116"></rect>
        <path d="M11.961778,17.3880406 L12.0831421,15.1410271 C10.9061946,14.0226103 10.1163496,12.4950247 9.98502878,10.8058714 L9.60599036,5.93037459 C9.35136038,2.65511914 11.8073802,0 15.1043783,0 L16.4207998,0 C19.7121056,0 22.1734346,2.66004673 21.9191878,5.93037459 L21.5401493,10.8058714 C21.4082116,12.5029611 20.6093065,14.0412663 19.4180613,15.1633076 L19.538222,17.3880406 L28.5190293,20.0849065 C30.1653739,20.5792909 31.5,22.3678231 31.5,24.076828 L31.5,26.0479202 C31.5,26.9051102 30.8127828,27.6 29.9379101,27.6 L1.5620899,27.6 C0.699371469,27.6 0,26.9040634 0,26.0479202 L0,24.076828 C0,22.366535 1.32926222,20.5809016 2.98097074,20.0849065 L11.961778,17.3880406 Z" id="path-15"></path>
        <rect id="path-17" x="0" y="0" width="156.1875" height="43.6465116"></rect>
    </defs>
    <g id="Page-1" stroke="none" stroke-width="1" fill="none" fill-rule="evenodd">
        <g id="Desktop-Copy-6" transform="translate(-781.000000, -176.000000)">
            <g id="Group-11" transform="translate(781.000000, 176.000000)">
                <g id="Rectangle-14-+--copy-8-+-Combined-Shape-+-Combined-Shape-Mask">
                    <mask id="mask-2" fill="white">
                        <use xlink:href="#path-1"></use>
                    </mask>
                    <use id="Mask" fill="#C0D4DF" opacity="0.200000003" xlink:href="#path-1"></use>
                    <polygon id="Mask" fill="#FFFFFF" opacity="0.300000012" mask="url(#mask-2)" transform="translate(138.479297, 70.226953) rotate(-270.000000) translate(-138.479297, -70.226953) " points="49.8292969 34.5269531 227.129297 55.5269531 227.129297 84.9269531 49.8292969 105.926953"></polygon>
                </g>
                <g id="Group" transform="translate(138.900000, 51.300000) rotate(-270.000000) translate(-138.900000, -51.300000) translate(92.400000, 43.500000)" fill="#D1ED64">
                    <g id="Combined-Shape-+-ready-+-Combined-Shape-+-ready-+-Combined-Shape-+-ready-+-Combined-Shape-+-ready-+-Combined-Shape-+-ready-Mask" transform="translate(0.000000, 0.000000)">
                        <path d="M26.0633026,9.63325073 L26.1216652,8.54086212 C25.5508189,7.99767757 25.1679556,7.25515234 25.1047097,6.43272927 L24.9149389,3.96502777 C24.7926028,2.37421993 25.9959591,1.08461538 27.5915999,1.08461538 L28.231797,1.08461538 C29.8324122,1.08461538 31.0308069,2.37405489 30.9084581,3.96502777 L30.7186872,6.43272927 C30.6552864,7.25716713 30.2676328,8.00448898 29.6899583,8.54967959 L29.7478498,9.63325073 L34.1243662,10.9618683 C34.9200371,11.2034171 35.5650558,12.0735894 35.5650558,12.9122023 L35.5650558,13.8989916 C35.5650558,14.3158862 35.230851,14.6538462 34.8053862,14.6538462 L21.0057662,14.6538462 C20.5862123,14.6538462 20.2460967,14.3055453 20.2460967,13.8989916 L20.2460967,12.9122023 C20.2460967,12.0766114 20.8991396,11.2009811 21.6867862,10.9618683 L26.0633026,9.63325073 Z" id="Combined-Shape" transform="translate(27.905576, 7.869231) rotate(-90.000000) translate(-27.905576, -7.869231) "></path>
                        <path d="M5.06330262,9.63325073 L5.12166519,8.54086212 C4.55081886,7.99767757 4.16795559,7.25515234 4.10470972,6.43272927 L3.91493885,3.96502777 C3.79260275,2.37421993 4.99595914,1.08461538 6.59159995,1.08461538 L7.23179699,1.08461538 C8.83241219,1.08461538 10.0308069,2.37405489 9.90845808,3.96502777 L9.71868722,6.43272927 C9.6552864,7.25716713 9.2676328,8.00448898 8.68995831,8.54967959 L8.7478498,9.63325073 L13.1243662,10.9618683 C13.9200371,11.2034171 14.5650558,12.0735894 14.5650558,12.9122023 L14.5650558,13.8989916 C14.5650558,14.3158862 14.230851,14.6538462 13.8053862,14.6538462 L0.00576621826,14.6538462 C-0.413787697,14.6538462 -0.753903346,14.3055453 -0.753903346,13.8989916 L-0.753903346,12.9122023 C-0.753903346,12.0766114 -0.100860427,11.2009811 0.686786171,10.9618683 L5.06330262,9.63325073 Z" id="Combined-Shape" transform="translate(6.905576, 7.869231) rotate(-90.000000) translate(-6.905576, -7.869231) "></path>
                        <path d="M45.4372803,9.63325073 L45.4956429,8.54086212 C44.9247966,7.99767757 44.5419333,7.25515234 44.4786874,6.43272927 L44.2889166,3.96502777 C44.1665804,2.37421993 45.3699368,1.08461538 46.9655776,1.08461538 L47.6057747,1.08461538 C49.2063899,1.08461538 50.4047846,2.37405489 50.2824358,3.96502777 L50.0926649,6.43272927 C50.0292641,7.25716713 49.6416105,8.00448898 49.063936,8.54967959 L49.1218275,9.63325073 L53.4983439,10.9618683 C54.2940148,11.2034171 54.9390335,12.0735894 54.9390335,12.9122023 L54.9390335,13.8989916 C54.9390335,14.3158862 54.6048286,14.6538462 54.1793639,14.6538462 L40.3797439,14.6538462 C39.96019,14.6538462 39.6200743,14.3055453 39.6200743,13.8989916 L39.6200743,12.9122023 C39.6200743,12.0766114 40.2731173,11.2009811 41.0607639,10.9618683 L45.4372803,9.63325073 Z" id="Combined-Shape" transform="translate(47.279554, 7.869231) rotate(-90.000000) translate(-47.279554, -7.869231) "></path>
                        <path d="M64.811258,9.63325073 L64.8696206,8.54086212 C64.2987742,7.99767757 63.915911,7.25515234 63.8526651,6.43272927 L63.6628942,3.96502777 C63.5405581,2.37421993 64.7439145,1.08461538 66.3395553,1.08461538 L66.9797524,1.08461538 C68.5803676,1.08461538 69.7787623,2.37405489 69.6564135,3.96502777 L69.4666426,6.43272927 C69.4032418,7.25716713 69.0155882,8.00448898 68.4379137,8.54967959 L68.4958052,9.63325073 L72.8723216,10.9618683 C73.6679925,11.2034171 74.3130112,12.0735894 74.3130112,12.9122023 L74.3130112,13.8989916 C74.3130112,14.3158862 73.9788063,14.6538462 73.5533416,14.6538462 L59.7537216,14.6538462 C59.3341677,14.6538462 58.994052,14.3055453 58.994052,13.8989916 L58.994052,12.9122023 C58.994052,12.0766114 59.647095,11.2009811 60.4347416,10.9618683 L64.811258,9.63325073 Z" id="Combined-Shape" transform="translate(66.653532, 7.869231) rotate(-90.000000) translate(-66.653532, -7.869231) "></path>
                        <path d="M84.1852357,9.63325073 L84.2435983,8.54086212 C83.6727519,7.99767757 83.2898887,7.25515234 83.2266428,6.43272927 L83.0368719,3.96502777 C82.9145358,2.37421993 84.1178922,1.08461538 85.713533,1.08461538 L86.3537301,1.08461538 C87.9543453,1.08461538 89.15274,2.37405489 89.0303912,3.96502777 L88.8406203,6.43272927 C88.7772195,7.25716713 88.3895659,8.00448898 87.8118914,8.54967959 L87.8697829,9.63325073 L92.2462993,10.9618683 C93.0419702,11.2034171 93.6869888,12.0735894 93.6869888,12.9122023 L93.6869888,13.8989916 C93.6869888,14.3158862 93.352784,14.6538462 92.9273193,14.6538462 L79.1276993,14.6538462 C78.7081454,14.6538462 78.3680297,14.3055453 78.3680297,13.8989916 L78.3680297,12.9122023 C78.3680297,12.0766114 79.0210727,11.2009811 79.8087193,10.9618683 L84.1852357,9.63325073 Z" id="Combined-Shape" transform="translate(86.027509, 7.869231) rotate(-90.000000) translate(-86.027509, -7.869231) "></path>
                    </g>
                </g>
                <g id="Group-8" transform="translate(47.400000, 94.200000)"></g>
                <path d="M203.904381,142.534816 C203.904381,122.135568 185.530061,105.6 162.864589,105.6 C145.822622,105.6 131.209211,114.9497 125.005457,128.259164 C119.678032,122.623484 111.744243,119.044123 102.877769,119.044123 C86.8343712,119.044123 73.8275625,130.749108 73.8275625,145.187994 C73.8275625,147.67115 74.2204815,150.069654 74.9388485,152.345643 C61.8383743,156.669022 52.5,167.989675 52.5,181.285208 C52.5,198.292619 67.8119333,212.1 86.7295928,212.1 L192.261279,212.1 C211.188067,212.1 226.5,198.292619 226.5,181.285208 C226.5,167.492829 216.450006,155.827849 202.570838,151.893089 C203.438831,148.904156 203.904381,145.768778 203.904381,142.534816 Z" id="Fill-1" stroke="#FFFFFF" stroke-width="0.66" fill="#0090FC" stroke-dasharray="3.959999942779541,3.959999942779541"></path>
                <g id="Group-4" transform="translate(115.500000, 92.700000)">
                    <mask id="mask-4" fill="white">
                        <use xlink:href="#path-3"></use>
                    </mask>
                    <rect stroke="#C0D4DF" stroke-width="5.28" x="-2.64" y="-2.64" width="53.58" height="58.68" rx="7.92"></rect>
                    <g mask="url(#mask-4)">
                        <g transform="translate(-125.712329, -40.244152)">
                            <mask id="mask-6" fill="white">
                                <use xlink:href="#path-5"></use>
                            </mask>
                            <g id="Rectangle-11" stroke="none" fill="none"></g>
                            <g id="Group-3" stroke="none" stroke-width="1" fill="none" fill-rule="evenodd" mask="url(#mask-6)">
                                <g transform="translate(-120.949190, -13.579313)" fill="#FFFFFF" id="Combined-Shape">
                                    <path d="M0.126991388,118.705781 L118.722788,0.109984825 L119.703859,1.09105585 L1.10806241,119.686852 L0.126991388,118.705781 Z M5.71765085,118.705781 L124.313447,0.109984825 L125.294518,1.09105585 L6.69872188,119.686852 L5.71765085,118.705781 Z M11.3083103,118.705781 L129.904107,0.109984825 L130.885178,1.09105585 L12.2893813,119.686852 L11.3083103,118.705781 Z M16.8989698,118.705781 L135.494766,0.109984825 L136.475837,1.09105585 L17.8800408,119.686852 L16.8989698,118.705781 Z M22.4896292,118.705781 L141.085426,0.109984825 L142.066497,1.09105585 L23.4707003,119.686852 L22.4896292,118.705781 Z M28.0802887,118.705781 L146.676085,0.109984825 L147.657156,1.09105585 L29.0613597,119.686852 L28.0802887,118.705781 Z M33.6709482,118.705781 L152.266745,0.109984825 L153.247816,1.09105585 L34.6520192,119.686852 L33.6709482,118.705781 Z M39.2616076,118.705781 L157.857404,0.109984825 L158.838475,1.09105585 L40.2426787,119.686852 L39.2616076,118.705781 Z M44.8522671,118.705781 L163.448064,0.109984825 L164.429135,1.09105585 L45.8333381,119.686852 L44.8522671,118.705781 Z M50.4429266,118.705781 L169.038723,0.109984825 L170.019794,1.09105585 L51.4239976,119.686852 L50.4429266,118.705781 Z M56.033586,118.705781 L174.629383,0.109984825 L175.610454,1.09105585 L57.014657,119.686852 L56.033586,118.705781 Z M61.6242455,118.705781 L180.220042,0.109984825 L181.201113,1.09105585 L62.6053165,119.686852 L61.6242455,118.705781 Z M67.2149049,118.705781 L185.810701,0.109984825 L186.791772,1.09105585 L68.195976,119.686852 L67.2149049,118.705781 Z M72.8055644,118.705781 L191.401361,0.109984825 L192.382432,1.09105585 L73.7866354,119.686852 L72.8055644,118.705781 Z M78.3962239,118.705781 L196.99202,0.109984825 L197.973091,1.09105585 L79.3772949,119.686852 L78.3962239,118.705781 Z M83.9868833,118.705781 L202.58268,0.109984825 L203.563751,1.09105585 L84.9679544,119.686852 L83.9868833,118.705781 Z M89.5775428,118.705781 L208.173339,0.109984825 L209.15441,1.09105585 L90.5586138,119.686852 L89.5775428,118.705781 Z M95.1682023,118.705781 L213.763999,0.109984825 L214.74507,1.09105585 L96.1492733,119.686852 L95.1682023,118.705781 Z M100.758862,118.705781 L219.354658,0.109984825 L220.335729,1.09105585 L101.739933,119.686852 L100.758862,118.705781 Z M106.349521,118.705781 L224.945318,0.109984825 L225.926389,1.09105585 L107.330592,119.686852 L106.349521,118.705781 Z M111.940181,118.705781 L230.535977,0.109984825 L231.517048,1.09105585 L112.921252,119.686852 L111.940181,118.705781 Z M117.53084,118.705781 L236.126637,0.109984825 L237.107708,1.09105585 L118.511911,119.686852 L117.53084,118.705781 Z M123.1215,118.705781 L241.717296,0.109984825 L242.698367,1.09105585 L124.102571,119.686852 L123.1215,118.705781 Z M128.712159,118.705781 L247.307956,0.109984825 L248.289027,1.09105585 L129.69323,119.686852 L128.712159,118.705781 Z M134.302818,118.705781 L252.898615,0.109984825 L253.879686,1.09105585 L135.28389,119.686852 L134.302818,118.705781 Z M139.893478,118.705781 L258.489274,0.109984825 L259.470346,1.09105585 L140.874549,119.686852 L139.893478,118.705781 Z M145.484137,118.705781 L264.079934,0.109984825 L265.061005,1.09105585 L146.465208,119.686852 L145.484137,118.705781 Z M151.074797,118.705781 L269.670593,0.109984825 L270.651664,1.09105585 L152.055868,119.686852 L151.074797,118.705781 Z M156.665456,118.705781 L275.261253,0.109984825 L276.242324,1.09105585 L157.646527,119.686852 L156.665456,118.705781 Z M162.256116,118.705781 L280.851912,0.109984825 L281.832983,1.09105585 L163.237187,119.686852 L162.256116,118.705781 Z M167.846775,118.705781 L286.442572,0.109984825 L287.423643,1.09105585 L168.827846,119.686852 L167.846775,118.705781 Z M173.437435,118.705781 L292.033231,0.109984825 L293.014302,1.09105585 L174.418506,119.686852 L173.437435,118.705781 Z M179.028094,118.705781 L297.623891,0.109984825 L298.604962,1.09105585 L180.009165,119.686852 L179.028094,118.705781 Z M184.618754,118.705781 L303.21455,0.109984825 L304.195621,1.09105585 L185.599825,119.686852 L184.618754,118.705781 Z M190.209413,118.705781 L308.80521,0.109984825 L309.786281,1.09105585 L191.190484,119.686852 L190.209413,118.705781 Z M195.800073,118.705781 L314.395869,0.109984825 L315.37694,1.09105585 L196.781144,119.686852 L195.800073,118.705781 Z M201.390732,118.705781 L319.986529,0.109984825 L320.9676,1.09105585 L202.371803,119.686852 L201.390732,118.705781 Z M206.981392,118.705781 L325.577188,0.109984825 L326.558259,1.09105585 L207.962463,119.686852 L206.981392,118.705781 Z M212.572051,118.705781 L331.167848,0.109984825 L332.148919,1.09105585 L213.553122,119.686852 L212.572051,118.705781 Z M218.16271,118.705781 L336.758507,0.109984825 L337.739578,1.09105585 L219.143781,119.686852 L218.16271,118.705781 Z M223.75337,118.705781 L342.349166,0.109984825 L343.330237,1.09105585 L224.734441,119.686852 L223.75337,118.705781 Z M229.344029,118.705781 L347.939826,0.109984825 L348.920897,1.09105585 L230.3251,119.686852 L229.344029,118.705781 Z M234.934689,118.705781 L353.530485,0.109984825 L354.511556,1.09105585 L235.91576,119.686852 L234.934689,118.705781 Z M240.525348,118.705781 L359.121145,0.109984825 L360.102216,1.09105585 L241.506419,119.686852 L240.525348,118.705781 Z M246.116008,118.705781 L364.711804,0.109984825 L365.692875,1.09105585 L247.097079,119.686852 L246.116008,118.705781 Z M251.706667,118.705781 L370.302464,0.109984825 L371.283535,1.09105585 L252.687738,119.686852 L251.706667,118.705781 Z M257.297327,118.705781 L375.893123,0.109984825 L376.874194,1.09105585 L258.278398,119.686852 L257.297327,118.705781 Z M262.887986,118.705781 L381.483783,0.109984825 L382.464854,1.09105585 L263.869057,119.686852 L262.887986,118.705781 Z M268.478646,118.705781 L387.074442,0.109984825 L388.055513,1.09105585 L269.459717,119.686852 L268.478646,118.705781 Z M274.069305,118.705781 L392.665102,0.109984825 L393.646173,1.09105585 L275.050376,119.686852 L274.069305,118.705781 Z M279.659965,118.705781 L398.255761,0.109984825 L399.236832,1.09105585 L280.641036,119.686852 L279.659965,118.705781 Z M285.250624,118.705781 L403.846421,0.109984825 L404.827492,1.09105585 L286.231695,119.686852 L285.250624,118.705781 Z M290.841283,118.705781 L409.43708,0.109984825 L410.418151,1.09105585 L291.822354,119.686852 L290.841283,118.705781 Z M296.431943,118.705781 L415.027739,0.109984825 L416.00881,1.09105585 L297.413014,119.686852 L296.431943,118.705781 Z M302.022602,118.705781 L420.618399,0.109984825 L421.59947,1.09105585 L303.003673,119.686852 L302.022602,118.705781 Z M307.613262,118.705781 L426.209058,0.109984825 L427.190129,1.09105585 L308.594333,119.686852 L307.613262,118.705781 Z M313.203921,118.705781 L431.799718,0.109984825 L432.780789,1.09105585 L314.184992,119.686852 L313.203921,118.705781 Z M318.794581,118.705781 L437.390377,0.109984825 L438.371448,1.09105585 L319.775652,119.686852 L318.794581,118.705781 Z M324.38524,118.705781 L442.981037,0.109984825 L443.962108,1.09105585 L325.366311,119.686852 L324.38524,118.705781 Z M329.9759,118.705781 L448.571696,0.109984825 L449.552767,1.09105585 L330.956971,119.686852 L329.9759,118.705781 Z M335.566559,118.705781 L454.162356,0.109984825 L455.143427,1.09105585 L336.54763,119.686852 L335.566559,118.705781 Z M341.157219,118.705781 L459.753015,0.109984825 L460.734086,1.09105585 L342.13829,119.686852 L341.157219,118.705781 Z M346.747878,118.705781 L465.343675,0.109984825 L466.324746,1.09105585 L347.728949,119.686852 L346.747878,118.705781 Z M352.338538,118.705781 L470.934334,0.109984825 L471.915405,1.09105585 L353.319609,119.686852 L352.338538,118.705781 Z M357.929197,118.705781 L476.524994,0.109984825 L477.506065,1.09105585 L358.910268,119.686852 L357.929197,118.705781 Z M363.519856,118.705781 L482.115653,0.109984825 L483.096724,1.09105585 L364.500927,119.686852 L363.519856,118.705781 Z M369.110516,118.705781 L487.706312,0.109984825 L488.687383,1.09105585 L370.091587,119.686852 L369.110516,118.705781 Z M374.701175,118.705781 L493.296972,0.109984825 L494.278043,1.09105585 L375.682246,119.686852 L374.701175,118.705781 Z M380.291835,118.705781 L498.887631,0.109984825 L499.868702,1.09105585 L381.272906,119.686852 L380.291835,118.705781 Z M385.882494,118.705781 L504.478291,0.109984825 L505.459362,1.09105585 L386.863565,119.686852 L385.882494,118.705781 Z M391.473154,118.705781 L510.06895,0.109984825 L511.050021,1.09105585 L392.454225,119.686852 L391.473154,118.705781 Z M397.063813,118.705781 L515.65961,0.109984825 L516.640681,1.09105585 L398.044884,119.686852 L397.063813,118.705781 Z M402.654473,118.705781 L521.250269,0.109984825 L522.23134,1.09105585 L403.635544,119.686852 L402.654473,118.705781 Z M408.245132,118.705781 L526.840929,0.109984825 L527.822,1.09105585 L409.226203,119.686852 L408.245132,118.705781 Z M413.835792,118.705781 L532.431588,0.109984825 L533.412659,1.09105585 L414.816863,119.686852 L413.835792,118.705781 Z M419.426451,118.705781 L538.022248,0.109984825 L539.003319,1.09105585 L420.407522,119.686852 L419.426451,118.705781 Z M425.017111,118.705781 L543.612907,0.109984825 L544.593978,1.09105585 L425.998182,119.686852 L425.017111,118.705781 Z M430.60777,118.705781 L549.203567,0.109984825 L550.184638,1.09105585 L431.588841,119.686852 L430.60777,118.705781 Z M436.198429,118.705781 L554.794226,0.109984825 L555.775297,1.09105585 L437.179501,119.686852 L436.198429,118.705781 Z M441.789089,118.705781 L560.384885,0.109984825 L561.365957,1.09105585 L442.77016,119.686852 L441.789089,118.705781 Z M447.379748,118.705781 L565.975545,0.109984825 L566.956616,1.09105585 L448.360819,119.686852 L447.379748,118.705781 Z M452.970408,118.705781 L571.566204,0.109984825 L572.547275,1.09105585 L453.951479,119.686852 L452.970408,118.705781 Z M458.561067,118.705781 L577.156864,0.109984825 L578.137935,1.09105585 L459.542138,119.686852 L458.561067,118.705781 Z M464.151727,118.705781 L582.747523,0.109984825 L583.728594,1.09105585 L465.132798,119.686852 L464.151727,118.705781 Z M469.742386,118.705781 L588.338183,0.109984825 L589.319254,1.09105585 L470.723457,119.686852 L469.742386,118.705781 Z M475.333046,118.705781 L593.928842,0.109984825 L594.909913,1.09105585 L476.314117,119.686852 L475.333046,118.705781 Z M480.923705,118.705781 L599.519502,0.109984825 L600.500573,1.09105585 L481.904776,119.686852 L480.923705,118.705781 Z M486.514365,118.705781 L605.110161,0.109984825 L606.091232,1.09105585 L487.495436,119.686852 L486.514365,118.705781 Z"></path>
                                </g>
                            </g>
                        </g>
                    </g>
                </g>
                <g id="ready" transform="translate(126.600000, 107.400000)">
                    <circle id="Oval" fill="#0090FC" cx="13.86" cy="13.86" r="13.86"></circle>
                    <path d="M10.6920047,12.2679887 L17.0280123,12.2679887 L17.0280123,9.89198584 C17.0280123,8.14710876 15.6048856,6.72398206 13.8600085,6.72398206 C12.1151314,6.72398206 10.6920047,8.14710876 10.6920047,9.89198584 L10.6920047,12.2679887 Z M20.988017,13.4559901 L20.988017,20.5839986 C20.988017,21.2398744 20.4558914,21.772 19.8000156,21.772 L7.92000142,21.772 C7.26412563,21.772 6.732,21.2398744 6.732,20.5839986 L6.732,13.4559901 C6.732,12.8001143 7.26412563,12.2679887 7.92000142,12.2679887 L8.31600189,12.2679887 L8.31600189,9.89198584 C8.31600189,6.84773221 10.8157549,4.34797923 13.8600085,4.34797923 C16.9042621,4.34797923 19.4040151,6.84773221 19.4040151,9.89198584 L19.4040151,12.2679887 L19.8000156,12.2679887 C20.4558914,12.2679887 20.988017,12.8001143 20.988017,13.4559901 Z" id="" fill="#FFFFFF"></path>
                </g>
                <g id="Group-4" transform="translate(79.800000, 147.300000)">
                    <mask id="mask-8" fill="white">
                        <use xlink:href="#path-7"></use>
                    </mask>
                    <path stroke="#BFD95D" stroke-width="0.924" d="M11.5179603,17.0389346 L11.6105335,15.3249736 C10.40721,14.1138444 9.65574031,12.5308455 9.52441866,10.8416809 L9.14538024,5.96618405 C8.86971625,2.42037228 11.5402167,-0.462 15.1043783,-0.462 L16.4207998,-0.462 C19.979516,-0.462 22.6550597,2.42554579 22.3797979,5.96618405 L22.0007595,10.8416809 C21.8687091,12.540218 21.1077274,14.1339632 19.890735,15.34846 L19.9820397,17.0389346 L28.6519026,19.6424263 C30.4928596,20.1952513 31.962,22.1630668 31.962,24.076828 L31.962,26.0479202 C31.962,27.1645667 31.0636332,28.062 29.9379101,28.062 L1.5620899,28.062 C0.44519429,28.062 -0.462,27.1601992 -0.462,26.0479202 L-0.462,24.076828 C-0.462,22.1603637 1.0031373,20.1964534 2.84809743,19.6424263 L11.5179603,17.0389346 Z"></path>
                    <g mask="url(#mask-8)">
                        <g transform="translate(-52.500000, -5.134884)">
                            <mask id="mask-10" fill="white">
                                <use xlink:href="#path-9"></use>
                            </mask>
                            <g id="Rectangle-11" stroke="none" fill="none"></g>
                            <g id="Group-3" stroke="none" stroke-width="1" fill="none" fill-rule="evenodd" mask="url(#mask-10)">
                                <g transform="translate(-224.108195, -43.181716)" fill="#BFD95D" id="Combined-Shape">
                                    <path d="M0.00225585679,98.3183267 L98.4789865,-0.158403957 L99.1204701,0.483079684 L0.643739498,98.9598103 L0.00225585679,98.3183267 Z M4.64449346,98.3183267 L103.121224,-0.158403957 L103.762708,0.483079684 L5.2859771,98.9598103 L4.64449346,98.3183267 Z M9.28673106,98.3183267 L107.763462,-0.158403957 L108.404945,0.483079684 L9.9282147,98.9598103 L9.28673106,98.3183267 Z M13.9289687,98.3183267 L112.405699,-0.158403957 L113.047183,0.483079684 L14.5704523,98.9598103 L13.9289687,98.3183267 Z M18.5712063,98.3183267 L117.047937,-0.158403957 L117.689421,0.483079684 L19.2126899,98.9598103 L18.5712063,98.3183267 Z M23.2134439,98.3183267 L121.690174,-0.158403957 L122.331658,0.483079684 L23.8549275,98.9598103 L23.2134439,98.3183267 Z M27.8556815,98.3183267 L126.332412,-0.158403957 L126.973896,0.483079684 L28.4971651,98.9598103 L27.8556815,98.3183267 Z M32.4979191,98.3183267 L130.97465,-0.158403957 L131.616133,0.483079684 L33.1394027,98.9598103 L32.4979191,98.3183267 Z M37.1401567,98.3183267 L135.616887,-0.158403957 L136.258371,0.483079684 L37.7816403,98.9598103 L37.1401567,98.3183267 Z M41.7823943,98.3183267 L140.259125,-0.158403957 L140.900609,0.483079684 L42.4238779,98.9598103 L41.7823943,98.3183267 Z M46.4246319,98.3183267 L144.901362,-0.158403957 L145.542846,0.483079684 L47.0661155,98.9598103 L46.4246319,98.3183267 Z M51.0668695,98.3183267 L149.5436,-0.158403957 L150.185084,0.483079684 L51.7083531,98.9598103 L51.0668695,98.3183267 Z M55.7091071,98.3183267 L154.185838,-0.158403957 L154.827321,0.483079684 L56.3505907,98.9598103 L55.7091071,98.3183267 Z M60.3513447,98.3183267 L158.828075,-0.158403957 L159.469559,0.483079684 L60.9928283,98.9598103 L60.3513447,98.3183267 Z M64.9935823,98.3183267 L163.470313,-0.158403957 L164.111797,0.483079684 L65.6350659,98.9598103 L64.9935823,98.3183267 Z M69.6358199,98.3183267 L168.11255,-0.158403957 L168.754034,0.483079684 L70.2773035,98.9598103 L69.6358199,98.3183267 Z M74.2780575,98.3183267 L172.754788,-0.158403957 L173.396272,0.483079684 L74.9195411,98.9598103 L74.2780575,98.3183267 Z M78.9202951,98.3183267 L177.397026,-0.158403957 L178.038509,0.483079684 L79.5617787,98.9598103 L78.9202951,98.3183267 Z M83.5625327,98.3183267 L182.039263,-0.158403957 L182.680747,0.483079684 L84.2040163,98.9598103 L83.5625327,98.3183267 Z M88.2047703,98.3183267 L186.681501,-0.158403957 L187.322985,0.483079684 L88.8462539,98.9598103 L88.2047703,98.3183267 Z M92.8470079,98.3183267 L191.323738,-0.158403957 L191.965222,0.483079684 L93.4884915,98.9598103 L92.8470079,98.3183267 Z M97.4892455,98.3183267 L195.965976,-0.158403957 L196.60746,0.483079684 L98.1307291,98.9598103 L97.4892455,98.3183267 Z M102.131483,98.3183267 L200.608214,-0.158403957 L201.249697,0.483079684 L102.772967,98.9598103 L102.131483,98.3183267 Z M106.773721,98.3183267 L205.250451,-0.158403957 L205.891935,0.483079684 L107.415204,98.9598103 L106.773721,98.3183267 Z M111.415958,98.3183267 L209.892689,-0.158403957 L210.534173,0.483079684 L112.057442,98.9598103 L111.415958,98.3183267 Z M116.058196,98.3183267 L214.534926,-0.158403957 L215.17641,0.483079684 L116.69968,98.9598103 L116.058196,98.3183267 Z M120.700433,98.3183267 L219.177164,-0.158403957 L219.818648,0.483079684 L121.341917,98.9598103 L120.700433,98.3183267 Z M125.342671,98.3183267 L223.819402,-0.158403957 L224.460885,0.483079684 L125.984155,98.9598103 L125.342671,98.3183267 Z M129.984909,98.3183267 L228.461639,-0.158403957 L229.103123,0.483079684 L130.626392,98.9598103 L129.984909,98.3183267 Z M134.627146,98.3183267 L233.103877,-0.158403957 L233.745361,0.483079684 L135.26863,98.9598103 L134.627146,98.3183267 Z M139.269384,98.3183267 L237.746114,-0.158403957 L238.387598,0.483079684 L139.910868,98.9598103 L139.269384,98.3183267 Z M143.911621,98.3183267 L242.388352,-0.158403957 L243.029836,0.483079684 L144.553105,98.9598103 L143.911621,98.3183267 Z M148.553859,98.3183267 L247.03059,-0.158403957 L247.672073,0.483079684 L149.195343,98.9598103 L148.553859,98.3183267 Z M153.196097,98.3183267 L251.672827,-0.158403957 L252.314311,0.483079684 L153.83758,98.9598103 L153.196097,98.3183267 Z M157.838334,98.3183267 L256.315065,-0.158403957 L256.956549,0.483079684 L158.479818,98.9598103 L157.838334,98.3183267 Z M162.480572,98.3183267 L260.957302,-0.158403957 L261.598786,0.483079684 L163.122056,98.9598103 L162.480572,98.3183267 Z M167.122809,98.3183267 L265.59954,-0.158403957 L266.241024,0.483079684 L167.764293,98.9598103 L167.122809,98.3183267 Z M171.765047,98.3183267 L270.241778,-0.158403957 L270.883261,0.483079684 L172.406531,98.9598103 L171.765047,98.3183267 Z M176.407285,98.3183267 L274.884015,-0.158403957 L275.525499,0.483079684 L177.048768,98.9598103 L176.407285,98.3183267 Z M181.049522,98.3183267 L279.526253,-0.158403957 L280.167737,0.483079684 L181.691006,98.9598103 L181.049522,98.3183267 Z M185.69176,98.3183267 L284.168491,-0.158403957 L284.809974,0.483079684 L186.333244,98.9598103 L185.69176,98.3183267 Z M190.333997,98.3183267 L288.810728,-0.158403957 L289.452212,0.483079684 L190.975481,98.9598103 L190.333997,98.3183267 Z M194.976235,98.3183267 L293.452966,-0.158403957 L294.094449,0.483079684 L195.617719,98.9598103 L194.976235,98.3183267 Z M199.618473,98.3183267 L298.095203,-0.158403957 L298.736687,0.483079684 L200.259956,98.9598103 L199.618473,98.3183267 Z M204.26071,98.3183267 L302.737441,-0.158403957 L303.378925,0.483079684 L204.902194,98.9598103 L204.26071,98.3183267 Z M208.902948,98.3183267 L307.379679,-0.158403957 L308.021162,0.483079684 L209.544432,98.9598103 L208.902948,98.3183267 Z M213.545185,98.3183267 L312.021916,-0.158403957 L312.6634,0.483079684 L214.186669,98.9598103 L213.545185,98.3183267 Z M218.187423,98.3183267 L316.664154,-0.158403957 L317.305637,0.483079684 L218.828907,98.9598103 L218.187423,98.3183267 Z M222.829661,98.3183267 L321.306391,-0.158403957 L321.947875,0.483079684 L223.471144,98.9598103 L222.829661,98.3183267 Z M227.471898,98.3183267 L325.948629,-0.158403957 L326.590113,0.483079684 L228.113382,98.9598103 L227.471898,98.3183267 Z M232.114136,98.3183267 L330.590867,-0.158403957 L331.23235,0.483079684 L232.75562,98.9598103 L232.114136,98.3183267 Z M236.756373,98.3183267 L335.233104,-0.158403957 L335.874588,0.483079684 L237.397857,98.9598103 L236.756373,98.3183267 Z M241.398611,98.3183267 L339.875342,-0.158403957 L340.516825,0.483079684 L242.040095,98.9598103 L241.398611,98.3183267 Z M246.040849,98.3183267 L344.517579,-0.158403957 L345.159063,0.483079684 L246.682332,98.9598103 L246.040849,98.3183267 Z M250.683086,98.3183267 L349.159817,-0.158403957 L349.801301,0.483079684 L251.32457,98.9598103 L250.683086,98.3183267 Z M255.325324,98.3183267 L353.802055,-0.158403957 L354.443538,0.483079684 L255.966808,98.9598103 L255.325324,98.3183267 Z M259.967561,98.3183267 L358.444292,-0.158403957 L359.085776,0.483079684 L260.609045,98.9598103 L259.967561,98.3183267 Z M264.609799,98.3183267 L363.08653,-0.158403957 L363.728013,0.483079684 L265.251283,98.9598103 L264.609799,98.3183267 Z M269.252037,98.3183267 L367.728767,-0.158403957 L368.370251,0.483079684 L269.89352,98.9598103 L269.252037,98.3183267 Z M273.894274,98.3183267 L372.371005,-0.158403957 L373.012489,0.483079684 L274.535758,98.9598103 L273.894274,98.3183267 Z M278.536512,98.3183267 L377.013243,-0.158403957 L377.654726,0.483079684 L279.177996,98.9598103 L278.536512,98.3183267 Z M283.178749,98.3183267 L381.65548,-0.158403957 L382.296964,0.483079684 L283.820233,98.9598103 L283.178749,98.3183267 Z M287.820987,98.3183267 L386.297718,-0.158403957 L386.939201,0.483079684 L288.462471,98.9598103 L287.820987,98.3183267 Z M292.463225,98.3183267 L390.939955,-0.158403957 L391.581439,0.483079684 L293.104708,98.9598103 L292.463225,98.3183267 Z M297.105462,98.3183267 L395.582193,-0.158403957 L396.223677,0.483079684 L297.746946,98.9598103 L297.105462,98.3183267 Z M301.7477,98.3183267 L400.224431,-0.158403957 L400.865914,0.483079684 L302.389184,98.9598103 L301.7477,98.3183267 Z M306.389937,98.3183267 L404.866668,-0.158403957 L405.508152,0.483079684 L307.031421,98.9598103 L306.389937,98.3183267 Z M311.032175,98.3183267 L409.508906,-0.158403957 L410.150389,0.483079684 L311.673659,98.9598103 L311.032175,98.3183267 Z M315.674413,98.3183267 L414.151143,-0.158403957 L414.792627,0.483079684 L316.315896,98.9598103 L315.674413,98.3183267 Z M320.31665,98.3183267 L418.793381,-0.158403957 L419.434865,0.483079684 L320.958134,98.9598103 L320.31665,98.3183267 Z M324.958888,98.3183267 L423.435619,-0.158403957 L424.077102,0.483079684 L325.600372,98.9598103 L324.958888,98.3183267 Z M329.601126,98.3183267 L428.077856,-0.158403957 L428.71934,0.483079684 L330.242609,98.9598103 L329.601126,98.3183267 Z M334.243363,98.3183267 L432.720094,-0.158403957 L433.361577,0.483079684 L334.884847,98.9598103 L334.243363,98.3183267 Z M338.885601,98.3183267 L437.362331,-0.158403957 L438.003815,0.483079684 L339.527084,98.9598103 L338.885601,98.3183267 Z M343.527838,98.3183267 L442.004569,-0.158403957 L442.646053,0.483079684 L344.169322,98.9598103 L343.527838,98.3183267 Z M348.170076,98.3183267 L446.646807,-0.158403957 L447.28829,0.483079684 L348.81156,98.9598103 L348.170076,98.3183267 Z M352.812314,98.3183267 L451.289044,-0.158403957 L451.930528,0.483079684 L353.453797,98.9598103 L352.812314,98.3183267 Z M357.454551,98.3183267 L455.931282,-0.158403957 L456.572765,0.483079684 L358.096035,98.9598103 L357.454551,98.3183267 Z M362.096789,98.3183267 L460.573519,-0.158403957 L461.215003,0.483079684 L362.738272,98.9598103 L362.096789,98.3183267 Z M366.739026,98.3183267 L465.215757,-0.158403957 L465.857241,0.483079684 L367.38051,98.9598103 L366.739026,98.3183267 Z M371.381264,98.3183267 L469.857995,-0.158403957 L470.499478,0.483079684 L372.022748,98.9598103 L371.381264,98.3183267 Z M376.023502,98.3183267 L474.500232,-0.158403957 L475.141716,0.483079684 L376.664985,98.9598103 L376.023502,98.3183267 Z M380.665739,98.3183267 L479.14247,-0.158403957 L479.783953,0.483079684 L381.307223,98.9598103 L380.665739,98.3183267 Z M385.307977,98.3183267 L483.784707,-0.158403957 L484.426191,0.483079684 L385.94946,98.9598103 L385.307977,98.3183267 Z M389.950214,98.3183267 L488.426945,-0.158403957 L489.068429,0.483079684 L390.591698,98.9598103 L389.950214,98.3183267 Z M394.592452,98.3183267 L493.069183,-0.158403957 L493.710666,0.483079684 L395.233936,98.9598103 L394.592452,98.3183267 Z M399.23469,98.3183267 L497.71142,-0.158403957 L498.352904,0.483079684 L399.876173,98.9598103 L399.23469,98.3183267 Z M403.876927,98.3183267 L502.353658,-0.158403957 L502.995141,0.483079684 L404.518411,98.9598103 L403.876927,98.3183267 Z"></path>
                                </g>
                            </g>
                        </g>
                    </g>
                </g>
                <g id="ready" transform="translate(86.100000, 168.300000)">
                    <circle id="Oval" fill="#0090FC" cx="9.702" cy="9.702" r="9.702"></circle>
                    <path d="M7.4844033,8.28759207 L11.9196086,8.28759207 L11.9196086,6.62439009 C11.9196086,5.40297613 10.9234199,4.40678744 9.70200595,4.40678744 C8.48059199,4.40678744 7.4844033,5.40297613 7.4844033,6.62439009 L7.4844033,8.28759207 Z M14.6916119,9.11919306 L14.6916119,14.108799 C14.6916119,14.5679121 14.319124,14.9404 13.8600109,14.9404 L5.54400099,14.9404 C5.08488794,14.9404 4.7124,14.5679121 4.7124,14.108799 L4.7124,9.11919306 C4.7124,8.66008001 5.08488794,8.28759207 5.54400099,8.28759207 L5.82120132,8.28759207 L5.82120132,6.62439009 C5.82120132,4.49341255 7.57102841,2.74358546 9.70200595,2.74358546 C11.8329835,2.74358546 13.5828106,4.49341255 13.5828106,6.62439009 L13.5828106,8.28759207 L13.8600109,8.28759207 C14.319124,8.28759207 14.6916119,8.66008001 14.6916119,9.11919306 Z" id="" fill="#FFFFFF"></path>
                </g>
                <g id="Group-4" transform="translate(121.800000, 165.300000)">
                    <mask id="mask-12" fill="white">
                        <use xlink:href="#path-11"></use>
                    </mask>
                    <path stroke="#BFD95D" stroke-width="0.924" d="M11.5179603,17.0389346 L11.6105335,15.3249736 C10.40721,14.1138444 9.65574031,12.5308455 9.52441866,10.8416809 L9.14538024,5.96618405 C8.86971625,2.42037228 11.5402167,-0.462 15.1043783,-0.462 L16.4207998,-0.462 C19.979516,-0.462 22.6550597,2.42554579 22.3797979,5.96618405 L22.0007595,10.8416809 C21.8687091,12.540218 21.1077274,14.1339632 19.890735,15.34846 L19.9820397,17.0389346 L28.6519026,19.6424263 C30.4928596,20.1952513 31.962,22.1630668 31.962,24.076828 L31.962,26.0479202 C31.962,27.1645667 31.0636332,28.062 29.9379101,28.062 L1.5620899,28.062 C0.44519429,28.062 -0.462,27.1601992 -0.462,26.0479202 L-0.462,24.076828 C-0.462,22.1603637 1.0031373,20.1964534 2.84809743,19.6424263 L11.5179603,17.0389346 Z"></path>
                    <g mask="url(#mask-12)">
                        <g transform="translate(-52.500000, -5.134884)">
                            <mask id="mask-14" fill="white">
                                <use xlink:href="#path-13"></use>
                            </mask>
                            <g id="Rectangle-11" stroke="none" fill="none"></g>
                            <g id="Group-3" stroke="none" stroke-width="1" fill="none" fill-rule="evenodd" mask="url(#mask-14)">
                                <g transform="translate(-224.108195, -43.181716)" fill="#BFD95D" id="Combined-Shape">
                                    <path d="M0.00225585679,98.3183267 L98.4789865,-0.158403957 L99.1204701,0.483079684 L0.643739498,98.9598103 L0.00225585679,98.3183267 Z M4.64449346,98.3183267 L103.121224,-0.158403957 L103.762708,0.483079684 L5.2859771,98.9598103 L4.64449346,98.3183267 Z M9.28673106,98.3183267 L107.763462,-0.158403957 L108.404945,0.483079684 L9.9282147,98.9598103 L9.28673106,98.3183267 Z M13.9289687,98.3183267 L112.405699,-0.158403957 L113.047183,0.483079684 L14.5704523,98.9598103 L13.9289687,98.3183267 Z M18.5712063,98.3183267 L117.047937,-0.158403957 L117.689421,0.483079684 L19.2126899,98.9598103 L18.5712063,98.3183267 Z M23.2134439,98.3183267 L121.690174,-0.158403957 L122.331658,0.483079684 L23.8549275,98.9598103 L23.2134439,98.3183267 Z M27.8556815,98.3183267 L126.332412,-0.158403957 L126.973896,0.483079684 L28.4971651,98.9598103 L27.8556815,98.3183267 Z M32.4979191,98.3183267 L130.97465,-0.158403957 L131.616133,0.483079684 L33.1394027,98.9598103 L32.4979191,98.3183267 Z M37.1401567,98.3183267 L135.616887,-0.158403957 L136.258371,0.483079684 L37.7816403,98.9598103 L37.1401567,98.3183267 Z M41.7823943,98.3183267 L140.259125,-0.158403957 L140.900609,0.483079684 L42.4238779,98.9598103 L41.7823943,98.3183267 Z M46.4246319,98.3183267 L144.901362,-0.158403957 L145.542846,0.483079684 L47.0661155,98.9598103 L46.4246319,98.3183267 Z M51.0668695,98.3183267 L149.5436,-0.158403957 L150.185084,0.483079684 L51.7083531,98.9598103 L51.0668695,98.3183267 Z M55.7091071,98.3183267 L154.185838,-0.158403957 L154.827321,0.483079684 L56.3505907,98.9598103 L55.7091071,98.3183267 Z M60.3513447,98.3183267 L158.828075,-0.158403957 L159.469559,0.483079684 L60.9928283,98.9598103 L60.3513447,98.3183267 Z M64.9935823,98.3183267 L163.470313,-0.158403957 L164.111797,0.483079684 L65.6350659,98.9598103 L64.9935823,98.3183267 Z M69.6358199,98.3183267 L168.11255,-0.158403957 L168.754034,0.483079684 L70.2773035,98.9598103 L69.6358199,98.3183267 Z M74.2780575,98.3183267 L172.754788,-0.158403957 L173.396272,0.483079684 L74.9195411,98.9598103 L74.2780575,98.3183267 Z M78.9202951,98.3183267 L177.397026,-0.158403957 L178.038509,0.483079684 L79.5617787,98.9598103 L78.9202951,98.3183267 Z M83.5625327,98.3183267 L182.039263,-0.158403957 L182.680747,0.483079684 L84.2040163,98.9598103 L83.5625327,98.3183267 Z M88.2047703,98.3183267 L186.681501,-0.158403957 L187.322985,0.483079684 L88.8462539,98.9598103 L88.2047703,98.3183267 Z M92.8470079,98.3183267 L191.323738,-0.158403957 L191.965222,0.483079684 L93.4884915,98.9598103 L92.8470079,98.3183267 Z M97.4892455,98.3183267 L195.965976,-0.158403957 L196.60746,0.483079684 L98.1307291,98.9598103 L97.4892455,98.3183267 Z M102.131483,98.3183267 L200.608214,-0.158403957 L201.249697,0.483079684 L102.772967,98.9598103 L102.131483,98.3183267 Z M106.773721,98.3183267 L205.250451,-0.158403957 L205.891935,0.483079684 L107.415204,98.9598103 L106.773721,98.3183267 Z M111.415958,98.3183267 L209.892689,-0.158403957 L210.534173,0.483079684 L112.057442,98.9598103 L111.415958,98.3183267 Z M116.058196,98.3183267 L214.534926,-0.158403957 L215.17641,0.483079684 L116.69968,98.9598103 L116.058196,98.3183267 Z M120.700433,98.3183267 L219.177164,-0.158403957 L219.818648,0.483079684 L121.341917,98.9598103 L120.700433,98.3183267 Z M125.342671,98.3183267 L223.819402,-0.158403957 L224.460885,0.483079684 L125.984155,98.9598103 L125.342671,98.3183267 Z M129.984909,98.3183267 L228.461639,-0.158403957 L229.103123,0.483079684 L130.626392,98.9598103 L129.984909,98.3183267 Z M134.627146,98.3183267 L233.103877,-0.158403957 L233.745361,0.483079684 L135.26863,98.9598103 L134.627146,98.3183267 Z M139.269384,98.3183267 L237.746114,-0.158403957 L238.387598,0.483079684 L139.910868,98.9598103 L139.269384,98.3183267 Z M143.911621,98.3183267 L242.388352,-0.158403957 L243.029836,0.483079684 L144.553105,98.9598103 L143.911621,98.3183267 Z M148.553859,98.3183267 L247.03059,-0.158403957 L247.672073,0.483079684 L149.195343,98.9598103 L148.553859,98.3183267 Z M153.196097,98.3183267 L251.672827,-0.158403957 L252.314311,0.483079684 L153.83758,98.9598103 L153.196097,98.3183267 Z M157.838334,98.3183267 L256.315065,-0.158403957 L256.956549,0.483079684 L158.479818,98.9598103 L157.838334,98.3183267 Z M162.480572,98.3183267 L260.957302,-0.158403957 L261.598786,0.483079684 L163.122056,98.9598103 L162.480572,98.3183267 Z M167.122809,98.3183267 L265.59954,-0.158403957 L266.241024,0.483079684 L167.764293,98.9598103 L167.122809,98.3183267 Z M171.765047,98.3183267 L270.241778,-0.158403957 L270.883261,0.483079684 L172.406531,98.9598103 L171.765047,98.3183267 Z M176.407285,98.3183267 L274.884015,-0.158403957 L275.525499,0.483079684 L177.048768,98.9598103 L176.407285,98.3183267 Z M181.049522,98.3183267 L279.526253,-0.158403957 L280.167737,0.483079684 L181.691006,98.9598103 L181.049522,98.3183267 Z M185.69176,98.3183267 L284.168491,-0.158403957 L284.809974,0.483079684 L186.333244,98.9598103 L185.69176,98.3183267 Z M190.333997,98.3183267 L288.810728,-0.158403957 L289.452212,0.483079684 L190.975481,98.9598103 L190.333997,98.3183267 Z M194.976235,98.3183267 L293.452966,-0.158403957 L294.094449,0.483079684 L195.617719,98.9598103 L194.976235,98.3183267 Z M199.618473,98.3183267 L298.095203,-0.158403957 L298.736687,0.483079684 L200.259956,98.9598103 L199.618473,98.3183267 Z M204.26071,98.3183267 L302.737441,-0.158403957 L303.378925,0.483079684 L204.902194,98.9598103 L204.26071,98.3183267 Z M208.902948,98.3183267 L307.379679,-0.158403957 L308.021162,0.483079684 L209.544432,98.9598103 L208.902948,98.3183267 Z M213.545185,98.3183267 L312.021916,-0.158403957 L312.6634,0.483079684 L214.186669,98.9598103 L213.545185,98.3183267 Z M218.187423,98.3183267 L316.664154,-0.158403957 L317.305637,0.483079684 L218.828907,98.9598103 L218.187423,98.3183267 Z M222.829661,98.3183267 L321.306391,-0.158403957 L321.947875,0.483079684 L223.471144,98.9598103 L222.829661,98.3183267 Z M227.471898,98.3183267 L325.948629,-0.158403957 L326.590113,0.483079684 L228.113382,98.9598103 L227.471898,98.3183267 Z M232.114136,98.3183267 L330.590867,-0.158403957 L331.23235,0.483079684 L232.75562,98.9598103 L232.114136,98.3183267 Z M236.756373,98.3183267 L335.233104,-0.158403957 L335.874588,0.483079684 L237.397857,98.9598103 L236.756373,98.3183267 Z M241.398611,98.3183267 L339.875342,-0.158403957 L340.516825,0.483079684 L242.040095,98.9598103 L241.398611,98.3183267 Z M246.040849,98.3183267 L344.517579,-0.158403957 L345.159063,0.483079684 L246.682332,98.9598103 L246.040849,98.3183267 Z M250.683086,98.3183267 L349.159817,-0.158403957 L349.801301,0.483079684 L251.32457,98.9598103 L250.683086,98.3183267 Z M255.325324,98.3183267 L353.802055,-0.158403957 L354.443538,0.483079684 L255.966808,98.9598103 L255.325324,98.3183267 Z M259.967561,98.3183267 L358.444292,-0.158403957 L359.085776,0.483079684 L260.609045,98.9598103 L259.967561,98.3183267 Z M264.609799,98.3183267 L363.08653,-0.158403957 L363.728013,0.483079684 L265.251283,98.9598103 L264.609799,98.3183267 Z M269.252037,98.3183267 L367.728767,-0.158403957 L368.370251,0.483079684 L269.89352,98.9598103 L269.252037,98.3183267 Z M273.894274,98.3183267 L372.371005,-0.158403957 L373.012489,0.483079684 L274.535758,98.9598103 L273.894274,98.3183267 Z M278.536512,98.3183267 L377.013243,-0.158403957 L377.654726,0.483079684 L279.177996,98.9598103 L278.536512,98.3183267 Z M283.178749,98.3183267 L381.65548,-0.158403957 L382.296964,0.483079684 L283.820233,98.9598103 L283.178749,98.3183267 Z M287.820987,98.3183267 L386.297718,-0.158403957 L386.939201,0.483079684 L288.462471,98.9598103 L287.820987,98.3183267 Z M292.463225,98.3183267 L390.939955,-0.158403957 L391.581439,0.483079684 L293.104708,98.9598103 L292.463225,98.3183267 Z M297.105462,98.3183267 L395.582193,-0.158403957 L396.223677,0.483079684 L297.746946,98.9598103 L297.105462,98.3183267 Z M301.7477,98.3183267 L400.224431,-0.158403957 L400.865914,0.483079684 L302.389184,98.9598103 L301.7477,98.3183267 Z M306.389937,98.3183267 L404.866668,-0.158403957 L405.508152,0.483079684 L307.031421,98.9598103 L306.389937,98.3183267 Z M311.032175,98.3183267 L409.508906,-0.158403957 L410.150389,0.483079684 L311.673659,98.9598103 L311.032175,98.3183267 Z M315.674413,98.3183267 L414.151143,-0.158403957 L414.792627,0.483079684 L316.315896,98.9598103 L315.674413,98.3183267 Z M320.31665,98.3183267 L418.793381,-0.158403957 L419.434865,0.483079684 L320.958134,98.9598103 L320.31665,98.3183267 Z M324.958888,98.3183267 L423.435619,-0.158403957 L424.077102,0.483079684 L325.600372,98.9598103 L324.958888,98.3183267 Z M329.601126,98.3183267 L428.077856,-0.158403957 L428.71934,0.483079684 L330.242609,98.9598103 L329.601126,98.3183267 Z M334.243363,98.3183267 L432.720094,-0.158403957 L433.361577,0.483079684 L334.884847,98.9598103 L334.243363,98.3183267 Z M338.885601,98.3183267 L437.362331,-0.158403957 L438.003815,0.483079684 L339.527084,98.9598103 L338.885601,98.3183267 Z M343.527838,98.3183267 L442.004569,-0.158403957 L442.646053,0.483079684 L344.169322,98.9598103 L343.527838,98.3183267 Z M348.170076,98.3183267 L446.646807,-0.158403957 L447.28829,0.483079684 L348.81156,98.9598103 L348.170076,98.3183267 Z M352.812314,98.3183267 L451.289044,-0.158403957 L451.930528,0.483079684 L353.453797,98.9598103 L352.812314,98.3183267 Z M357.454551,98.3183267 L455.931282,-0.158403957 L456.572765,0.483079684 L358.096035,98.9598103 L357.454551,98.3183267 Z M362.096789,98.3183267 L460.573519,-0.158403957 L461.215003,0.483079684 L362.738272,98.9598103 L362.096789,98.3183267 Z M366.739026,98.3183267 L465.215757,-0.158403957 L465.857241,0.483079684 L367.38051,98.9598103 L366.739026,98.3183267 Z M371.381264,98.3183267 L469.857995,-0.158403957 L470.499478,0.483079684 L372.022748,98.9598103 L371.381264,98.3183267 Z M376.023502,98.3183267 L474.500232,-0.158403957 L475.141716,0.483079684 L376.664985,98.9598103 L376.023502,98.3183267 Z M380.665739,98.3183267 L479.14247,-0.158403957 L479.783953,0.483079684 L381.307223,98.9598103 L380.665739,98.3183267 Z M385.307977,98.3183267 L483.784707,-0.158403957 L484.426191,0.483079684 L385.94946,98.9598103 L385.307977,98.3183267 Z M389.950214,98.3183267 L488.426945,-0.158403957 L489.068429,0.483079684 L390.591698,98.9598103 L389.950214,98.3183267 Z M394.592452,98.3183267 L493.069183,-0.158403957 L493.710666,0.483079684 L395.233936,98.9598103 L394.592452,98.3183267 Z M399.23469,98.3183267 L497.71142,-0.158403957 L498.352904,0.483079684 L399.876173,98.9598103 L399.23469,98.3183267 Z M403.876927,98.3183267 L502.353658,-0.158403957 L502.995141,0.483079684 L404.518411,98.9598103 L403.876927,98.3183267 Z"></path>
                                </g>
                            </g>
                        </g>
                    </g>
                </g>
                <g id="ready" transform="translate(128.100000, 186.300000)">
                    <circle id="Oval" fill="#0090FC" cx="9.702" cy="9.702" r="9.702"></circle>
                    <path d="M7.4844033,8.28759207 L11.9196086,8.28759207 L11.9196086,6.62439009 C11.9196086,5.40297613 10.9234199,4.40678744 9.70200595,4.40678744 C8.48059199,4.40678744 7.4844033,5.40297613 7.4844033,6.62439009 L7.4844033,8.28759207 Z M14.6916119,9.11919306 L14.6916119,14.108799 C14.6916119,14.5679121 14.319124,14.9404 13.8600109,14.9404 L5.54400099,14.9404 C5.08488794,14.9404 4.7124,14.5679121 4.7124,14.108799 L4.7124,9.11919306 C4.7124,8.66008001 5.08488794,8.28759207 5.54400099,8.28759207 L5.82120132,8.28759207 L5.82120132,6.62439009 C5.82120132,4.49341255 7.57102841,2.74358546 9.70200595,2.74358546 C11.8329835,2.74358546 13.5828106,4.49341255 13.5828106,6.62439009 L13.5828106,8.28759207 L13.8600109,8.28759207 C14.319124,8.28759207 14.6916119,8.66008001 14.6916119,9.11919306 Z" id="" fill="#FFFFFF"></path>
                </g>
                <g id="Group-4" transform="translate(162.600000, 153.300000)">
                    <mask id="mask-16" fill="white">
                        <use xlink:href="#path-15"></use>
                    </mask>
                    <path stroke="#BFD95D" stroke-width="0.924" d="M11.5179603,17.0389346 L11.6105335,15.3249736 C10.40721,14.1138444 9.65574031,12.5308455 9.52441866,10.8416809 L9.14538024,5.96618405 C8.86971625,2.42037228 11.5402167,-0.462 15.1043783,-0.462 L16.4207998,-0.462 C19.979516,-0.462 22.6550597,2.42554579 22.3797979,5.96618405 L22.0007595,10.8416809 C21.8687091,12.540218 21.1077274,14.1339632 19.890735,15.34846 L19.9820397,17.0389346 L28.6519026,19.6424263 C30.4928596,20.1952513 31.962,22.1630668 31.962,24.076828 L31.962,26.0479202 C31.962,27.1645667 31.0636332,28.062 29.9379101,28.062 L1.5620899,28.062 C0.44519429,28.062 -0.462,27.1601992 -0.462,26.0479202 L-0.462,24.076828 C-0.462,22.1603637 1.0031373,20.1964534 2.84809743,19.6424263 L11.5179603,17.0389346 Z"></path>
                    <g mask="url(#mask-16)">
                        <g transform="translate(-52.500000, -5.134884)">
                            <mask id="mask-18" fill="white">
                                <use xlink:href="#path-17"></use>
                            </mask>
                            <g id="Rectangle-11" stroke="none" fill="none"></g>
                            <g id="Group-3" stroke="none" stroke-width="1" fill="none" fill-rule="evenodd" mask="url(#mask-18)">
                                <g transform="translate(-224.108195, -43.181716)" fill="#BFD95D" id="Combined-Shape">
                                    <path d="M0.00225585679,98.3183267 L98.4789865,-0.158403957 L99.1204701,0.483079684 L0.643739498,98.9598103 L0.00225585679,98.3183267 Z M4.64449346,98.3183267 L103.121224,-0.158403957 L103.762708,0.483079684 L5.2859771,98.9598103 L4.64449346,98.3183267 Z M9.28673106,98.3183267 L107.763462,-0.158403957 L108.404945,0.483079684 L9.9282147,98.9598103 L9.28673106,98.3183267 Z M13.9289687,98.3183267 L112.405699,-0.158403957 L113.047183,0.483079684 L14.5704523,98.9598103 L13.9289687,98.3183267 Z M18.5712063,98.3183267 L117.047937,-0.158403957 L117.689421,0.483079684 L19.2126899,98.9598103 L18.5712063,98.3183267 Z M23.2134439,98.3183267 L121.690174,-0.158403957 L122.331658,0.483079684 L23.8549275,98.9598103 L23.2134439,98.3183267 Z M27.8556815,98.3183267 L126.332412,-0.158403957 L126.973896,0.483079684 L28.4971651,98.9598103 L27.8556815,98.3183267 Z M32.4979191,98.3183267 L130.97465,-0.158403957 L131.616133,0.483079684 L33.1394027,98.9598103 L32.4979191,98.3183267 Z M37.1401567,98.3183267 L135.616887,-0.158403957 L136.258371,0.483079684 L37.7816403,98.9598103 L37.1401567,98.3183267 Z M41.7823943,98.3183267 L140.259125,-0.158403957 L140.900609,0.483079684 L42.4238779,98.9598103 L41.7823943,98.3183267 Z M46.4246319,98.3183267 L144.901362,-0.158403957 L145.542846,0.483079684 L47.0661155,98.9598103 L46.4246319,98.3183267 Z M51.0668695,98.3183267 L149.5436,-0.158403957 L150.185084,0.483079684 L51.7083531,98.9598103 L51.0668695,98.3183267 Z M55.7091071,98.3183267 L154.185838,-0.158403957 L154.827321,0.483079684 L56.3505907,98.9598103 L55.7091071,98.3183267 Z M60.3513447,98.3183267 L158.828075,-0.158403957 L159.469559,0.483079684 L60.9928283,98.9598103 L60.3513447,98.3183267 Z M64.9935823,98.3183267 L163.470313,-0.158403957 L164.111797,0.483079684 L65.6350659,98.9598103 L64.9935823,98.3183267 Z M69.6358199,98.3183267 L168.11255,-0.158403957 L168.754034,0.483079684 L70.2773035,98.9598103 L69.6358199,98.3183267 Z M74.2780575,98.3183267 L172.754788,-0.158403957 L173.396272,0.483079684 L74.9195411,98.9598103 L74.2780575,98.3183267 Z M78.9202951,98.3183267 L177.397026,-0.158403957 L178.038509,0.483079684 L79.5617787,98.9598103 L78.9202951,98.3183267 Z M83.5625327,98.3183267 L182.039263,-0.158403957 L182.680747,0.483079684 L84.2040163,98.9598103 L83.5625327,98.3183267 Z M88.2047703,98.3183267 L186.681501,-0.158403957 L187.322985,0.483079684 L88.8462539,98.9598103 L88.2047703,98.3183267 Z M92.8470079,98.3183267 L191.323738,-0.158403957 L191.965222,0.483079684 L93.4884915,98.9598103 L92.8470079,98.3183267 Z M97.4892455,98.3183267 L195.965976,-0.158403957 L196.60746,0.483079684 L98.1307291,98.9598103 L97.4892455,98.3183267 Z M102.131483,98.3183267 L200.608214,-0.158403957 L201.249697,0.483079684 L102.772967,98.9598103 L102.131483,98.3183267 Z M106.773721,98.3183267 L205.250451,-0.158403957 L205.891935,0.483079684 L107.415204,98.9598103 L106.773721,98.3183267 Z M111.415958,98.3183267 L209.892689,-0.158403957 L210.534173,0.483079684 L112.057442,98.9598103 L111.415958,98.3183267 Z M116.058196,98.3183267 L214.534926,-0.158403957 L215.17641,0.483079684 L116.69968,98.9598103 L116.058196,98.3183267 Z M120.700433,98.3183267 L219.177164,-0.158403957 L219.818648,0.483079684 L121.341917,98.9598103 L120.700433,98.3183267 Z M125.342671,98.3183267 L223.819402,-0.158403957 L224.460885,0.483079684 L125.984155,98.9598103 L125.342671,98.3183267 Z M129.984909,98.3183267 L228.461639,-0.158403957 L229.103123,0.483079684 L130.626392,98.9598103 L129.984909,98.3183267 Z M134.627146,98.3183267 L233.103877,-0.158403957 L233.745361,0.483079684 L135.26863,98.9598103 L134.627146,98.3183267 Z M139.269384,98.3183267 L237.746114,-0.158403957 L238.387598,0.483079684 L139.910868,98.9598103 L139.269384,98.3183267 Z M143.911621,98.3183267 L242.388352,-0.158403957 L243.029836,0.483079684 L144.553105,98.9598103 L143.911621,98.3183267 Z M148.553859,98.3183267 L247.03059,-0.158403957 L247.672073,0.483079684 L149.195343,98.9598103 L148.553859,98.3183267 Z M153.196097,98.3183267 L251.672827,-0.158403957 L252.314311,0.483079684 L153.83758,98.9598103 L153.196097,98.3183267 Z M157.838334,98.3183267 L256.315065,-0.158403957 L256.956549,0.483079684 L158.479818,98.9598103 L157.838334,98.3183267 Z M162.480572,98.3183267 L260.957302,-0.158403957 L261.598786,0.483079684 L163.122056,98.9598103 L162.480572,98.3183267 Z M167.122809,98.3183267 L265.59954,-0.158403957 L266.241024,0.483079684 L167.764293,98.9598103 L167.122809,98.3183267 Z M171.765047,98.3183267 L270.241778,-0.158403957 L270.883261,0.483079684 L172.406531,98.9598103 L171.765047,98.3183267 Z M176.407285,98.3183267 L274.884015,-0.158403957 L275.525499,0.483079684 L177.048768,98.9598103 L176.407285,98.3183267 Z M181.049522,98.3183267 L279.526253,-0.158403957 L280.167737,0.483079684 L181.691006,98.9598103 L181.049522,98.3183267 Z M185.69176,98.3183267 L284.168491,-0.158403957 L284.809974,0.483079684 L186.333244,98.9598103 L185.69176,98.3183267 Z M190.333997,98.3183267 L288.810728,-0.158403957 L289.452212,0.483079684 L190.975481,98.9598103 L190.333997,98.3183267 Z M194.976235,98.3183267 L293.452966,-0.158403957 L294.094449,0.483079684 L195.617719,98.9598103 L194.976235,98.3183267 Z M199.618473,98.3183267 L298.095203,-0.158403957 L298.736687,0.483079684 L200.259956,98.9598103 L199.618473,98.3183267 Z M204.26071,98.3183267 L302.737441,-0.158403957 L303.378925,0.483079684 L204.902194,98.9598103 L204.26071,98.3183267 Z M208.902948,98.3183267 L307.379679,-0.158403957 L308.021162,0.483079684 L209.544432,98.9598103 L208.902948,98.3183267 Z M213.545185,98.3183267 L312.021916,-0.158403957 L312.6634,0.483079684 L214.186669,98.9598103 L213.545185,98.3183267 Z M218.187423,98.3183267 L316.664154,-0.158403957 L317.305637,0.483079684 L218.828907,98.9598103 L218.187423,98.3183267 Z M222.829661,98.3183267 L321.306391,-0.158403957 L321.947875,0.483079684 L223.471144,98.9598103 L222.829661,98.3183267 Z M227.471898,98.3183267 L325.948629,-0.158403957 L326.590113,0.483079684 L228.113382,98.9598103 L227.471898,98.3183267 Z M232.114136,98.3183267 L330.590867,-0.158403957 L331.23235,0.483079684 L232.75562,98.9598103 L232.114136,98.3183267 Z M236.756373,98.3183267 L335.233104,-0.158403957 L335.874588,0.483079684 L237.397857,98.9598103 L236.756373,98.3183267 Z M241.398611,98.3183267 L339.875342,-0.158403957 L340.516825,0.483079684 L242.040095,98.9598103 L241.398611,98.3183267 Z M246.040849,98.3183267 L344.517579,-0.158403957 L345.159063,0.483079684 L246.682332,98.9598103 L246.040849,98.3183267 Z M250.683086,98.3183267 L349.159817,-0.158403957 L349.801301,0.483079684 L251.32457,98.9598103 L250.683086,98.3183267 Z M255.325324,98.3183267 L353.802055,-0.158403957 L354.443538,0.483079684 L255.966808,98.9598103 L255.325324,98.3183267 Z M259.967561,98.3183267 L358.444292,-0.158403957 L359.085776,0.483079684 L260.609045,98.9598103 L259.967561,98.3183267 Z M264.609799,98.3183267 L363.08653,-0.158403957 L363.728013,0.483079684 L265.251283,98.9598103 L264.609799,98.3183267 Z M269.252037,98.3183267 L367.728767,-0.158403957 L368.370251,0.483079684 L269.89352,98.9598103 L269.252037,98.3183267 Z M273.894274,98.3183267 L372.371005,-0.158403957 L373.012489,0.483079684 L274.535758,98.9598103 L273.894274,98.3183267 Z M278.536512,98.3183267 L377.013243,-0.158403957 L377.654726,0.483079684 L279.177996,98.9598103 L278.536512,98.3183267 Z M283.178749,98.3183267 L381.65548,-0.158403957 L382.296964,0.483079684 L283.820233,98.9598103 L283.178749,98.3183267 Z M287.820987,98.3183267 L386.297718,-0.158403957 L386.939201,0.483079684 L288.462471,98.9598103 L287.820987,98.3183267 Z M292.463225,98.3183267 L390.939955,-0.158403957 L391.581439,0.483079684 L293.104708,98.9598103 L292.463225,98.3183267 Z M297.105462,98.3183267 L395.582193,-0.158403957 L396.223677,0.483079684 L297.746946,98.9598103 L297.105462,98.3183267 Z M301.7477,98.3183267 L400.224431,-0.158403957 L400.865914,0.483079684 L302.389184,98.9598103 L301.7477,98.3183267 Z M306.389937,98.3183267 L404.866668,-0.158403957 L405.508152,0.483079684 L307.031421,98.9598103 L306.389937,98.3183267 Z M311.032175,98.3183267 L409.508906,-0.158403957 L410.150389,0.483079684 L311.673659,98.9598103 L311.032175,98.3183267 Z M315.674413,98.3183267 L414.151143,-0.158403957 L414.792627,0.483079684 L316.315896,98.9598103 L315.674413,98.3183267 Z M320.31665,98.3183267 L418.793381,-0.158403957 L419.434865,0.483079684 L320.958134,98.9598103 L320.31665,98.3183267 Z M324.958888,98.3183267 L423.435619,-0.158403957 L424.077102,0.483079684 L325.600372,98.9598103 L324.958888,98.3183267 Z M329.601126,98.3183267 L428.077856,-0.158403957 L428.71934,0.483079684 L330.242609,98.9598103 L329.601126,98.3183267 Z M334.243363,98.3183267 L432.720094,-0.158403957 L433.361577,0.483079684 L334.884847,98.9598103 L334.243363,98.3183267 Z M338.885601,98.3183267 L437.362331,-0.158403957 L438.003815,0.483079684 L339.527084,98.9598103 L338.885601,98.3183267 Z M343.527838,98.3183267 L442.004569,-0.158403957 L442.646053,0.483079684 L344.169322,98.9598103 L343.527838,98.3183267 Z M348.170076,98.3183267 L446.646807,-0.158403957 L447.28829,0.483079684 L348.81156,98.9598103 L348.170076,98.3183267 Z M352.812314,98.3183267 L451.289044,-0.158403957 L451.930528,0.483079684 L353.453797,98.9598103 L352.812314,98.3183267 Z M357.454551,98.3183267 L455.931282,-0.158403957 L456.572765,0.483079684 L358.096035,98.9598103 L357.454551,98.3183267 Z M362.096789,98.3183267 L460.573519,-0.158403957 L461.215003,0.483079684 L362.738272,98.9598103 L362.096789,98.3183267 Z M366.739026,98.3183267 L465.215757,-0.158403957 L465.857241,0.483079684 L367.38051,98.9598103 L366.739026,98.3183267 Z M371.381264,98.3183267 L469.857995,-0.158403957 L470.499478,0.483079684 L372.022748,98.9598103 L371.381264,98.3183267 Z M376.023502,98.3183267 L474.500232,-0.158403957 L475.141716,0.483079684 L376.664985,98.9598103 L376.023502,98.3183267 Z M380.665739,98.3183267 L479.14247,-0.158403957 L479.783953,0.483079684 L381.307223,98.9598103 L380.665739,98.3183267 Z M385.307977,98.3183267 L483.784707,-0.158403957 L484.426191,0.483079684 L385.94946,98.9598103 L385.307977,98.3183267 Z M389.950214,98.3183267 L488.426945,-0.158403957 L489.068429,0.483079684 L390.591698,98.9598103 L389.950214,98.3183267 Z M394.592452,98.3183267 L493.069183,-0.158403957 L493.710666,0.483079684 L395.233936,98.9598103 L394.592452,98.3183267 Z M399.23469,98.3183267 L497.71142,-0.158403957 L498.352904,0.483079684 L399.876173,98.9598103 L399.23469,98.3183267 Z M403.876927,98.3183267 L502.353658,-0.158403957 L502.995141,0.483079684 L404.518411,98.9598103 L403.876927,98.3183267 Z"></path>
                                </g>
                            </g>
                        </g>
                    </g>
                </g>
                <g id="ready" transform="translate(168.900000, 174.300000)">
                    <circle id="Oval" fill="#0090FC" cx="9.702" cy="9.702" r="9.702"></circle>
                    <path d="M7.4844033,8.28759207 L11.9196086,8.28759207 L11.9196086,6.62439009 C11.9196086,5.40297613 10.9234199,4.40678744 9.70200595,4.40678744 C8.48059199,4.40678744 7.4844033,5.40297613 7.4844033,6.62439009 L7.4844033,8.28759207 Z M14.6916119,9.11919306 L14.6916119,14.108799 C14.6916119,14.5679121 14.319124,14.9404 13.8600109,14.9404 L5.54400099,14.9404 C5.08488794,14.9404 4.7124,14.5679121 4.7124,14.108799 L4.7124,9.11919306 C4.7124,8.66008001 5.08488794,8.28759207 5.54400099,8.28759207 L5.82120132,8.28759207 L5.82120132,6.62439009 C5.82120132,4.49341255 7.57102841,2.74358546 9.70200595,2.74358546 C11.8329835,2.74358546 13.5828106,4.49341255 13.5828106,6.62439009 L13.5828106,8.28759207 L13.8600109,8.28759207 C14.319124,8.28759207 14.6916119,8.66008001 14.6916119,9.11919306 Z" id="" fill="#FFFFFF"></path>
                </g>
            </g>
        </g>
    </g>
</svg>